<?xml version="1.0" encoding="utf-8" standalone="no"?>
<!DOCTYPE svg PUBLIC "-//W3C//DTD SVG 1.1//EN"
  "http://www.w3.org/Graphics/SVG/1.1/DTD/svg11.dtd">
<svg xmlns:xlink="http://www.w3.org/1999/xlink" width="432pt" height="288pt" viewBox="0 0 432 288" xmlns="http://www.w3.org/2000/svg" version="1.1">
 <metadata>
  <rdf:RDF xmlns:dc="http://purl.org/dc/elements/1.1/" xmlns:cc="http://creativecommons.org/ns#" xmlns:rdf="http://www.w3.org/1999/02/22-rdf-syntax-ns#">
   <cc:Work>
    <dc:type rdf:resource="http://purl.org/dc/dcmitype/StillImage"/>
    <dc:date>2025-02-06T15:55:14.807098</dc:date>
    <dc:format>image/svg+xml</dc:format>
    <dc:creator>
     <cc:Agent>
      <dc:title>Matplotlib v3.9.4, https://matplotlib.org/</dc:title>
     </cc:Agent>
    </dc:creator>
   </cc:Work>
  </rdf:RDF>
 </metadata>
 <defs>
  <style type="text/css">*{stroke-linejoin: round; stroke-linecap: butt}</style>
 </defs>
 <g id="figure_1">
  <g id="patch_1">
   <path d="M 0 288 
L 432 288 
L 432 0 
L 0 0 
z
" style="fill: #ffffff"/>
  </g>
  <g id="axes_1">
   <g id="patch_2">
    <path d="M 94.2376 246.04 
L 325.5176 246.04 
L 325.5176 14.76 
L 94.2376 14.76 
z
" style="fill: #ffffff"/>
   </g>
   <g id="PathCollection_1">
    <defs>
     <path id="m12ba607d34" d="M 103.858728 -54.132629 
L 105.778773 -66.305264 
L 99.684319 -78.477899 
L 102.087992 -90.650528 
L 106.410229 -98.851294 
L 109.983478 -102.823157 
L 106.410229 -107.869056 
L 105.421522 -114.995792 
L 105.149061 -127.168424 
L 106.410229 -132.077572 
L 111.6185 -139.341056 
L 106.410229 -144.726926 
L 103.276805 -151.513688 
L 101.059292 -163.686312 
L 103.755751 -175.858944 
L 104.995346 -188.031576 
L 106.410229 -193.253383 
L 114.255662 -200.204208 
L 106.410229 -205.686868 
L 103.266599 -212.376843 
L 97.319931 -224.549472 
L 97.207014 -236.722101 
L 97.453611 -248.894736 
L 98.187872 -261.067371 
L 106.410229 -266.408509 
L 118.582864 -262.617569 
L 130.755499 -261.865652 
L 142.928128 -261.940933 
L 144.232544 -261.067371 
L 152.713706 -248.894736 
L 155.100757 -247.173859 
L 160.453967 -248.894736 
L 167.273392 -251.840515 
L 176.160577 -261.067371 
L 179.446024 -261.523464 
L 191.618656 -263.740486 
L 203.791288 -264.803488 
L 215.963912 -267.243688 
L 228.136544 -270.730093 
L 240.309176 -267.261522 
L 252.481808 -265.160721 
L 264.654443 -266.814319 
L 276.827072 -270.907389 
L 288.999701 -272.241811 
L 301.172336 -271.898479 
L 313.344971 -271.071171 
L 322.090392 -261.067371 
L 322.396023 -248.894736 
L 322.646655 -236.722101 
L 322.568336 -224.549472 
L 322.671305 -212.376843 
L 320.859277 -200.204208 
L 317.238425 -188.031576 
L 320.860866 -175.858944 
L 322.679527 -163.686312 
L 320.737356 -151.513688 
L 313.344971 -141.371358 
L 310.659308 -139.341056 
L 305.118269 -127.168424 
L 310.444921 -114.995792 
L 313.344971 -112.389953 
L 319.981293 -102.823157 
L 313.344971 -92.090725 
L 301.172336 -95.67549 
L 295.477823 -90.650528 
L 291.960979 -78.477899 
L 300.123565 -66.305264 
L 301.172336 -65.271277 
L 313.344971 -60.704923 
L 319.984421 -54.132629 
L 313.344971 -45.01282 
L 301.172336 -44.510739 
L 288.999701 -48.022363 
L 276.827072 -50.6056 
L 264.654443 -49.196694 
L 252.481808 -46.181108 
L 240.309176 -47.972957 
L 228.136544 -44.722064 
L 215.963912 -42.830327 
L 203.791288 -43.074473 
L 191.618656 -42.843747 
L 179.446024 -43.798432 
L 167.273392 -48.472701 
L 155.100757 -52.576055 
L 147.225624 -54.132629 
L 155.100757 -61.06021 
L 157.555281 -66.305264 
L 155.100757 -70.449133 
L 142.928128 -71.805034 
L 130.755499 -66.468804 
L 125.818554 -66.305264 
L 118.582864 -65.959836 
L 108.994041 -54.132629 
L 106.410229 -50.504398 
z
M 130.755499 -198.292368 
L 142.928128 -199.090167 
L 143.967655 -200.204208 
L 142.928128 -201.562146 
L 130.755499 -202.093866 
L 126.518799 -200.204208 
z
M 155.100757 -92.669657 
L 158.787262 -102.823157 
L 155.100757 -106.918646 
L 149.365615 -102.823157 
z
M 155.100757 -151.340474 
L 155.938851 -151.513688 
L 155.100757 -155.350362 
L 154.855564 -151.513688 
z
M 191.618656 -176.072677 
L 198.29168 -188.031576 
L 191.618656 -200.033988 
L 184.898343 -188.031576 
z
M 203.791288 -127.640722 
L 204.156899 -127.168424 
L 215.963912 -118.361807 
L 228.136544 -119.002424 
L 239.851301 -114.995792 
L 228.136544 -110.364711 
L 215.963912 -106.447058 
L 214.0114 -102.823157 
L 215.963912 -100.581058 
L 226.956877 -90.650528 
L 228.136544 -89.438267 
L 239.342734 -78.477899 
L 240.309176 -77.316801 
L 252.481808 -75.196056 
L 262.968967 -66.305264 
L 264.654443 -65.659148 
L 265.39315 -66.305264 
L 265.682752 -78.477899 
L 264.654443 -79.374984 
L 252.840349 -90.650528 
L 256.53628 -102.823157 
L 255.848176 -114.995792 
L 252.481808 -119.215768 
L 242.037943 -127.168424 
L 240.309176 -129.502652 
L 237.447484 -139.341056 
L 228.136544 -147.500791 
L 215.963912 -149.44525 
L 203.791288 -145.785559 
L 197.247407 -139.341056 
z
M 240.309176 -171.519973 
L 252.424818 -163.686312 
L 252.481808 -163.667555 
L 252.527914 -163.686312 
L 264.654443 -166.620484 
L 272.550955 -175.858944 
L 276.827072 -183.502859 
L 279.542212 -188.031576 
L 284.190038 -200.204208 
L 285.503052 -212.376843 
L 288.999701 -217.104521 
L 294.810177 -224.549472 
L 292.591573 -236.722101 
L 288.999701 -242.207425 
L 282.882049 -248.894736 
L 276.827072 -253.309661 
L 265.238684 -248.894736 
L 264.654443 -248.683078 
L 254.078538 -236.722101 
L 252.481808 -234.348367 
L 243.917743 -224.549472 
L 240.309176 -212.546749 
L 240.166896 -212.376843 
L 240.309176 -212.25258 
L 245.393771 -200.204208 
L 241.661333 -188.031576 
L 240.309176 -182.313505 
L 238.77511 -175.858944 
z
" style="stroke: #472d7b"/>
    </defs>
    <g clip-path="url(#p655267e3b7)">
     <use xlink:href="#m12ba607d34" x="0" y="288" style="fill: #472d7b; stroke: #472d7b"/>
    </g>
   </g>
   <g id="PathCollection_2">
    <defs>
     <path id="m148ad08aee" d="M 94.2376 -54.132629 
L 94.2376 -66.305264 
L 94.2376 -78.477899 
L 94.2376 -90.650528 
L 94.2376 -97.060842 
L 98.473181 -102.823157 
L 99.983746 -114.995792 
L 99.731811 -127.168424 
L 102.742526 -139.341056 
L 96.057767 -151.513688 
L 94.2376 -163.122358 
L 94.2376 -163.686312 
L 94.2376 -163.864037 
L 98.545141 -175.858944 
L 99.624083 -188.031576 
L 102.722585 -200.204208 
L 95.919112 -212.376843 
L 94.2376 -215.420903 
L 94.2376 -224.549472 
L 94.2376 -236.722101 
L 94.2376 -248.894736 
L 94.2376 -261.067371 
L 94.2376 -266.533344 
L 105.444509 -273.24 
L 106.410229 -273.24 
L 107.588422 -273.24 
L 118.582864 -269.088668 
L 130.755499 -271.753584 
L 133.631886 -273.24 
L 142.928128 -273.24 
L 149.236559 -273.24 
L 155.100757 -268.333384 
L 167.273392 -264.183891 
L 179.446024 -265.481172 
L 191.618656 -268.564628 
L 203.791288 -270.312442 
L 212.616453 -273.24 
L 215.963912 -273.24 
L 228.136544 -273.24 
L 240.309176 -273.24 
L 244.778801 -273.24 
L 252.481808 -271.101811 
L 260.18823 -273.24 
L 264.654443 -273.24 
L 276.827072 -273.24 
L 288.999701 -273.24 
L 301.172336 -273.24 
L 313.344971 -273.24 
L 319.726209 -273.24 
L 325.5176 -266.804149 
L 325.5176 -261.067371 
L 325.5176 -248.894736 
L 325.5176 -236.722101 
L 325.5176 -224.549472 
L 325.5176 -212.376843 
L 325.5176 -200.204208 
L 325.5176 -188.031576 
L 325.5176 -175.858944 
L 325.5176 -163.686312 
L 325.5176 -151.513688 
L 325.5176 -139.341056 
L 325.5176 -130.930555 
L 323.936781 -127.168424 
L 325.5176 -122.924281 
L 325.5176 -114.995792 
L 325.5176 -102.823157 
L 325.5176 -90.650528 
L 325.5176 -78.477899 
L 325.5176 -66.305264 
L 325.5176 -54.132629 
L 325.5176 -49.174902 
L 319.652829 -41.96 
L 313.344971 -41.96 
L 301.172336 -41.96 
L 288.999701 -41.96 
L 284.880968 -41.96 
L 276.827072 -44.258757 
L 269.156276 -41.96 
L 264.654443 -41.96 
L 252.481808 -41.96 
L 240.309176 -41.96 
L 228.136544 -41.96 
L 215.963912 -41.96 
L 203.791288 -41.96 
L 191.618656 -41.96 
L 179.446024 -41.96 
L 167.273392 -41.96 
L 162.867351 -41.96 
L 155.100757 -44.717404 
L 145.37998 -41.96 
L 142.928128 -41.96 
L 130.755499 -41.96 
L 118.582864 -41.96 
L 106.410229 -41.96 
L 100.585866 -41.96 
L 94.2376 -49.275436 
z
M 106.410229 -50.504398 
L 108.994041 -54.132629 
L 118.582864 -65.959836 
L 125.818554 -66.305264 
L 130.755499 -66.468804 
L 142.928128 -71.805034 
L 155.100757 -70.449133 
L 157.555281 -66.305264 
L 155.100757 -61.06021 
L 147.225624 -54.132629 
L 155.100757 -52.576055 
L 167.273392 -48.472701 
L 179.446024 -43.798432 
L 191.618656 -42.843747 
L 203.791288 -43.074473 
L 215.963912 -42.830327 
L 228.136544 -44.722064 
L 240.309176 -47.972957 
L 252.481808 -46.181108 
L 264.654443 -49.196694 
L 276.827072 -50.6056 
L 288.999701 -48.022363 
L 301.172336 -44.510739 
L 313.344971 -45.01282 
L 319.984421 -54.132629 
L 313.344971 -60.704923 
L 301.172336 -65.271277 
L 300.123565 -66.305264 
L 291.960979 -78.477899 
L 295.477823 -90.650528 
L 301.172336 -95.67549 
L 313.344971 -92.090725 
L 319.981293 -102.823157 
L 313.344971 -112.389953 
L 310.444921 -114.995792 
L 305.118269 -127.168424 
L 310.659308 -139.341056 
L 313.344971 -141.371358 
L 320.737356 -151.513688 
L 322.679527 -163.686312 
L 320.860866 -175.858944 
L 317.238425 -188.031576 
L 320.859277 -200.204208 
L 322.671305 -212.376843 
L 322.568336 -224.549472 
L 322.646655 -236.722101 
L 322.396023 -248.894736 
L 322.090392 -261.067371 
L 313.344971 -271.071171 
L 301.172336 -271.898479 
L 288.999701 -272.241811 
L 276.827072 -270.907389 
L 264.654443 -266.814319 
L 252.481808 -265.160721 
L 240.309176 -267.261522 
L 228.136544 -270.730093 
L 215.963912 -267.243688 
L 203.791288 -264.803488 
L 191.618656 -263.740486 
L 179.446024 -261.523464 
L 176.160577 -261.067371 
L 167.273392 -251.840515 
L 160.453967 -248.894736 
L 155.100757 -247.173859 
L 152.713706 -248.894736 
L 144.232544 -261.067371 
L 142.928128 -261.940933 
L 130.755499 -261.865652 
L 118.582864 -262.617569 
L 106.410229 -266.408509 
L 98.187872 -261.067371 
L 97.453611 -248.894736 
L 97.207014 -236.722101 
L 97.319931 -224.549472 
L 103.266599 -212.376843 
L 106.410229 -205.686868 
L 114.255662 -200.204208 
L 106.410229 -193.253383 
L 104.995346 -188.031576 
L 103.755751 -175.858944 
L 101.059292 -163.686312 
L 103.276805 -151.513688 
L 106.410229 -144.726926 
L 111.6185 -139.341056 
L 106.410229 -132.077572 
L 105.149061 -127.168424 
L 105.421522 -114.995792 
L 106.410229 -107.869056 
L 109.983478 -102.823157 
L 106.410229 -98.851294 
L 102.087992 -90.650528 
L 99.684319 -78.477899 
L 105.778773 -66.305264 
L 103.858728 -54.132629 
z
M 301.172336 -78.298152 
L 313.344971 -76.802056 
L 320.727072 -78.477899 
L 313.344971 -79.445007 
L 301.172336 -78.748606 
L 301.045826 -78.477899 
z
M 126.518799 -200.204208 
L 130.755499 -202.093866 
L 142.928128 -201.562146 
L 143.967655 -200.204208 
L 142.928128 -199.090167 
L 130.755499 -198.292368 
z
M 149.365615 -102.823157 
L 155.100757 -106.918646 
L 158.787262 -102.823157 
L 155.100757 -92.669657 
z
M 154.855564 -151.513688 
L 155.100757 -155.350362 
L 155.938851 -151.513688 
L 155.100757 -151.340474 
z
M 184.898343 -188.031576 
L 191.618656 -200.033988 
L 198.29168 -188.031576 
L 191.618656 -176.072677 
z
M 197.247407 -139.341056 
L 203.791288 -145.785559 
L 215.963912 -149.44525 
L 228.136544 -147.500791 
L 237.447484 -139.341056 
L 240.309176 -129.502652 
L 242.037943 -127.168424 
L 252.481808 -119.215768 
L 255.848176 -114.995792 
L 256.53628 -102.823157 
L 252.840349 -90.650528 
L 264.654443 -79.374984 
L 265.682752 -78.477899 
L 265.39315 -66.305264 
L 264.654443 -65.659148 
L 262.968967 -66.305264 
L 252.481808 -75.196056 
L 240.309176 -77.316801 
L 239.342734 -78.477899 
L 228.136544 -89.438267 
L 226.956877 -90.650528 
L 215.963912 -100.581058 
L 214.0114 -102.823157 
L 215.963912 -106.447058 
L 228.136544 -110.364711 
L 239.851301 -114.995792 
L 228.136544 -119.002424 
L 215.963912 -118.361807 
L 204.156899 -127.168424 
L 203.791288 -127.640722 
z
M 215.963912 -132.590847 
L 223.593951 -139.341056 
L 215.963912 -142.019067 
L 210.582586 -139.341056 
z
M 238.77511 -175.858944 
L 240.309176 -182.313505 
L 241.661333 -188.031576 
L 245.393771 -200.204208 
L 240.309176 -212.25258 
L 240.166896 -212.376843 
L 240.309176 -212.546749 
L 243.917743 -224.549472 
L 252.481808 -234.348367 
L 254.078538 -236.722101 
L 264.654443 -248.683078 
L 265.238684 -248.894736 
L 276.827072 -253.309661 
L 282.882049 -248.894736 
L 288.999701 -242.207425 
L 292.591573 -236.722101 
L 294.810177 -224.549472 
L 288.999701 -217.104521 
L 285.503052 -212.376843 
L 284.190038 -200.204208 
L 279.542212 -188.031576 
L 276.827072 -183.502859 
L 272.550955 -175.858944 
L 264.654443 -166.620484 
L 252.527914 -163.686312 
L 252.481808 -163.667555 
L 252.424818 -163.686312 
L 240.309176 -171.519973 
z
M 252.481808 -209.834266 
L 257.50711 -200.204208 
L 260.011172 -188.031576 
L 264.654443 -183.440892 
L 267.000471 -188.031576 
L 274.267874 -200.204208 
L 274.007514 -212.376843 
L 276.827072 -216.305123 
L 282.548424 -224.549472 
L 282.500047 -236.722101 
L 276.827072 -242.706395 
L 264.654443 -237.824493 
L 263.679707 -236.722101 
L 257.583291 -224.549472 
L 252.481808 -215.703629 
L 251.193338 -212.376843 
z
" style="stroke: #2c728e"/>
    </defs>
    <g clip-path="url(#p655267e3b7)">
     <use xlink:href="#m148ad08aee" x="0" y="288" style="fill: #2c728e; stroke: #2c728e"/>
    </g>
   </g>
   <g id="PathCollection_3">
    <defs>
     <path id="mcb1ee7195f" d="M 100.585866 -41.96 
L 94.2376 -41.96 
L 94.2376 -49.275436 
z
M 94.2376 -102.823157 
L 94.2376 -113.829278 
L 94.54597 -114.995792 
L 94.31456 -127.168424 
L 97.147632 -139.341056 
L 94.2376 -144.334211 
L 94.2376 -151.513688 
L 94.2376 -163.122358 
L 96.057767 -151.513688 
L 102.742526 -139.341056 
L 99.731811 -127.168424 
L 99.983746 -114.995792 
L 98.473181 -102.823157 
L 94.2376 -97.060842 
z
M 94.2376 -175.858944 
L 94.2376 -187.835772 
L 94.252819 -188.031576 
L 97.043709 -200.204208 
L 94.2376 -204.958015 
L 94.2376 -212.376843 
L 94.2376 -215.420903 
L 95.919112 -212.376843 
L 102.722585 -200.204208 
L 99.624083 -188.031576 
L 98.545141 -175.858944 
L 94.2376 -163.864037 
z
M 94.2376 -273.24 
L 105.444509 -273.24 
L 94.2376 -266.533344 
z
M 107.588422 -273.24 
L 118.582864 -273.24 
L 130.755499 -273.24 
L 133.631886 -273.24 
L 130.755499 -271.753584 
L 118.582864 -269.088668 
z
M 155.100757 -44.717404 
L 162.867351 -41.96 
L 155.100757 -41.96 
L 145.37998 -41.96 
z
M 149.236559 -273.24 
L 155.100757 -273.24 
L 159.411815 -273.24 
L 167.273392 -268.711946 
L 179.446024 -269.438879 
L 191.239967 -273.24 
L 191.618656 -273.24 
L 203.791288 -273.24 
L 212.616453 -273.24 
L 203.791288 -270.312442 
L 191.618656 -268.564628 
L 179.446024 -265.481172 
L 167.273392 -264.183891 
L 155.100757 -268.333384 
z
M 210.582586 -139.341056 
L 215.963912 -142.019067 
L 223.593951 -139.341056 
L 215.963912 -132.590847 
z
M 251.193338 -212.376843 
L 252.481808 -215.703629 
L 257.583291 -224.549472 
L 263.679707 -236.722101 
L 264.654443 -237.824493 
L 276.827072 -242.706395 
L 282.500047 -236.722101 
L 282.548424 -224.549472 
L 276.827072 -216.305123 
L 274.007514 -212.376843 
L 274.267874 -200.204208 
L 267.000471 -188.031576 
L 264.654443 -183.440892 
L 260.011172 -188.031576 
L 257.50711 -200.204208 
L 252.481808 -209.834266 
z
M 244.778801 -273.24 
L 252.481808 -273.24 
L 260.18823 -273.24 
L 252.481808 -271.101811 
z
M 276.827072 -44.258757 
L 284.880968 -41.96 
L 276.827072 -41.96 
L 269.156276 -41.96 
z
M 301.045826 -78.477899 
L 301.172336 -78.748606 
L 313.344971 -79.445007 
L 320.727072 -78.477899 
L 313.344971 -76.802056 
L 301.172336 -78.298152 
z
M 325.5176 -49.174902 
L 325.5176 -41.96 
L 319.652829 -41.96 
z
M 323.936781 -127.168424 
L 325.5176 -130.930555 
L 325.5176 -127.168424 
L 325.5176 -122.924281 
z
M 319.726209 -273.24 
L 325.5176 -273.24 
L 325.5176 -266.804149 
z
" style="stroke: #28ae80"/>
    </defs>
    <g clip-path="url(#p655267e3b7)">
     <use xlink:href="#mcb1ee7195f" x="0" y="288" style="fill: #28ae80; stroke: #28ae80"/>
    </g>
   </g>
   <g id="PathCollection_4">
    <defs>
     <path id="m215e1526fb" d="M 94.2376 -114.995792 
L 94.2376 -127.168424 
L 94.2376 -139.341056 
L 94.2376 -144.334211 
L 97.147632 -139.341056 
L 94.31456 -127.168424 
L 94.54597 -114.995792 
L 94.2376 -113.829278 
z
M 94.2376 -188.031576 
L 94.2376 -200.204208 
L 94.2376 -204.958015 
L 97.043709 -200.204208 
L 94.252819 -188.031576 
L 94.2376 -187.835772 
z
M 159.411815 -273.24 
L 167.273392 -273.24 
L 179.446024 -273.24 
L 191.239967 -273.24 
L 179.446024 -269.438879 
L 167.273392 -268.711946 
z
" style="stroke: #addc30"/>
    </defs>
    <g clip-path="url(#p655267e3b7)">
     <use xlink:href="#m215e1526fb" x="0" y="288" style="fill: #addc30; stroke: #addc30"/>
    </g>
   </g>
   <g id="matplotlib.axis_1">
    <g id="xtick_1">
     <g id="line2d_1">
      <defs>
       <path id="md9300385bc" d="M 0 0 
L 0 3.5 
" style="stroke: #000000; stroke-width: 0.8"/>
      </defs>
      <g>
       <use xlink:href="#md9300385bc" x="94.2376" y="246.04" style="stroke: #000000; stroke-width: 0.8"/>
      </g>
     </g>
     <g id="text_1">
      <!-- −5 -->
      <g transform="translate(86.866506 260.638438) scale(0.1 -0.1)">
       <defs>
        <path id="DejaVuSans-2212" d="M 678 2272 
L 4684 2272 
L 4684 1741 
L 678 1741 
L 678 2272 
z
" transform="scale(0.015625)"/>
        <path id="DejaVuSans-35" d="M 691 4666 
L 3169 4666 
L 3169 4134 
L 1269 4134 
L 1269 2991 
Q 1406 3038 1543 3061 
Q 1681 3084 1819 3084 
Q 2600 3084 3056 2656 
Q 3513 2228 3513 1497 
Q 3513 744 3044 326 
Q 2575 -91 1722 -91 
Q 1428 -91 1123 -41 
Q 819 9 494 109 
L 494 744 
Q 775 591 1075 516 
Q 1375 441 1709 441 
Q 2250 441 2565 725 
Q 2881 1009 2881 1497 
Q 2881 1984 2565 2268 
Q 2250 2553 1709 2553 
Q 1456 2553 1204 2497 
Q 953 2441 691 2322 
L 691 4666 
z
" transform="scale(0.015625)"/>
       </defs>
       <use xlink:href="#DejaVuSans-2212"/>
       <use xlink:href="#DejaVuSans-35" x="83.789062"/>
      </g>
     </g>
    </g>
    <g id="xtick_2">
     <g id="line2d_2">
      <g>
       <use xlink:href="#md9300385bc" x="209.8776" y="246.04" style="stroke: #000000; stroke-width: 0.8"/>
      </g>
     </g>
     <g id="text_2">
      <!-- 0 -->
      <g transform="translate(206.69635 260.638438) scale(0.1 -0.1)">
       <defs>
        <path id="DejaVuSans-30" d="M 2034 4250 
Q 1547 4250 1301 3770 
Q 1056 3291 1056 2328 
Q 1056 1369 1301 889 
Q 1547 409 2034 409 
Q 2525 409 2770 889 
Q 3016 1369 3016 2328 
Q 3016 3291 2770 3770 
Q 2525 4250 2034 4250 
z
M 2034 4750 
Q 2819 4750 3233 4129 
Q 3647 3509 3647 2328 
Q 3647 1150 3233 529 
Q 2819 -91 2034 -91 
Q 1250 -91 836 529 
Q 422 1150 422 2328 
Q 422 3509 836 4129 
Q 1250 4750 2034 4750 
z
" transform="scale(0.015625)"/>
       </defs>
       <use xlink:href="#DejaVuSans-30"/>
      </g>
     </g>
    </g>
    <g id="xtick_3">
     <g id="line2d_3">
      <g>
       <use xlink:href="#md9300385bc" x="325.5176" y="246.04" style="stroke: #000000; stroke-width: 0.8"/>
      </g>
     </g>
     <g id="text_3">
      <!-- 5 -->
      <g transform="translate(322.33635 260.638438) scale(0.1 -0.1)">
       <use xlink:href="#DejaVuSans-35"/>
      </g>
     </g>
    </g>
    <g id="text_4">
     <!-- $x$ -->
     <g transform="translate(206.8776 274.316563) scale(0.1 -0.1)">
      <defs>
       <path id="DejaVuSans-Oblique-78" d="M 3841 3500 
L 2234 1784 
L 3219 0 
L 2559 0 
L 1819 1388 
L 531 0 
L -166 0 
L 1556 1844 
L 641 3500 
L 1300 3500 
L 1972 2234 
L 3144 3500 
L 3841 3500 
z
" transform="scale(0.015625)"/>
      </defs>
      <use xlink:href="#DejaVuSans-Oblique-78" transform="translate(0 0.3125)"/>
     </g>
    </g>
   </g>
   <g id="matplotlib.axis_2">
    <g id="ytick_1">
     <g id="line2d_4">
      <defs>
       <path id="m37aa089742" d="M 0 0 
L -3.5 0 
" style="stroke: #000000; stroke-width: 0.8"/>
      </defs>
      <g>
       <use xlink:href="#m37aa089742" x="94.2376" y="246.04" style="stroke: #000000; stroke-width: 0.8"/>
      </g>
     </g>
     <g id="text_5">
      <!-- −5 -->
      <g transform="translate(72.495412 249.839219) scale(0.1 -0.1)">
       <use xlink:href="#DejaVuSans-2212"/>
       <use xlink:href="#DejaVuSans-35" x="83.789062"/>
      </g>
     </g>
    </g>
    <g id="ytick_2">
     <g id="line2d_5">
      <g>
       <use xlink:href="#m37aa089742" x="94.2376" y="130.4" style="stroke: #000000; stroke-width: 0.8"/>
      </g>
     </g>
     <g id="text_6">
      <!-- 0 -->
      <g transform="translate(80.8751 134.199219) scale(0.1 -0.1)">
       <use xlink:href="#DejaVuSans-30"/>
      </g>
     </g>
    </g>
    <g id="ytick_3">
     <g id="line2d_6">
      <g>
       <use xlink:href="#m37aa089742" x="94.2376" y="14.76" style="stroke: #000000; stroke-width: 0.8"/>
      </g>
     </g>
     <g id="text_7">
      <!-- 5 -->
      <g transform="translate(80.8751 18.559219) scale(0.1 -0.1)">
       <use xlink:href="#DejaVuSans-35"/>
      </g>
     </g>
    </g>
    <g id="text_8">
     <!-- $y$ -->
     <g transform="translate(66.395412 133.4) rotate(-90) scale(0.1 -0.1)">
      <defs>
       <path id="DejaVuSans-Oblique-79" d="M 1588 -325 
Q 1188 -997 936 -1164 
Q 684 -1331 294 -1331 
L -159 -1331 
L -63 -850 
L 269 -850 
Q 509 -850 678 -719 
Q 847 -588 1056 -206 
L 1234 128 
L 459 3500 
L 1069 3500 
L 1650 819 
L 3256 3500 
L 3859 3500 
L 1588 -325 
z
" transform="scale(0.015625)"/>
      </defs>
      <use xlink:href="#DejaVuSans-Oblique-79" transform="translate(0 0.3125)"/>
     </g>
    </g>
   </g>
   <g id="line2d_7">
    <defs>
     <path id="m26630f1894" d="M 0 3 
C 0.795609 3 1.55874 2.683901 2.12132 2.12132 
C 2.683901 1.55874 3 0.795609 3 0 
C 3 -0.795609 2.683901 -1.55874 2.12132 -2.12132 
C 1.55874 -2.683901 0.795609 -3 0 -3 
C -0.795609 -3 -1.55874 -2.683901 -2.12132 -2.12132 
C -2.683901 -1.55874 -3 -0.795609 -3 0 
C -3 0.795609 -2.683901 1.55874 -2.12132 2.12132 
C -1.55874 2.683901 -0.795609 3 0 3 
z
" style="stroke: #ff7f0e"/>
    </defs>
    <g clip-path="url(#p655267e3b7)">
     <use xlink:href="#m26630f1894" x="276.827072" y="112.141056" style="fill: #ff7f0e; stroke: #ff7f0e"/>
     <use xlink:href="#m26630f1894" x="106.410229" y="209.522101" style="fill: #ff7f0e; stroke: #ff7f0e"/>
     <use xlink:href="#m26630f1894" x="301.172336" y="221.694736" style="fill: #ff7f0e; stroke: #ff7f0e"/>
     <use xlink:href="#m26630f1894" x="167.273392" y="185.176843" style="fill: #ff7f0e; stroke: #ff7f0e"/>
     <use xlink:href="#m26630f1894" x="215.963912" y="136.486312" style="fill: #ff7f0e; stroke: #ff7f0e"/>
     <use xlink:href="#m26630f1894" x="240.309176" y="185.176843" style="fill: #ff7f0e; stroke: #ff7f0e"/>
     <use xlink:href="#m26630f1894" x="179.446024" y="148.658944" style="fill: #ff7f0e; stroke: #ff7f0e"/>
     <use xlink:href="#m26630f1894" x="118.582864" y="87.795792" style="fill: #ff7f0e; stroke: #ff7f0e"/>
     <use xlink:href="#m26630f1894" x="215.963912" y="87.795792" style="fill: #ff7f0e; stroke: #ff7f0e"/>
     <use xlink:href="#m26630f1894" x="142.928128" y="124.313688" style="fill: #ff7f0e; stroke: #ff7f0e"/>
     <use xlink:href="#m26630f1894" x="106.410229" y="160.831576" style="fill: #ff7f0e; stroke: #ff7f0e"/>
     <use xlink:href="#m26630f1894" x="94.2376" y="197.349472" style="fill: #ff7f0e; stroke: #ff7f0e"/>
     <use xlink:href="#m26630f1894" x="325.5176" y="124.313688" style="fill: #ff7f0e; stroke: #ff7f0e"/>
     <use xlink:href="#m26630f1894" x="118.582864" y="148.658944" style="fill: #ff7f0e; stroke: #ff7f0e"/>
     <use xlink:href="#m26630f1894" x="313.344971" y="87.795792" style="fill: #ff7f0e; stroke: #ff7f0e"/>
     <use xlink:href="#m26630f1894" x="118.582864" y="99.968424" style="fill: #ff7f0e; stroke: #ff7f0e"/>
     <use xlink:href="#m26630f1894" x="106.410229" y="124.313688" style="fill: #ff7f0e; stroke: #ff7f0e"/>
     <use xlink:href="#m26630f1894" x="167.273392" y="75.623157" style="fill: #ff7f0e; stroke: #ff7f0e"/>
     <use xlink:href="#m26630f1894" x="191.618656" y="233.867371" style="fill: #ff7f0e; stroke: #ff7f0e"/>
     <use xlink:href="#m26630f1894" x="325.5176" y="160.831576" style="fill: #ff7f0e; stroke: #ff7f0e"/>
     <use xlink:href="#m26630f1894" x="215.963912" y="221.694736" style="fill: #ff7f0e; stroke: #ff7f0e"/>
     <use xlink:href="#m26630f1894" x="301.172336" y="160.831576" style="fill: #ff7f0e; stroke: #ff7f0e"/>
     <use xlink:href="#m26630f1894" x="276.827072" y="124.313688" style="fill: #ff7f0e; stroke: #ff7f0e"/>
     <use xlink:href="#m26630f1894" x="276.827072" y="221.694736" style="fill: #ff7f0e; stroke: #ff7f0e"/>
     <use xlink:href="#m26630f1894" x="215.963912" y="14.76" style="fill: #ff7f0e; stroke: #ff7f0e"/>
     <use xlink:href="#m26630f1894" x="118.582864" y="26.932629" style="fill: #ff7f0e; stroke: #ff7f0e"/>
     <use xlink:href="#m26630f1894" x="118.582864" y="136.486312" style="fill: #ff7f0e; stroke: #ff7f0e"/>
     <use xlink:href="#m26630f1894" x="94.2376" y="124.313688" style="fill: #ff7f0e; stroke: #ff7f0e"/>
     <use xlink:href="#m26630f1894" x="301.172336" y="87.795792" style="fill: #ff7f0e; stroke: #ff7f0e"/>
     <use xlink:href="#m26630f1894" x="264.654443" y="197.349472" style="fill: #ff7f0e; stroke: #ff7f0e"/>
     <use xlink:href="#m26630f1894" x="179.446024" y="99.968424" style="fill: #ff7f0e; stroke: #ff7f0e"/>
     <use xlink:href="#m26630f1894" x="264.654443" y="173.004208" style="fill: #ff7f0e; stroke: #ff7f0e"/>
     <use xlink:href="#m26630f1894" x="130.755499" y="75.623157" style="fill: #ff7f0e; stroke: #ff7f0e"/>
     <use xlink:href="#m26630f1894" x="130.755499" y="99.968424" style="fill: #ff7f0e; stroke: #ff7f0e"/>
     <use xlink:href="#m26630f1894" x="252.481808" y="246.04" style="fill: #ff7f0e; stroke: #ff7f0e"/>
     <use xlink:href="#m26630f1894" x="325.5176" y="112.141056" style="fill: #ff7f0e; stroke: #ff7f0e"/>
     <use xlink:href="#m26630f1894" x="203.791288" y="246.04" style="fill: #ff7f0e; stroke: #ff7f0e"/>
     <use xlink:href="#m26630f1894" x="325.5176" y="39.105264" style="fill: #ff7f0e; stroke: #ff7f0e"/>
     <use xlink:href="#m26630f1894" x="325.5176" y="148.658944" style="fill: #ff7f0e; stroke: #ff7f0e"/>
     <use xlink:href="#m26630f1894" x="252.481808" y="136.486312" style="fill: #ff7f0e; stroke: #ff7f0e"/>
     <use xlink:href="#m26630f1894" x="155.100757" y="112.141056" style="fill: #ff7f0e; stroke: #ff7f0e"/>
     <use xlink:href="#m26630f1894" x="252.481808" y="51.277899" style="fill: #ff7f0e; stroke: #ff7f0e"/>
     <use xlink:href="#m26630f1894" x="228.136544" y="221.694736" style="fill: #ff7f0e; stroke: #ff7f0e"/>
     <use xlink:href="#m26630f1894" x="215.963912" y="39.105264" style="fill: #ff7f0e; stroke: #ff7f0e"/>
     <use xlink:href="#m26630f1894" x="155.100757" y="51.277899" style="fill: #ff7f0e; stroke: #ff7f0e"/>
     <use xlink:href="#m26630f1894" x="167.273392" y="63.450528" style="fill: #ff7f0e; stroke: #ff7f0e"/>
     <use xlink:href="#m26630f1894" x="191.618656" y="136.486312" style="fill: #ff7f0e; stroke: #ff7f0e"/>
     <use xlink:href="#m26630f1894" x="179.446024" y="51.277899" style="fill: #ff7f0e; stroke: #ff7f0e"/>
     <use xlink:href="#m26630f1894" x="313.344971" y="51.277899" style="fill: #ff7f0e; stroke: #ff7f0e"/>
     <use xlink:href="#m26630f1894" x="203.791288" y="99.968424" style="fill: #ff7f0e; stroke: #ff7f0e"/>
     <use xlink:href="#m26630f1894" x="276.827072" y="148.658944" style="fill: #ff7f0e; stroke: #ff7f0e"/>
     <use xlink:href="#m26630f1894" x="264.654443" y="14.76" style="fill: #ff7f0e; stroke: #ff7f0e"/>
     <use xlink:href="#m26630f1894" x="240.309176" y="221.694736" style="fill: #ff7f0e; stroke: #ff7f0e"/>
     <use xlink:href="#m26630f1894" x="288.999701" y="75.623157" style="fill: #ff7f0e; stroke: #ff7f0e"/>
     <use xlink:href="#m26630f1894" x="142.928128" y="160.831576" style="fill: #ff7f0e; stroke: #ff7f0e"/>
     <use xlink:href="#m26630f1894" x="94.2376" y="185.176843" style="fill: #ff7f0e; stroke: #ff7f0e"/>
     <use xlink:href="#m26630f1894" x="130.755499" y="185.176843" style="fill: #ff7f0e; stroke: #ff7f0e"/>
     <use xlink:href="#m26630f1894" x="106.410229" y="51.277899" style="fill: #ff7f0e; stroke: #ff7f0e"/>
     <use xlink:href="#m26630f1894" x="252.481808" y="124.313688" style="fill: #ff7f0e; stroke: #ff7f0e"/>
     <use xlink:href="#m26630f1894" x="191.618656" y="75.623157" style="fill: #ff7f0e; stroke: #ff7f0e"/>
     <use xlink:href="#m26630f1894" x="215.963912" y="75.623157" style="fill: #ff7f0e; stroke: #ff7f0e"/>
     <use xlink:href="#m26630f1894" x="179.446024" y="160.831576" style="fill: #ff7f0e; stroke: #ff7f0e"/>
     <use xlink:href="#m26630f1894" x="301.172336" y="124.313688" style="fill: #ff7f0e; stroke: #ff7f0e"/>
     <use xlink:href="#m26630f1894" x="155.100757" y="173.004208" style="fill: #ff7f0e; stroke: #ff7f0e"/>
     <use xlink:href="#m26630f1894" x="142.928128" y="246.04" style="fill: #ff7f0e; stroke: #ff7f0e"/>
     <use xlink:href="#m26630f1894" x="288.999701" y="14.76" style="fill: #ff7f0e; stroke: #ff7f0e"/>
     <use xlink:href="#m26630f1894" x="191.618656" y="51.277899" style="fill: #ff7f0e; stroke: #ff7f0e"/>
     <use xlink:href="#m26630f1894" x="106.410229" y="63.450528" style="fill: #ff7f0e; stroke: #ff7f0e"/>
     <use xlink:href="#m26630f1894" x="252.481808" y="197.349472" style="fill: #ff7f0e; stroke: #ff7f0e"/>
     <use xlink:href="#m26630f1894" x="155.100757" y="87.795792" style="fill: #ff7f0e; stroke: #ff7f0e"/>
     <use xlink:href="#m26630f1894" x="94.2376" y="26.932629" style="fill: #ff7f0e; stroke: #ff7f0e"/>
     <use xlink:href="#m26630f1894" x="276.827072" y="136.486312" style="fill: #ff7f0e; stroke: #ff7f0e"/>
     <use xlink:href="#m26630f1894" x="203.791288" y="185.176843" style="fill: #ff7f0e; stroke: #ff7f0e"/>
     <use xlink:href="#m26630f1894" x="276.827072" y="14.76" style="fill: #ff7f0e; stroke: #ff7f0e"/>
     <use xlink:href="#m26630f1894" x="191.618656" y="160.831576" style="fill: #ff7f0e; stroke: #ff7f0e"/>
     <use xlink:href="#m26630f1894" x="301.172336" y="246.04" style="fill: #ff7f0e; stroke: #ff7f0e"/>
     <use xlink:href="#m26630f1894" x="130.755499" y="197.349472" style="fill: #ff7f0e; stroke: #ff7f0e"/>
     <use xlink:href="#m26630f1894" x="94.2376" y="209.522101" style="fill: #ff7f0e; stroke: #ff7f0e"/>
     <use xlink:href="#m26630f1894" x="313.344971" y="75.623157" style="fill: #ff7f0e; stroke: #ff7f0e"/>
     <use xlink:href="#m26630f1894" x="106.410229" y="246.04" style="fill: #ff7f0e; stroke: #ff7f0e"/>
     <use xlink:href="#m26630f1894" x="94.2376" y="246.04" style="fill: #ff7f0e; stroke: #ff7f0e"/>
     <use xlink:href="#m26630f1894" x="118.582864" y="63.450528" style="fill: #ff7f0e; stroke: #ff7f0e"/>
     <use xlink:href="#m26630f1894" x="288.999701" y="209.522101" style="fill: #ff7f0e; stroke: #ff7f0e"/>
     <use xlink:href="#m26630f1894" x="215.963912" y="173.004208" style="fill: #ff7f0e; stroke: #ff7f0e"/>
     <use xlink:href="#m26630f1894" x="228.136544" y="233.867371" style="fill: #ff7f0e; stroke: #ff7f0e"/>
     <use xlink:href="#m26630f1894" x="203.791288" y="39.105264" style="fill: #ff7f0e; stroke: #ff7f0e"/>
     <use xlink:href="#m26630f1894" x="191.618656" y="221.694736" style="fill: #ff7f0e; stroke: #ff7f0e"/>
     <use xlink:href="#m26630f1894" x="130.755499" y="51.277899" style="fill: #ff7f0e; stroke: #ff7f0e"/>
     <use xlink:href="#m26630f1894" x="142.928128" y="148.658944" style="fill: #ff7f0e; stroke: #ff7f0e"/>
     <use xlink:href="#m26630f1894" x="301.172336" y="148.658944" style="fill: #ff7f0e; stroke: #ff7f0e"/>
     <use xlink:href="#m26630f1894" x="252.481808" y="209.522101" style="fill: #ff7f0e; stroke: #ff7f0e"/>
     <use xlink:href="#m26630f1894" x="325.5176" y="233.867371" style="fill: #ff7f0e; stroke: #ff7f0e"/>
     <use xlink:href="#m26630f1894" x="252.481808" y="26.932629" style="fill: #ff7f0e; stroke: #ff7f0e"/>
     <use xlink:href="#m26630f1894" x="301.172336" y="51.277899" style="fill: #ff7f0e; stroke: #ff7f0e"/>
     <use xlink:href="#m26630f1894" x="288.999701" y="136.486312" style="fill: #ff7f0e; stroke: #ff7f0e"/>
     <use xlink:href="#m26630f1894" x="228.136544" y="51.277899" style="fill: #ff7f0e; stroke: #ff7f0e"/>
     <use xlink:href="#m26630f1894" x="167.273392" y="99.968424" style="fill: #ff7f0e; stroke: #ff7f0e"/>
     <use xlink:href="#m26630f1894" x="240.309176" y="246.04" style="fill: #ff7f0e; stroke: #ff7f0e"/>
     <use xlink:href="#m26630f1894" x="264.654443" y="246.04" style="fill: #ff7f0e; stroke: #ff7f0e"/>
     <use xlink:href="#m26630f1894" x="142.928128" y="39.105264" style="fill: #ff7f0e; stroke: #ff7f0e"/>
     <use xlink:href="#m26630f1894" x="215.963912" y="197.349472" style="fill: #ff7f0e; stroke: #ff7f0e"/>
     <use xlink:href="#m26630f1894" x="155.100757" y="148.658944" style="fill: #ff7f0e; stroke: #ff7f0e"/>
     <use xlink:href="#m26630f1894" x="191.618656" y="39.105264" style="fill: #ff7f0e; stroke: #ff7f0e"/>
     <use xlink:href="#m26630f1894" x="142.928128" y="136.486312" style="fill: #ff7f0e; stroke: #ff7f0e"/>
     <use xlink:href="#m26630f1894" x="191.618656" y="14.76" style="fill: #ff7f0e; stroke: #ff7f0e"/>
     <use xlink:href="#m26630f1894" x="191.618656" y="26.932629" style="fill: #ff7f0e; stroke: #ff7f0e"/>
     <use xlink:href="#m26630f1894" x="106.410229" y="75.623157" style="fill: #ff7f0e; stroke: #ff7f0e"/>
     <use xlink:href="#m26630f1894" x="179.446024" y="246.04" style="fill: #ff7f0e; stroke: #ff7f0e"/>
     <use xlink:href="#m26630f1894" x="155.100757" y="233.867371" style="fill: #ff7f0e; stroke: #ff7f0e"/>
     <use xlink:href="#m26630f1894" x="142.928128" y="63.450528" style="fill: #ff7f0e; stroke: #ff7f0e"/>
     <use xlink:href="#m26630f1894" x="288.999701" y="26.932629" style="fill: #ff7f0e; stroke: #ff7f0e"/>
     <use xlink:href="#m26630f1894" x="264.654443" y="63.450528" style="fill: #ff7f0e; stroke: #ff7f0e"/>
     <use xlink:href="#m26630f1894" x="191.618656" y="148.658944" style="fill: #ff7f0e; stroke: #ff7f0e"/>
     <use xlink:href="#m26630f1894" x="240.309176" y="51.277899" style="fill: #ff7f0e; stroke: #ff7f0e"/>
     <use xlink:href="#m26630f1894" x="155.100757" y="160.831576" style="fill: #ff7f0e; stroke: #ff7f0e"/>
     <use xlink:href="#m26630f1894" x="228.136544" y="197.349472" style="fill: #ff7f0e; stroke: #ff7f0e"/>
     <use xlink:href="#m26630f1894" x="94.2376" y="233.867371" style="fill: #ff7f0e; stroke: #ff7f0e"/>
     <use xlink:href="#m26630f1894" x="203.791288" y="233.867371" style="fill: #ff7f0e; stroke: #ff7f0e"/>
     <use xlink:href="#m26630f1894" x="106.410229" y="14.76" style="fill: #ff7f0e; stroke: #ff7f0e"/>
     <use xlink:href="#m26630f1894" x="106.410229" y="99.968424" style="fill: #ff7f0e; stroke: #ff7f0e"/>
     <use xlink:href="#m26630f1894" x="142.928128" y="26.932629" style="fill: #ff7f0e; stroke: #ff7f0e"/>
     <use xlink:href="#m26630f1894" x="118.582864" y="173.004208" style="fill: #ff7f0e; stroke: #ff7f0e"/>
     <use xlink:href="#m26630f1894" x="240.309176" y="26.932629" style="fill: #ff7f0e; stroke: #ff7f0e"/>
     <use xlink:href="#m26630f1894" x="130.755499" y="148.658944" style="fill: #ff7f0e; stroke: #ff7f0e"/>
     <use xlink:href="#m26630f1894" x="142.928128" y="14.76" style="fill: #ff7f0e; stroke: #ff7f0e"/>
     <use xlink:href="#m26630f1894" x="288.999701" y="87.795792" style="fill: #ff7f0e; stroke: #ff7f0e"/>
     <use xlink:href="#m26630f1894" x="313.344971" y="124.313688" style="fill: #ff7f0e; stroke: #ff7f0e"/>
     <use xlink:href="#m26630f1894" x="94.2376" y="51.277899" style="fill: #ff7f0e; stroke: #ff7f0e"/>
     <use xlink:href="#m26630f1894" x="215.963912" y="246.04" style="fill: #ff7f0e; stroke: #ff7f0e"/>
     <use xlink:href="#m26630f1894" x="203.791288" y="26.932629" style="fill: #ff7f0e; stroke: #ff7f0e"/>
     <use xlink:href="#m26630f1894" x="106.410229" y="112.141056" style="fill: #ff7f0e; stroke: #ff7f0e"/>
     <use xlink:href="#m26630f1894" x="142.928128" y="209.522101" style="fill: #ff7f0e; stroke: #ff7f0e"/>
     <use xlink:href="#m26630f1894" x="240.309176" y="136.486312" style="fill: #ff7f0e; stroke: #ff7f0e"/>
     <use xlink:href="#m26630f1894" x="240.309176" y="173.004208" style="fill: #ff7f0e; stroke: #ff7f0e"/>
     <use xlink:href="#m26630f1894" x="301.172336" y="185.176843" style="fill: #ff7f0e; stroke: #ff7f0e"/>
     <use xlink:href="#m26630f1894" x="191.618656" y="209.522101" style="fill: #ff7f0e; stroke: #ff7f0e"/>
     <use xlink:href="#m26630f1894" x="288.999701" y="112.141056" style="fill: #ff7f0e; stroke: #ff7f0e"/>
     <use xlink:href="#m26630f1894" x="203.791288" y="197.349472" style="fill: #ff7f0e; stroke: #ff7f0e"/>
     <use xlink:href="#m26630f1894" x="301.172336" y="75.623157" style="fill: #ff7f0e; stroke: #ff7f0e"/>
     <use xlink:href="#m26630f1894" x="130.755499" y="173.004208" style="fill: #ff7f0e; stroke: #ff7f0e"/>
     <use xlink:href="#m26630f1894" x="276.827072" y="197.349472" style="fill: #ff7f0e; stroke: #ff7f0e"/>
     <use xlink:href="#m26630f1894" x="325.5176" y="246.04" style="fill: #ff7f0e; stroke: #ff7f0e"/>
     <use xlink:href="#m26630f1894" x="203.791288" y="160.831576" style="fill: #ff7f0e; stroke: #ff7f0e"/>
     <use xlink:href="#m26630f1894" x="203.791288" y="51.277899" style="fill: #ff7f0e; stroke: #ff7f0e"/>
     <use xlink:href="#m26630f1894" x="228.136544" y="124.313688" style="fill: #ff7f0e; stroke: #ff7f0e"/>
     <use xlink:href="#m26630f1894" x="325.5176" y="87.795792" style="fill: #ff7f0e; stroke: #ff7f0e"/>
     <use xlink:href="#m26630f1894" x="167.273392" y="221.694736" style="fill: #ff7f0e; stroke: #ff7f0e"/>
     <use xlink:href="#m26630f1894" x="179.446024" y="185.176843" style="fill: #ff7f0e; stroke: #ff7f0e"/>
     <use xlink:href="#m26630f1894" x="203.791288" y="173.004208" style="fill: #ff7f0e; stroke: #ff7f0e"/>
     <use xlink:href="#m26630f1894" x="252.481808" y="99.968424" style="fill: #ff7f0e; stroke: #ff7f0e"/>
     <use xlink:href="#m26630f1894" x="191.618656" y="197.349472" style="fill: #ff7f0e; stroke: #ff7f0e"/>
     <use xlink:href="#m26630f1894" x="167.273392" y="136.486312" style="fill: #ff7f0e; stroke: #ff7f0e"/>
     <use xlink:href="#m26630f1894" x="130.755499" y="136.486312" style="fill: #ff7f0e; stroke: #ff7f0e"/>
     <use xlink:href="#m26630f1894" x="167.273392" y="209.522101" style="fill: #ff7f0e; stroke: #ff7f0e"/>
     <use xlink:href="#m26630f1894" x="167.273392" y="112.141056" style="fill: #ff7f0e; stroke: #ff7f0e"/>
     <use xlink:href="#m26630f1894" x="179.446024" y="112.141056" style="fill: #ff7f0e; stroke: #ff7f0e"/>
     <use xlink:href="#m26630f1894" x="215.963912" y="26.932629" style="fill: #ff7f0e; stroke: #ff7f0e"/>
     <use xlink:href="#m26630f1894" x="215.963912" y="233.867371" style="fill: #ff7f0e; stroke: #ff7f0e"/>
     <use xlink:href="#m26630f1894" x="179.446024" y="63.450528" style="fill: #ff7f0e; stroke: #ff7f0e"/>
     <use xlink:href="#m26630f1894" x="288.999701" y="124.313688" style="fill: #ff7f0e; stroke: #ff7f0e"/>
     <use xlink:href="#m26630f1894" x="276.827072" y="185.176843" style="fill: #ff7f0e; stroke: #ff7f0e"/>
     <use xlink:href="#m26630f1894" x="203.791288" y="124.313688" style="fill: #ff7f0e; stroke: #ff7f0e"/>
     <use xlink:href="#m26630f1894" x="264.654443" y="160.831576" style="fill: #ff7f0e; stroke: #ff7f0e"/>
     <use xlink:href="#m26630f1894" x="288.999701" y="148.658944" style="fill: #ff7f0e; stroke: #ff7f0e"/>
     <use xlink:href="#m26630f1894" x="179.446024" y="87.795792" style="fill: #ff7f0e; stroke: #ff7f0e"/>
     <use xlink:href="#m26630f1894" x="130.755499" y="246.04" style="fill: #ff7f0e; stroke: #ff7f0e"/>
     <use xlink:href="#m26630f1894" x="118.582864" y="112.141056" style="fill: #ff7f0e; stroke: #ff7f0e"/>
     <use xlink:href="#m26630f1894" x="155.100757" y="14.76" style="fill: #ff7f0e; stroke: #ff7f0e"/>
     <use xlink:href="#m26630f1894" x="264.654443" y="124.313688" style="fill: #ff7f0e; stroke: #ff7f0e"/>
     <use xlink:href="#m26630f1894" x="325.5176" y="75.623157" style="fill: #ff7f0e; stroke: #ff7f0e"/>
     <use xlink:href="#m26630f1894" x="130.755499" y="221.694736" style="fill: #ff7f0e; stroke: #ff7f0e"/>
     <use xlink:href="#m26630f1894" x="179.446024" y="75.623157" style="fill: #ff7f0e; stroke: #ff7f0e"/>
     <use xlink:href="#m26630f1894" x="301.172336" y="26.932629" style="fill: #ff7f0e; stroke: #ff7f0e"/>
     <use xlink:href="#m26630f1894" x="264.654443" y="39.105264" style="fill: #ff7f0e; stroke: #ff7f0e"/>
     <use xlink:href="#m26630f1894" x="301.172336" y="112.141056" style="fill: #ff7f0e; stroke: #ff7f0e"/>
     <use xlink:href="#m26630f1894" x="325.5176" y="26.932629" style="fill: #ff7f0e; stroke: #ff7f0e"/>
     <use xlink:href="#m26630f1894" x="288.999701" y="51.277899" style="fill: #ff7f0e; stroke: #ff7f0e"/>
     <use xlink:href="#m26630f1894" x="313.344971" y="246.04" style="fill: #ff7f0e; stroke: #ff7f0e"/>
     <use xlink:href="#m26630f1894" x="142.928128" y="185.176843" style="fill: #ff7f0e; stroke: #ff7f0e"/>
     <use xlink:href="#m26630f1894" x="276.827072" y="26.932629" style="fill: #ff7f0e; stroke: #ff7f0e"/>
     <use xlink:href="#m26630f1894" x="252.481808" y="221.694736" style="fill: #ff7f0e; stroke: #ff7f0e"/>
     <use xlink:href="#m26630f1894" x="167.273392" y="87.795792" style="fill: #ff7f0e; stroke: #ff7f0e"/>
     <use xlink:href="#m26630f1894" x="325.5176" y="209.522101" style="fill: #ff7f0e; stroke: #ff7f0e"/>
     <use xlink:href="#m26630f1894" x="252.481808" y="233.867371" style="fill: #ff7f0e; stroke: #ff7f0e"/>
     <use xlink:href="#m26630f1894" x="313.344971" y="197.349472" style="fill: #ff7f0e; stroke: #ff7f0e"/>
     <use xlink:href="#m26630f1894" x="276.827072" y="233.867371" style="fill: #ff7f0e; stroke: #ff7f0e"/>
     <use xlink:href="#m26630f1894" x="215.963912" y="63.450528" style="fill: #ff7f0e; stroke: #ff7f0e"/>
     <use xlink:href="#m26630f1894" x="106.410229" y="26.932629" style="fill: #ff7f0e; stroke: #ff7f0e"/>
     <use xlink:href="#m26630f1894" x="142.928128" y="75.623157" style="fill: #ff7f0e; stroke: #ff7f0e"/>
     <use xlink:href="#m26630f1894" x="288.999701" y="233.867371" style="fill: #ff7f0e; stroke: #ff7f0e"/>
     <use xlink:href="#m26630f1894" x="167.273392" y="26.932629" style="fill: #ff7f0e; stroke: #ff7f0e"/>
     <use xlink:href="#m26630f1894" x="179.446024" y="209.522101" style="fill: #ff7f0e; stroke: #ff7f0e"/>
     <use xlink:href="#m26630f1894" x="94.2376" y="14.76" style="fill: #ff7f0e; stroke: #ff7f0e"/>
     <use xlink:href="#m26630f1894" x="252.481808" y="39.105264" style="fill: #ff7f0e; stroke: #ff7f0e"/>
     <use xlink:href="#m26630f1894" x="325.5176" y="51.277899" style="fill: #ff7f0e; stroke: #ff7f0e"/>
     <use xlink:href="#m26630f1894" x="228.136544" y="246.04" style="fill: #ff7f0e; stroke: #ff7f0e"/>
     <use xlink:href="#m26630f1894" x="288.999701" y="246.04" style="fill: #ff7f0e; stroke: #ff7f0e"/>
     <use xlink:href="#m26630f1894" x="155.100757" y="209.522101" style="fill: #ff7f0e; stroke: #ff7f0e"/>
     <use xlink:href="#m26630f1894" x="118.582864" y="185.176843" style="fill: #ff7f0e; stroke: #ff7f0e"/>
     <use xlink:href="#m26630f1894" x="94.2376" y="136.486312" style="fill: #ff7f0e; stroke: #ff7f0e"/>
     <use xlink:href="#m26630f1894" x="167.273392" y="124.313688" style="fill: #ff7f0e; stroke: #ff7f0e"/>
     <use xlink:href="#m26630f1894" x="203.791288" y="75.623157" style="fill: #ff7f0e; stroke: #ff7f0e"/>
     <use xlink:href="#m26630f1894" x="167.273392" y="173.004208" style="fill: #ff7f0e; stroke: #ff7f0e"/>
     <use xlink:href="#m26630f1894" x="325.5176" y="221.694736" style="fill: #ff7f0e; stroke: #ff7f0e"/>
     <use xlink:href="#m26630f1894" x="240.309176" y="87.795792" style="fill: #ff7f0e; stroke: #ff7f0e"/>
     <use xlink:href="#m26630f1894" x="167.273392" y="39.105264" style="fill: #ff7f0e; stroke: #ff7f0e"/>
     <use xlink:href="#m26630f1894" x="155.100757" y="99.968424" style="fill: #ff7f0e; stroke: #ff7f0e"/>
     <use xlink:href="#m26630f1894" x="94.2376" y="75.623157" style="fill: #ff7f0e; stroke: #ff7f0e"/>
     <use xlink:href="#m26630f1894" x="155.100757" y="75.623157" style="fill: #ff7f0e; stroke: #ff7f0e"/>
     <use xlink:href="#m26630f1894" x="130.755499" y="39.105264" style="fill: #ff7f0e; stroke: #ff7f0e"/>
     <use xlink:href="#m26630f1894" x="118.582864" y="246.04" style="fill: #ff7f0e; stroke: #ff7f0e"/>
     <use xlink:href="#m26630f1894" x="94.2376" y="99.968424" style="fill: #ff7f0e; stroke: #ff7f0e"/>
     <use xlink:href="#m26630f1894" x="142.928128" y="99.968424" style="fill: #ff7f0e; stroke: #ff7f0e"/>
     <use xlink:href="#m26630f1894" x="179.446024" y="197.349472" style="fill: #ff7f0e; stroke: #ff7f0e"/>
     <use xlink:href="#m26630f1894" x="228.136544" y="209.522101" style="fill: #ff7f0e; stroke: #ff7f0e"/>
     <use xlink:href="#m26630f1894" x="288.999701" y="197.349472" style="fill: #ff7f0e; stroke: #ff7f0e"/>
     <use xlink:href="#m26630f1894" x="276.827072" y="99.968424" style="fill: #ff7f0e; stroke: #ff7f0e"/>
     <use xlink:href="#m26630f1894" x="228.136544" y="112.141056" style="fill: #ff7f0e; stroke: #ff7f0e"/>
     <use xlink:href="#m26630f1894" x="94.2376" y="160.831576" style="fill: #ff7f0e; stroke: #ff7f0e"/>
     <use xlink:href="#m26630f1894" x="167.273392" y="246.04" style="fill: #ff7f0e; stroke: #ff7f0e"/>
     <use xlink:href="#m26630f1894" x="191.618656" y="173.004208" style="fill: #ff7f0e; stroke: #ff7f0e"/>
     <use xlink:href="#m26630f1894" x="228.136544" y="87.795792" style="fill: #ff7f0e; stroke: #ff7f0e"/>
     <use xlink:href="#m26630f1894" x="228.136544" y="63.450528" style="fill: #ff7f0e; stroke: #ff7f0e"/>
     <use xlink:href="#m26630f1894" x="301.172336" y="99.968424" style="fill: #ff7f0e; stroke: #ff7f0e"/>
     <use xlink:href="#m26630f1894" x="167.273392" y="160.831576" style="fill: #ff7f0e; stroke: #ff7f0e"/>
     <use xlink:href="#m26630f1894" x="118.582864" y="39.105264" style="fill: #ff7f0e; stroke: #ff7f0e"/>
     <use xlink:href="#m26630f1894" x="264.654443" y="185.176843" style="fill: #ff7f0e; stroke: #ff7f0e"/>
     <use xlink:href="#m26630f1894" x="179.446024" y="26.932629" style="fill: #ff7f0e; stroke: #ff7f0e"/>
     <use xlink:href="#m26630f1894" x="167.273392" y="233.867371" style="fill: #ff7f0e; stroke: #ff7f0e"/>
     <use xlink:href="#m26630f1894" x="203.791288" y="136.486312" style="fill: #ff7f0e; stroke: #ff7f0e"/>
     <use xlink:href="#m26630f1894" x="167.273392" y="51.277899" style="fill: #ff7f0e; stroke: #ff7f0e"/>
     <use xlink:href="#m26630f1894" x="228.136544" y="136.486312" style="fill: #ff7f0e; stroke: #ff7f0e"/>
     <use xlink:href="#m26630f1894" x="288.999701" y="99.968424" style="fill: #ff7f0e; stroke: #ff7f0e"/>
     <use xlink:href="#m26630f1894" x="228.136544" y="14.76" style="fill: #ff7f0e; stroke: #ff7f0e"/>
     <use xlink:href="#m26630f1894" x="240.309176" y="112.141056" style="fill: #ff7f0e; stroke: #ff7f0e"/>
     <use xlink:href="#m26630f1894" x="130.755499" y="124.313688" style="fill: #ff7f0e; stroke: #ff7f0e"/>
     <use xlink:href="#m26630f1894" x="118.582864" y="160.831576" style="fill: #ff7f0e; stroke: #ff7f0e"/>
     <use xlink:href="#m26630f1894" x="191.618656" y="124.313688" style="fill: #ff7f0e; stroke: #ff7f0e"/>
     <use xlink:href="#m26630f1894" x="228.136544" y="26.932629" style="fill: #ff7f0e; stroke: #ff7f0e"/>
     <use xlink:href="#m26630f1894" x="106.410229" y="39.105264" style="fill: #ff7f0e; stroke: #ff7f0e"/>
     <use xlink:href="#m26630f1894" x="288.999701" y="39.105264" style="fill: #ff7f0e; stroke: #ff7f0e"/>
     <use xlink:href="#m26630f1894" x="215.963912" y="99.968424" style="fill: #ff7f0e; stroke: #ff7f0e"/>
     <use xlink:href="#m26630f1894" x="301.172336" y="173.004208" style="fill: #ff7f0e; stroke: #ff7f0e"/>
     <use xlink:href="#m26630f1894" x="264.654443" y="233.867371" style="fill: #ff7f0e; stroke: #ff7f0e"/>
     <use xlink:href="#m26630f1894" x="240.309176" y="63.450528" style="fill: #ff7f0e; stroke: #ff7f0e"/>
     <use xlink:href="#m26630f1894" x="179.446024" y="221.694736" style="fill: #ff7f0e; stroke: #ff7f0e"/>
     <use xlink:href="#m26630f1894" x="118.582864" y="124.313688" style="fill: #ff7f0e; stroke: #ff7f0e"/>
     <use xlink:href="#m26630f1894" x="288.999701" y="185.176843" style="fill: #ff7f0e; stroke: #ff7f0e"/>
     <use xlink:href="#m26630f1894" x="252.481808" y="160.831576" style="fill: #ff7f0e; stroke: #ff7f0e"/>
     <use xlink:href="#m26630f1894" x="240.309176" y="39.105264" style="fill: #ff7f0e; stroke: #ff7f0e"/>
     <use xlink:href="#m26630f1894" x="106.410229" y="173.004208" style="fill: #ff7f0e; stroke: #ff7f0e"/>
     <use xlink:href="#m26630f1894" x="313.344971" y="112.141056" style="fill: #ff7f0e; stroke: #ff7f0e"/>
     <use xlink:href="#m26630f1894" x="313.344971" y="14.76" style="fill: #ff7f0e; stroke: #ff7f0e"/>
     <use xlink:href="#m26630f1894" x="313.344971" y="136.486312" style="fill: #ff7f0e; stroke: #ff7f0e"/>
     <use xlink:href="#m26630f1894" x="118.582864" y="75.623157" style="fill: #ff7f0e; stroke: #ff7f0e"/>
     <use xlink:href="#m26630f1894" x="252.481808" y="148.658944" style="fill: #ff7f0e; stroke: #ff7f0e"/>
     <use xlink:href="#m26630f1894" x="288.999701" y="221.694736" style="fill: #ff7f0e; stroke: #ff7f0e"/>
     <use xlink:href="#m26630f1894" x="325.5176" y="99.968424" style="fill: #ff7f0e; stroke: #ff7f0e"/>
     <use xlink:href="#m26630f1894" x="142.928128" y="197.349472" style="fill: #ff7f0e; stroke: #ff7f0e"/>
     <use xlink:href="#m26630f1894" x="301.172336" y="233.867371" style="fill: #ff7f0e; stroke: #ff7f0e"/>
     <use xlink:href="#m26630f1894" x="130.755499" y="209.522101" style="fill: #ff7f0e; stroke: #ff7f0e"/>
     <use xlink:href="#m26630f1894" x="313.344971" y="39.105264" style="fill: #ff7f0e; stroke: #ff7f0e"/>
     <use xlink:href="#m26630f1894" x="142.928128" y="233.867371" style="fill: #ff7f0e; stroke: #ff7f0e"/>
     <use xlink:href="#m26630f1894" x="228.136544" y="39.105264" style="fill: #ff7f0e; stroke: #ff7f0e"/>
     <use xlink:href="#m26630f1894" x="325.5176" y="63.450528" style="fill: #ff7f0e; stroke: #ff7f0e"/>
     <use xlink:href="#m26630f1894" x="142.928128" y="51.277899" style="fill: #ff7f0e; stroke: #ff7f0e"/>
     <use xlink:href="#m26630f1894" x="94.2376" y="63.450528" style="fill: #ff7f0e; stroke: #ff7f0e"/>
     <use xlink:href="#m26630f1894" x="252.481808" y="87.795792" style="fill: #ff7f0e; stroke: #ff7f0e"/>
     <use xlink:href="#m26630f1894" x="130.755499" y="112.141056" style="fill: #ff7f0e; stroke: #ff7f0e"/>
     <use xlink:href="#m26630f1894" x="118.582864" y="51.277899" style="fill: #ff7f0e; stroke: #ff7f0e"/>
     <use xlink:href="#m26630f1894" x="94.2376" y="221.694736" style="fill: #ff7f0e; stroke: #ff7f0e"/>
     <use xlink:href="#m26630f1894" x="264.654443" y="148.658944" style="fill: #ff7f0e; stroke: #ff7f0e"/>
     <use xlink:href="#m26630f1894" x="276.827072" y="173.004208" style="fill: #ff7f0e; stroke: #ff7f0e"/>
     <use xlink:href="#m26630f1894" x="228.136544" y="173.004208" style="fill: #ff7f0e; stroke: #ff7f0e"/>
     <use xlink:href="#m26630f1894" x="276.827072" y="160.831576" style="fill: #ff7f0e; stroke: #ff7f0e"/>
     <use xlink:href="#m26630f1894" x="203.791288" y="112.141056" style="fill: #ff7f0e; stroke: #ff7f0e"/>
     <use xlink:href="#m26630f1894" x="313.344971" y="26.932629" style="fill: #ff7f0e; stroke: #ff7f0e"/>
     <use xlink:href="#m26630f1894" x="240.309176" y="75.623157" style="fill: #ff7f0e; stroke: #ff7f0e"/>
     <use xlink:href="#m26630f1894" x="167.273392" y="197.349472" style="fill: #ff7f0e; stroke: #ff7f0e"/>
     <use xlink:href="#m26630f1894" x="179.446024" y="233.867371" style="fill: #ff7f0e; stroke: #ff7f0e"/>
     <use xlink:href="#m26630f1894" x="94.2376" y="39.105264" style="fill: #ff7f0e; stroke: #ff7f0e"/>
     <use xlink:href="#m26630f1894" x="191.618656" y="246.04" style="fill: #ff7f0e; stroke: #ff7f0e"/>
     <use xlink:href="#m26630f1894" x="240.309176" y="148.658944" style="fill: #ff7f0e; stroke: #ff7f0e"/>
     <use xlink:href="#m26630f1894" x="325.5176" y="14.76" style="fill: #ff7f0e; stroke: #ff7f0e"/>
     <use xlink:href="#m26630f1894" x="106.410229" y="197.349472" style="fill: #ff7f0e; stroke: #ff7f0e"/>
     <use xlink:href="#m26630f1894" x="325.5176" y="197.349472" style="fill: #ff7f0e; stroke: #ff7f0e"/>
     <use xlink:href="#m26630f1894" x="313.344971" y="185.176843" style="fill: #ff7f0e; stroke: #ff7f0e"/>
     <use xlink:href="#m26630f1894" x="325.5176" y="173.004208" style="fill: #ff7f0e; stroke: #ff7f0e"/>
     <use xlink:href="#m26630f1894" x="106.410229" y="136.486312" style="fill: #ff7f0e; stroke: #ff7f0e"/>
     <use xlink:href="#m26630f1894" x="264.654443" y="26.932629" style="fill: #ff7f0e; stroke: #ff7f0e"/>
     <use xlink:href="#m26630f1894" x="167.273392" y="148.658944" style="fill: #ff7f0e; stroke: #ff7f0e"/>
     <use xlink:href="#m26630f1894" x="301.172336" y="39.105264" style="fill: #ff7f0e; stroke: #ff7f0e"/>
     <use xlink:href="#m26630f1894" x="301.172336" y="14.76" style="fill: #ff7f0e; stroke: #ff7f0e"/>
     <use xlink:href="#m26630f1894" x="179.446024" y="124.313688" style="fill: #ff7f0e; stroke: #ff7f0e"/>
     <use xlink:href="#m26630f1894" x="215.963912" y="124.313688" style="fill: #ff7f0e; stroke: #ff7f0e"/>
     <use xlink:href="#m26630f1894" x="276.827072" y="75.623157" style="fill: #ff7f0e; stroke: #ff7f0e"/>
     <use xlink:href="#m26630f1894" x="288.999701" y="160.831576" style="fill: #ff7f0e; stroke: #ff7f0e"/>
     <use xlink:href="#m26630f1894" x="130.755499" y="63.450528" style="fill: #ff7f0e; stroke: #ff7f0e"/>
     <use xlink:href="#m26630f1894" x="191.618656" y="185.176843" style="fill: #ff7f0e; stroke: #ff7f0e"/>
     <use xlink:href="#m26630f1894" x="130.755499" y="14.76" style="fill: #ff7f0e; stroke: #ff7f0e"/>
     <use xlink:href="#m26630f1894" x="203.791288" y="87.795792" style="fill: #ff7f0e; stroke: #ff7f0e"/>
     <use xlink:href="#m26630f1894" x="313.344971" y="63.450528" style="fill: #ff7f0e; stroke: #ff7f0e"/>
     <use xlink:href="#m26630f1894" x="203.791288" y="63.450528" style="fill: #ff7f0e; stroke: #ff7f0e"/>
     <use xlink:href="#m26630f1894" x="215.963912" y="112.141056" style="fill: #ff7f0e; stroke: #ff7f0e"/>
     <use xlink:href="#m26630f1894" x="215.963912" y="209.522101" style="fill: #ff7f0e; stroke: #ff7f0e"/>
     <use xlink:href="#m26630f1894" x="325.5176" y="185.176843" style="fill: #ff7f0e; stroke: #ff7f0e"/>
     <use xlink:href="#m26630f1894" x="301.172336" y="63.450528" style="fill: #ff7f0e; stroke: #ff7f0e"/>
     <use xlink:href="#m26630f1894" x="325.5176" y="136.486312" style="fill: #ff7f0e; stroke: #ff7f0e"/>
     <use xlink:href="#m26630f1894" x="240.309176" y="14.76" style="fill: #ff7f0e; stroke: #ff7f0e"/>
     <use xlink:href="#m26630f1894" x="313.344971" y="233.867371" style="fill: #ff7f0e; stroke: #ff7f0e"/>
     <use xlink:href="#m26630f1894" x="142.928128" y="112.141056" style="fill: #ff7f0e; stroke: #ff7f0e"/>
     <use xlink:href="#m26630f1894" x="203.791288" y="209.522101" style="fill: #ff7f0e; stroke: #ff7f0e"/>
     <use xlink:href="#m26630f1894" x="301.172336" y="136.486312" style="fill: #ff7f0e; stroke: #ff7f0e"/>
     <use xlink:href="#m26630f1894" x="228.136544" y="99.968424" style="fill: #ff7f0e; stroke: #ff7f0e"/>
     <use xlink:href="#m26630f1894" x="106.410229" y="233.867371" style="fill: #ff7f0e; stroke: #ff7f0e"/>
     <use xlink:href="#m26630f1894" x="228.136544" y="160.831576" style="fill: #ff7f0e; stroke: #ff7f0e"/>
     <use xlink:href="#m26630f1894" x="118.582864" y="221.694736" style="fill: #ff7f0e; stroke: #ff7f0e"/>
     <use xlink:href="#m26630f1894" x="288.999701" y="173.004208" style="fill: #ff7f0e; stroke: #ff7f0e"/>
     <use xlink:href="#m26630f1894" x="118.582864" y="209.522101" style="fill: #ff7f0e; stroke: #ff7f0e"/>
     <use xlink:href="#m26630f1894" x="276.827072" y="209.522101" style="fill: #ff7f0e; stroke: #ff7f0e"/>
    </g>
   </g>
   <g id="patch_3">
    <path d="M 94.2376 246.04 
L 94.2376 14.76 
" style="fill: none; stroke: #000000; stroke-width: 0.8; stroke-linejoin: miter; stroke-linecap: square"/>
   </g>
   <g id="patch_4">
    <path d="M 325.5176 246.04 
L 325.5176 14.76 
" style="fill: none; stroke: #000000; stroke-width: 0.8; stroke-linejoin: miter; stroke-linecap: square"/>
   </g>
   <g id="patch_5">
    <path d="M 94.2376 246.04 
L 325.5176 246.04 
" style="fill: none; stroke: #000000; stroke-width: 0.8; stroke-linejoin: miter; stroke-linecap: square"/>
   </g>
   <g id="patch_6">
    <path d="M 94.2376 14.76 
L 325.5176 14.76 
" style="fill: none; stroke: #000000; stroke-width: 0.8; stroke-linejoin: miter; stroke-linecap: square"/>
   </g>
  </g>
  <g id="axes_2">
   <g id="patch_7">
    <path d="M 345.18745 246.04 
L 356.75145 246.04 
L 356.75145 14.76 
L 345.18745 14.76 
z
" style="fill: #ffffff"/>
   </g>
   <g id="QuadMesh_1">
    <path d="M 345.18745 246.04 
L 356.75145 246.04 
L 356.75145 188.22 
L 345.18745 188.22 
L 345.18745 246.04 
" clip-path="url(#pbc5b23920f)" style="fill: #472d7b"/>
    <path d="M 345.18745 188.22 
L 356.75145 188.22 
L 356.75145 130.4 
L 345.18745 130.4 
L 345.18745 188.22 
" clip-path="url(#pbc5b23920f)" style="fill: #2c728e"/>
    <path d="M 345.18745 130.4 
L 356.75145 130.4 
L 356.75145 72.58 
L 345.18745 72.58 
L 345.18745 130.4 
" clip-path="url(#pbc5b23920f)" style="fill: #28ae80"/>
    <path d="M 345.18745 72.58 
L 356.75145 72.58 
L 356.75145 14.76 
L 345.18745 14.76 
L 345.18745 72.58 
" clip-path="url(#pbc5b23920f)" style="fill: #addc30"/>
   </g>
   <g id="matplotlib.axis_3"/>
   <g id="matplotlib.axis_4">
    <g id="ytick_4">
     <g id="line2d_8">
      <defs>
       <path id="mbcb011d1cd" d="M 0 0 
L 3.5 0 
" style="stroke: #000000; stroke-width: 0.8"/>
      </defs>
      <g>
       <use xlink:href="#mbcb011d1cd" x="356.75145" y="246.04" style="stroke: #000000; stroke-width: 0.8"/>
      </g>
     </g>
     <g id="text_9">
      <!-- 0.7869 -->
      <g transform="translate(363.75145 249.839219) scale(0.1 -0.1)">
       <defs>
        <path id="DejaVuSans-2e" d="M 684 794 
L 1344 794 
L 1344 0 
L 684 0 
L 684 794 
z
" transform="scale(0.015625)"/>
        <path id="DejaVuSans-37" d="M 525 4666 
L 3525 4666 
L 3525 4397 
L 1831 0 
L 1172 0 
L 2766 4134 
L 525 4134 
L 525 4666 
z
" transform="scale(0.015625)"/>
        <path id="DejaVuSans-38" d="M 2034 2216 
Q 1584 2216 1326 1975 
Q 1069 1734 1069 1313 
Q 1069 891 1326 650 
Q 1584 409 2034 409 
Q 2484 409 2743 651 
Q 3003 894 3003 1313 
Q 3003 1734 2745 1975 
Q 2488 2216 2034 2216 
z
M 1403 2484 
Q 997 2584 770 2862 
Q 544 3141 544 3541 
Q 544 4100 942 4425 
Q 1341 4750 2034 4750 
Q 2731 4750 3128 4425 
Q 3525 4100 3525 3541 
Q 3525 3141 3298 2862 
Q 3072 2584 2669 2484 
Q 3125 2378 3379 2068 
Q 3634 1759 3634 1313 
Q 3634 634 3220 271 
Q 2806 -91 2034 -91 
Q 1263 -91 848 271 
Q 434 634 434 1313 
Q 434 1759 690 2068 
Q 947 2378 1403 2484 
z
M 1172 3481 
Q 1172 3119 1398 2916 
Q 1625 2713 2034 2713 
Q 2441 2713 2670 2916 
Q 2900 3119 2900 3481 
Q 2900 3844 2670 4047 
Q 2441 4250 2034 4250 
Q 1625 4250 1398 4047 
Q 1172 3844 1172 3481 
z
" transform="scale(0.015625)"/>
        <path id="DejaVuSans-36" d="M 2113 2584 
Q 1688 2584 1439 2293 
Q 1191 2003 1191 1497 
Q 1191 994 1439 701 
Q 1688 409 2113 409 
Q 2538 409 2786 701 
Q 3034 994 3034 1497 
Q 3034 2003 2786 2293 
Q 2538 2584 2113 2584 
z
M 3366 4563 
L 3366 3988 
Q 3128 4100 2886 4159 
Q 2644 4219 2406 4219 
Q 1781 4219 1451 3797 
Q 1122 3375 1075 2522 
Q 1259 2794 1537 2939 
Q 1816 3084 2150 3084 
Q 2853 3084 3261 2657 
Q 3669 2231 3669 1497 
Q 3669 778 3244 343 
Q 2819 -91 2113 -91 
Q 1303 -91 875 529 
Q 447 1150 447 2328 
Q 447 3434 972 4092 
Q 1497 4750 2381 4750 
Q 2619 4750 2861 4703 
Q 3103 4656 3366 4563 
z
" transform="scale(0.015625)"/>
        <path id="DejaVuSans-39" d="M 703 97 
L 703 672 
Q 941 559 1184 500 
Q 1428 441 1663 441 
Q 2288 441 2617 861 
Q 2947 1281 2994 2138 
Q 2813 1869 2534 1725 
Q 2256 1581 1919 1581 
Q 1219 1581 811 2004 
Q 403 2428 403 3163 
Q 403 3881 828 4315 
Q 1253 4750 1959 4750 
Q 2769 4750 3195 4129 
Q 3622 3509 3622 2328 
Q 3622 1225 3098 567 
Q 2575 -91 1691 -91 
Q 1453 -91 1209 -44 
Q 966 3 703 97 
z
M 1959 2075 
Q 2384 2075 2632 2365 
Q 2881 2656 2881 3163 
Q 2881 3666 2632 3958 
Q 2384 4250 1959 4250 
Q 1534 4250 1286 3958 
Q 1038 3666 1038 3163 
Q 1038 2656 1286 2365 
Q 1534 2075 1959 2075 
z
" transform="scale(0.015625)"/>
       </defs>
       <use xlink:href="#DejaVuSans-30"/>
       <use xlink:href="#DejaVuSans-2e" x="63.623047"/>
       <use xlink:href="#DejaVuSans-37" x="95.410156"/>
       <use xlink:href="#DejaVuSans-38" x="159.033203"/>
       <use xlink:href="#DejaVuSans-36" x="222.65625"/>
       <use xlink:href="#DejaVuSans-39" x="286.279297"/>
      </g>
     </g>
    </g>
    <g id="ytick_5">
     <g id="line2d_9">
      <g>
       <use xlink:href="#mbcb011d1cd" x="356.75145" y="188.22" style="stroke: #000000; stroke-width: 0.8"/>
      </g>
     </g>
     <g id="text_10">
      <!-- 0.8323 -->
      <g transform="translate(363.75145 192.019219) scale(0.1 -0.1)">
       <defs>
        <path id="DejaVuSans-33" d="M 2597 2516 
Q 3050 2419 3304 2112 
Q 3559 1806 3559 1356 
Q 3559 666 3084 287 
Q 2609 -91 1734 -91 
Q 1441 -91 1130 -33 
Q 819 25 488 141 
L 488 750 
Q 750 597 1062 519 
Q 1375 441 1716 441 
Q 2309 441 2620 675 
Q 2931 909 2931 1356 
Q 2931 1769 2642 2001 
Q 2353 2234 1838 2234 
L 1294 2234 
L 1294 2753 
L 1863 2753 
Q 2328 2753 2575 2939 
Q 2822 3125 2822 3475 
Q 2822 3834 2567 4026 
Q 2313 4219 1838 4219 
Q 1578 4219 1281 4162 
Q 984 4106 628 3988 
L 628 4550 
Q 988 4650 1302 4700 
Q 1616 4750 1894 4750 
Q 2613 4750 3031 4423 
Q 3450 4097 3450 3541 
Q 3450 3153 3228 2886 
Q 3006 2619 2597 2516 
z
" transform="scale(0.015625)"/>
        <path id="DejaVuSans-32" d="M 1228 531 
L 3431 531 
L 3431 0 
L 469 0 
L 469 531 
Q 828 903 1448 1529 
Q 2069 2156 2228 2338 
Q 2531 2678 2651 2914 
Q 2772 3150 2772 3378 
Q 2772 3750 2511 3984 
Q 2250 4219 1831 4219 
Q 1534 4219 1204 4116 
Q 875 4013 500 3803 
L 500 4441 
Q 881 4594 1212 4672 
Q 1544 4750 1819 4750 
Q 2544 4750 2975 4387 
Q 3406 4025 3406 3419 
Q 3406 3131 3298 2873 
Q 3191 2616 2906 2266 
Q 2828 2175 2409 1742 
Q 1991 1309 1228 531 
z
" transform="scale(0.015625)"/>
       </defs>
       <use xlink:href="#DejaVuSans-30"/>
       <use xlink:href="#DejaVuSans-2e" x="63.623047"/>
       <use xlink:href="#DejaVuSans-38" x="95.410156"/>
       <use xlink:href="#DejaVuSans-33" x="159.033203"/>
       <use xlink:href="#DejaVuSans-32" x="222.65625"/>
       <use xlink:href="#DejaVuSans-33" x="286.279297"/>
      </g>
     </g>
    </g>
    <g id="ytick_6">
     <g id="line2d_10">
      <g>
       <use xlink:href="#mbcb011d1cd" x="356.75145" y="130.4" style="stroke: #000000; stroke-width: 0.8"/>
      </g>
     </g>
     <g id="text_11">
      <!-- 0.8778 -->
      <g transform="translate(363.75145 134.199219) scale(0.1 -0.1)">
       <use xlink:href="#DejaVuSans-30"/>
       <use xlink:href="#DejaVuSans-2e" x="63.623047"/>
       <use xlink:href="#DejaVuSans-38" x="95.410156"/>
       <use xlink:href="#DejaVuSans-37" x="159.033203"/>
       <use xlink:href="#DejaVuSans-37" x="222.65625"/>
       <use xlink:href="#DejaVuSans-38" x="286.279297"/>
      </g>
     </g>
    </g>
    <g id="ytick_7">
     <g id="line2d_11">
      <g>
       <use xlink:href="#mbcb011d1cd" x="356.75145" y="72.58" style="stroke: #000000; stroke-width: 0.8"/>
      </g>
     </g>
     <g id="text_12">
      <!-- 0.9232 -->
      <g transform="translate(363.75145 76.379219) scale(0.1 -0.1)">
       <use xlink:href="#DejaVuSans-30"/>
       <use xlink:href="#DejaVuSans-2e" x="63.623047"/>
       <use xlink:href="#DejaVuSans-39" x="95.410156"/>
       <use xlink:href="#DejaVuSans-32" x="159.033203"/>
       <use xlink:href="#DejaVuSans-33" x="222.65625"/>
       <use xlink:href="#DejaVuSans-32" x="286.279297"/>
      </g>
     </g>
    </g>
    <g id="ytick_8">
     <g id="line2d_12">
      <g>
       <use xlink:href="#mbcb011d1cd" x="356.75145" y="14.76" style="stroke: #000000; stroke-width: 0.8"/>
      </g>
     </g>
     <g id="text_13">
      <!-- 0.9686 -->
      <g transform="translate(363.75145 18.559219) scale(0.1 -0.1)">
       <use xlink:href="#DejaVuSans-30"/>
       <use xlink:href="#DejaVuSans-2e" x="63.623047"/>
       <use xlink:href="#DejaVuSans-39" x="95.410156"/>
       <use xlink:href="#DejaVuSans-36" x="159.033203"/>
       <use xlink:href="#DejaVuSans-38" x="222.65625"/>
       <use xlink:href="#DejaVuSans-36" x="286.279297"/>
      </g>
     </g>
    </g>
    <g id="text_14">
     <!-- Posterior standard deviation -->
     <g transform="translate(410.340512 201.090625) rotate(-90) scale(0.1 -0.1)">
      <defs>
       <path id="DejaVuSans-50" d="M 1259 4147 
L 1259 2394 
L 2053 2394 
Q 2494 2394 2734 2622 
Q 2975 2850 2975 3272 
Q 2975 3691 2734 3919 
Q 2494 4147 2053 4147 
L 1259 4147 
z
M 628 4666 
L 2053 4666 
Q 2838 4666 3239 4311 
Q 3641 3956 3641 3272 
Q 3641 2581 3239 2228 
Q 2838 1875 2053 1875 
L 1259 1875 
L 1259 0 
L 628 0 
L 628 4666 
z
" transform="scale(0.015625)"/>
       <path id="DejaVuSans-6f" d="M 1959 3097 
Q 1497 3097 1228 2736 
Q 959 2375 959 1747 
Q 959 1119 1226 758 
Q 1494 397 1959 397 
Q 2419 397 2687 759 
Q 2956 1122 2956 1747 
Q 2956 2369 2687 2733 
Q 2419 3097 1959 3097 
z
M 1959 3584 
Q 2709 3584 3137 3096 
Q 3566 2609 3566 1747 
Q 3566 888 3137 398 
Q 2709 -91 1959 -91 
Q 1206 -91 779 398 
Q 353 888 353 1747 
Q 353 2609 779 3096 
Q 1206 3584 1959 3584 
z
" transform="scale(0.015625)"/>
       <path id="DejaVuSans-73" d="M 2834 3397 
L 2834 2853 
Q 2591 2978 2328 3040 
Q 2066 3103 1784 3103 
Q 1356 3103 1142 2972 
Q 928 2841 928 2578 
Q 928 2378 1081 2264 
Q 1234 2150 1697 2047 
L 1894 2003 
Q 2506 1872 2764 1633 
Q 3022 1394 3022 966 
Q 3022 478 2636 193 
Q 2250 -91 1575 -91 
Q 1294 -91 989 -36 
Q 684 19 347 128 
L 347 722 
Q 666 556 975 473 
Q 1284 391 1588 391 
Q 1994 391 2212 530 
Q 2431 669 2431 922 
Q 2431 1156 2273 1281 
Q 2116 1406 1581 1522 
L 1381 1569 
Q 847 1681 609 1914 
Q 372 2147 372 2553 
Q 372 3047 722 3315 
Q 1072 3584 1716 3584 
Q 2034 3584 2315 3537 
Q 2597 3491 2834 3397 
z
" transform="scale(0.015625)"/>
       <path id="DejaVuSans-74" d="M 1172 4494 
L 1172 3500 
L 2356 3500 
L 2356 3053 
L 1172 3053 
L 1172 1153 
Q 1172 725 1289 603 
Q 1406 481 1766 481 
L 2356 481 
L 2356 0 
L 1766 0 
Q 1100 0 847 248 
Q 594 497 594 1153 
L 594 3053 
L 172 3053 
L 172 3500 
L 594 3500 
L 594 4494 
L 1172 4494 
z
" transform="scale(0.015625)"/>
       <path id="DejaVuSans-65" d="M 3597 1894 
L 3597 1613 
L 953 1613 
Q 991 1019 1311 708 
Q 1631 397 2203 397 
Q 2534 397 2845 478 
Q 3156 559 3463 722 
L 3463 178 
Q 3153 47 2828 -22 
Q 2503 -91 2169 -91 
Q 1331 -91 842 396 
Q 353 884 353 1716 
Q 353 2575 817 3079 
Q 1281 3584 2069 3584 
Q 2775 3584 3186 3129 
Q 3597 2675 3597 1894 
z
M 3022 2063 
Q 3016 2534 2758 2815 
Q 2500 3097 2075 3097 
Q 1594 3097 1305 2825 
Q 1016 2553 972 2059 
L 3022 2063 
z
" transform="scale(0.015625)"/>
       <path id="DejaVuSans-72" d="M 2631 2963 
Q 2534 3019 2420 3045 
Q 2306 3072 2169 3072 
Q 1681 3072 1420 2755 
Q 1159 2438 1159 1844 
L 1159 0 
L 581 0 
L 581 3500 
L 1159 3500 
L 1159 2956 
Q 1341 3275 1631 3429 
Q 1922 3584 2338 3584 
Q 2397 3584 2469 3576 
Q 2541 3569 2628 3553 
L 2631 2963 
z
" transform="scale(0.015625)"/>
       <path id="DejaVuSans-69" d="M 603 3500 
L 1178 3500 
L 1178 0 
L 603 0 
L 603 3500 
z
M 603 4863 
L 1178 4863 
L 1178 4134 
L 603 4134 
L 603 4863 
z
" transform="scale(0.015625)"/>
       <path id="DejaVuSans-20" transform="scale(0.015625)"/>
       <path id="DejaVuSans-61" d="M 2194 1759 
Q 1497 1759 1228 1600 
Q 959 1441 959 1056 
Q 959 750 1161 570 
Q 1363 391 1709 391 
Q 2188 391 2477 730 
Q 2766 1069 2766 1631 
L 2766 1759 
L 2194 1759 
z
M 3341 1997 
L 3341 0 
L 2766 0 
L 2766 531 
Q 2569 213 2275 61 
Q 1981 -91 1556 -91 
Q 1019 -91 701 211 
Q 384 513 384 1019 
Q 384 1609 779 1909 
Q 1175 2209 1959 2209 
L 2766 2209 
L 2766 2266 
Q 2766 2663 2505 2880 
Q 2244 3097 1772 3097 
Q 1472 3097 1187 3025 
Q 903 2953 641 2809 
L 641 3341 
Q 956 3463 1253 3523 
Q 1550 3584 1831 3584 
Q 2591 3584 2966 3190 
Q 3341 2797 3341 1997 
z
" transform="scale(0.015625)"/>
       <path id="DejaVuSans-6e" d="M 3513 2113 
L 3513 0 
L 2938 0 
L 2938 2094 
Q 2938 2591 2744 2837 
Q 2550 3084 2163 3084 
Q 1697 3084 1428 2787 
Q 1159 2491 1159 1978 
L 1159 0 
L 581 0 
L 581 3500 
L 1159 3500 
L 1159 2956 
Q 1366 3272 1645 3428 
Q 1925 3584 2291 3584 
Q 2894 3584 3203 3211 
Q 3513 2838 3513 2113 
z
" transform="scale(0.015625)"/>
       <path id="DejaVuSans-64" d="M 2906 2969 
L 2906 4863 
L 3481 4863 
L 3481 0 
L 2906 0 
L 2906 525 
Q 2725 213 2448 61 
Q 2172 -91 1784 -91 
Q 1150 -91 751 415 
Q 353 922 353 1747 
Q 353 2572 751 3078 
Q 1150 3584 1784 3584 
Q 2172 3584 2448 3432 
Q 2725 3281 2906 2969 
z
M 947 1747 
Q 947 1113 1208 752 
Q 1469 391 1925 391 
Q 2381 391 2643 752 
Q 2906 1113 2906 1747 
Q 2906 2381 2643 2742 
Q 2381 3103 1925 3103 
Q 1469 3103 1208 2742 
Q 947 2381 947 1747 
z
" transform="scale(0.015625)"/>
       <path id="DejaVuSans-76" d="M 191 3500 
L 800 3500 
L 1894 563 
L 2988 3500 
L 3597 3500 
L 2284 0 
L 1503 0 
L 191 3500 
z
" transform="scale(0.015625)"/>
      </defs>
      <use xlink:href="#DejaVuSans-50"/>
      <use xlink:href="#DejaVuSans-6f" x="56.677734"/>
      <use xlink:href="#DejaVuSans-73" x="117.859375"/>
      <use xlink:href="#DejaVuSans-74" x="169.958984"/>
      <use xlink:href="#DejaVuSans-65" x="209.167969"/>
      <use xlink:href="#DejaVuSans-72" x="270.691406"/>
      <use xlink:href="#DejaVuSans-69" x="311.804688"/>
      <use xlink:href="#DejaVuSans-6f" x="339.587891"/>
      <use xlink:href="#DejaVuSans-72" x="400.769531"/>
      <use xlink:href="#DejaVuSans-20" x="441.882812"/>
      <use xlink:href="#DejaVuSans-73" x="473.669922"/>
      <use xlink:href="#DejaVuSans-74" x="525.769531"/>
      <use xlink:href="#DejaVuSans-61" x="564.978516"/>
      <use xlink:href="#DejaVuSans-6e" x="626.257812"/>
      <use xlink:href="#DejaVuSans-64" x="689.636719"/>
      <use xlink:href="#DejaVuSans-61" x="753.113281"/>
      <use xlink:href="#DejaVuSans-72" x="814.392578"/>
      <use xlink:href="#DejaVuSans-64" x="853.755859"/>
      <use xlink:href="#DejaVuSans-20" x="917.232422"/>
      <use xlink:href="#DejaVuSans-64" x="949.019531"/>
      <use xlink:href="#DejaVuSans-65" x="1012.496094"/>
      <use xlink:href="#DejaVuSans-76" x="1074.019531"/>
      <use xlink:href="#DejaVuSans-69" x="1133.199219"/>
      <use xlink:href="#DejaVuSans-61" x="1160.982422"/>
      <use xlink:href="#DejaVuSans-74" x="1222.261719"/>
      <use xlink:href="#DejaVuSans-69" x="1261.470703"/>
      <use xlink:href="#DejaVuSans-6f" x="1289.253906"/>
      <use xlink:href="#DejaVuSans-6e" x="1350.435547"/>
     </g>
    </g>
   </g>
   <g id="LineCollection_1"/>
   <g id="patch_8">
    <path d="M 345.18745 246.04 
L 350.96945 246.04 
L 356.75145 246.04 
L 356.75145 14.76 
L 350.96945 14.76 
L 345.18745 14.76 
L 345.18745 246.04 
z
" style="fill: none; stroke: #000000; stroke-width: 0.8; stroke-linejoin: miter; stroke-linecap: square"/>
   </g>
  </g>
 </g>
 <defs>
  <clipPath id="p655267e3b7">
   <rect x="94.2376" y="14.76" width="231.28" height="231.28"/>
  </clipPath>
  <clipPath id="pbc5b23920f">
   <rect x="345.18745" y="14.76" width="11.564" height="231.28"/>
  </clipPath>
 </defs>
</svg>
