<?xml version="1.0" encoding="utf-8" standalone="no"?>
<!DOCTYPE svg PUBLIC "-//W3C//DTD SVG 1.1//EN"
  "http://www.w3.org/Graphics/SVG/1.1/DTD/svg11.dtd">
<svg xmlns:xlink="http://www.w3.org/1999/xlink" width="288pt" height="216pt" viewBox="0 0 288 216" xmlns="http://www.w3.org/2000/svg" version="1.1">
 <metadata>
  <rdf:RDF xmlns:dc="http://purl.org/dc/elements/1.1/" xmlns:cc="http://creativecommons.org/ns#" xmlns:rdf="http://www.w3.org/1999/02/22-rdf-syntax-ns#">
   <cc:Work>
    <dc:type rdf:resource="http://purl.org/dc/dcmitype/StillImage"/>
    <dc:date>2025-03-19T12:55:54.039750</dc:date>
    <dc:format>image/svg+xml</dc:format>
    <dc:creator>
     <cc:Agent>
      <dc:title>Matplotlib v3.9.4, https://matplotlib.org/</dc:title>
     </cc:Agent>
    </dc:creator>
   </cc:Work>
  </rdf:RDF>
 </metadata>
 <defs>
  <style type="text/css">*{stroke-linejoin: round; stroke-linecap: butt}</style>
 </defs>
 <g id="figure_1">
  <g id="patch_1">
   <path d="M 0 216 
L 288 216 
L 288 0 
L 0 0 
z
" style="fill: #ffffff"/>
  </g>
  <g id="axes_1">
   <g id="patch_2">
    <path d="M 36 192.24 
L 259.2 192.24 
L 259.2 25.92 
L 36 25.92 
z
" style="fill: #ffffff"/>
   </g>
   <g id="PolyCollection_1">
    <path d="M 46.274283 67.445779 
L 46.274283 88.116239 
L 46.562842 87.804078 
L 46.926046 87.424675 
L 47.207094 87.14118 
L 48.25612 86.15904 
L 48.519982 85.929767 
L 48.567246 85.889396 
L 49.66535 85.009376 
L 49.709289 84.976465 
L 50.416432 84.464901 
L 50.512872 84.398168 
L 50.566426 84.361197 
L 52.021204 83.427936 
L 52.240486 83.297203 
L 52.257853 83.28706 
L 52.977683 82.873319 
L 52.99002 82.866303 
L 53.468108 82.602519 
L 54.020178 82.3067 
L 54.297368 82.161362 
L 54.446213 82.084055 
L 54.665604 81.970781 
L 54.826349 81.888604 
L 55.654266 81.471068 
L 55.851767 81.372837 
L 55.923196 81.337358 
L 56.53489 81.035527 
L 56.838506 80.886459 
L 57.069919 80.773092 
L 58.492925 80.075553 
L 58.567342 80.038876 
L 59.631037 79.511094 
L 61.414043 78.602158 
L 61.614531 78.497435 
L 62.191442 78.193466 
L 62.945402 77.78928 
L 63.005717 77.756419 
L 64.075919 77.167477 
L 64.461269 76.95118 
L 64.621204 76.860883 
L 66.018522 76.055687 
L 66.68042 75.665015 
L 68.60661 74.498228 
L 71.344608 72.786601 
L 72.36243 72.143701 
L 72.673387 71.947511 
L 72.94095 71.778824 
L 74.552482 70.770882 
L 74.933538 70.535548 
L 75.281782 70.32192 
L 75.436009 70.227799 
L 75.723261 70.053416 
L 75.844084 69.980407 
L 75.845317 69.979596 
L 76.517218 69.577698 
L 76.979269 69.305909 
L 77.289126 69.125974 
L 79.014139 68.165591 
L 79.054691 68.143928 
L 79.070305 68.135585 
L 79.117642 68.110443 
L 79.140936 68.098112 
L 79.497561 67.910989 
L 79.628543 67.843216 
L 79.889696 67.709864 
L 80.33034 67.490067 
L 80.971448 67.182677 
L 81.319825 67.022225 
L 83.130116 66.272321 
L 83.662532 66.081239 
L 85.018826 65.663043 
L 85.121821 65.635641 
L 85.157802 65.626143 
L 87.461843 65.19119 
L 87.493409 65.187654 
L 90.57462 65.209927 
L 91.027855 65.278052 
L 95.135414 66.751031 
L 95.508995 66.966467 
L 95.888842 67.200137 
L 95.924399 67.22279 
L 96.137925 67.361514 
L 97.046015 68.004744 
L 97.268042 68.175268 
L 97.640705 68.473397 
L 98.262595 69.004192 
L 98.611069 69.319983 
L 98.955684 69.645428 
L 99.2634 69.947079 
L 99.907871 70.61246 
L 100.0188 70.731702 
L 100.034946 70.74914 
L 100.338719 71.083064 
L 101.196049 72.081128 
L 101.908006 72.972382 
L 101.968719 73.051037 
L 102.068836 73.181691 
L 102.308715 73.499045 
L 102.608642 73.905004 
L 102.906864 74.318602 
L 105.621012 78.536752 
L 108.20904 83.299563 
L 108.281243 83.442448 
L 109.034852 84.964292 
L 110.619717 88.343682 
L 110.824389 88.797021 
L 111.526174 90.380053 
L 112.648806 92.999719 
L 113.972929 96.217876 
L 114.286909 96.999966 
L 115.083587 99.014565 
L 117.873747 106.366284 
L 118.15869 107.138791 
L 118.692061 108.593521 
L 120.80338 114.442104 
L 121.410479 116.142857 
L 121.588979 116.643927 
L 121.650369 116.816344 
L 122.211256 118.393465 
L 122.285769 118.603155 
L 123.98253 123.379962 
L 125.08263 126.465573 
L 125.185758 126.753789 
L 125.897098 128.735707 
L 126.499178 130.402796 
L 127.880241 134.179806 
L 128.439797 135.687454 
L 130.123532 140.124658 
L 130.771437 141.786119 
L 130.857537 142.004679 
L 131.2026 142.875686 
L 132.112819 145.13073 
L 132.752899 146.676813 
L 133.404916 148.21579 
L 133.458989 148.341602 
L 133.841327 149.224284 
L 133.896985 149.351649 
L 135.33286 152.532419 
L 136.528553 155.016831 
L 137.454216 156.829471 
L 137.6932 157.281199 
L 138.121642 158.073425 
L 138.29112 158.380686 
L 138.369817 158.522145 
L 138.826257 159.327111 
L 138.896029 159.447811 
L 138.933377 159.512281 
L 139.26389 160.074137 
L 139.402515 160.30558 
L 140.264901 161.688538 
L 141.384557 163.3342 
L 141.93029 164.073338 
L 142.566354 164.880944 
L 142.683415 165.023181 
L 142.881145 165.259037 
L 143.462374 165.919356 
L 144.187611 166.673061 
L 144.969908 167.39765 
L 145.303929 167.678804 
L 145.398881 167.755662 
L 145.437365 167.786414 
L 145.726879 168.010519 
L 145.856119 168.106352 
L 146.112217 168.288721 
L 146.36269 168.457311 
L 146.594055 168.604299 
L 146.655578 168.642027 
L 147.468377 169.08514 
L 147.924152 169.288804 
L 148.412847 169.470771 
L 149.522199 169.745266 
L 149.72097 169.774105 
L 152.574891 169.50806 
L 152.716963 169.461885 
L 152.990815 169.363948 
L 153.68336 169.06525 
L 154.340445 168.714693 
L 156.389635 167.208087 
L 156.476206 167.13092 
L 156.856319 166.77945 
L 157.043478 166.598574 
L 157.408691 166.231555 
L 158.026856 165.56767 
L 159.159779 164.213979 
L 160.931634 161.753558 
L 161.227014 161.303952 
L 161.687795 160.581102 
L 162.019313 160.044669 
L 163.862367 156.824538 
L 164.467845 155.681998 
L 164.710155 155.213374 
L 165.056573 154.5327 
L 165.322781 154.000922 
L 166.725094 151.080177 
L 167.793422 148.727443 
L 168.077094 148.08511 
L 168.502488 147.1089 
L 168.763386 146.502416 
L 168.823229 146.362561 
L 170.358277 142.675737 
L 171.286649 140.360746 
L 171.816139 139.014314 
L 172.148019 138.16104 
L 173.638947 134.249168 
L 174.791693 131.146419 
L 177.906067 122.515278 
L 178.51267 120.805537 
L 179.481413 118.064785 
L 180.3009 115.740966 
L 181.137924 113.366813 
L 183.022244 108.042404 
L 183.734624 106.044956 
L 183.915519 105.539519 
L 184.580162 103.69045 
L 185.36408 101.527285 
L 185.61667 100.834775 
L 186.058718 99.628865 
L 187.938321 94.599142 
L 188.493474 93.14812 
L 188.585827 92.90841 
L 188.825173 92.289577 
L 189.722173 90.00151 
L 190.011699 89.274081 
L 191.900482 84.673042 
L 192.300356 83.733548 
L 192.708975 82.786766 
L 193.058779 81.987158 
L 194.53546 78.728121 
L 194.851969 78.055115 
L 195.074347 77.587825 
L 196.454309 74.793668 
L 196.51518 74.67477 
L 197.252281 73.263854 
L 198.277069 71.395497 
L 200.169033 68.240817 
L 200.20101 68.190812 
L 201.085033 66.855288 
L 201.33091 66.499349 
L 201.496663 66.26334 
L 205.486242 61.535298 
L 205.642851 61.38737 
L 206.166161 60.913531 
L 206.598013 60.546573 
L 207.371312 59.942725 
L 207.548602 59.814108 
L 207.570566 59.798427 
L 207.609026 59.771111 
L 210.372409 58.242898 
L 210.653276 58.135025 
L 210.686257 58.122974 
L 212.974733 57.565652 
L 213.143618 57.545997 
L 214.285093 57.48864 
L 215.988506 57.636969 
L 217.575366 58.012735 
L 217.881388 58.110091 
L 218.431487 58.304846 
L 218.72735 58.419676 
L 218.927753 58.501323 
L 219.61511 58.805585 
L 220.353819 59.172485 
L 220.76303 59.392978 
L 221.719304 59.953901 
L 223.428873 61.106564 
L 223.646063 61.265912 
L 224.487998 61.909557 
L 225.352536 62.611206 
L 225.393802 62.645767 
L 225.562191 62.787382 
L 225.761155 62.956443 
L 226.415567 63.527193 
L 227.297763 64.328565 
L 227.552869 64.566927 
L 227.953554 64.947054 
L 228.28876 65.270276 
L 228.916564 65.888141 
L 229.133222 66.105183 
L 229.520627 66.497491 
L 230.805504 67.838575 
L 231.049011 68.099216 
L 231.769894 68.88234 
L 232.141576 69.292846 
L 232.408353 69.590122 
L 233.731097 71.09541 
L 235.494982 73.180113 
L 235.78868 73.535313 
L 237.010364 75.037596 
L 237.077161 75.120756 
L 238.088573 76.395479 
L 239.239844 77.879556 
L 240.496215 79.539858 
L 241.22133 80.518296 
L 241.269731 80.584319 
L 244.28227 84.827748 
L 244.322895 84.887021 
L 244.432675 85.04761 
L 245.231191 86.227847 
L 246.305373 87.852534 
L 247.883392 90.321074 
L 247.955982 90.437252 
L 247.955982 66.730121 
L 247.955982 66.730121 
L 247.883392 66.649579 
L 246.305373 64.847654 
L 245.231191 63.571983 
L 244.432675 62.601494 
L 244.322895 62.46665 
L 244.28227 62.416767 
L 241.269731 58.623699 
L 241.22133 58.561693 
L 240.496215 57.6308 
L 239.239844 56.013221 
L 238.088573 54.533011 
L 237.077161 53.240914 
L 237.010364 53.156025 
L 235.78868 51.614986 
L 235.494982 51.248301 
L 233.731097 49.088737 
L 232.408353 47.526206 
L 232.141576 47.218285 
L 231.769894 46.793353 
L 231.049011 45.983875 
L 230.805504 45.715035 
L 229.520627 44.338163 
L 229.133222 43.937664 
L 228.916564 43.716884 
L 228.28876 43.089636 
L 227.953554 42.762835 
L 227.552869 42.379867 
L 227.297763 42.14058 
L 226.415567 41.340299 
L 225.761155 40.775315 
L 225.562191 40.608493 
L 225.393802 40.469259 
L 225.352536 40.435387 
L 224.487998 39.749749 
L 223.646063 39.127767 
L 223.428873 38.974818 
L 221.719304 37.883816 
L 220.76303 37.364384 
L 220.353819 37.162628 
L 219.61511 36.830733 
L 218.927753 36.560099 
L 218.72735 36.488294 
L 218.431487 36.387926 
L 217.881388 36.220314 
L 217.575366 36.137793 
L 215.988506 35.835567 
L 214.285093 35.752888 
L 213.143618 35.842899 
L 212.974733 35.866284 
L 210.686257 36.446245 
L 210.653276 36.458353 
L 210.372409 36.564532 
L 207.609026 38.021587 
L 207.570566 38.047152 
L 207.548602 38.062001 
L 207.371312 38.18224 
L 206.598013 38.744397 
L 206.166161 39.084383 
L 205.642851 39.521782 
L 205.486242 39.658175 
L 201.496663 43.979771 
L 201.33091 44.194783 
L 201.085033 44.519016 
L 200.20101 45.736038 
L 200.169033 45.781588 
L 198.277069 48.661194 
L 197.252281 50.372312 
L 196.51518 51.667853 
L 196.454309 51.77716 
L 195.074347 54.354124 
L 194.851969 54.786501 
L 194.53546 55.410033 
L 193.058779 58.442444 
L 192.708975 59.189787 
L 192.300356 60.076536 
L 191.900482 60.95845 
L 190.011699 65.306085 
L 189.722173 65.997749 
L 188.825173 68.181559 
L 188.585827 68.774224 
L 188.493474 69.004106 
L 187.938321 70.398086 
L 186.058718 75.268002 
L 185.61667 76.444129 
L 185.36408 77.121101 
L 184.580162 79.242877 
L 183.915519 81.064988 
L 183.734624 81.564256 
L 183.022244 83.543398 
L 181.137924 88.861896 
L 180.3009 91.25328 
L 179.481413 93.605217 
L 178.51267 96.39327 
L 177.906067 98.139997 
L 174.791693 107.041227 
L 173.638947 110.271671 
L 172.148019 114.364138 
L 171.816139 115.259423 
L 171.286649 116.67376 
L 170.358277 119.109733 
L 168.823229 122.997653 
L 168.763386 123.145301 
L 168.502488 123.785597 
L 168.077094 124.816504 
L 167.793422 125.494775 
L 166.725094 127.979311 
L 165.322781 131.060149 
L 165.056573 131.620319 
L 164.710155 132.336889 
L 164.467845 132.829716 
L 163.862367 134.029977 
L 162.019313 137.396309 
L 161.687795 137.953832 
L 161.227014 138.703517 
L 160.931634 139.168447 
L 159.159779 141.691719 
L 158.026856 143.059061 
L 157.408691 143.721489 
L 157.043478 144.084828 
L 156.856319 144.262901 
L 156.476206 144.607471 
L 156.389635 144.682726 
L 154.340445 146.112235 
L 153.68336 146.426497 
L 152.990815 146.68135 
L 152.716963 146.760565 
L 152.574891 146.796854 
L 149.72097 146.828704 
L 149.522199 146.781848 
L 148.412847 146.404948 
L 147.924152 146.177178 
L 147.468377 145.931048 
L 146.655578 145.412594 
L 146.594055 145.369293 
L 146.36269 145.201172 
L 146.112217 145.009835 
L 145.856119 144.804672 
L 145.726879 144.697359 
L 145.437365 144.448084 
L 145.398881 144.413931 
L 145.303929 144.328788 
L 144.969908 144.019149 
L 144.187611 143.230689 
L 143.462374 142.421993 
L 142.881145 141.720821 
L 142.683415 141.471875 
L 142.566354 141.321899 
L 141.93029 140.475228 
L 141.384557 139.706369 
L 140.264901 138.010594 
L 139.402515 136.599868 
L 139.26389 136.364932 
L 138.933377 135.79576 
L 138.896029 135.730594 
L 138.826257 135.608547 
L 138.369817 134.796595 
L 138.29112 134.654337 
L 138.121642 134.345441 
L 137.6932 133.550991 
L 137.454216 133.099227 
L 136.528553 131.294232 
L 135.33286 128.838766 
L 133.896985 125.720748 
L 133.841327 125.596417 
L 133.458989 124.735815 
L 133.404916 124.613259 
L 132.752899 123.117182 
L 132.112819 121.618752 
L 131.2026 119.440867 
L 130.857537 118.601821 
L 130.771437 118.391414 
L 130.123532 116.79425 
L 128.439797 112.544703 
L 127.880241 111.105158 
L 126.499178 107.505375 
L 125.897098 105.918886 
L 125.185758 104.033886 
L 125.08263 103.759881 
L 123.98253 100.826181 
L 122.285769 96.281603 
L 122.211256 96.081899 
L 121.650369 94.579035 
L 121.588979 94.414652 
L 121.410479 93.93671 
L 120.80338 92.313184 
L 118.692061 86.705954 
L 118.15869 85.303474 
L 117.873747 84.557193 
L 115.083587 77.385165 
L 114.286909 75.391727 
L 113.972929 74.613883 
L 112.648806 71.385139 
L 111.526174 68.718545 
L 110.824389 67.087308 
L 110.619717 66.616955 
L 109.034852 63.06189 
L 108.281243 61.427999 
L 108.20904 61.273401 
L 105.621012 55.974859 
L 102.906864 50.956434 
L 102.608642 50.44066 
L 102.308715 49.92916 
L 102.068836 49.525447 
L 101.968719 49.358295 
L 101.908006 49.257381 
L 101.196049 48.096641 
L 100.338719 46.755349 
L 100.034946 46.294996 
L 100.0188 46.27085 
L 99.907871 46.10486 
L 99.2634 45.161643 
L 98.955684 44.723871 
L 98.611069 44.243476 
L 98.262595 43.768216 
L 97.640705 42.9465 
L 97.268042 42.470394 
L 97.046015 42.192558 
L 96.137925 41.10183 
L 95.924399 40.855929 
L 95.888842 40.815342 
L 95.508995 40.38932 
L 95.135414 39.982896 
L 91.027855 36.337698 
L 90.57462 36.027826 
L 87.493409 34.39943 
L 87.461843 34.386992 
L 85.157802 33.710105 
L 85.121821 33.703133 
L 85.018826 33.683506 
L 83.662532 33.508062 
L 83.130116 33.48 
L 81.319825 33.553483 
L 80.971448 33.597011 
L 80.33034 33.701397 
L 79.889696 33.791077 
L 79.628543 33.851204 
L 79.497561 33.88334 
L 79.140936 33.976937 
L 79.117642 33.983393 
L 79.070305 33.99665 
L 79.054691 34.001068 
L 79.014139 34.012546 
L 77.289126 34.612004 
L 76.979269 34.742056 
L 76.517218 34.94846 
L 75.845317 35.274501 
L 75.844084 35.275276 
L 75.723261 35.337181 
L 75.436009 35.48815 
L 75.281782 35.571647 
L 74.933538 35.765743 
L 74.552482 35.987383 
L 72.94095 37.02721 
L 72.673387 37.215495 
L 72.36243 37.439861 
L 71.344608 38.215094 
L 68.60661 40.594304 
L 66.68042 42.506476 
L 66.018522 43.205456 
L 64.621204 44.746812 
L 64.461269 44.928583 
L 64.075919 45.371118 
L 63.005717 46.631825 
L 62.945402 46.704118 
L 62.191442 47.620062 
L 61.614531 48.334321 
L 61.414043 48.585128 
L 59.631037 50.869149 
L 58.567342 52.270754 
L 58.492925 52.369731 
L 57.069919 54.279105 
L 56.838506 54.592191 
L 56.53489 55.003637 
L 55.923196 55.833875 
L 55.851767 55.931001 
L 55.654266 56.199397 
L 54.826349 57.323697 
L 54.665604 57.541435 
L 54.446213 57.838352 
L 54.297368 58.03952 
L 54.020178 58.413565 
L 53.468108 59.15448 
L 52.99002 59.790866 
L 52.977683 59.807193 
L 52.257853 60.753466 
L 52.240486 60.775947 
L 52.021204 61.060641 
L 50.566426 62.89567 
L 50.512872 62.961091 
L 50.416432 63.078503 
L 49.709289 63.921997 
L 49.66535 63.973315 
L 48.567246 65.208664 
L 48.519982 65.259724 
L 48.25612 65.541018 
L 47.207094 66.596812 
L 46.926046 66.861787 
L 46.562842 67.192583 
L 46.274283 67.445779 
z
" clip-path="url(#p48a60b79cd)" style="fill: #1f77b4; fill-opacity: 0.5"/>
   </g>
   <g id="matplotlib.axis_1">
    <g id="xtick_1">
     <g id="line2d_1">
      <defs>
       <path id="md6a800969c" d="M 0 0 
L 0 3.5 
" style="stroke: #000000; stroke-width: 0.8"/>
      </defs>
      <g>
       <use xlink:href="#md6a800969c" x="46.145455" y="192.24" style="stroke: #000000; stroke-width: 0.8"/>
      </g>
     </g>
     <g id="text_1">
      <!-- −1.0 -->
      <g transform="translate(34.004048 206.838437) scale(0.1 -0.1)">
       <defs>
        <path id="DejaVuSans-2212" d="M 678 2272 
L 4684 2272 
L 4684 1741 
L 678 1741 
L 678 2272 
z
" transform="scale(0.015625)"/>
        <path id="DejaVuSans-31" d="M 794 531 
L 1825 531 
L 1825 4091 
L 703 3866 
L 703 4441 
L 1819 4666 
L 2450 4666 
L 2450 531 
L 3481 531 
L 3481 0 
L 794 0 
L 794 531 
z
" transform="scale(0.015625)"/>
        <path id="DejaVuSans-2e" d="M 684 794 
L 1344 794 
L 1344 0 
L 684 0 
L 684 794 
z
" transform="scale(0.015625)"/>
        <path id="DejaVuSans-30" d="M 2034 4250 
Q 1547 4250 1301 3770 
Q 1056 3291 1056 2328 
Q 1056 1369 1301 889 
Q 1547 409 2034 409 
Q 2525 409 2770 889 
Q 3016 1369 3016 2328 
Q 3016 3291 2770 3770 
Q 2525 4250 2034 4250 
z
M 2034 4750 
Q 2819 4750 3233 4129 
Q 3647 3509 3647 2328 
Q 3647 1150 3233 529 
Q 2819 -91 2034 -91 
Q 1250 -91 836 529 
Q 422 1150 422 2328 
Q 422 3509 836 4129 
Q 1250 4750 2034 4750 
z
" transform="scale(0.015625)"/>
       </defs>
       <use xlink:href="#DejaVuSans-2212"/>
       <use xlink:href="#DejaVuSans-31" x="83.789062"/>
       <use xlink:href="#DejaVuSans-2e" x="147.412109"/>
       <use xlink:href="#DejaVuSans-30" x="179.199219"/>
      </g>
     </g>
    </g>
    <g id="xtick_2">
     <g id="line2d_2">
      <g>
       <use xlink:href="#md6a800969c" x="96.872727" y="192.24" style="stroke: #000000; stroke-width: 0.8"/>
      </g>
     </g>
     <g id="text_2">
      <!-- −0.5 -->
      <g transform="translate(84.731321 206.838437) scale(0.1 -0.1)">
       <defs>
        <path id="DejaVuSans-35" d="M 691 4666 
L 3169 4666 
L 3169 4134 
L 1269 4134 
L 1269 2991 
Q 1406 3038 1543 3061 
Q 1681 3084 1819 3084 
Q 2600 3084 3056 2656 
Q 3513 2228 3513 1497 
Q 3513 744 3044 326 
Q 2575 -91 1722 -91 
Q 1428 -91 1123 -41 
Q 819 9 494 109 
L 494 744 
Q 775 591 1075 516 
Q 1375 441 1709 441 
Q 2250 441 2565 725 
Q 2881 1009 2881 1497 
Q 2881 1984 2565 2268 
Q 2250 2553 1709 2553 
Q 1456 2553 1204 2497 
Q 953 2441 691 2322 
L 691 4666 
z
" transform="scale(0.015625)"/>
       </defs>
       <use xlink:href="#DejaVuSans-2212"/>
       <use xlink:href="#DejaVuSans-30" x="83.789062"/>
       <use xlink:href="#DejaVuSans-2e" x="147.412109"/>
       <use xlink:href="#DejaVuSans-35" x="179.199219"/>
      </g>
     </g>
    </g>
    <g id="xtick_3">
     <g id="line2d_3">
      <g>
       <use xlink:href="#md6a800969c" x="147.6" y="192.24" style="stroke: #000000; stroke-width: 0.8"/>
      </g>
     </g>
     <g id="text_3">
      <!-- 0.0 -->
      <g transform="translate(139.648438 206.838437) scale(0.1 -0.1)">
       <use xlink:href="#DejaVuSans-30"/>
       <use xlink:href="#DejaVuSans-2e" x="63.623047"/>
       <use xlink:href="#DejaVuSans-30" x="95.410156"/>
      </g>
     </g>
    </g>
    <g id="xtick_4">
     <g id="line2d_4">
      <g>
       <use xlink:href="#md6a800969c" x="198.327273" y="192.24" style="stroke: #000000; stroke-width: 0.8"/>
      </g>
     </g>
     <g id="text_4">
      <!-- 0.5 -->
      <g transform="translate(190.37571 206.838437) scale(0.1 -0.1)">
       <use xlink:href="#DejaVuSans-30"/>
       <use xlink:href="#DejaVuSans-2e" x="63.623047"/>
       <use xlink:href="#DejaVuSans-35" x="95.410156"/>
      </g>
     </g>
    </g>
    <g id="xtick_5">
     <g id="line2d_5">
      <g>
       <use xlink:href="#md6a800969c" x="249.054545" y="192.24" style="stroke: #000000; stroke-width: 0.8"/>
      </g>
     </g>
     <g id="text_5">
      <!-- 1.0 -->
      <g transform="translate(241.102983 206.838437) scale(0.1 -0.1)">
       <use xlink:href="#DejaVuSans-31"/>
       <use xlink:href="#DejaVuSans-2e" x="63.623047"/>
       <use xlink:href="#DejaVuSans-30" x="95.410156"/>
      </g>
     </g>
    </g>
   </g>
   <g id="matplotlib.axis_2">
    <g id="ytick_1">
     <g id="line2d_6">
      <defs>
       <path id="m1cf5a63d36" d="M 0 0 
L -3.5 0 
" style="stroke: #000000; stroke-width: 0.8"/>
      </defs>
      <g>
       <use xlink:href="#m1cf5a63d36" x="36" y="184.80209" style="stroke: #000000; stroke-width: 0.8"/>
      </g>
     </g>
     <g id="text_6">
      <!-- 0 -->
      <g transform="translate(22.6375 188.601308) scale(0.1 -0.1)">
       <use xlink:href="#DejaVuSans-30"/>
      </g>
     </g>
    </g>
    <g id="ytick_2">
     <g id="line2d_7">
      <g>
       <use xlink:href="#m1cf5a63d36" x="36" y="154.715099" style="stroke: #000000; stroke-width: 0.8"/>
      </g>
     </g>
     <g id="text_7">
      <!-- 1 -->
      <g transform="translate(22.6375 158.514318) scale(0.1 -0.1)">
       <use xlink:href="#DejaVuSans-31"/>
      </g>
     </g>
    </g>
    <g id="ytick_3">
     <g id="line2d_8">
      <g>
       <use xlink:href="#m1cf5a63d36" x="36" y="124.628108" style="stroke: #000000; stroke-width: 0.8"/>
      </g>
     </g>
     <g id="text_8">
      <!-- 2 -->
      <g transform="translate(22.6375 128.427327) scale(0.1 -0.1)">
       <defs>
        <path id="DejaVuSans-32" d="M 1228 531 
L 3431 531 
L 3431 0 
L 469 0 
L 469 531 
Q 828 903 1448 1529 
Q 2069 2156 2228 2338 
Q 2531 2678 2651 2914 
Q 2772 3150 2772 3378 
Q 2772 3750 2511 3984 
Q 2250 4219 1831 4219 
Q 1534 4219 1204 4116 
Q 875 4013 500 3803 
L 500 4441 
Q 881 4594 1212 4672 
Q 1544 4750 1819 4750 
Q 2544 4750 2975 4387 
Q 3406 4025 3406 3419 
Q 3406 3131 3298 2873 
Q 3191 2616 2906 2266 
Q 2828 2175 2409 1742 
Q 1991 1309 1228 531 
z
" transform="scale(0.015625)"/>
       </defs>
       <use xlink:href="#DejaVuSans-32"/>
      </g>
     </g>
    </g>
    <g id="ytick_4">
     <g id="line2d_9">
      <g>
       <use xlink:href="#m1cf5a63d36" x="36" y="94.541117" style="stroke: #000000; stroke-width: 0.8"/>
      </g>
     </g>
     <g id="text_9">
      <!-- 3 -->
      <g transform="translate(22.6375 98.340336) scale(0.1 -0.1)">
       <defs>
        <path id="DejaVuSans-33" d="M 2597 2516 
Q 3050 2419 3304 2112 
Q 3559 1806 3559 1356 
Q 3559 666 3084 287 
Q 2609 -91 1734 -91 
Q 1441 -91 1130 -33 
Q 819 25 488 141 
L 488 750 
Q 750 597 1062 519 
Q 1375 441 1716 441 
Q 2309 441 2620 675 
Q 2931 909 2931 1356 
Q 2931 1769 2642 2001 
Q 2353 2234 1838 2234 
L 1294 2234 
L 1294 2753 
L 1863 2753 
Q 2328 2753 2575 2939 
Q 2822 3125 2822 3475 
Q 2822 3834 2567 4026 
Q 2313 4219 1838 4219 
Q 1578 4219 1281 4162 
Q 984 4106 628 3988 
L 628 4550 
Q 988 4650 1302 4700 
Q 1616 4750 1894 4750 
Q 2613 4750 3031 4423 
Q 3450 4097 3450 3541 
Q 3450 3153 3228 2886 
Q 3006 2619 2597 2516 
z
" transform="scale(0.015625)"/>
       </defs>
       <use xlink:href="#DejaVuSans-33"/>
      </g>
     </g>
    </g>
    <g id="ytick_5">
     <g id="line2d_10">
      <g>
       <use xlink:href="#m1cf5a63d36" x="36" y="64.454127" style="stroke: #000000; stroke-width: 0.8"/>
      </g>
     </g>
     <g id="text_10">
      <!-- 4 -->
      <g transform="translate(22.6375 68.253346) scale(0.1 -0.1)">
       <defs>
        <path id="DejaVuSans-34" d="M 2419 4116 
L 825 1625 
L 2419 1625 
L 2419 4116 
z
M 2253 4666 
L 3047 4666 
L 3047 1625 
L 3713 1625 
L 3713 1100 
L 3047 1100 
L 3047 0 
L 2419 0 
L 2419 1100 
L 313 1100 
L 313 1709 
L 2253 4666 
z
" transform="scale(0.015625)"/>
       </defs>
       <use xlink:href="#DejaVuSans-34"/>
      </g>
     </g>
    </g>
    <g id="ytick_6">
     <g id="line2d_11">
      <g>
       <use xlink:href="#m1cf5a63d36" x="36" y="34.367136" style="stroke: #000000; stroke-width: 0.8"/>
      </g>
     </g>
     <g id="text_11">
      <!-- 5 -->
      <g transform="translate(22.6375 38.166355) scale(0.1 -0.1)">
       <use xlink:href="#DejaVuSans-35"/>
      </g>
     </g>
    </g>
   </g>
   <g id="line2d_12">
    <defs>
     <path id="m43d49cfca2" d="M 0 -3 
L -0.673542 -0.927051 
L -2.85317 -0.927051 
L -1.089814 0.354102 
L -1.763356 2.427051 
L -0 1.145898 
L 1.763356 2.427051 
L 1.089814 0.354102 
L 2.85317 -0.927051 
L 0.673542 -0.927051 
z
" style="stroke: #000000; stroke-linejoin: bevel"/>
    </defs>
    <g clip-path="url(#p48a60b79cd)">
     <use xlink:href="#m43d49cfca2" x="116.940356" y="89.647315" style="stroke: #000000; stroke-linejoin: bevel"/>
     <use xlink:href="#m43d49cfca2" x="121.386604" y="100.418961" style="stroke: #000000; stroke-linejoin: bevel"/>
     <use xlink:href="#m43d49cfca2" x="164.503294" y="134.343404" style="stroke: #000000; stroke-linejoin: bevel"/>
     <use xlink:href="#m43d49cfca2" x="208.440535" y="48.3395" style="stroke: #000000; stroke-linejoin: bevel"/>
     <use xlink:href="#m43d49cfca2" x="223.309285" y="48.690619" style="stroke: #000000; stroke-linejoin: bevel"/>
     <use xlink:href="#m43d49cfca2" x="50.518006" y="76.607744" style="stroke: #000000; stroke-linejoin: bevel"/>
     <use xlink:href="#m43d49cfca2" x="99.875334" y="59.866315" style="stroke: #000000; stroke-linejoin: bevel"/>
     <use xlink:href="#m43d49cfca2" x="46.145455" y="77.484458" style="stroke: #000000; stroke-linejoin: bevel"/>
     <use xlink:href="#m43d49cfca2" x="46.145455" y="76.90035" style="stroke: #000000; stroke-linejoin: bevel"/>
     <use xlink:href="#m43d49cfca2" x="249.054545" y="76.018415" style="stroke: #000000; stroke-linejoin: bevel"/>
     <use xlink:href="#m43d49cfca2" x="46.145455" y="74.902938" style="stroke: #000000; stroke-linejoin: bevel"/>
     <use xlink:href="#m43d49cfca2" x="237.748807" y="69.48164" style="stroke: #000000; stroke-linejoin: bevel"/>
     <use xlink:href="#m43d49cfca2" x="152.779835" y="173.068068" style="stroke: #000000; stroke-linejoin: bevel"/>
     <use xlink:href="#m43d49cfca2" x="197.862778" y="58.616024" style="stroke: #000000; stroke-linejoin: bevel"/>
     <use xlink:href="#m43d49cfca2" x="149.530124" y="182.936492" style="stroke: #000000; stroke-linejoin: bevel"/>
    </g>
   </g>
   <g id="line2d_13">
    <path d="M 46.145455 75.725128 
L 47.161015 76.550918 
L 48.176575 77.058156 
L 48.989024 77.239439 
L 49.801472 77.227618 
L 50.61392 77.03084 
L 51.629487 76.539325 
L 52.645047 75.795828 
L 53.86372 74.606782 
L 55.285504 72.871073 
L 56.910401 70.5277 
L 59.144634 66.897782 
L 65.238002 56.774194 
L 67.269123 53.892938 
L 69.097132 51.657739 
L 70.722029 49.985901 
L 72.346931 48.622056 
L 73.971828 47.566377 
L 75.393613 46.889389 
L 76.815397 46.433569 
L 78.237182 46.187554 
L 79.862078 46.147097 
L 81.486975 46.344334 
L 83.111878 46.759295 
L 84.939886 47.462909 
L 86.971007 48.509637 
L 89.002128 49.806913 
L 91.236361 51.494187 
L 93.673712 53.61823 
L 96.314169 56.229884 
L 98.954626 59.153892 
L 101.595086 62.394903 
L 104.235543 65.973517 
L 106.876003 69.926406 
L 109.51646 74.305905 
L 111.953808 78.785199 
L 114.391153 83.747227 
L 116.828501 89.258959 
L 119.062734 94.849713 
L 121.500079 101.586128 
L 123.937427 109.015713 
L 126.577886 117.831581 
L 129.624569 128.866178 
L 134.499262 147.572245 
L 137.952169 160.455659 
L 140.186403 168.025841 
L 142.014413 173.508708 
L 143.639311 177.710309 
L 145.061096 180.795172 
L 146.279769 182.965238 
L 147.498442 184.68 
L 147.701558 184.68 
L 148.717119 183.282986 
L 149.935792 181.187867 
L 151.154465 178.65047 
L 152.576251 175.164133 
L 154.201148 170.55285 
L 156.029157 164.687216 
L 158.466504 156.027611 
L 162.325637 141.294576 
L 166.997216 123.616472 
L 169.840788 113.667281 
L 172.481247 105.213808 
L 174.918593 98.132386 
L 177.355938 91.733403 
L 179.793286 85.97313 
L 182.230631 80.790222 
L 184.667979 76.117765 
L 187.308436 71.556925 
L 189.948896 67.447085 
L 192.589353 63.72971 
L 195.432926 60.116721 
L 198.276495 56.87703 
L 200.916952 54.192897 
L 203.557415 51.828406 
L 205.99476 49.949461 
L 208.228993 48.509637 
L 210.260114 47.462909 
L 212.088122 46.759295 
L 213.916137 46.307319 
L 215.541034 46.138776 
L 217.16593 46.210336 
L 218.587715 46.485562 
L 220.0095 46.97237 
L 221.431284 47.681666 
L 222.853069 48.622056 
L 224.477971 49.985901 
L 226.102868 51.657739 
L 227.930877 53.892938 
L 229.961998 56.774194 
L 232.399343 60.666195 
L 239.305159 72.031224 
L 240.930056 74.146084 
L 242.351841 75.619077 
L 243.570513 76.539325 
L 244.58608 77.03084 
L 245.60164 77.248277 
L 246.414088 77.212468 
L 247.226537 76.981889 
L 248.038985 76.550918 
L 249.054545 75.725128 
L 249.054545 75.725128 
" clip-path="url(#p48a60b79cd)" style="fill: none; stroke: #ffa500; stroke-width: 1.5; stroke-linecap: square"/>
   </g>
   <g id="line2d_14">
    <path d="M 46.274283 77.781009 
L 53.468108 70.878496 
L 59.631037 65.190121 
L 64.621204 60.803851 
L 68.60661 57.54627 
L 72.94095 54.403017 
L 75.845317 52.627052 
L 77.289126 51.868992 
L 80.33034 50.595732 
L 81.319825 50.287854 
L 83.662532 49.794647 
L 85.157802 49.668124 
L 87.493409 49.793542 
L 91.027855 50.807875 
L 95.508995 53.677897 
L 97.268042 55.322835 
L 99.2634 57.554361 
L 101.196049 60.088888 
L 102.906864 62.637518 
L 105.621012 67.255802 
L 109.034852 74.013091 
L 111.526174 79.549299 
L 115.083587 88.199865 
L 120.80338 103.377644 
L 128.439797 124.116078 
L 132.112819 133.374739 
L 133.896985 137.536199 
L 136.528553 143.155531 
L 138.933377 147.65402 
L 140.264901 149.849566 
L 142.566354 153.101423 
L 144.187611 154.951875 
L 145.856119 156.455513 
L 146.655578 157.027311 
L 148.412847 157.937861 
L 149.72097 158.301403 
L 152.990815 158.022649 
L 154.340445 157.413464 
L 157.043478 155.341701 
L 158.026856 154.313365 
L 159.159779 152.952849 
L 161.687795 149.267467 
L 162.019313 148.720489 
L 165.056573 143.07651 
L 166.725094 139.529744 
L 168.823229 134.680107 
L 172.148019 126.262587 
L 174.791693 119.093823 
L 186.058718 87.448433 
L 190.011699 77.290083 
L 193.058779 70.214801 
L 195.074347 65.970971 
L 197.252281 61.818083 
L 198.277069 60.028346 
L 201.33091 55.347066 
L 201.496663 55.121552 
L 205.642851 50.454576 
L 207.570566 48.92279 
L 207.609026 48.896349 
L 210.686257 47.284609 
L 213.143618 46.694448 
L 214.285093 46.620764 
L 215.988506 46.736268 
L 218.431487 47.346386 
L 219.61511 47.818159 
L 221.719304 48.918859 
L 224.487998 50.829653 
L 226.415567 52.433746 
L 229.133222 55.021427 
L 232.141576 58.255566 
L 235.494982 62.214207 
L 239.239844 66.946389 
L 245.231191 74.899911 
L 247.955982 78.583687 
L 247.955982 78.583687 
" clip-path="url(#p48a60b79cd)" style="fill: none; stroke: #0000ff; stroke-width: 1.5; stroke-linecap: square"/>
   </g>
   <g id="line2d_15">
    <defs>
     <path id="mf10064eba7" d="M 0 -3 
L -0.673542 -0.927051 
L -2.85317 -0.927051 
L -1.089814 0.354102 
L -1.763356 2.427051 
L -0 1.145898 
L 1.763356 2.427051 
L 1.089814 0.354102 
L 2.85317 -0.927051 
L 0.673542 -0.927051 
z
" style="stroke: #ff0000; stroke-linejoin: bevel"/>
    </defs>
    <g clip-path="url(#p48a60b79cd)">
     <use xlink:href="#mf10064eba7" x="149.530124" y="182.936492" style="fill: #ff0000; stroke: #ff0000; stroke-linejoin: bevel"/>
    </g>
   </g>
   <g id="patch_3">
    <path d="M 36 192.24 
L 36 25.92 
" style="fill: none; stroke: #000000; stroke-width: 0.8; stroke-linejoin: miter; stroke-linecap: square"/>
   </g>
   <g id="patch_4">
    <path d="M 259.2 192.24 
L 259.2 25.92 
" style="fill: none; stroke: #000000; stroke-width: 0.8; stroke-linejoin: miter; stroke-linecap: square"/>
   </g>
   <g id="patch_5">
    <path d="M 36 192.24 
L 259.2 192.24 
" style="fill: none; stroke: #000000; stroke-width: 0.8; stroke-linejoin: miter; stroke-linecap: square"/>
   </g>
   <g id="patch_6">
    <path d="M 36 25.92 
L 259.2 25.92 
" style="fill: none; stroke: #000000; stroke-width: 0.8; stroke-linejoin: miter; stroke-linecap: square"/>
   </g>
   <g id="legend_1">
    <g id="patch_7">
     <path d="M 127.071875 139.93625 
L 252.2 139.93625 
Q 254.2 139.93625 254.2 137.93625 
L 254.2 80.22375 
Q 254.2 78.22375 252.2 78.22375 
L 127.071875 78.22375 
Q 125.071875 78.22375 125.071875 80.22375 
L 125.071875 137.93625 
Q 125.071875 139.93625 127.071875 139.93625 
z
" style="fill: #ffffff; opacity: 0.8; stroke: #cccccc; stroke-linejoin: miter"/>
    </g>
    <g id="line2d_16">
     <g>
      <use xlink:href="#m43d49cfca2" x="139.071875" y="86.322187" style="stroke: #000000; stroke-linejoin: bevel"/>
     </g>
    </g>
    <g id="text_12">
     <!-- Training Points -->
     <g transform="translate(157.071875 89.822187) scale(0.1 -0.1)">
      <defs>
       <path id="DejaVuSans-54" d="M -19 4666 
L 3928 4666 
L 3928 4134 
L 2272 4134 
L 2272 0 
L 1638 0 
L 1638 4134 
L -19 4134 
L -19 4666 
z
" transform="scale(0.015625)"/>
       <path id="DejaVuSans-72" d="M 2631 2963 
Q 2534 3019 2420 3045 
Q 2306 3072 2169 3072 
Q 1681 3072 1420 2755 
Q 1159 2438 1159 1844 
L 1159 0 
L 581 0 
L 581 3500 
L 1159 3500 
L 1159 2956 
Q 1341 3275 1631 3429 
Q 1922 3584 2338 3584 
Q 2397 3584 2469 3576 
Q 2541 3569 2628 3553 
L 2631 2963 
z
" transform="scale(0.015625)"/>
       <path id="DejaVuSans-61" d="M 2194 1759 
Q 1497 1759 1228 1600 
Q 959 1441 959 1056 
Q 959 750 1161 570 
Q 1363 391 1709 391 
Q 2188 391 2477 730 
Q 2766 1069 2766 1631 
L 2766 1759 
L 2194 1759 
z
M 3341 1997 
L 3341 0 
L 2766 0 
L 2766 531 
Q 2569 213 2275 61 
Q 1981 -91 1556 -91 
Q 1019 -91 701 211 
Q 384 513 384 1019 
Q 384 1609 779 1909 
Q 1175 2209 1959 2209 
L 2766 2209 
L 2766 2266 
Q 2766 2663 2505 2880 
Q 2244 3097 1772 3097 
Q 1472 3097 1187 3025 
Q 903 2953 641 2809 
L 641 3341 
Q 956 3463 1253 3523 
Q 1550 3584 1831 3584 
Q 2591 3584 2966 3190 
Q 3341 2797 3341 1997 
z
" transform="scale(0.015625)"/>
       <path id="DejaVuSans-69" d="M 603 3500 
L 1178 3500 
L 1178 0 
L 603 0 
L 603 3500 
z
M 603 4863 
L 1178 4863 
L 1178 4134 
L 603 4134 
L 603 4863 
z
" transform="scale(0.015625)"/>
       <path id="DejaVuSans-6e" d="M 3513 2113 
L 3513 0 
L 2938 0 
L 2938 2094 
Q 2938 2591 2744 2837 
Q 2550 3084 2163 3084 
Q 1697 3084 1428 2787 
Q 1159 2491 1159 1978 
L 1159 0 
L 581 0 
L 581 3500 
L 1159 3500 
L 1159 2956 
Q 1366 3272 1645 3428 
Q 1925 3584 2291 3584 
Q 2894 3584 3203 3211 
Q 3513 2838 3513 2113 
z
" transform="scale(0.015625)"/>
       <path id="DejaVuSans-67" d="M 2906 1791 
Q 2906 2416 2648 2759 
Q 2391 3103 1925 3103 
Q 1463 3103 1205 2759 
Q 947 2416 947 1791 
Q 947 1169 1205 825 
Q 1463 481 1925 481 
Q 2391 481 2648 825 
Q 2906 1169 2906 1791 
z
M 3481 434 
Q 3481 -459 3084 -895 
Q 2688 -1331 1869 -1331 
Q 1566 -1331 1297 -1286 
Q 1028 -1241 775 -1147 
L 775 -588 
Q 1028 -725 1275 -790 
Q 1522 -856 1778 -856 
Q 2344 -856 2625 -561 
Q 2906 -266 2906 331 
L 2906 616 
Q 2728 306 2450 153 
Q 2172 0 1784 0 
Q 1141 0 747 490 
Q 353 981 353 1791 
Q 353 2603 747 3093 
Q 1141 3584 1784 3584 
Q 2172 3584 2450 3431 
Q 2728 3278 2906 2969 
L 2906 3500 
L 3481 3500 
L 3481 434 
z
" transform="scale(0.015625)"/>
       <path id="DejaVuSans-20" transform="scale(0.015625)"/>
       <path id="DejaVuSans-50" d="M 1259 4147 
L 1259 2394 
L 2053 2394 
Q 2494 2394 2734 2622 
Q 2975 2850 2975 3272 
Q 2975 3691 2734 3919 
Q 2494 4147 2053 4147 
L 1259 4147 
z
M 628 4666 
L 2053 4666 
Q 2838 4666 3239 4311 
Q 3641 3956 3641 3272 
Q 3641 2581 3239 2228 
Q 2838 1875 2053 1875 
L 1259 1875 
L 1259 0 
L 628 0 
L 628 4666 
z
" transform="scale(0.015625)"/>
       <path id="DejaVuSans-6f" d="M 1959 3097 
Q 1497 3097 1228 2736 
Q 959 2375 959 1747 
Q 959 1119 1226 758 
Q 1494 397 1959 397 
Q 2419 397 2687 759 
Q 2956 1122 2956 1747 
Q 2956 2369 2687 2733 
Q 2419 3097 1959 3097 
z
M 1959 3584 
Q 2709 3584 3137 3096 
Q 3566 2609 3566 1747 
Q 3566 888 3137 398 
Q 2709 -91 1959 -91 
Q 1206 -91 779 398 
Q 353 888 353 1747 
Q 353 2609 779 3096 
Q 1206 3584 1959 3584 
z
" transform="scale(0.015625)"/>
       <path id="DejaVuSans-74" d="M 1172 4494 
L 1172 3500 
L 2356 3500 
L 2356 3053 
L 1172 3053 
L 1172 1153 
Q 1172 725 1289 603 
Q 1406 481 1766 481 
L 2356 481 
L 2356 0 
L 1766 0 
Q 1100 0 847 248 
Q 594 497 594 1153 
L 594 3053 
L 172 3053 
L 172 3500 
L 594 3500 
L 594 4494 
L 1172 4494 
z
" transform="scale(0.015625)"/>
       <path id="DejaVuSans-73" d="M 2834 3397 
L 2834 2853 
Q 2591 2978 2328 3040 
Q 2066 3103 1784 3103 
Q 1356 3103 1142 2972 
Q 928 2841 928 2578 
Q 928 2378 1081 2264 
Q 1234 2150 1697 2047 
L 1894 2003 
Q 2506 1872 2764 1633 
Q 3022 1394 3022 966 
Q 3022 478 2636 193 
Q 2250 -91 1575 -91 
Q 1294 -91 989 -36 
Q 684 19 347 128 
L 347 722 
Q 666 556 975 473 
Q 1284 391 1588 391 
Q 1994 391 2212 530 
Q 2431 669 2431 922 
Q 2431 1156 2273 1281 
Q 2116 1406 1581 1522 
L 1381 1569 
Q 847 1681 609 1914 
Q 372 2147 372 2553 
Q 372 3047 722 3315 
Q 1072 3584 1716 3584 
Q 2034 3584 2315 3537 
Q 2597 3491 2834 3397 
z
" transform="scale(0.015625)"/>
      </defs>
      <use xlink:href="#DejaVuSans-54"/>
      <use xlink:href="#DejaVuSans-72" x="46.333984"/>
      <use xlink:href="#DejaVuSans-61" x="87.447266"/>
      <use xlink:href="#DejaVuSans-69" x="148.726562"/>
      <use xlink:href="#DejaVuSans-6e" x="176.509766"/>
      <use xlink:href="#DejaVuSans-69" x="239.888672"/>
      <use xlink:href="#DejaVuSans-6e" x="267.671875"/>
      <use xlink:href="#DejaVuSans-67" x="331.050781"/>
      <use xlink:href="#DejaVuSans-20" x="394.527344"/>
      <use xlink:href="#DejaVuSans-50" x="426.314453"/>
      <use xlink:href="#DejaVuSans-6f" x="482.992188"/>
      <use xlink:href="#DejaVuSans-69" x="544.173828"/>
      <use xlink:href="#DejaVuSans-6e" x="571.957031"/>
      <use xlink:href="#DejaVuSans-74" x="635.335938"/>
      <use xlink:href="#DejaVuSans-73" x="674.544922"/>
     </g>
    </g>
    <g id="line2d_17">
     <path d="M 129.071875 101.000313 
L 139.071875 101.000313 
L 149.071875 101.000313 
" style="fill: none; stroke: #ffa500; stroke-width: 1.5; stroke-linecap: square"/>
    </g>
    <g id="text_13">
     <!-- Objective Function -->
     <g transform="translate(157.071875 104.500313) scale(0.1 -0.1)">
      <defs>
       <path id="DejaVuSans-4f" d="M 2522 4238 
Q 1834 4238 1429 3725 
Q 1025 3213 1025 2328 
Q 1025 1447 1429 934 
Q 1834 422 2522 422 
Q 3209 422 3611 934 
Q 4013 1447 4013 2328 
Q 4013 3213 3611 3725 
Q 3209 4238 2522 4238 
z
M 2522 4750 
Q 3503 4750 4090 4092 
Q 4678 3434 4678 2328 
Q 4678 1225 4090 567 
Q 3503 -91 2522 -91 
Q 1538 -91 948 565 
Q 359 1222 359 2328 
Q 359 3434 948 4092 
Q 1538 4750 2522 4750 
z
" transform="scale(0.015625)"/>
       <path id="DejaVuSans-62" d="M 3116 1747 
Q 3116 2381 2855 2742 
Q 2594 3103 2138 3103 
Q 1681 3103 1420 2742 
Q 1159 2381 1159 1747 
Q 1159 1113 1420 752 
Q 1681 391 2138 391 
Q 2594 391 2855 752 
Q 3116 1113 3116 1747 
z
M 1159 2969 
Q 1341 3281 1617 3432 
Q 1894 3584 2278 3584 
Q 2916 3584 3314 3078 
Q 3713 2572 3713 1747 
Q 3713 922 3314 415 
Q 2916 -91 2278 -91 
Q 1894 -91 1617 61 
Q 1341 213 1159 525 
L 1159 0 
L 581 0 
L 581 4863 
L 1159 4863 
L 1159 2969 
z
" transform="scale(0.015625)"/>
       <path id="DejaVuSans-6a" d="M 603 3500 
L 1178 3500 
L 1178 -63 
Q 1178 -731 923 -1031 
Q 669 -1331 103 -1331 
L -116 -1331 
L -116 -844 
L 38 -844 
Q 366 -844 484 -692 
Q 603 -541 603 -63 
L 603 3500 
z
M 603 4863 
L 1178 4863 
L 1178 4134 
L 603 4134 
L 603 4863 
z
" transform="scale(0.015625)"/>
       <path id="DejaVuSans-65" d="M 3597 1894 
L 3597 1613 
L 953 1613 
Q 991 1019 1311 708 
Q 1631 397 2203 397 
Q 2534 397 2845 478 
Q 3156 559 3463 722 
L 3463 178 
Q 3153 47 2828 -22 
Q 2503 -91 2169 -91 
Q 1331 -91 842 396 
Q 353 884 353 1716 
Q 353 2575 817 3079 
Q 1281 3584 2069 3584 
Q 2775 3584 3186 3129 
Q 3597 2675 3597 1894 
z
M 3022 2063 
Q 3016 2534 2758 2815 
Q 2500 3097 2075 3097 
Q 1594 3097 1305 2825 
Q 1016 2553 972 2059 
L 3022 2063 
z
" transform="scale(0.015625)"/>
       <path id="DejaVuSans-63" d="M 3122 3366 
L 3122 2828 
Q 2878 2963 2633 3030 
Q 2388 3097 2138 3097 
Q 1578 3097 1268 2742 
Q 959 2388 959 1747 
Q 959 1106 1268 751 
Q 1578 397 2138 397 
Q 2388 397 2633 464 
Q 2878 531 3122 666 
L 3122 134 
Q 2881 22 2623 -34 
Q 2366 -91 2075 -91 
Q 1284 -91 818 406 
Q 353 903 353 1747 
Q 353 2603 823 3093 
Q 1294 3584 2113 3584 
Q 2378 3584 2631 3529 
Q 2884 3475 3122 3366 
z
" transform="scale(0.015625)"/>
       <path id="DejaVuSans-76" d="M 191 3500 
L 800 3500 
L 1894 563 
L 2988 3500 
L 3597 3500 
L 2284 0 
L 1503 0 
L 191 3500 
z
" transform="scale(0.015625)"/>
       <path id="DejaVuSans-46" d="M 628 4666 
L 3309 4666 
L 3309 4134 
L 1259 4134 
L 1259 2759 
L 3109 2759 
L 3109 2228 
L 1259 2228 
L 1259 0 
L 628 0 
L 628 4666 
z
" transform="scale(0.015625)"/>
       <path id="DejaVuSans-75" d="M 544 1381 
L 544 3500 
L 1119 3500 
L 1119 1403 
Q 1119 906 1312 657 
Q 1506 409 1894 409 
Q 2359 409 2629 706 
Q 2900 1003 2900 1516 
L 2900 3500 
L 3475 3500 
L 3475 0 
L 2900 0 
L 2900 538 
Q 2691 219 2414 64 
Q 2138 -91 1772 -91 
Q 1169 -91 856 284 
Q 544 659 544 1381 
z
M 1991 3584 
L 1991 3584 
z
" transform="scale(0.015625)"/>
      </defs>
      <use xlink:href="#DejaVuSans-4f"/>
      <use xlink:href="#DejaVuSans-62" x="78.710938"/>
      <use xlink:href="#DejaVuSans-6a" x="142.1875"/>
      <use xlink:href="#DejaVuSans-65" x="169.970703"/>
      <use xlink:href="#DejaVuSans-63" x="231.494141"/>
      <use xlink:href="#DejaVuSans-74" x="286.474609"/>
      <use xlink:href="#DejaVuSans-69" x="325.683594"/>
      <use xlink:href="#DejaVuSans-76" x="353.466797"/>
      <use xlink:href="#DejaVuSans-65" x="412.646484"/>
      <use xlink:href="#DejaVuSans-20" x="474.169922"/>
      <use xlink:href="#DejaVuSans-46" x="505.957031"/>
      <use xlink:href="#DejaVuSans-75" x="557.976562"/>
      <use xlink:href="#DejaVuSans-6e" x="621.355469"/>
      <use xlink:href="#DejaVuSans-63" x="684.734375"/>
      <use xlink:href="#DejaVuSans-74" x="739.714844"/>
      <use xlink:href="#DejaVuSans-69" x="778.923828"/>
      <use xlink:href="#DejaVuSans-6f" x="806.707031"/>
      <use xlink:href="#DejaVuSans-6e" x="867.888672"/>
     </g>
    </g>
    <g id="line2d_18">
     <path d="M 129.071875 115.678438 
L 139.071875 115.678438 
L 149.071875 115.678438 
" style="fill: none; stroke: #0000ff; stroke-width: 1.5; stroke-linecap: square"/>
    </g>
    <g id="text_14">
     <!-- Model Prediction -->
     <g transform="translate(157.071875 119.178438) scale(0.1 -0.1)">
      <defs>
       <path id="DejaVuSans-4d" d="M 628 4666 
L 1569 4666 
L 2759 1491 
L 3956 4666 
L 4897 4666 
L 4897 0 
L 4281 0 
L 4281 4097 
L 3078 897 
L 2444 897 
L 1241 4097 
L 1241 0 
L 628 0 
L 628 4666 
z
" transform="scale(0.015625)"/>
       <path id="DejaVuSans-64" d="M 2906 2969 
L 2906 4863 
L 3481 4863 
L 3481 0 
L 2906 0 
L 2906 525 
Q 2725 213 2448 61 
Q 2172 -91 1784 -91 
Q 1150 -91 751 415 
Q 353 922 353 1747 
Q 353 2572 751 3078 
Q 1150 3584 1784 3584 
Q 2172 3584 2448 3432 
Q 2725 3281 2906 2969 
z
M 947 1747 
Q 947 1113 1208 752 
Q 1469 391 1925 391 
Q 2381 391 2643 752 
Q 2906 1113 2906 1747 
Q 2906 2381 2643 2742 
Q 2381 3103 1925 3103 
Q 1469 3103 1208 2742 
Q 947 2381 947 1747 
z
" transform="scale(0.015625)"/>
       <path id="DejaVuSans-6c" d="M 603 4863 
L 1178 4863 
L 1178 0 
L 603 0 
L 603 4863 
z
" transform="scale(0.015625)"/>
      </defs>
      <use xlink:href="#DejaVuSans-4d"/>
      <use xlink:href="#DejaVuSans-6f" x="86.279297"/>
      <use xlink:href="#DejaVuSans-64" x="147.460938"/>
      <use xlink:href="#DejaVuSans-65" x="210.9375"/>
      <use xlink:href="#DejaVuSans-6c" x="272.460938"/>
      <use xlink:href="#DejaVuSans-20" x="300.244141"/>
      <use xlink:href="#DejaVuSans-50" x="332.03125"/>
      <use xlink:href="#DejaVuSans-72" x="390.583984"/>
      <use xlink:href="#DejaVuSans-65" x="429.447266"/>
      <use xlink:href="#DejaVuSans-64" x="490.970703"/>
      <use xlink:href="#DejaVuSans-69" x="554.447266"/>
      <use xlink:href="#DejaVuSans-63" x="582.230469"/>
      <use xlink:href="#DejaVuSans-74" x="637.210938"/>
      <use xlink:href="#DejaVuSans-69" x="676.419922"/>
      <use xlink:href="#DejaVuSans-6f" x="704.203125"/>
      <use xlink:href="#DejaVuSans-6e" x="765.384766"/>
     </g>
    </g>
    <g id="line2d_19">
     <g>
      <use xlink:href="#mf10064eba7" x="139.071875" y="130.356562" style="fill: #ff0000; stroke: #ff0000; stroke-linejoin: bevel"/>
     </g>
    </g>
    <g id="text_15">
     <!-- Next Point -->
     <g transform="translate(157.071875 133.856562) scale(0.1 -0.1)">
      <defs>
       <path id="DejaVuSans-4e" d="M 628 4666 
L 1478 4666 
L 3547 763 
L 3547 4666 
L 4159 4666 
L 4159 0 
L 3309 0 
L 1241 3903 
L 1241 0 
L 628 0 
L 628 4666 
z
" transform="scale(0.015625)"/>
       <path id="DejaVuSans-78" d="M 3513 3500 
L 2247 1797 
L 3578 0 
L 2900 0 
L 1881 1375 
L 863 0 
L 184 0 
L 1544 1831 
L 300 3500 
L 978 3500 
L 1906 2253 
L 2834 3500 
L 3513 3500 
z
" transform="scale(0.015625)"/>
      </defs>
      <use xlink:href="#DejaVuSans-4e"/>
      <use xlink:href="#DejaVuSans-65" x="74.804688"/>
      <use xlink:href="#DejaVuSans-78" x="134.578125"/>
      <use xlink:href="#DejaVuSans-74" x="193.757812"/>
      <use xlink:href="#DejaVuSans-20" x="232.966797"/>
      <use xlink:href="#DejaVuSans-50" x="264.753906"/>
      <use xlink:href="#DejaVuSans-6f" x="321.431641"/>
      <use xlink:href="#DejaVuSans-69" x="382.613281"/>
      <use xlink:href="#DejaVuSans-6e" x="410.396484"/>
      <use xlink:href="#DejaVuSans-74" x="473.775391"/>
     </g>
    </g>
   </g>
  </g>
 </g>
 <defs>
  <clipPath id="p48a60b79cd">
   <rect x="36" y="25.92" width="223.2" height="166.32"/>
  </clipPath>
 </defs>
</svg>
