<?xml version="1.0" encoding="utf-8" standalone="no"?>
<!DOCTYPE svg PUBLIC "-//W3C//DTD SVG 1.1//EN"
  "http://www.w3.org/Graphics/SVG/1.1/DTD/svg11.dtd">
<svg xmlns:xlink="http://www.w3.org/1999/xlink" width="288pt" height="216pt" viewBox="0 0 288 216" xmlns="http://www.w3.org/2000/svg" version="1.1">
 <metadata>
  <rdf:RDF xmlns:dc="http://purl.org/dc/elements/1.1/" xmlns:cc="http://creativecommons.org/ns#" xmlns:rdf="http://www.w3.org/1999/02/22-rdf-syntax-ns#">
   <cc:Work>
    <dc:type rdf:resource="http://purl.org/dc/dcmitype/StillImage"/>
    <dc:date>2025-03-19T13:02:20.815183</dc:date>
    <dc:format>image/svg+xml</dc:format>
    <dc:creator>
     <cc:Agent>
      <dc:title>Matplotlib v3.9.4, https://matplotlib.org/</dc:title>
     </cc:Agent>
    </dc:creator>
   </cc:Work>
  </rdf:RDF>
 </metadata>
 <defs>
  <style type="text/css">*{stroke-linejoin: round; stroke-linecap: butt}</style>
 </defs>
 <g id="figure_1">
  <g id="patch_1">
   <path d="M 0 216 
L 288 216 
L 288 0 
L 0 0 
z
" style="fill: #ffffff"/>
  </g>
  <g id="axes_1">
   <g id="patch_2">
    <path d="M 36 192.24 
L 259.2 192.24 
L 259.2 25.92 
L 36 25.92 
z
" style="fill: #ffffff"/>
   </g>
   <g id="PolyCollection_1">
    <path d="M 47.041257 165.145308 
L 47.041257 182.880135 
L 47.430464 181.11477 
L 47.680865 179.393384 
L 47.75279 178.802625 
L 48.706597 166.462167 
L 49.578513 152.290967 
L 50.227543 147.356493 
L 50.444092 147.642038 
L 50.482298 147.797677 
L 52.689258 177.794324 
L 53.121086 181.106917 
L 53.291459 182.000852 
L 54.155417 184.199696 
L 54.918532 184.606425 
L 55.249251 184.650591 
L 55.852625 184.675312 
L 56.706751 184.679757 
L 57.515824 184.679989 
L 60.955524 184.482477 
L 61.193866 184.330087 
L 61.770547 183.461012 
L 61.835168 183.294575 
L 63.173828 173.24774 
L 64.662639 149.017606 
L 64.981372 146.170533 
L 65.219268 145.458594 
L 65.546552 146.564032 
L 65.684658 147.729358 
L 66.351405 157.449611 
L 66.755271 164.709661 
L 68.129538 181.229516 
L 69.317659 184.236951 
L 70.101747 183.831731 
L 70.145989 183.758051 
L 70.503944 182.862523 
L 70.522715 182.798393 
L 70.842996 181.365175 
L 71.226132 178.611241 
L 73.752176 144.893688 
L 75.124423 161.328735 
L 76.838758 182.072061 
L 77.425017 183.843368 
L 77.872 184.37216 
L 78.058916 184.484189 
L 78.374834 184.592887 
L 78.642892 184.638124 
L 78.673091 184.641532 
L 79.280505 184.67367 
L 80.128993 184.677125 
L 80.266241 184.675817 
L 80.349968 184.674638 
L 80.568285 184.669595 
L 80.901833 184.652065 
L 81.740769 184.424469 
L 81.850477 184.348703 
L 82.826936 182.219349 
L 83.049182 181.082958 
L 83.426679 178.255506 
L 85.22628 151.575578 
L 85.234152 151.47312 
L 85.560784 148.150083 
L 85.842835 146.959564 
L 86.033879 147.136675 
L 86.604839 152.083102 
L 87.126699 160.403755 
L 89.190173 183.050126 
L 89.515268 183.827938 
L 91.435096 184.674654 
L 91.640359 184.677258 
L 91.965381 184.679094 
L 92.481725 184.679863 
L 93.531342 184.679998 
L 93.980299 184.68 
L 94.364244 184.679999 
L 94.844921 184.67999 
L 96.709537 184.671306 
L 97.474939 184.602314 
L 98.597897 183.63207 
L 98.79103 183.156231 
L 99.687767 178.136298 
L 100.205184 172.377444 
L 100.332199 170.648627 
L 101.19085 157.929429 
L 101.226537 157.453792 
L 103.404498 165.200434 
L 104.005151 173.736849 
L 104.84089 181.203294 
L 105.113463 182.48668 
L 105.759118 184.058085 
L 105.887678 184.209447 
L 106.22563 184.462135 
L 107.796948 184.443425 
L 109.253081 180.61741 
L 109.565103 178.288936 
L 110.24045 170.603289 
L 110.76474 162.986384 
L 110.82861 162.05977 
L 111.381744 155.243475 
L 112.0337 152.760229 
L 112.436795 155.05583 
L 113.441851 168.392673 
L 113.895452 174.405749 
L 114.034686 175.969103 
L 114.231593 177.912733 
L 114.237638 177.967425 
L 115.514087 183.92119 
L 115.854694 184.317942 
L 116.311995 184.559316 
L 117.889938 184.678921 
L 118.675144 184.67994 
L 119.377738 184.679997 
L 120.747612 184.68 
L 124.239424 184.68 
L 124.623818 184.68 
L 124.86572 184.68 
L 125.272043 184.68 
L 125.332642 184.68 
L 125.406927 184.68 
L 126.162154 184.68 
L 126.55295 184.68 
L 128.293325 184.679967 
L 129.698643 184.674287 
L 129.837614 184.671074 
L 129.909073 184.66882 
L 129.915946 184.668578 
L 130.805461 184.533305 
L 130.820385 184.527478 
L 131.343401 184.129404 
L 131.370315 184.094297 
L 133.299888 168.049851 
L 133.654397 160.296867 
L 134.700329 135.197626 
L 135.588002 129.882111 
L 135.589597 129.894829 
L 135.646659 130.399477 
L 135.666219 130.595171 
L 136.828296 155.393994 
L 137.867587 175.922371 
L 138.141008 178.928214 
L 138.551216 181.85537 
L 141.018474 184.674911 
L 141.413186 184.678662 
L 142.605094 184.679986 
L 143.288205 184.679999 
L 143.802173 184.68 
L 144.314361 184.68 
L 144.478588 184.68 
L 144.571821 184.68 
L 144.58162 184.68 
L 146.530157 184.68 
L 146.539376 184.68 
L 146.721964 184.68 
L 147.045441 184.68 
L 147.500296 184.68 
L 147.738018 184.68 
L 148.088433 184.68 
L 148.141864 184.68 
L 150.144452 184.68 
L 150.144584 184.68 
L 150.166884 184.68 
L 150.237252 184.68 
L 151.035477 184.68 
L 151.536689 184.68 
L 151.624109 184.68 
L 153.627362 184.67998 
L 154.606488 184.679152 
L 154.673194 184.678927 
L 154.725589 184.678711 
L 154.82972 184.678154 
L 156.406425 184.482182 
L 157.473102 182.606735 
L 158.059814 178.969789 
L 158.557202 173.134918 
L 158.830762 168.67491 
L 160.269457 140.804138 
L 160.29661 140.4733 
L 160.453461 138.900193 
L 161.402948 143.036645 
L 161.933017 153.2375 
L 162.878859 171.948226 
L 163.320315 177.677913 
L 163.351865 177.99952 
L 164.877313 184.332478 
L 164.942812 184.382955 
L 166.129557 184.668732 
L 166.221691 184.671552 
L 167.222606 184.67973 
L 169.727845 184.68 
L 169.844508 184.68 
L 169.991978 184.68 
L 170.33219 184.68 
L 170.62596 184.68 
L 170.705253 184.68 
L 170.748111 184.68 
L 171.481015 184.68 
L 173.935138 184.68 
L 174.168401 184.68 
L 174.389195 184.68 
L 175.856614 184.68 
L 176.55752 184.68 
L 177.54677 184.68 
L 178.06025 184.68 
L 178.721464 184.679998 
L 179.94325 184.679723 
L 180.55624 184.677565 
L 180.780603 184.674888 
L 180.83189 184.673968 
L 181.131535 184.664612 
L 181.478459 184.637343 
L 182.757771 183.674954 
L 183.341008 181.576355 
L 183.650808 179.463226 
L 184.229277 172.809583 
L 187.057777 143.672502 
L 187.108446 144.493475 
L 187.361355 149.148962 
L 189.249416 180.25882 
L 189.80262 183.051343 
L 190.554365 184.363888 
L 191.481181 184.653254 
L 191.688777 184.665626 
L 192.161157 184.676812 
L 192.230479 184.677472 
L 193.359195 184.679961 
L 193.631439 184.679987 
L 194.310177 184.679999 
L 195.374725 184.68 
L 197.037681 184.68 
L 198.572673 184.679985 
L 198.928328 184.679939 
L 198.948499 184.679933 
L 199.6016 184.679242 
L 200.459837 184.667314 
L 201.291307 184.550198 
L 201.713498 184.317081 
L 202.109975 183.81206 
L 203.900508 170.224245 
L 204.015669 168.415422 
L 205.859827 146.863258 
L 208.367938 179.683142 
L 208.554961 180.962002 
L 208.944921 182.799576 
L 209.533359 184.110107 
L 209.56011 184.14274 
L 210.436536 184.617678 
L 212.557582 184.423242 
L 212.793911 184.239252 
L 213.554975 182.660269 
L 213.664145 182.235166 
L 213.969379 180.657705 
L 214.846688 172.178979 
L 216.533035 152.866321 
L 218.151685 168.305384 
L 219.07361 178.977093 
L 220.722385 184.423577 
L 221.321583 184.623643 
L 221.929217 184.670185 
L 222.134445 184.674815 
L 222.56272 184.678735 
L 223.120336 184.679828 
L 223.603845 184.679974 
L 225.645553 184.68 
L 226.429296 184.68 
L 226.450768 184.68 
L 228.175059 184.679998 
L 228.188094 184.679998 
L 228.863611 184.679964 
L 230.577096 184.667171 
L 231.177037 184.612751 
L 231.92183 184.285825 
L 231.93745 184.272413 
L 231.957637 184.254303 
L 233.405256 179.516123 
L 233.736544 176.955584 
L 234.481647 169.502873 
L 234.547502 168.810009 
L 234.593913 168.326255 
L 235.570686 161.836018 
L 236.609288 167.074219 
L 236.974897 170.856169 
L 237.253519 173.762801 
L 237.598213 177.014262 
L 239.455127 184.318395 
L 239.615198 184.420501 
L 239.70559 184.463753 
L 239.851651 184.515016 
L 241.076022 184.222344 
L 241.136583 184.162461 
L 241.903266 182.579806 
L 242.077533 181.920667 
L 242.340411 180.64716 
L 242.409873 180.25078 
L 243.067077 175.302868 
L 243.161169 174.453067 
L 245.348287 166.575248 
L 246.255365 174.608656 
L 247.154703 181.151868 
L 248.225057 184.125207 
L 248.272242 184.176365 
L 248.39132 184.287536 
L 248.39132 166.550687 
L 248.39132 166.550687 
L 248.272242 166.439767 
L 248.225057 166.388745 
L 247.154703 163.445874 
L 246.255365 157.123465 
L 245.348287 149.649163 
L 243.161169 156.975683 
L 243.067077 157.784299 
L 242.409873 162.562695 
L 242.340411 162.950703 
L 242.077533 164.202568 
L 241.903266 164.853669 
L 241.136583 166.425889 
L 241.076022 166.485623 
L 239.851651 166.77782 
L 239.70559 166.726597 
L 239.615198 166.683385 
L 239.455127 166.58141 
L 237.598213 159.394189 
L 237.253519 156.262471 
L 236.974897 153.498115 
L 236.609288 149.951492 
L 235.570686 145.134914 
L 234.593913 151.119291 
L 234.547502 151.572181 
L 234.481647 152.222469 
L 233.736544 159.337304 
L 233.405256 161.832221 
L 231.957637 166.51743 
L 231.93745 166.535511 
L 231.92183 166.548901 
L 231.177037 166.875521 
L 230.577096 166.929934 
L 228.863611 166.942724 
L 228.188094 166.942759 
L 228.175059 166.942759 
L 226.450768 166.942761 
L 226.429296 166.942761 
L 225.645553 166.942761 
L 223.603845 166.942735 
L 223.120336 166.942588 
L 222.56272 166.941496 
L 222.134445 166.937575 
L 221.929217 166.932946 
L 221.321583 166.886407 
L 220.722385 166.686405 
L 219.07361 161.273035 
L 218.151685 150.840566 
L 216.533035 136.163394 
L 214.846688 154.600635 
L 213.969379 162.936993 
L 213.664145 164.504041 
L 213.554975 164.927204 
L 212.793911 166.502213 
L 212.557582 166.686071 
L 210.436536 166.880442 
L 209.56011 166.405709 
L 209.533359 166.373102 
L 208.944921 165.064875 
L 208.554961 163.234674 
L 208.367938 161.963793 
L 205.859827 130.155914 
L 204.015669 150.867104 
L 203.900508 152.63627 
L 202.109975 166.075362 
L 201.713498 166.579938 
L 201.291307 166.81297 
L 200.459837 166.930075 
L 199.6016 166.942003 
L 198.948499 166.942693 
L 198.928328 166.942699 
L 198.572673 166.942746 
L 197.037681 166.942761 
L 195.374725 166.942761 
L 194.310177 166.94276 
L 193.631439 166.942748 
L 193.359195 166.942721 
L 192.230479 166.940232 
L 192.161157 166.939572 
L 191.688777 166.928387 
L 191.481181 166.916017 
L 190.554365 166.626696 
L 189.80262 165.31537 
L 189.249416 162.530893 
L 187.361355 132.014292 
L 187.108446 127.529061 
L 187.057777 126.740409 
L 184.229277 155.139342 
L 183.650808 161.738948 
L 183.341008 163.843707 
L 182.757771 165.938198 
L 181.478459 166.900106 
L 181.131535 166.927373 
L 180.83189 166.936728 
L 180.780603 166.937648 
L 180.55624 166.940326 
L 179.94325 166.942484 
L 178.721464 166.942759 
L 178.06025 166.942761 
L 177.54677 166.942761 
L 176.55752 166.942761 
L 175.856614 166.942761 
L 174.389195 166.942761 
L 174.168401 166.942761 
L 173.935138 166.942761 
L 171.481015 166.942761 
L 170.748111 166.942761 
L 170.705253 166.942761 
L 170.62596 166.942761 
L 170.33219 166.942761 
L 169.991978 166.942761 
L 169.844508 166.942761 
L 169.727845 166.942761 
L 167.222606 166.942491 
L 166.221691 166.934313 
L 166.129557 166.931493 
L 164.942812 166.645758 
L 164.877313 166.595297 
L 163.351865 160.283084 
L 163.320315 159.963525 
L 162.878859 154.28645 
L 161.933017 135.961508 
L 161.402948 126.112705 
L 160.453461 122.148768 
L 160.29661 123.654195 
L 160.269457 123.971125 
L 158.830762 151.05689 
L 158.557202 155.459743 
L 158.059814 161.247754 
L 157.473102 164.871503 
L 156.406425 166.74496 
L 154.82972 166.940915 
L 154.725589 166.941472 
L 154.673194 166.941687 
L 154.606488 166.941913 
L 153.627362 166.942741 
L 151.624109 166.942761 
L 151.536689 166.942761 
L 151.035477 166.942761 
L 150.237252 166.942761 
L 150.166884 166.942761 
L 150.144584 166.942761 
L 150.144452 166.942761 
L 148.141864 166.942761 
L 148.088433 166.942761 
L 147.738018 166.942761 
L 147.500296 166.942761 
L 147.045441 166.942761 
L 146.721964 166.942761 
L 146.539376 166.942761 
L 146.530157 166.942761 
L 144.58162 166.942761 
L 144.571821 166.942761 
L 144.478588 166.942761 
L 144.314361 166.942761 
L 143.802173 166.942761 
L 143.288205 166.94276 
L 142.605094 166.942747 
L 141.413186 166.941423 
L 141.018474 166.937671 
L 138.551216 164.122162 
L 138.141008 161.207624 
L 137.867587 158.223624 
L 136.828296 138.085224 
L 135.666219 114.341244 
L 135.646659 114.156612 
L 135.589597 113.680686 
L 135.588002 113.668698 
L 134.700329 118.696633 
L 133.654397 142.856551 
L 133.299888 150.450886 
L 131.370315 166.357232 
L 131.343401 166.392321 
L 130.820385 166.79025 
L 130.805461 166.796077 
L 129.915946 166.931339 
L 129.909073 166.931581 
L 129.837614 166.933835 
L 129.698643 166.937048 
L 128.293325 166.942727 
L 126.55295 166.942761 
L 126.162154 166.942761 
L 125.406927 166.942761 
L 125.332642 166.942761 
L 125.272043 166.942761 
L 124.86572 166.942761 
L 124.623818 166.942761 
L 124.239424 166.942761 
L 120.747612 166.942761 
L 119.377738 166.942758 
L 118.675144 166.9427 
L 117.889938 166.941681 
L 116.311995 166.822093 
L 115.854694 166.580837 
L 115.514087 166.184537 
L 114.237638 160.275774 
L 114.231593 160.221825 
L 114.034686 158.308547 
L 113.895452 156.775107 
L 113.441851 150.922908 
L 112.436795 138.207057 
L 112.0337 136.056327 
L 111.381744 138.383372 
L 110.82861 144.838768 
L 110.76474 145.723842 
L 110.24045 153.065911 
L 109.565103 160.593031 
L 109.253081 162.896899 
L 107.796948 166.706241 
L 106.22563 166.72494 
L 105.887678 166.472416 
L 105.759118 166.32121 
L 105.113463 164.753976 
L 104.84089 163.477437 
L 104.005151 156.111902 
L 103.404498 147.818602 
L 101.226537 140.412474 
L 101.19085 140.863846 
L 100.332199 153.095843 
L 100.205184 154.782066 
L 99.687767 160.439296 
L 98.79103 165.421182 
L 98.597897 165.895867 
L 97.474939 166.86508 
L 96.709537 166.934067 
L 94.844921 166.942751 
L 94.364244 166.94276 
L 93.980299 166.942761 
L 93.531342 166.942759 
L 92.481725 166.942623 
L 91.965381 166.941855 
L 91.640359 166.940019 
L 91.435096 166.937415 
L 89.515268 166.091228 
L 89.190173 165.314822 
L 87.126699 143.09385 
L 86.604839 135.119216 
L 86.033879 130.429068 
L 85.842835 130.261856 
L 85.560784 131.386825 
L 85.234152 134.538763 
L 85.22628 134.636223 
L 83.426679 160.548246 
L 83.049182 163.355132 
L 82.826936 164.486518 
L 81.850477 166.611546 
L 81.740769 166.687278 
L 80.901833 166.914827 
L 80.568285 166.932356 
L 80.349968 166.937399 
L 80.266241 166.938577 
L 80.128993 166.939886 
L 79.280505 166.936431 
L 78.673091 166.904294 
L 78.642892 166.900886 
L 78.374834 166.855653 
L 78.058916 166.746975 
L 77.872 166.634985 
L 77.425017 166.106588 
L 76.838758 164.339273 
L 75.124423 143.947034 
L 73.752176 128.197551 
L 71.226132 160.898053 
L 70.842996 163.635104 
L 70.522715 165.063443 
L 70.503944 165.127415 
L 70.145989 166.021326 
L 70.101747 166.09492 
L 69.317659 166.49979 
L 68.129538 163.500274 
L 66.755271 147.23993 
L 66.351405 140.210547 
L 65.684658 130.914462 
L 65.546552 129.809128 
L 65.219268 128.762457 
L 64.981372 129.436341 
L 64.662639 132.138703 
L 63.173828 155.598226 
L 61.835168 165.558631 
L 61.770547 165.724775 
L 61.193866 166.592932 
L 60.955524 166.745266 
L 57.515824 166.94275 
L 56.706751 166.942517 
L 55.852625 166.938072 
L 55.249251 166.913353 
L 54.918532 166.869191 
L 54.155417 166.462629 
L 53.291459 164.268951 
L 53.121086 163.379168 
L 52.689258 160.09227 
L 50.482298 131.075414 
L 50.444092 130.92849 
L 50.227543 130.659047 
L 49.578513 135.333872 
L 48.706597 148.970613 
L 47.75279 161.091033 
L 47.680865 161.676903 
L 47.430464 163.386979 
L 47.041257 165.145308 
z
" clip-path="url(#p22479ef467)" style="fill: #1f77b4; fill-opacity: 0.5"/>
   </g>
   <g id="matplotlib.axis_1">
    <g id="xtick_1">
     <g id="line2d_1">
      <defs>
       <path id="m4f6256a6a0" d="M 0 0 
L 0 3.5 
" style="stroke: #000000; stroke-width: 0.8"/>
      </defs>
      <g>
       <use xlink:href="#m4f6256a6a0" x="46.145455" y="192.24" style="stroke: #000000; stroke-width: 0.8"/>
      </g>
     </g>
     <g id="text_1">
      <!-- 0 -->
      <g transform="translate(42.964205 206.838437) scale(0.1 -0.1)">
       <defs>
        <path id="DejaVuSans-30" d="M 2034 4250 
Q 1547 4250 1301 3770 
Q 1056 3291 1056 2328 
Q 1056 1369 1301 889 
Q 1547 409 2034 409 
Q 2525 409 2770 889 
Q 3016 1369 3016 2328 
Q 3016 3291 2770 3770 
Q 2525 4250 2034 4250 
z
M 2034 4750 
Q 2819 4750 3233 4129 
Q 3647 3509 3647 2328 
Q 3647 1150 3233 529 
Q 2819 -91 2034 -91 
Q 1250 -91 836 529 
Q 422 1150 422 2328 
Q 422 3509 836 4129 
Q 1250 4750 2034 4750 
z
" transform="scale(0.015625)"/>
       </defs>
       <use xlink:href="#DejaVuSans-30"/>
      </g>
     </g>
    </g>
    <g id="xtick_2">
     <g id="line2d_2">
      <g>
       <use xlink:href="#m4f6256a6a0" x="96.872727" y="192.24" style="stroke: #000000; stroke-width: 0.8"/>
      </g>
     </g>
     <g id="text_2">
      <!-- 50 -->
      <g transform="translate(90.510227 206.838437) scale(0.1 -0.1)">
       <defs>
        <path id="DejaVuSans-35" d="M 691 4666 
L 3169 4666 
L 3169 4134 
L 1269 4134 
L 1269 2991 
Q 1406 3038 1543 3061 
Q 1681 3084 1819 3084 
Q 2600 3084 3056 2656 
Q 3513 2228 3513 1497 
Q 3513 744 3044 326 
Q 2575 -91 1722 -91 
Q 1428 -91 1123 -41 
Q 819 9 494 109 
L 494 744 
Q 775 591 1075 516 
Q 1375 441 1709 441 
Q 2250 441 2565 725 
Q 2881 1009 2881 1497 
Q 2881 1984 2565 2268 
Q 2250 2553 1709 2553 
Q 1456 2553 1204 2497 
Q 953 2441 691 2322 
L 691 4666 
z
" transform="scale(0.015625)"/>
       </defs>
       <use xlink:href="#DejaVuSans-35"/>
       <use xlink:href="#DejaVuSans-30" x="63.623047"/>
      </g>
     </g>
    </g>
    <g id="xtick_3">
     <g id="line2d_3">
      <g>
       <use xlink:href="#m4f6256a6a0" x="147.6" y="192.24" style="stroke: #000000; stroke-width: 0.8"/>
      </g>
     </g>
     <g id="text_3">
      <!-- 100 -->
      <g transform="translate(138.05625 206.838437) scale(0.1 -0.1)">
       <defs>
        <path id="DejaVuSans-31" d="M 794 531 
L 1825 531 
L 1825 4091 
L 703 3866 
L 703 4441 
L 1819 4666 
L 2450 4666 
L 2450 531 
L 3481 531 
L 3481 0 
L 794 0 
L 794 531 
z
" transform="scale(0.015625)"/>
       </defs>
       <use xlink:href="#DejaVuSans-31"/>
       <use xlink:href="#DejaVuSans-30" x="63.623047"/>
       <use xlink:href="#DejaVuSans-30" x="127.246094"/>
      </g>
     </g>
    </g>
    <g id="xtick_4">
     <g id="line2d_4">
      <g>
       <use xlink:href="#m4f6256a6a0" x="198.327273" y="192.24" style="stroke: #000000; stroke-width: 0.8"/>
      </g>
     </g>
     <g id="text_4">
      <!-- 150 -->
      <g transform="translate(188.783523 206.838437) scale(0.1 -0.1)">
       <use xlink:href="#DejaVuSans-31"/>
       <use xlink:href="#DejaVuSans-35" x="63.623047"/>
       <use xlink:href="#DejaVuSans-30" x="127.246094"/>
      </g>
     </g>
    </g>
    <g id="xtick_5">
     <g id="line2d_5">
      <g>
       <use xlink:href="#m4f6256a6a0" x="249.054545" y="192.24" style="stroke: #000000; stroke-width: 0.8"/>
      </g>
     </g>
     <g id="text_5">
      <!-- 200 -->
      <g transform="translate(239.510795 206.838437) scale(0.1 -0.1)">
       <defs>
        <path id="DejaVuSans-32" d="M 1228 531 
L 3431 531 
L 3431 0 
L 469 0 
L 469 531 
Q 828 903 1448 1529 
Q 2069 2156 2228 2338 
Q 2531 2678 2651 2914 
Q 2772 3150 2772 3378 
Q 2772 3750 2511 3984 
Q 2250 4219 1831 4219 
Q 1534 4219 1204 4116 
Q 875 4013 500 3803 
L 500 4441 
Q 881 4594 1212 4672 
Q 1544 4750 1819 4750 
Q 2544 4750 2975 4387 
Q 3406 4025 3406 3419 
Q 3406 3131 3298 2873 
Q 3191 2616 2906 2266 
Q 2828 2175 2409 1742 
Q 1991 1309 1228 531 
z
" transform="scale(0.015625)"/>
       </defs>
       <use xlink:href="#DejaVuSans-32"/>
       <use xlink:href="#DejaVuSans-30" x="63.623047"/>
       <use xlink:href="#DejaVuSans-30" x="127.246094"/>
      </g>
     </g>
    </g>
   </g>
   <g id="matplotlib.axis_2">
    <g id="ytick_1">
     <g id="line2d_6">
      <defs>
       <path id="maa114d695c" d="M 0 0 
L -3.5 0 
" style="stroke: #000000; stroke-width: 0.8"/>
      </defs>
      <g>
       <use xlink:href="#maa114d695c" x="36" y="175.81138" style="stroke: #000000; stroke-width: 0.8"/>
      </g>
     </g>
     <g id="text_6">
      <!-- 0 -->
      <g transform="translate(22.6375 179.610599) scale(0.1 -0.1)">
       <use xlink:href="#DejaVuSans-30"/>
      </g>
     </g>
    </g>
    <g id="ytick_2">
     <g id="line2d_7">
      <g>
       <use xlink:href="#maa114d695c" x="36" y="149.544092" style="stroke: #000000; stroke-width: 0.8"/>
      </g>
     </g>
     <g id="text_7">
      <!-- 100 -->
      <g transform="translate(9.9125 153.343311) scale(0.1 -0.1)">
       <use xlink:href="#DejaVuSans-31"/>
       <use xlink:href="#DejaVuSans-30" x="63.623047"/>
       <use xlink:href="#DejaVuSans-30" x="127.246094"/>
      </g>
     </g>
    </g>
    <g id="ytick_3">
     <g id="line2d_8">
      <g>
       <use xlink:href="#maa114d695c" x="36" y="123.276803" style="stroke: #000000; stroke-width: 0.8"/>
      </g>
     </g>
     <g id="text_8">
      <!-- 200 -->
      <g transform="translate(9.9125 127.076022) scale(0.1 -0.1)">
       <use xlink:href="#DejaVuSans-32"/>
       <use xlink:href="#DejaVuSans-30" x="63.623047"/>
       <use xlink:href="#DejaVuSans-30" x="127.246094"/>
      </g>
     </g>
    </g>
    <g id="ytick_4">
     <g id="line2d_9">
      <g>
       <use xlink:href="#maa114d695c" x="36" y="97.009515" style="stroke: #000000; stroke-width: 0.8"/>
      </g>
     </g>
     <g id="text_9">
      <!-- 300 -->
      <g transform="translate(9.9125 100.808734) scale(0.1 -0.1)">
       <defs>
        <path id="DejaVuSans-33" d="M 2597 2516 
Q 3050 2419 3304 2112 
Q 3559 1806 3559 1356 
Q 3559 666 3084 287 
Q 2609 -91 1734 -91 
Q 1441 -91 1130 -33 
Q 819 25 488 141 
L 488 750 
Q 750 597 1062 519 
Q 1375 441 1716 441 
Q 2309 441 2620 675 
Q 2931 909 2931 1356 
Q 2931 1769 2642 2001 
Q 2353 2234 1838 2234 
L 1294 2234 
L 1294 2753 
L 1863 2753 
Q 2328 2753 2575 2939 
Q 2822 3125 2822 3475 
Q 2822 3834 2567 4026 
Q 2313 4219 1838 4219 
Q 1578 4219 1281 4162 
Q 984 4106 628 3988 
L 628 4550 
Q 988 4650 1302 4700 
Q 1616 4750 1894 4750 
Q 2613 4750 3031 4423 
Q 3450 4097 3450 3541 
Q 3450 3153 3228 2886 
Q 3006 2619 2597 2516 
z
" transform="scale(0.015625)"/>
       </defs>
       <use xlink:href="#DejaVuSans-33"/>
       <use xlink:href="#DejaVuSans-30" x="63.623047"/>
       <use xlink:href="#DejaVuSans-30" x="127.246094"/>
      </g>
     </g>
    </g>
    <g id="ytick_5">
     <g id="line2d_10">
      <g>
       <use xlink:href="#maa114d695c" x="36" y="70.742226" style="stroke: #000000; stroke-width: 0.8"/>
      </g>
     </g>
     <g id="text_10">
      <!-- 400 -->
      <g transform="translate(9.9125 74.541445) scale(0.1 -0.1)">
       <defs>
        <path id="DejaVuSans-34" d="M 2419 4116 
L 825 1625 
L 2419 1625 
L 2419 4116 
z
M 2253 4666 
L 3047 4666 
L 3047 1625 
L 3713 1625 
L 3713 1100 
L 3047 1100 
L 3047 0 
L 2419 0 
L 2419 1100 
L 313 1100 
L 313 1709 
L 2253 4666 
z
" transform="scale(0.015625)"/>
       </defs>
       <use xlink:href="#DejaVuSans-34"/>
       <use xlink:href="#DejaVuSans-30" x="63.623047"/>
       <use xlink:href="#DejaVuSans-30" x="127.246094"/>
      </g>
     </g>
    </g>
    <g id="ytick_6">
     <g id="line2d_11">
      <g>
       <use xlink:href="#maa114d695c" x="36" y="44.474938" style="stroke: #000000; stroke-width: 0.8"/>
      </g>
     </g>
     <g id="text_11">
      <!-- 500 -->
      <g transform="translate(9.9125 48.274157) scale(0.1 -0.1)">
       <use xlink:href="#DejaVuSans-35"/>
       <use xlink:href="#DejaVuSans-30" x="63.623047"/>
       <use xlink:href="#DejaVuSans-30" x="127.246094"/>
      </g>
     </g>
    </g>
   </g>
   <g id="line2d_12">
    <defs>
     <path id="m35bd180980" d="M 0 -3 
L -0.673542 -0.927051 
L -2.85317 -0.927051 
L -1.089814 0.354102 
L -1.763356 2.427051 
L -0 1.145898 
L 1.763356 2.427051 
L 1.089814 0.354102 
L 2.85317 -0.927051 
L 0.673542 -0.927051 
z
" style="stroke: #000000; stroke-linejoin: bevel"/>
    </defs>
    <g clip-path="url(#p22479ef467)">
     <use xlink:href="#m35bd180980" x="73.772011" y="59.48888" style="stroke: #000000; stroke-linejoin: bevel"/>
     <use xlink:href="#m35bd180980" x="111.91953" y="82.443074" style="stroke: #000000; stroke-linejoin: bevel"/>
     <use xlink:href="#m35bd180980" x="160.75717" y="38.051396" style="stroke: #000000; stroke-linejoin: bevel"/>
     <use xlink:href="#m35bd180980" x="235.664066" y="109.518598" style="stroke: #000000; stroke-linejoin: bevel"/>
     <use xlink:href="#m35bd180980" x="244.699737" y="116.607234" style="stroke: #000000; stroke-linejoin: bevel"/>
     <use xlink:href="#m35bd180980" x="65.233104" y="61.162386" style="stroke: #000000; stroke-linejoin: bevel"/>
     <use xlink:href="#m35bd180980" x="135.384949" y="66.814222" style="stroke: #000000; stroke-linejoin: bevel"/>
     <use xlink:href="#m35bd180980" x="85.896464" y="65.525843" style="stroke: #000000; stroke-linejoin: bevel"/>
     <use xlink:href="#m35bd180980" x="102.052047" y="78.905327" style="stroke: #000000; stroke-linejoin: bevel"/>
     <use xlink:href="#m35bd180980" x="186.398948" y="39.492827" style="stroke: #000000; stroke-linejoin: bevel"/>
     <use xlink:href="#m35bd180980" x="50.276489" y="66.71628" style="stroke: #000000; stroke-linejoin: bevel"/>
     <use xlink:href="#m35bd180980" x="135.296647" y="66.91363" style="stroke: #000000; stroke-linejoin: bevel"/>
     <use xlink:href="#m35bd180980" x="205.723442" y="64.725448" style="stroke: #000000; stroke-linejoin: bevel"/>
     <use xlink:href="#m35bd180980" x="216.639744" y="82.80255" style="stroke: #000000; stroke-linejoin: bevel"/>
     <use xlink:href="#m35bd180980" x="149.592881" y="49.064002" style="stroke: #000000; stroke-linejoin: bevel"/>
    </g>
   </g>
   <g id="line2d_13">
    <path d="M 46.145455 65.755931 
L 47.161016 65.977256 
L 49.801474 66.652183 
L 51.223259 66.789347 
L 52.645045 66.720641 
L 54.269943 66.401126 
L 56.097952 65.780492 
L 58.332187 64.750707 
L 66.862899 60.49214 
L 68.894021 59.867707 
L 70.722031 59.531911 
L 72.550041 59.430819 
L 74.37805 59.573795 
L 76.20606 59.961095 
L 78.03407 60.584999 
L 80.065193 61.537725 
L 82.096315 62.736074 
L 84.53366 64.448402 
L 87.377231 66.734709 
L 91.642588 70.48854 
L 97.126619 75.27553 
L 100.173301 77.63343 
L 102.610646 79.256682 
L 104.84488 80.490342 
L 106.876003 81.371877 
L 108.907126 82.004334 
L 110.735133 82.348235 
L 112.563141 82.470882 
L 114.391153 82.367987 
L 116.219164 82.038331 
L 118.047176 81.48363 
L 119.875188 80.708389 
L 121.906307 79.597079 
L 123.937426 78.235586 
L 126.171659 76.468845 
L 128.609008 74.250033 
L 131.249464 71.547336 
L 134.29615 68.113061 
L 138.155281 63.415915 
L 151.560684 46.784965 
L 154.60737 43.502949 
L 157.450941 40.766447 
L 159.88829 38.715902 
L 162.122524 37.103584 
L 164.356758 35.768159 
L 166.387877 34.808932 
L 168.419003 34.103239 
L 170.247007 33.691722 
L 172.075019 33.496529 
L 173.903031 33.520465 
L 175.731042 33.764829 
L 177.559046 34.229413 
L 179.387058 34.912548 
L 181.418177 35.924137 
L 183.449311 37.195609 
L 185.48043 38.718772 
L 187.714656 40.672979 
L 190.152005 43.119858 
L 192.792461 46.1148 
L 195.63604 49.702303 
L 198.682726 53.910512 
L 202.135626 59.057644 
L 206.400987 65.82903 
L 213.306804 77.287445 
L 220.21262 88.622957 
L 224.477965 95.205418 
L 227.930881 100.148812 
L 230.977552 104.14885 
L 233.821131 107.525889 
L 236.461587 110.317799 
L 238.898936 112.575673 
L 241.133177 114.358747 
L 243.367403 115.854002 
L 245.398522 116.954081 
L 247.429641 117.799988 
L 249.054545 118.289858 
L 249.054545 118.289858 
" clip-path="url(#p22479ef467)" style="fill: none; stroke: #ffa500; stroke-width: 1.5; stroke-linecap: square"/>
   </g>
   <g id="line2d_14">
    <path d="M 47.041257 174.012721 
L 47.430464 172.250875 
L 47.75279 169.946829 
L 48.706597 157.716391 
L 49.578513 143.812419 
L 50.227543 139.007769 
L 50.482298 139.436545 
L 52.689258 168.943297 
L 53.291459 173.134901 
L 54.155417 175.331162 
L 54.918532 175.737808 
L 55.852625 175.806692 
L 57.515824 175.811369 
L 60.955524 175.613871 
L 61.193866 175.46151 
L 61.835168 174.426603 
L 63.173828 164.422983 
L 64.662639 140.578155 
L 64.981372 137.803436 
L 65.219268 137.110525 
L 65.546552 138.18658 
L 65.684658 139.32191 
L 66.755271 155.974796 
L 68.129538 172.364895 
L 69.317659 175.36837 
L 70.145989 174.889689 
L 70.522715 173.930918 
L 70.842996 172.50014 
L 71.226132 169.754647 
L 73.752176 136.54562 
L 76.838758 173.205667 
L 77.425017 174.974978 
L 78.058916 175.615582 
L 78.673091 175.772913 
L 80.901833 175.783446 
L 81.850477 175.480124 
L 82.826936 173.352933 
L 83.049182 172.219045 
L 83.426679 169.401876 
L 85.560784 139.768453 
L 85.842835 138.61071 
L 86.033879 138.782872 
L 86.604839 143.60116 
L 87.126699 151.748803 
L 89.190173 174.182474 
L 89.515268 174.959583 
L 91.640359 175.808639 
L 97.474939 175.733697 
L 98.597897 174.763968 
L 98.79103 174.288707 
L 99.687767 169.287797 
L 100.332199 161.872235 
L 101.226537 148.933134 
L 103.404498 156.509519 
L 104.005151 164.924376 
L 104.84089 172.340365 
L 105.113463 173.620328 
L 105.887678 175.340931 
L 106.22563 175.593538 
L 107.796948 175.574833 
L 109.253081 171.757155 
L 109.565103 169.440983 
L 110.24045 161.834599 
L 111.381744 146.813424 
L 112.0337 144.408277 
L 112.436795 146.631443 
L 114.237638 169.1216 
L 115.514087 175.052863 
L 115.854694 175.449389 
L 116.311995 175.690704 
L 118.675144 175.81132 
L 129.915946 175.799958 
L 130.820385 175.658865 
L 131.370315 175.225764 
L 133.299888 159.250368 
L 134.700329 126.947129 
L 135.588002 121.775404 
L 135.589597 121.787757 
L 135.666219 122.468207 
L 137.867587 167.072997 
L 138.141008 170.067919 
L 138.551216 172.988767 
L 141.018474 175.806291 
L 151.624109 175.81138 
L 154.82972 175.809535 
L 156.406425 175.613571 
L 157.473102 173.739119 
L 158.059814 170.108771 
L 158.830762 159.8659 
L 160.453461 130.52448 
L 161.402948 134.574675 
L 163.320315 168.820719 
L 163.351865 169.141302 
L 164.942812 175.514356 
L 166.221691 175.802932 
L 180.55624 175.808945 
L 181.478459 175.768725 
L 182.757771 174.806576 
L 183.341008 172.710031 
L 183.650808 170.601087 
L 184.229277 163.974462 
L 187.057777 135.206455 
L 189.249416 171.394857 
L 189.80262 174.183356 
L 190.554365 175.495291 
L 191.688777 175.797007 
L 195.374725 175.81138 
L 200.459837 175.798695 
L 201.291307 175.681584 
L 201.713498 175.44851 
L 202.109975 174.943711 
L 203.900508 161.430257 
L 204.015669 159.641263 
L 205.859827 138.509586 
L 208.554961 172.098338 
L 208.944921 173.932226 
L 209.56011 175.274225 
L 210.436536 175.74906 
L 212.557582 175.554656 
L 212.793911 175.370732 
L 213.664145 173.369604 
L 213.969379 171.797349 
L 214.846688 163.389807 
L 216.533035 144.514858 
L 218.151685 159.572976 
L 219.07361 170.125064 
L 220.722385 175.554991 
L 221.321583 175.755025 
L 223.120336 175.811208 
L 231.177037 175.744136 
L 231.957637 175.385866 
L 233.405256 170.674172 
L 233.736544 168.146444 
L 234.593913 159.722773 
L 235.570686 153.485466 
L 236.609288 158.512856 
L 237.598213 168.204225 
L 239.455127 175.449903 
L 239.851651 175.646419 
L 241.136583 175.294175 
L 241.903266 173.716738 
L 242.409873 171.406738 
L 243.161169 165.714375 
L 245.348287 158.112205 
L 246.255365 165.866061 
L 247.154703 172.298871 
L 248.39132 175.419112 
L 248.39132 175.419112 
" clip-path="url(#p22479ef467)" style="fill: none; stroke: #0000ff; stroke-width: 1.5; stroke-linecap: square"/>
   </g>
   <g id="line2d_15">
    <defs>
     <path id="md82b889a1d" d="M 0 -3 
L -0.673542 -0.927051 
L -2.85317 -0.927051 
L -1.089814 0.354102 
L -1.763356 2.427051 
L -0 1.145898 
L 1.763356 2.427051 
L 1.089814 0.354102 
L 2.85317 -0.927051 
L 0.673542 -0.927051 
z
" style="stroke: #ff0000; stroke-linejoin: bevel"/>
    </defs>
    <g clip-path="url(#p22479ef467)">
     <use xlink:href="#md82b889a1d" x="149.592881" y="49.064002" style="fill: #ff0000; stroke: #ff0000; stroke-linejoin: bevel"/>
    </g>
   </g>
   <g id="patch_3">
    <path d="M 36 192.24 
L 36 25.92 
" style="fill: none; stroke: #000000; stroke-width: 0.8; stroke-linejoin: miter; stroke-linecap: square"/>
   </g>
   <g id="patch_4">
    <path d="M 259.2 192.24 
L 259.2 25.92 
" style="fill: none; stroke: #000000; stroke-width: 0.8; stroke-linejoin: miter; stroke-linecap: square"/>
   </g>
   <g id="patch_5">
    <path d="M 36 192.24 
L 259.2 192.24 
" style="fill: none; stroke: #000000; stroke-width: 0.8; stroke-linejoin: miter; stroke-linecap: square"/>
   </g>
   <g id="patch_6">
    <path d="M 36 25.92 
L 259.2 25.92 
" style="fill: none; stroke: #000000; stroke-width: 0.8; stroke-linejoin: miter; stroke-linecap: square"/>
   </g>
   <g id="legend_1">
    <g id="patch_7">
     <path d="M 85.035937 139.93625 
L 210.164062 139.93625 
Q 212.164062 139.93625 212.164062 137.93625 
L 212.164062 80.22375 
Q 212.164062 78.22375 210.164062 78.22375 
L 85.035937 78.22375 
Q 83.035937 78.22375 83.035937 80.22375 
L 83.035937 137.93625 
Q 83.035937 139.93625 85.035937 139.93625 
z
" style="fill: #ffffff; opacity: 0.8; stroke: #cccccc; stroke-linejoin: miter"/>
    </g>
    <g id="line2d_16">
     <g>
      <use xlink:href="#m35bd180980" x="97.035937" y="86.322187" style="stroke: #000000; stroke-linejoin: bevel"/>
     </g>
    </g>
    <g id="text_12">
     <!-- Training Points -->
     <g transform="translate(115.035937 89.822187) scale(0.1 -0.1)">
      <defs>
       <path id="DejaVuSans-54" d="M -19 4666 
L 3928 4666 
L 3928 4134 
L 2272 4134 
L 2272 0 
L 1638 0 
L 1638 4134 
L -19 4134 
L -19 4666 
z
" transform="scale(0.015625)"/>
       <path id="DejaVuSans-72" d="M 2631 2963 
Q 2534 3019 2420 3045 
Q 2306 3072 2169 3072 
Q 1681 3072 1420 2755 
Q 1159 2438 1159 1844 
L 1159 0 
L 581 0 
L 581 3500 
L 1159 3500 
L 1159 2956 
Q 1341 3275 1631 3429 
Q 1922 3584 2338 3584 
Q 2397 3584 2469 3576 
Q 2541 3569 2628 3553 
L 2631 2963 
z
" transform="scale(0.015625)"/>
       <path id="DejaVuSans-61" d="M 2194 1759 
Q 1497 1759 1228 1600 
Q 959 1441 959 1056 
Q 959 750 1161 570 
Q 1363 391 1709 391 
Q 2188 391 2477 730 
Q 2766 1069 2766 1631 
L 2766 1759 
L 2194 1759 
z
M 3341 1997 
L 3341 0 
L 2766 0 
L 2766 531 
Q 2569 213 2275 61 
Q 1981 -91 1556 -91 
Q 1019 -91 701 211 
Q 384 513 384 1019 
Q 384 1609 779 1909 
Q 1175 2209 1959 2209 
L 2766 2209 
L 2766 2266 
Q 2766 2663 2505 2880 
Q 2244 3097 1772 3097 
Q 1472 3097 1187 3025 
Q 903 2953 641 2809 
L 641 3341 
Q 956 3463 1253 3523 
Q 1550 3584 1831 3584 
Q 2591 3584 2966 3190 
Q 3341 2797 3341 1997 
z
" transform="scale(0.015625)"/>
       <path id="DejaVuSans-69" d="M 603 3500 
L 1178 3500 
L 1178 0 
L 603 0 
L 603 3500 
z
M 603 4863 
L 1178 4863 
L 1178 4134 
L 603 4134 
L 603 4863 
z
" transform="scale(0.015625)"/>
       <path id="DejaVuSans-6e" d="M 3513 2113 
L 3513 0 
L 2938 0 
L 2938 2094 
Q 2938 2591 2744 2837 
Q 2550 3084 2163 3084 
Q 1697 3084 1428 2787 
Q 1159 2491 1159 1978 
L 1159 0 
L 581 0 
L 581 3500 
L 1159 3500 
L 1159 2956 
Q 1366 3272 1645 3428 
Q 1925 3584 2291 3584 
Q 2894 3584 3203 3211 
Q 3513 2838 3513 2113 
z
" transform="scale(0.015625)"/>
       <path id="DejaVuSans-67" d="M 2906 1791 
Q 2906 2416 2648 2759 
Q 2391 3103 1925 3103 
Q 1463 3103 1205 2759 
Q 947 2416 947 1791 
Q 947 1169 1205 825 
Q 1463 481 1925 481 
Q 2391 481 2648 825 
Q 2906 1169 2906 1791 
z
M 3481 434 
Q 3481 -459 3084 -895 
Q 2688 -1331 1869 -1331 
Q 1566 -1331 1297 -1286 
Q 1028 -1241 775 -1147 
L 775 -588 
Q 1028 -725 1275 -790 
Q 1522 -856 1778 -856 
Q 2344 -856 2625 -561 
Q 2906 -266 2906 331 
L 2906 616 
Q 2728 306 2450 153 
Q 2172 0 1784 0 
Q 1141 0 747 490 
Q 353 981 353 1791 
Q 353 2603 747 3093 
Q 1141 3584 1784 3584 
Q 2172 3584 2450 3431 
Q 2728 3278 2906 2969 
L 2906 3500 
L 3481 3500 
L 3481 434 
z
" transform="scale(0.015625)"/>
       <path id="DejaVuSans-20" transform="scale(0.015625)"/>
       <path id="DejaVuSans-50" d="M 1259 4147 
L 1259 2394 
L 2053 2394 
Q 2494 2394 2734 2622 
Q 2975 2850 2975 3272 
Q 2975 3691 2734 3919 
Q 2494 4147 2053 4147 
L 1259 4147 
z
M 628 4666 
L 2053 4666 
Q 2838 4666 3239 4311 
Q 3641 3956 3641 3272 
Q 3641 2581 3239 2228 
Q 2838 1875 2053 1875 
L 1259 1875 
L 1259 0 
L 628 0 
L 628 4666 
z
" transform="scale(0.015625)"/>
       <path id="DejaVuSans-6f" d="M 1959 3097 
Q 1497 3097 1228 2736 
Q 959 2375 959 1747 
Q 959 1119 1226 758 
Q 1494 397 1959 397 
Q 2419 397 2687 759 
Q 2956 1122 2956 1747 
Q 2956 2369 2687 2733 
Q 2419 3097 1959 3097 
z
M 1959 3584 
Q 2709 3584 3137 3096 
Q 3566 2609 3566 1747 
Q 3566 888 3137 398 
Q 2709 -91 1959 -91 
Q 1206 -91 779 398 
Q 353 888 353 1747 
Q 353 2609 779 3096 
Q 1206 3584 1959 3584 
z
" transform="scale(0.015625)"/>
       <path id="DejaVuSans-74" d="M 1172 4494 
L 1172 3500 
L 2356 3500 
L 2356 3053 
L 1172 3053 
L 1172 1153 
Q 1172 725 1289 603 
Q 1406 481 1766 481 
L 2356 481 
L 2356 0 
L 1766 0 
Q 1100 0 847 248 
Q 594 497 594 1153 
L 594 3053 
L 172 3053 
L 172 3500 
L 594 3500 
L 594 4494 
L 1172 4494 
z
" transform="scale(0.015625)"/>
       <path id="DejaVuSans-73" d="M 2834 3397 
L 2834 2853 
Q 2591 2978 2328 3040 
Q 2066 3103 1784 3103 
Q 1356 3103 1142 2972 
Q 928 2841 928 2578 
Q 928 2378 1081 2264 
Q 1234 2150 1697 2047 
L 1894 2003 
Q 2506 1872 2764 1633 
Q 3022 1394 3022 966 
Q 3022 478 2636 193 
Q 2250 -91 1575 -91 
Q 1294 -91 989 -36 
Q 684 19 347 128 
L 347 722 
Q 666 556 975 473 
Q 1284 391 1588 391 
Q 1994 391 2212 530 
Q 2431 669 2431 922 
Q 2431 1156 2273 1281 
Q 2116 1406 1581 1522 
L 1381 1569 
Q 847 1681 609 1914 
Q 372 2147 372 2553 
Q 372 3047 722 3315 
Q 1072 3584 1716 3584 
Q 2034 3584 2315 3537 
Q 2597 3491 2834 3397 
z
" transform="scale(0.015625)"/>
      </defs>
      <use xlink:href="#DejaVuSans-54"/>
      <use xlink:href="#DejaVuSans-72" x="46.333984"/>
      <use xlink:href="#DejaVuSans-61" x="87.447266"/>
      <use xlink:href="#DejaVuSans-69" x="148.726562"/>
      <use xlink:href="#DejaVuSans-6e" x="176.509766"/>
      <use xlink:href="#DejaVuSans-69" x="239.888672"/>
      <use xlink:href="#DejaVuSans-6e" x="267.671875"/>
      <use xlink:href="#DejaVuSans-67" x="331.050781"/>
      <use xlink:href="#DejaVuSans-20" x="394.527344"/>
      <use xlink:href="#DejaVuSans-50" x="426.314453"/>
      <use xlink:href="#DejaVuSans-6f" x="482.992188"/>
      <use xlink:href="#DejaVuSans-69" x="544.173828"/>
      <use xlink:href="#DejaVuSans-6e" x="571.957031"/>
      <use xlink:href="#DejaVuSans-74" x="635.335938"/>
      <use xlink:href="#DejaVuSans-73" x="674.544922"/>
     </g>
    </g>
    <g id="line2d_17">
     <path d="M 87.035937 101.000313 
L 97.035937 101.000313 
L 107.035937 101.000313 
" style="fill: none; stroke: #ffa500; stroke-width: 1.5; stroke-linecap: square"/>
    </g>
    <g id="text_13">
     <!-- Objective Function -->
     <g transform="translate(115.035937 104.500313) scale(0.1 -0.1)">
      <defs>
       <path id="DejaVuSans-4f" d="M 2522 4238 
Q 1834 4238 1429 3725 
Q 1025 3213 1025 2328 
Q 1025 1447 1429 934 
Q 1834 422 2522 422 
Q 3209 422 3611 934 
Q 4013 1447 4013 2328 
Q 4013 3213 3611 3725 
Q 3209 4238 2522 4238 
z
M 2522 4750 
Q 3503 4750 4090 4092 
Q 4678 3434 4678 2328 
Q 4678 1225 4090 567 
Q 3503 -91 2522 -91 
Q 1538 -91 948 565 
Q 359 1222 359 2328 
Q 359 3434 948 4092 
Q 1538 4750 2522 4750 
z
" transform="scale(0.015625)"/>
       <path id="DejaVuSans-62" d="M 3116 1747 
Q 3116 2381 2855 2742 
Q 2594 3103 2138 3103 
Q 1681 3103 1420 2742 
Q 1159 2381 1159 1747 
Q 1159 1113 1420 752 
Q 1681 391 2138 391 
Q 2594 391 2855 752 
Q 3116 1113 3116 1747 
z
M 1159 2969 
Q 1341 3281 1617 3432 
Q 1894 3584 2278 3584 
Q 2916 3584 3314 3078 
Q 3713 2572 3713 1747 
Q 3713 922 3314 415 
Q 2916 -91 2278 -91 
Q 1894 -91 1617 61 
Q 1341 213 1159 525 
L 1159 0 
L 581 0 
L 581 4863 
L 1159 4863 
L 1159 2969 
z
" transform="scale(0.015625)"/>
       <path id="DejaVuSans-6a" d="M 603 3500 
L 1178 3500 
L 1178 -63 
Q 1178 -731 923 -1031 
Q 669 -1331 103 -1331 
L -116 -1331 
L -116 -844 
L 38 -844 
Q 366 -844 484 -692 
Q 603 -541 603 -63 
L 603 3500 
z
M 603 4863 
L 1178 4863 
L 1178 4134 
L 603 4134 
L 603 4863 
z
" transform="scale(0.015625)"/>
       <path id="DejaVuSans-65" d="M 3597 1894 
L 3597 1613 
L 953 1613 
Q 991 1019 1311 708 
Q 1631 397 2203 397 
Q 2534 397 2845 478 
Q 3156 559 3463 722 
L 3463 178 
Q 3153 47 2828 -22 
Q 2503 -91 2169 -91 
Q 1331 -91 842 396 
Q 353 884 353 1716 
Q 353 2575 817 3079 
Q 1281 3584 2069 3584 
Q 2775 3584 3186 3129 
Q 3597 2675 3597 1894 
z
M 3022 2063 
Q 3016 2534 2758 2815 
Q 2500 3097 2075 3097 
Q 1594 3097 1305 2825 
Q 1016 2553 972 2059 
L 3022 2063 
z
" transform="scale(0.015625)"/>
       <path id="DejaVuSans-63" d="M 3122 3366 
L 3122 2828 
Q 2878 2963 2633 3030 
Q 2388 3097 2138 3097 
Q 1578 3097 1268 2742 
Q 959 2388 959 1747 
Q 959 1106 1268 751 
Q 1578 397 2138 397 
Q 2388 397 2633 464 
Q 2878 531 3122 666 
L 3122 134 
Q 2881 22 2623 -34 
Q 2366 -91 2075 -91 
Q 1284 -91 818 406 
Q 353 903 353 1747 
Q 353 2603 823 3093 
Q 1294 3584 2113 3584 
Q 2378 3584 2631 3529 
Q 2884 3475 3122 3366 
z
" transform="scale(0.015625)"/>
       <path id="DejaVuSans-76" d="M 191 3500 
L 800 3500 
L 1894 563 
L 2988 3500 
L 3597 3500 
L 2284 0 
L 1503 0 
L 191 3500 
z
" transform="scale(0.015625)"/>
       <path id="DejaVuSans-46" d="M 628 4666 
L 3309 4666 
L 3309 4134 
L 1259 4134 
L 1259 2759 
L 3109 2759 
L 3109 2228 
L 1259 2228 
L 1259 0 
L 628 0 
L 628 4666 
z
" transform="scale(0.015625)"/>
       <path id="DejaVuSans-75" d="M 544 1381 
L 544 3500 
L 1119 3500 
L 1119 1403 
Q 1119 906 1312 657 
Q 1506 409 1894 409 
Q 2359 409 2629 706 
Q 2900 1003 2900 1516 
L 2900 3500 
L 3475 3500 
L 3475 0 
L 2900 0 
L 2900 538 
Q 2691 219 2414 64 
Q 2138 -91 1772 -91 
Q 1169 -91 856 284 
Q 544 659 544 1381 
z
M 1991 3584 
L 1991 3584 
z
" transform="scale(0.015625)"/>
      </defs>
      <use xlink:href="#DejaVuSans-4f"/>
      <use xlink:href="#DejaVuSans-62" x="78.710938"/>
      <use xlink:href="#DejaVuSans-6a" x="142.1875"/>
      <use xlink:href="#DejaVuSans-65" x="169.970703"/>
      <use xlink:href="#DejaVuSans-63" x="231.494141"/>
      <use xlink:href="#DejaVuSans-74" x="286.474609"/>
      <use xlink:href="#DejaVuSans-69" x="325.683594"/>
      <use xlink:href="#DejaVuSans-76" x="353.466797"/>
      <use xlink:href="#DejaVuSans-65" x="412.646484"/>
      <use xlink:href="#DejaVuSans-20" x="474.169922"/>
      <use xlink:href="#DejaVuSans-46" x="505.957031"/>
      <use xlink:href="#DejaVuSans-75" x="557.976562"/>
      <use xlink:href="#DejaVuSans-6e" x="621.355469"/>
      <use xlink:href="#DejaVuSans-63" x="684.734375"/>
      <use xlink:href="#DejaVuSans-74" x="739.714844"/>
      <use xlink:href="#DejaVuSans-69" x="778.923828"/>
      <use xlink:href="#DejaVuSans-6f" x="806.707031"/>
      <use xlink:href="#DejaVuSans-6e" x="867.888672"/>
     </g>
    </g>
    <g id="line2d_18">
     <path d="M 87.035937 115.678438 
L 97.035937 115.678438 
L 107.035937 115.678438 
" style="fill: none; stroke: #0000ff; stroke-width: 1.5; stroke-linecap: square"/>
    </g>
    <g id="text_14">
     <!-- Model Prediction -->
     <g transform="translate(115.035937 119.178438) scale(0.1 -0.1)">
      <defs>
       <path id="DejaVuSans-4d" d="M 628 4666 
L 1569 4666 
L 2759 1491 
L 3956 4666 
L 4897 4666 
L 4897 0 
L 4281 0 
L 4281 4097 
L 3078 897 
L 2444 897 
L 1241 4097 
L 1241 0 
L 628 0 
L 628 4666 
z
" transform="scale(0.015625)"/>
       <path id="DejaVuSans-64" d="M 2906 2969 
L 2906 4863 
L 3481 4863 
L 3481 0 
L 2906 0 
L 2906 525 
Q 2725 213 2448 61 
Q 2172 -91 1784 -91 
Q 1150 -91 751 415 
Q 353 922 353 1747 
Q 353 2572 751 3078 
Q 1150 3584 1784 3584 
Q 2172 3584 2448 3432 
Q 2725 3281 2906 2969 
z
M 947 1747 
Q 947 1113 1208 752 
Q 1469 391 1925 391 
Q 2381 391 2643 752 
Q 2906 1113 2906 1747 
Q 2906 2381 2643 2742 
Q 2381 3103 1925 3103 
Q 1469 3103 1208 2742 
Q 947 2381 947 1747 
z
" transform="scale(0.015625)"/>
       <path id="DejaVuSans-6c" d="M 603 4863 
L 1178 4863 
L 1178 0 
L 603 0 
L 603 4863 
z
" transform="scale(0.015625)"/>
      </defs>
      <use xlink:href="#DejaVuSans-4d"/>
      <use xlink:href="#DejaVuSans-6f" x="86.279297"/>
      <use xlink:href="#DejaVuSans-64" x="147.460938"/>
      <use xlink:href="#DejaVuSans-65" x="210.9375"/>
      <use xlink:href="#DejaVuSans-6c" x="272.460938"/>
      <use xlink:href="#DejaVuSans-20" x="300.244141"/>
      <use xlink:href="#DejaVuSans-50" x="332.03125"/>
      <use xlink:href="#DejaVuSans-72" x="390.583984"/>
      <use xlink:href="#DejaVuSans-65" x="429.447266"/>
      <use xlink:href="#DejaVuSans-64" x="490.970703"/>
      <use xlink:href="#DejaVuSans-69" x="554.447266"/>
      <use xlink:href="#DejaVuSans-63" x="582.230469"/>
      <use xlink:href="#DejaVuSans-74" x="637.210938"/>
      <use xlink:href="#DejaVuSans-69" x="676.419922"/>
      <use xlink:href="#DejaVuSans-6f" x="704.203125"/>
      <use xlink:href="#DejaVuSans-6e" x="765.384766"/>
     </g>
    </g>
    <g id="line2d_19">
     <g>
      <use xlink:href="#md82b889a1d" x="97.035937" y="130.356562" style="fill: #ff0000; stroke: #ff0000; stroke-linejoin: bevel"/>
     </g>
    </g>
    <g id="text_15">
     <!-- Next Point -->
     <g transform="translate(115.035937 133.856562) scale(0.1 -0.1)">
      <defs>
       <path id="DejaVuSans-4e" d="M 628 4666 
L 1478 4666 
L 3547 763 
L 3547 4666 
L 4159 4666 
L 4159 0 
L 3309 0 
L 1241 3903 
L 1241 0 
L 628 0 
L 628 4666 
z
" transform="scale(0.015625)"/>
       <path id="DejaVuSans-78" d="M 3513 3500 
L 2247 1797 
L 3578 0 
L 2900 0 
L 1881 1375 
L 863 0 
L 184 0 
L 1544 1831 
L 300 3500 
L 978 3500 
L 1906 2253 
L 2834 3500 
L 3513 3500 
z
" transform="scale(0.015625)"/>
      </defs>
      <use xlink:href="#DejaVuSans-4e"/>
      <use xlink:href="#DejaVuSans-65" x="74.804688"/>
      <use xlink:href="#DejaVuSans-78" x="134.578125"/>
      <use xlink:href="#DejaVuSans-74" x="193.757812"/>
      <use xlink:href="#DejaVuSans-20" x="232.966797"/>
      <use xlink:href="#DejaVuSans-50" x="264.753906"/>
      <use xlink:href="#DejaVuSans-6f" x="321.431641"/>
      <use xlink:href="#DejaVuSans-69" x="382.613281"/>
      <use xlink:href="#DejaVuSans-6e" x="410.396484"/>
      <use xlink:href="#DejaVuSans-74" x="473.775391"/>
     </g>
    </g>
   </g>
  </g>
 </g>
 <defs>
  <clipPath id="p22479ef467">
   <rect x="36" y="25.92" width="223.2" height="166.32"/>
  </clipPath>
 </defs>
</svg>
