<?xml version="1.0" encoding="utf-8" standalone="no"?>
<!DOCTYPE svg PUBLIC "-//W3C//DTD SVG 1.1//EN"
  "http://www.w3.org/Graphics/SVG/1.1/DTD/svg11.dtd">
<svg xmlns:xlink="http://www.w3.org/1999/xlink" width="288pt" height="216pt" viewBox="0 0 288 216" xmlns="http://www.w3.org/2000/svg" version="1.1">
 <metadata>
  <rdf:RDF xmlns:dc="http://purl.org/dc/elements/1.1/" xmlns:cc="http://creativecommons.org/ns#" xmlns:rdf="http://www.w3.org/1999/02/22-rdf-syntax-ns#">
   <cc:Work>
    <dc:type rdf:resource="http://purl.org/dc/dcmitype/StillImage"/>
    <dc:date>2025-03-19T13:05:07.107677</dc:date>
    <dc:format>image/svg+xml</dc:format>
    <dc:creator>
     <cc:Agent>
      <dc:title>Matplotlib v3.9.4, https://matplotlib.org/</dc:title>
     </cc:Agent>
    </dc:creator>
   </cc:Work>
  </rdf:RDF>
 </metadata>
 <defs>
  <style type="text/css">*{stroke-linejoin: round; stroke-linecap: butt}</style>
 </defs>
 <g id="figure_1">
  <g id="patch_1">
   <path d="M 0 216 
L 288 216 
L 288 0 
L 0 0 
z
" style="fill: #ffffff"/>
  </g>
  <g id="axes_1">
   <g id="patch_2">
    <path d="M 36 192.24 
L 259.2 192.24 
L 259.2 25.92 
L 36 25.92 
z
" style="fill: #ffffff"/>
   </g>
   <g id="PolyCollection_1">
    <path d="M 46.875456 178.078348 
L 46.875456 184.68 
L 47.103313 184.68 
L 47.445232 184.68 
L 47.520507 184.68 
L 47.716761 184.68 
L 47.742026 184.68 
L 47.920998 184.68 
L 48.15899 184.68 
L 48.382445 184.68 
L 48.615636 184.68 
L 49.019175 184.68 
L 49.18523 184.68 
L 49.690724 184.68 
L 49.783536 184.68 
L 49.82554 184.68 
L 51.739721 184.68 
L 52.17352 184.68 
L 54.401935 184.68 
L 54.594441 184.68 
L 55.821325 184.68 
L 56.558172 184.68 
L 56.956692 184.68 
L 57.917876 184.68 
L 58.410829 184.68 
L 58.525447 184.68 
L 58.893598 184.68 
L 59.314916 184.68 
L 59.487176 184.68 
L 59.78241 184.68 
L 60.052948 184.68 
L 60.730327 184.68 
L 61.160038 184.68 
L 61.504629 184.68 
L 61.928572 184.68 
L 62.01131 184.68 
L 63.091441 184.68 
L 64.055686 184.68 
L 64.381567 184.68 
L 64.641982 184.68 
L 66.487311 184.68 
L 66.792256 184.68 
L 66.975219 184.68 
L 67.180774 184.68 
L 68.190238 184.68 
L 68.731981 184.68 
L 68.866868 184.68 
L 68.900067 184.68 
L 69.074529 184.68 
L 69.866995 184.68 
L 70.712607 184.68 
L 71.130467 184.68 
L 72.159524 184.68 
L 72.433351 184.68 
L 72.849759 184.68 
L 73.338538 184.68 
L 73.460039 184.68 
L 73.484783 184.68 
L 74.267528 184.68 
L 74.645354 184.68 
L 74.804419 184.68 
L 74.933563 184.68 
L 77.197561 184.68 
L 78.280897 184.68 
L 78.975763 184.679998 
L 79.115333 184.679995 
L 82.271673 162.12709 
L 82.461951 153.859618 
L 82.725692 142.304821 
L 84.214347 163.713742 
L 84.884856 180.845458 
L 85.950949 184.635855 
L 87.029023 184.679947 
L 88.715564 184.68 
L 88.717716 184.68 
L 89.389038 184.68 
L 90.09376 184.68 
L 91.128152 184.68 
L 91.387949 184.68 
L 91.663944 184.68 
L 91.733255 184.68 
L 92.49654 184.68 
L 94.07578 184.68 
L 94.77429 184.68 
L 95.695673 184.68 
L 96.386779 184.68 
L 96.774653 184.68 
L 97.558075 184.68 
L 98.021169 184.68 
L 98.6437 184.68 
L 99.818096 184.68 
L 101.087129 184.68 
L 101.199132 184.68 
L 101.385493 184.68 
L 102.255259 184.68 
L 102.340569 184.68 
L 104.224335 184.68 
L 105.166071 184.68 
L 105.191784 184.68 
L 105.843113 184.68 
L 106.003834 184.68 
L 107.001699 184.68 
L 108.354061 184.68 
L 108.420411 184.68 
L 110.17155 184.68 
L 110.581088 184.68 
L 110.609979 184.68 
L 111.094554 184.68 
L 112.071775 184.68 
L 112.887439 184.68 
L 113.480413 184.68 
L 113.573584 184.68 
L 114.13233 184.679999 
L 114.24123 184.679998 
L 114.67452 184.679959 
L 115.449292 184.673521 
L 116.164951 184.425938 
L 116.93576 180.247084 
L 117.224112 175.021428 
L 118.67526 140.821127 
L 118.997337 149.201514 
L 119.612658 171.044083 
L 120.865978 184.470633 
L 121.690126 184.677373 
L 123.214444 184.68 
L 123.412195 184.68 
L 124.149217 184.68 
L 124.874111 184.68 
L 125.76683 184.68 
L 126.534458 184.68 
L 127.186847 184.68 
L 128.059651 184.68 
L 129.747957 184.68 
L 130.213137 184.68 
L 130.286516 184.68 
L 130.725635 184.68 
L 131.527692 184.68 
L 131.54575 184.68 
L 132.185879 184.68 
L 132.269792 184.68 
L 132.431635 184.68 
L 134.125522 184.68 
L 135.125902 184.68 
L 136.147267 184.68 
L 136.881929 184.68 
L 137.031705 184.68 
L 137.066173 184.68 
L 137.202821 184.68 
L 139.107524 184.68 
L 139.225294 184.68 
L 140.261597 184.68 
L 140.526426 184.68 
L 141.892601 184.68 
L 143.482473 184.68 
L 143.9539 184.68 
L 145.185826 184.68 
L 145.660419 184.68 
L 148.465249 184.68 
L 149.126377 184.68 
L 149.456055 184.679999 
L 150.336839 184.679332 
L 150.39178 184.679042 
L 151.952169 182.279418 
L 152.892693 156.144115 
L 153.020192 149.619023 
L 153.343864 133.229882 
L 154.482278 144.434497 
L 156.796633 184.66808 
L 157.170469 184.678769 
L 157.385613 184.679705 
L 158.701282 184.68 
L 158.784398 184.68 
L 158.989935 184.68 
L 160.109146 184.68 
L 161.024205 184.68 
L 161.88169 184.68 
L 163.27426 184.68 
L 163.61465 184.68 
L 164.872352 184.68 
L 166.093766 184.68 
L 166.157725 184.68 
L 166.159188 184.68 
L 167.409985 184.68 
L 167.58412 184.68 
L 168.137687 184.68 
L 168.661695 184.679988 
L 169.98214 184.618639 
L 170.960754 180.80161 
L 171.212185 176.298528 
L 172.779005 117.169745 
L 172.932056 120.345926 
L 174.033115 172.515001 
L 176.615898 184.679972 
L 177.075985 184.679997 
L 177.797573 184.679603 
L 178.166665 184.675748 
L 180.314044 160.669839 
L 180.52548 149.727628 
L 182.099344 145.737002 
L 182.101202 145.841778 
L 182.816644 176.172022 
L 183.256576 182.618848 
L 184.184553 184.649114 
L 185.985334 184.68 
L 186.21318 184.68 
L 186.577023 184.68 
L 186.714368 184.68 
L 187.409902 184.68 
L 188.507007 184.68 
L 188.884597 184.68 
L 189.276771 184.68 
L 190.499191 184.68 
L 190.856889 184.68 
L 190.906706 184.68 
L 192.510541 184.68 
L 193.643762 184.68 
L 193.715097 184.68 
L 194.351325 184.68 
L 194.766146 184.68 
L 196.541756 184.68 
L 196.704458 184.68 
L 196.719583 184.68 
L 196.828923 184.68 
L 198.072367 184.68 
L 198.585151 184.68 
L 199.108462 184.68 
L 199.838162 184.68 
L 201.410013 184.671979 
L 201.553148 184.661964 
L 201.739211 184.631224 
L 202.534611 183.04978 
L 203.127446 174.506218 
L 203.173811 173.264718 
L 203.541463 160.094158 
L 203.799186 148.593216 
L 205.017845 144.97719 
L 207.290355 144.508273 
L 207.513138 137.07274 
L 207.684417 133.808615 
L 207.755613 133.243097 
L 207.96016 134.38314 
L 209.750616 183.321738 
L 210.00662 184.187886 
L 211.442722 184.679837 
L 211.670846 184.679968 
L 212.680763 184.68 
L 213.828241 184.68 
L 213.86637 184.68 
L 213.880489 184.68 
L 213.896728 184.68 
L 214.235462 184.68 
L 214.694977 184.68 
L 215.087676 184.68 
L 215.368419 184.68 
L 215.431256 184.68 
L 218.802898 184.68 
L 218.86479 184.68 
L 220.061482 184.68 
L 220.355569 184.679999 
L 222.917461 182.569392 
L 223.16732 180.112155 
L 223.949159 160.938972 
L 225.359485 160.62202 
L 225.55626 166.872486 
L 225.62597 168.965183 
L 225.6382 169.315513 
L 226.630608 183.74231 
L 226.692314 183.939347 
L 228.502631 184.629535 
L 228.688013 184.556975 
L 228.845808 184.430634 
L 228.974902 184.250795 
L 229.766463 178.683982 
L 231.518696 155.341913 
L 232.132771 171.97324 
L 232.175977 173.029029 
L 232.365229 177.007129 
L 232.810285 182.487425 
L 233.673553 184.613993 
L 234.815721 184.679928 
L 236.431523 184.68 
L 236.848079 184.68 
L 236.894273 184.68 
L 237.685679 184.68 
L 239.851202 184.68 
L 239.857147 184.68 
L 240.048179 184.68 
L 240.630487 184.67999 
L 240.858766 184.679949 
L 241.925404 184.646365 
L 242.238362 184.53028 
L 245.753805 177.073066 
L 245.80969 177.982656 
L 246.268539 182.816852 
L 246.395156 183.459651 
L 247.126126 184.621713 
L 248.675113 184.679997 
L 248.693674 184.679997 
L 248.914863 184.679999 
L 248.933564 184.679999 
L 248.99657 184.68 
L 248.99657 178.078348 
L 248.99657 178.078348 
L 248.933564 178.078348 
L 248.914863 178.078348 
L 248.693674 178.078345 
L 248.675113 178.078345 
L 247.126126 178.020065 
L 246.395156 176.859294 
L 246.268539 176.218216 
L 245.80969 171.419919 
L 245.753805 170.521621 
L 242.238362 177.928647 
L 241.925404 178.044715 
L 240.858766 178.078297 
L 240.630487 178.078339 
L 240.048179 178.078348 
L 239.857147 178.078348 
L 239.851202 178.078348 
L 237.685679 178.078348 
L 236.894273 178.078348 
L 236.848079 178.078348 
L 236.431523 178.078348 
L 234.815721 178.078276 
L 233.673553 178.012344 
L 232.810285 175.888645 
L 232.365229 170.440623 
L 232.175977 166.508505 
L 232.132771 165.468139 
L 231.518696 149.266902 
L 229.766463 172.103793 
L 228.974902 177.649253 
L 228.845808 177.82902 
L 228.688013 177.955332 
L 228.502631 178.027885 
L 226.692314 177.337955 
L 226.630608 177.141075 
L 225.6382 162.825775 
L 225.62597 162.480633 
L 225.55626 160.421434 
L 225.359485 154.297077 
L 223.949159 154.606678 
L 223.16732 173.520369 
L 222.917461 175.969848 
L 220.355569 178.078347 
L 220.061482 178.078348 
L 218.86479 178.078348 
L 218.802898 178.078348 
L 215.431256 178.078348 
L 215.368419 178.078348 
L 215.087676 178.078348 
L 214.694977 178.078348 
L 214.235462 178.078348 
L 213.896728 178.078348 
L 213.880489 178.078348 
L 213.86637 178.078348 
L 213.828241 178.078348 
L 212.680763 178.078348 
L 211.670846 178.078316 
L 211.442722 178.078185 
L 210.00662 177.586298 
L 209.750616 176.720573 
L 207.96016 128.47587 
L 207.755613 127.369329 
L 207.684417 127.91807 
L 207.513138 131.089786 
L 207.290355 138.341348 
L 205.017845 138.759154 
L 203.799186 142.307615 
L 203.541463 153.6377 
L 203.173811 166.694196 
L 203.127446 167.929288 
L 202.534611 176.448763 
L 201.739211 178.029572 
L 201.553148 178.060312 
L 201.410013 178.070327 
L 199.838162 178.078348 
L 199.108462 178.078348 
L 198.585151 178.078348 
L 198.072367 178.078348 
L 196.828923 178.078348 
L 196.719583 178.078348 
L 196.704458 178.078348 
L 196.541756 178.078348 
L 194.766146 178.078348 
L 194.351325 178.078348 
L 193.715097 178.078348 
L 193.643762 178.078348 
L 192.510541 178.078348 
L 190.906706 178.078348 
L 190.856889 178.078348 
L 190.499191 178.078348 
L 189.276771 178.078348 
L 188.884597 178.078348 
L 188.507007 178.078348 
L 187.409902 178.078348 
L 186.714368 178.078348 
L 186.577023 178.078348 
L 186.21318 178.078348 
L 185.985334 178.078348 
L 184.184553 178.047462 
L 183.256576 176.01786 
L 182.816644 169.581665 
L 182.101202 139.47848 
L 182.099344 139.375012 
L 180.52548 143.318464 
L 180.314044 154.158468 
L 178.166665 178.074097 
L 177.797573 178.077951 
L 177.075985 178.078346 
L 176.615898 178.07832 
L 174.033115 165.935682 
L 172.932056 114.394699 
L 172.779005 111.287905 
L 171.212185 169.707475 
L 170.960754 174.202228 
L 169.98214 178.016988 
L 168.661695 178.078336 
L 168.137687 178.078348 
L 167.58412 178.078348 
L 167.409985 178.078348 
L 166.159188 178.078348 
L 166.157725 178.078348 
L 166.093766 178.078348 
L 164.872352 178.078348 
L 163.61465 178.078348 
L 163.27426 178.078348 
L 161.88169 178.078348 
L 161.024205 178.078348 
L 160.109146 178.078348 
L 158.989935 178.078348 
L 158.784398 178.078348 
L 158.701282 178.078348 
L 157.385613 178.078053 
L 157.170469 178.077117 
L 156.796633 178.066429 
L 154.482278 138.123651 
L 153.343864 127.109596 
L 153.020192 143.237083 
L 152.892693 149.687345 
L 151.952169 175.678785 
L 150.39178 178.07739 
L 150.336839 178.07768 
L 149.456055 178.078347 
L 149.126377 178.078348 
L 148.465249 178.078348 
L 145.660419 178.078348 
L 145.185826 178.078348 
L 143.9539 178.078348 
L 143.482473 178.078348 
L 141.892601 178.078348 
L 140.526426 178.078348 
L 140.261597 178.078348 
L 139.225294 178.078348 
L 139.107524 178.078348 
L 137.202821 178.078348 
L 137.066173 178.078348 
L 137.031705 178.078348 
L 136.881929 178.078348 
L 136.147267 178.078348 
L 135.125902 178.078348 
L 134.125522 178.078348 
L 132.431635 178.078348 
L 132.269792 178.078348 
L 132.185879 178.078348 
L 131.54575 178.078348 
L 131.527692 178.078348 
L 130.725635 178.078348 
L 130.286516 178.078348 
L 130.213137 178.078348 
L 129.747957 178.078348 
L 128.059651 178.078348 
L 127.186847 178.078348 
L 126.534458 178.078348 
L 125.76683 178.078348 
L 124.874111 178.078348 
L 124.149217 178.078348 
L 123.412195 178.078348 
L 123.214444 178.078348 
L 121.690126 178.075721 
L 120.865978 177.868996 
L 119.612658 164.50611 
L 118.997337 143.040235 
L 118.67526 134.903352 
L 117.224112 168.451693 
L 116.93576 173.652154 
L 116.164951 177.824309 
L 115.449292 178.071869 
L 114.67452 178.078308 
L 114.24123 178.078347 
L 114.13233 178.078348 
L 113.573584 178.078348 
L 113.480413 178.078348 
L 112.887439 178.078348 
L 112.071775 178.078348 
L 111.094554 178.078348 
L 110.609979 178.078348 
L 110.581088 178.078348 
L 110.17155 178.078348 
L 108.420411 178.078348 
L 108.354061 178.078348 
L 107.001699 178.078348 
L 106.003834 178.078348 
L 105.843113 178.078348 
L 105.191784 178.078348 
L 105.166071 178.078348 
L 104.224335 178.078348 
L 102.340569 178.078348 
L 102.255259 178.078348 
L 101.385493 178.078348 
L 101.199132 178.078348 
L 101.087129 178.078348 
L 99.818096 178.078348 
L 98.6437 178.078348 
L 98.021169 178.078348 
L 97.558075 178.078348 
L 96.774653 178.078348 
L 96.386779 178.078348 
L 95.695673 178.078348 
L 94.77429 178.078348 
L 94.07578 178.078348 
L 92.49654 178.078348 
L 91.733255 178.078348 
L 91.663944 178.078348 
L 91.387949 178.078348 
L 91.128152 178.078348 
L 90.09376 178.078348 
L 89.389038 178.078348 
L 88.717716 178.078348 
L 88.715564 178.078348 
L 87.029023 178.078295 
L 85.950949 178.034204 
L 84.884856 174.247367 
L 84.214347 157.218942 
L 82.725692 136.148808 
L 82.461951 147.490527 
L 82.271673 155.649184 
L 79.115333 178.078343 
L 78.975763 178.078346 
L 78.280897 178.078348 
L 77.197561 178.078348 
L 74.933563 178.078348 
L 74.804419 178.078348 
L 74.645354 178.078348 
L 74.267528 178.078348 
L 73.484783 178.078348 
L 73.460039 178.078348 
L 73.338538 178.078348 
L 72.849759 178.078348 
L 72.433351 178.078348 
L 72.159524 178.078348 
L 71.130467 178.078348 
L 70.712607 178.078348 
L 69.866995 178.078348 
L 69.074529 178.078348 
L 68.900067 178.078348 
L 68.866868 178.078348 
L 68.731981 178.078348 
L 68.190238 178.078348 
L 67.180774 178.078348 
L 66.975219 178.078348 
L 66.792256 178.078348 
L 66.487311 178.078348 
L 64.641982 178.078348 
L 64.381567 178.078348 
L 64.055686 178.078348 
L 63.091441 178.078348 
L 62.01131 178.078348 
L 61.928572 178.078348 
L 61.504629 178.078348 
L 61.160038 178.078348 
L 60.730327 178.078348 
L 60.052948 178.078348 
L 59.78241 178.078348 
L 59.487176 178.078348 
L 59.314916 178.078348 
L 58.893598 178.078348 
L 58.525447 178.078348 
L 58.410829 178.078348 
L 57.917876 178.078348 
L 56.956692 178.078348 
L 56.558172 178.078348 
L 55.821325 178.078348 
L 54.594441 178.078348 
L 54.401935 178.078348 
L 52.17352 178.078348 
L 51.739721 178.078348 
L 49.82554 178.078348 
L 49.783536 178.078348 
L 49.690724 178.078348 
L 49.18523 178.078348 
L 49.019175 178.078348 
L 48.615636 178.078348 
L 48.382445 178.078348 
L 48.15899 178.078348 
L 47.920998 178.078348 
L 47.742026 178.078348 
L 47.716761 178.078348 
L 47.520507 178.078348 
L 47.445232 178.078348 
L 47.103313 178.078348 
L 46.875456 178.078348 
z
" clip-path="url(#pe0b00d71a5)" style="fill: #1f77b4; fill-opacity: 0.5"/>
   </g>
   <g id="matplotlib.axis_1">
    <g id="xtick_1">
     <g id="line2d_1">
      <defs>
       <path id="m237807bc35" d="M 0 0 
L 0 3.5 
" style="stroke: #000000; stroke-width: 0.8"/>
      </defs>
      <g>
       <use xlink:href="#m237807bc35" x="46.145455" y="192.24" style="stroke: #000000; stroke-width: 0.8"/>
      </g>
     </g>
     <g id="text_1">
      <!-- 0 -->
      <g transform="translate(42.964205 206.838437) scale(0.1 -0.1)">
       <defs>
        <path id="DejaVuSans-30" d="M 2034 4250 
Q 1547 4250 1301 3770 
Q 1056 3291 1056 2328 
Q 1056 1369 1301 889 
Q 1547 409 2034 409 
Q 2525 409 2770 889 
Q 3016 1369 3016 2328 
Q 3016 3291 2770 3770 
Q 2525 4250 2034 4250 
z
M 2034 4750 
Q 2819 4750 3233 4129 
Q 3647 3509 3647 2328 
Q 3647 1150 3233 529 
Q 2819 -91 2034 -91 
Q 1250 -91 836 529 
Q 422 1150 422 2328 
Q 422 3509 836 4129 
Q 1250 4750 2034 4750 
z
" transform="scale(0.015625)"/>
       </defs>
       <use xlink:href="#DejaVuSans-30"/>
      </g>
     </g>
    </g>
    <g id="xtick_2">
     <g id="line2d_2">
      <g>
       <use xlink:href="#m237807bc35" x="96.872727" y="192.24" style="stroke: #000000; stroke-width: 0.8"/>
      </g>
     </g>
     <g id="text_2">
      <!-- 50 -->
      <g transform="translate(90.510227 206.838437) scale(0.1 -0.1)">
       <defs>
        <path id="DejaVuSans-35" d="M 691 4666 
L 3169 4666 
L 3169 4134 
L 1269 4134 
L 1269 2991 
Q 1406 3038 1543 3061 
Q 1681 3084 1819 3084 
Q 2600 3084 3056 2656 
Q 3513 2228 3513 1497 
Q 3513 744 3044 326 
Q 2575 -91 1722 -91 
Q 1428 -91 1123 -41 
Q 819 9 494 109 
L 494 744 
Q 775 591 1075 516 
Q 1375 441 1709 441 
Q 2250 441 2565 725 
Q 2881 1009 2881 1497 
Q 2881 1984 2565 2268 
Q 2250 2553 1709 2553 
Q 1456 2553 1204 2497 
Q 953 2441 691 2322 
L 691 4666 
z
" transform="scale(0.015625)"/>
       </defs>
       <use xlink:href="#DejaVuSans-35"/>
       <use xlink:href="#DejaVuSans-30" x="63.623047"/>
      </g>
     </g>
    </g>
    <g id="xtick_3">
     <g id="line2d_3">
      <g>
       <use xlink:href="#m237807bc35" x="147.6" y="192.24" style="stroke: #000000; stroke-width: 0.8"/>
      </g>
     </g>
     <g id="text_3">
      <!-- 100 -->
      <g transform="translate(138.05625 206.838437) scale(0.1 -0.1)">
       <defs>
        <path id="DejaVuSans-31" d="M 794 531 
L 1825 531 
L 1825 4091 
L 703 3866 
L 703 4441 
L 1819 4666 
L 2450 4666 
L 2450 531 
L 3481 531 
L 3481 0 
L 794 0 
L 794 531 
z
" transform="scale(0.015625)"/>
       </defs>
       <use xlink:href="#DejaVuSans-31"/>
       <use xlink:href="#DejaVuSans-30" x="63.623047"/>
       <use xlink:href="#DejaVuSans-30" x="127.246094"/>
      </g>
     </g>
    </g>
    <g id="xtick_4">
     <g id="line2d_4">
      <g>
       <use xlink:href="#m237807bc35" x="198.327273" y="192.24" style="stroke: #000000; stroke-width: 0.8"/>
      </g>
     </g>
     <g id="text_4">
      <!-- 150 -->
      <g transform="translate(188.783523 206.838437) scale(0.1 -0.1)">
       <use xlink:href="#DejaVuSans-31"/>
       <use xlink:href="#DejaVuSans-35" x="63.623047"/>
       <use xlink:href="#DejaVuSans-30" x="127.246094"/>
      </g>
     </g>
    </g>
    <g id="xtick_5">
     <g id="line2d_5">
      <g>
       <use xlink:href="#m237807bc35" x="249.054545" y="192.24" style="stroke: #000000; stroke-width: 0.8"/>
      </g>
     </g>
     <g id="text_5">
      <!-- 200 -->
      <g transform="translate(239.510795 206.838437) scale(0.1 -0.1)">
       <defs>
        <path id="DejaVuSans-32" d="M 1228 531 
L 3431 531 
L 3431 0 
L 469 0 
L 469 531 
Q 828 903 1448 1529 
Q 2069 2156 2228 2338 
Q 2531 2678 2651 2914 
Q 2772 3150 2772 3378 
Q 2772 3750 2511 3984 
Q 2250 4219 1831 4219 
Q 1534 4219 1204 4116 
Q 875 4013 500 3803 
L 500 4441 
Q 881 4594 1212 4672 
Q 1544 4750 1819 4750 
Q 2544 4750 2975 4387 
Q 3406 4025 3406 3419 
Q 3406 3131 3298 2873 
Q 3191 2616 2906 2266 
Q 2828 2175 2409 1742 
Q 1991 1309 1228 531 
z
" transform="scale(0.015625)"/>
       </defs>
       <use xlink:href="#DejaVuSans-32"/>
       <use xlink:href="#DejaVuSans-30" x="63.623047"/>
       <use xlink:href="#DejaVuSans-30" x="127.246094"/>
      </g>
     </g>
    </g>
   </g>
   <g id="matplotlib.axis_2">
    <g id="ytick_1">
     <g id="line2d_6">
      <defs>
       <path id="m11a566e083" d="M 0 0 
L -3.5 0 
" style="stroke: #000000; stroke-width: 0.8"/>
      </defs>
      <g>
       <use xlink:href="#m11a566e083" x="36" y="181.379174" style="stroke: #000000; stroke-width: 0.8"/>
      </g>
     </g>
     <g id="text_6">
      <!-- 0 -->
      <g transform="translate(22.6375 185.178393) scale(0.1 -0.1)">
       <use xlink:href="#DejaVuSans-30"/>
      </g>
     </g>
    </g>
    <g id="ytick_2">
     <g id="line2d_7">
      <g>
       <use xlink:href="#m11a566e083" x="36" y="154.084348" style="stroke: #000000; stroke-width: 0.8"/>
      </g>
     </g>
     <g id="text_7">
      <!-- 100 -->
      <g transform="translate(9.9125 157.883567) scale(0.1 -0.1)">
       <use xlink:href="#DejaVuSans-31"/>
       <use xlink:href="#DejaVuSans-30" x="63.623047"/>
       <use xlink:href="#DejaVuSans-30" x="127.246094"/>
      </g>
     </g>
    </g>
    <g id="ytick_3">
     <g id="line2d_8">
      <g>
       <use xlink:href="#m11a566e083" x="36" y="126.789522" style="stroke: #000000; stroke-width: 0.8"/>
      </g>
     </g>
     <g id="text_8">
      <!-- 200 -->
      <g transform="translate(9.9125 130.588741) scale(0.1 -0.1)">
       <use xlink:href="#DejaVuSans-32"/>
       <use xlink:href="#DejaVuSans-30" x="63.623047"/>
       <use xlink:href="#DejaVuSans-30" x="127.246094"/>
      </g>
     </g>
    </g>
    <g id="ytick_4">
     <g id="line2d_9">
      <g>
       <use xlink:href="#m11a566e083" x="36" y="99.494696" style="stroke: #000000; stroke-width: 0.8"/>
      </g>
     </g>
     <g id="text_9">
      <!-- 300 -->
      <g transform="translate(9.9125 103.293915) scale(0.1 -0.1)">
       <defs>
        <path id="DejaVuSans-33" d="M 2597 2516 
Q 3050 2419 3304 2112 
Q 3559 1806 3559 1356 
Q 3559 666 3084 287 
Q 2609 -91 1734 -91 
Q 1441 -91 1130 -33 
Q 819 25 488 141 
L 488 750 
Q 750 597 1062 519 
Q 1375 441 1716 441 
Q 2309 441 2620 675 
Q 2931 909 2931 1356 
Q 2931 1769 2642 2001 
Q 2353 2234 1838 2234 
L 1294 2234 
L 1294 2753 
L 1863 2753 
Q 2328 2753 2575 2939 
Q 2822 3125 2822 3475 
Q 2822 3834 2567 4026 
Q 2313 4219 1838 4219 
Q 1578 4219 1281 4162 
Q 984 4106 628 3988 
L 628 4550 
Q 988 4650 1302 4700 
Q 1616 4750 1894 4750 
Q 2613 4750 3031 4423 
Q 3450 4097 3450 3541 
Q 3450 3153 3228 2886 
Q 3006 2619 2597 2516 
z
" transform="scale(0.015625)"/>
       </defs>
       <use xlink:href="#DejaVuSans-33"/>
       <use xlink:href="#DejaVuSans-30" x="63.623047"/>
       <use xlink:href="#DejaVuSans-30" x="127.246094"/>
      </g>
     </g>
    </g>
    <g id="ytick_5">
     <g id="line2d_10">
      <g>
       <use xlink:href="#m11a566e083" x="36" y="72.19987" style="stroke: #000000; stroke-width: 0.8"/>
      </g>
     </g>
     <g id="text_10">
      <!-- 400 -->
      <g transform="translate(9.9125 75.999089) scale(0.1 -0.1)">
       <defs>
        <path id="DejaVuSans-34" d="M 2419 4116 
L 825 1625 
L 2419 1625 
L 2419 4116 
z
M 2253 4666 
L 3047 4666 
L 3047 1625 
L 3713 1625 
L 3713 1100 
L 3047 1100 
L 3047 0 
L 2419 0 
L 2419 1100 
L 313 1100 
L 313 1709 
L 2253 4666 
z
" transform="scale(0.015625)"/>
       </defs>
       <use xlink:href="#DejaVuSans-34"/>
       <use xlink:href="#DejaVuSans-30" x="63.623047"/>
       <use xlink:href="#DejaVuSans-30" x="127.246094"/>
      </g>
     </g>
    </g>
    <g id="ytick_6">
     <g id="line2d_11">
      <g>
       <use xlink:href="#m11a566e083" x="36" y="44.905044" style="stroke: #000000; stroke-width: 0.8"/>
      </g>
     </g>
     <g id="text_11">
      <!-- 500 -->
      <g transform="translate(9.9125 48.704263) scale(0.1 -0.1)">
       <use xlink:href="#DejaVuSans-35"/>
       <use xlink:href="#DejaVuSans-30" x="63.623047"/>
       <use xlink:href="#DejaVuSans-30" x="127.246094"/>
      </g>
     </g>
    </g>
   </g>
   <g id="line2d_12">
    <defs>
     <path id="md8bc172ca9" d="M 0 -3 
L -0.673542 -0.927051 
L -2.85317 -0.927051 
L -1.089814 0.354102 
L -1.763356 2.427051 
L -0 1.145898 
L 1.763356 2.427051 
L 1.089814 0.354102 
L 2.85317 -0.927051 
L 0.673542 -0.927051 
z
" style="stroke: #000000; stroke-linejoin: bevel"/>
    </defs>
    <g clip-path="url(#pe0b00d71a5)">
     <use xlink:href="#md8bc172ca9" x="83.223425" y="64.671811" style="stroke: #000000; stroke-linejoin: bevel"/>
     <use xlink:href="#md8bc172ca9" x="172.691826" y="33.494727" style="stroke: #000000; stroke-linejoin: bevel"/>
     <use xlink:href="#md8bc172ca9" x="181.348312" y="35.974585" style="stroke: #000000; stroke-linejoin: bevel"/>
     <use xlink:href="#md8bc172ca9" x="204.448851" y="63.851441" style="stroke: #000000; stroke-linejoin: bevel"/>
     <use xlink:href="#md8bc172ca9" x="207.800229" y="69.492902" style="stroke: #000000; stroke-linejoin: bevel"/>
     <use xlink:href="#md8bc172ca9" x="118.493896" y="83.197724" style="stroke: #000000; stroke-linejoin: bevel"/>
     <use xlink:href="#md8bc172ca9" x="153.800491" y="44.766804" style="stroke: #000000; stroke-linejoin: bevel"/>
     <use xlink:href="#md8bc172ca9" x="224.659477" y="97.885761" style="stroke: #000000; stroke-linejoin: bevel"/>
     <use xlink:href="#md8bc172ca9" x="244.581201" y="119.786089" style="stroke: #000000; stroke-linejoin: bevel"/>
     <use xlink:href="#md8bc172ca9" x="231.115377" y="107.092816" style="stroke: #000000; stroke-linejoin: bevel"/>
     <use xlink:href="#md8bc172ca9" x="237.86942" y="114.715585" style="stroke: #000000; stroke-linejoin: bevel"/>
    </g>
   </g>
   <g id="line2d_13">
    <path d="M 46.145455 67.018518 
L 47.161016 67.248501 
L 49.801474 67.94983 
L 51.223259 68.09236 
L 52.645045 68.020966 
L 54.066831 67.743961 
L 55.691728 67.208693 
L 57.72285 66.288776 
L 60.769533 64.621724 
L 64.831778 62.42965 
L 67.066012 61.472623 
L 69.097134 60.849669 
L 70.925144 60.527042 
L 72.753154 60.449884 
L 74.37805 60.594546 
L 76.20606 60.996996 
L 78.03407 61.645307 
L 79.862081 62.524275 
L 81.893204 63.745521 
L 84.127438 65.344427 
L 86.767894 67.505065 
L 90.627029 70.99002 
L 97.32973 77.083493 
L 100.173301 79.360647 
L 102.610646 81.047398 
L 104.84488 82.329317 
L 106.876003 83.245337 
L 108.704015 83.848941 
L 110.532022 84.231426 
L 112.360034 84.384684 
L 114.188046 84.303936 
L 116.016049 83.987523 
L 117.844061 83.436937 
L 119.672073 82.656509 
L 121.703192 81.528556 
L 123.734318 80.139067 
L 125.968552 78.328861 
L 128.405893 76.048192 
L 131.046357 73.26275 
L 134.093035 69.714948 
L 137.952174 64.850949 
L 151.763799 47.067881 
L 154.810485 43.680258 
L 157.450941 41.051482 
L 159.88829 38.920723 
L 162.122524 37.245333 
L 164.356758 35.857669 
L 166.387877 34.860918 
L 168.419003 34.127619 
L 170.247007 33.700005 
L 172.075019 33.497176 
L 173.903031 33.522048 
L 175.731042 33.775972 
L 177.559046 34.258729 
L 179.387058 34.968588 
L 181.215069 35.902366 
L 183.246188 37.196888 
L 185.277307 38.753912 
L 187.511549 40.757626 
L 189.948898 43.272585 
L 192.386247 46.107372 
L 195.026703 49.507481 
L 198.073389 53.806774 
L 201.526289 59.088199 
L 205.588527 65.725978 
L 211.478792 75.825947 
L 220.21262 90.780068 
L 224.477965 97.620026 
L 227.930881 102.756797 
L 230.977552 106.913311 
L 233.821131 110.422455 
L 236.461587 113.32358 
L 238.898936 115.669779 
L 241.133177 117.522604 
L 243.367403 119.076351 
L 245.398522 120.219464 
L 247.429641 121.098462 
L 249.054545 121.607495 
L 249.054545 121.607495 
" clip-path="url(#pe0b00d71a5)" style="fill: none; stroke: #ffa500; stroke-width: 1.5; stroke-linecap: square"/>
   </g>
   <g id="line2d_14">
    <path d="M 46.875456 181.379174 
L 79.115333 181.379169 
L 82.271673 158.888137 
L 82.725692 139.226814 
L 84.214347 160.466342 
L 84.884856 177.546413 
L 85.950949 181.335029 
L 89.389038 181.379174 
L 115.449292 181.372695 
L 116.164951 181.125123 
L 116.93576 176.949619 
L 117.224112 171.73656 
L 118.67526 137.862239 
L 118.997337 146.120873 
L 119.612658 167.775096 
L 120.865978 181.169815 
L 121.690126 181.376547 
L 150.39178 181.378216 
L 151.952169 178.979101 
L 153.020192 146.428053 
L 153.343864 130.169739 
L 154.482278 141.279074 
L 156.796633 181.367254 
L 161.024205 181.379174 
L 169.98214 181.317814 
L 170.960754 177.501919 
L 171.212185 173.003001 
L 172.779005 114.228825 
L 172.932056 117.370312 
L 174.033115 169.225341 
L 176.615898 181.379146 
L 178.166665 181.374923 
L 180.314044 157.414154 
L 180.52548 146.523045 
L 182.099344 142.556007 
L 182.101202 142.660129 
L 182.816644 172.876843 
L 183.256576 179.318354 
L 184.184553 181.348288 
L 190.906706 181.379174 
L 201.739211 181.330398 
L 202.534611 179.749272 
L 203.173811 169.979457 
L 203.799186 145.450414 
L 205.017845 141.868172 
L 207.290355 141.424811 
L 207.684417 130.863342 
L 207.755613 130.306213 
L 207.96016 131.429505 
L 209.750616 180.021155 
L 210.00662 180.887092 
L 211.670846 181.379142 
L 220.355569 181.379173 
L 222.917461 179.26962 
L 223.16732 176.816262 
L 223.949159 157.772825 
L 225.359485 157.459548 
L 225.6382 166.070643 
L 226.692314 180.638651 
L 228.502631 181.32871 
L 228.845808 181.129827 
L 228.974902 180.950024 
L 229.766463 175.393887 
L 231.518696 152.304408 
L 232.365229 173.723876 
L 232.810285 179.188035 
L 233.673553 181.313169 
L 236.431523 181.379174 
L 241.925404 181.34554 
L 242.238362 181.229463 
L 245.753805 173.797343 
L 245.80969 174.701288 
L 246.395156 180.159472 
L 247.126126 181.320889 
L 248.99657 181.379174 
L 248.99657 181.379174 
" clip-path="url(#pe0b00d71a5)" style="fill: none; stroke: #0000ff; stroke-width: 1.5; stroke-linecap: square"/>
   </g>
   <g id="line2d_15">
    <defs>
     <path id="m24adf40d32" d="M 0 -3 
L -0.673542 -0.927051 
L -2.85317 -0.927051 
L -1.089814 0.354102 
L -1.763356 2.427051 
L -0 1.145898 
L 1.763356 2.427051 
L 1.089814 0.354102 
L 2.85317 -0.927051 
L 0.673542 -0.927051 
z
" style="stroke: #ff0000; stroke-linejoin: bevel"/>
    </defs>
    <g clip-path="url(#pe0b00d71a5)">
     <use xlink:href="#m24adf40d32" x="237.86942" y="114.715585" style="fill: #ff0000; stroke: #ff0000; stroke-linejoin: bevel"/>
    </g>
   </g>
   <g id="patch_3">
    <path d="M 36 192.24 
L 36 25.92 
" style="fill: none; stroke: #000000; stroke-width: 0.8; stroke-linejoin: miter; stroke-linecap: square"/>
   </g>
   <g id="patch_4">
    <path d="M 259.2 192.24 
L 259.2 25.92 
" style="fill: none; stroke: #000000; stroke-width: 0.8; stroke-linejoin: miter; stroke-linecap: square"/>
   </g>
   <g id="patch_5">
    <path d="M 36 192.24 
L 259.2 192.24 
" style="fill: none; stroke: #000000; stroke-width: 0.8; stroke-linejoin: miter; stroke-linecap: square"/>
   </g>
   <g id="patch_6">
    <path d="M 36 25.92 
L 259.2 25.92 
" style="fill: none; stroke: #000000; stroke-width: 0.8; stroke-linejoin: miter; stroke-linecap: square"/>
   </g>
   <g id="legend_1">
    <g id="patch_7">
     <path d="M 43 139.93625 
L 168.128125 139.93625 
Q 170.128125 139.93625 170.128125 137.93625 
L 170.128125 80.22375 
Q 170.128125 78.22375 168.128125 78.22375 
L 43 78.22375 
Q 41 78.22375 41 80.22375 
L 41 137.93625 
Q 41 139.93625 43 139.93625 
z
" style="fill: #ffffff; opacity: 0.8; stroke: #cccccc; stroke-linejoin: miter"/>
    </g>
    <g id="line2d_16">
     <g>
      <use xlink:href="#md8bc172ca9" x="55" y="86.322187" style="stroke: #000000; stroke-linejoin: bevel"/>
     </g>
    </g>
    <g id="text_12">
     <!-- Training Points -->
     <g transform="translate(73 89.822187) scale(0.1 -0.1)">
      <defs>
       <path id="DejaVuSans-54" d="M -19 4666 
L 3928 4666 
L 3928 4134 
L 2272 4134 
L 2272 0 
L 1638 0 
L 1638 4134 
L -19 4134 
L -19 4666 
z
" transform="scale(0.015625)"/>
       <path id="DejaVuSans-72" d="M 2631 2963 
Q 2534 3019 2420 3045 
Q 2306 3072 2169 3072 
Q 1681 3072 1420 2755 
Q 1159 2438 1159 1844 
L 1159 0 
L 581 0 
L 581 3500 
L 1159 3500 
L 1159 2956 
Q 1341 3275 1631 3429 
Q 1922 3584 2338 3584 
Q 2397 3584 2469 3576 
Q 2541 3569 2628 3553 
L 2631 2963 
z
" transform="scale(0.015625)"/>
       <path id="DejaVuSans-61" d="M 2194 1759 
Q 1497 1759 1228 1600 
Q 959 1441 959 1056 
Q 959 750 1161 570 
Q 1363 391 1709 391 
Q 2188 391 2477 730 
Q 2766 1069 2766 1631 
L 2766 1759 
L 2194 1759 
z
M 3341 1997 
L 3341 0 
L 2766 0 
L 2766 531 
Q 2569 213 2275 61 
Q 1981 -91 1556 -91 
Q 1019 -91 701 211 
Q 384 513 384 1019 
Q 384 1609 779 1909 
Q 1175 2209 1959 2209 
L 2766 2209 
L 2766 2266 
Q 2766 2663 2505 2880 
Q 2244 3097 1772 3097 
Q 1472 3097 1187 3025 
Q 903 2953 641 2809 
L 641 3341 
Q 956 3463 1253 3523 
Q 1550 3584 1831 3584 
Q 2591 3584 2966 3190 
Q 3341 2797 3341 1997 
z
" transform="scale(0.015625)"/>
       <path id="DejaVuSans-69" d="M 603 3500 
L 1178 3500 
L 1178 0 
L 603 0 
L 603 3500 
z
M 603 4863 
L 1178 4863 
L 1178 4134 
L 603 4134 
L 603 4863 
z
" transform="scale(0.015625)"/>
       <path id="DejaVuSans-6e" d="M 3513 2113 
L 3513 0 
L 2938 0 
L 2938 2094 
Q 2938 2591 2744 2837 
Q 2550 3084 2163 3084 
Q 1697 3084 1428 2787 
Q 1159 2491 1159 1978 
L 1159 0 
L 581 0 
L 581 3500 
L 1159 3500 
L 1159 2956 
Q 1366 3272 1645 3428 
Q 1925 3584 2291 3584 
Q 2894 3584 3203 3211 
Q 3513 2838 3513 2113 
z
" transform="scale(0.015625)"/>
       <path id="DejaVuSans-67" d="M 2906 1791 
Q 2906 2416 2648 2759 
Q 2391 3103 1925 3103 
Q 1463 3103 1205 2759 
Q 947 2416 947 1791 
Q 947 1169 1205 825 
Q 1463 481 1925 481 
Q 2391 481 2648 825 
Q 2906 1169 2906 1791 
z
M 3481 434 
Q 3481 -459 3084 -895 
Q 2688 -1331 1869 -1331 
Q 1566 -1331 1297 -1286 
Q 1028 -1241 775 -1147 
L 775 -588 
Q 1028 -725 1275 -790 
Q 1522 -856 1778 -856 
Q 2344 -856 2625 -561 
Q 2906 -266 2906 331 
L 2906 616 
Q 2728 306 2450 153 
Q 2172 0 1784 0 
Q 1141 0 747 490 
Q 353 981 353 1791 
Q 353 2603 747 3093 
Q 1141 3584 1784 3584 
Q 2172 3584 2450 3431 
Q 2728 3278 2906 2969 
L 2906 3500 
L 3481 3500 
L 3481 434 
z
" transform="scale(0.015625)"/>
       <path id="DejaVuSans-20" transform="scale(0.015625)"/>
       <path id="DejaVuSans-50" d="M 1259 4147 
L 1259 2394 
L 2053 2394 
Q 2494 2394 2734 2622 
Q 2975 2850 2975 3272 
Q 2975 3691 2734 3919 
Q 2494 4147 2053 4147 
L 1259 4147 
z
M 628 4666 
L 2053 4666 
Q 2838 4666 3239 4311 
Q 3641 3956 3641 3272 
Q 3641 2581 3239 2228 
Q 2838 1875 2053 1875 
L 1259 1875 
L 1259 0 
L 628 0 
L 628 4666 
z
" transform="scale(0.015625)"/>
       <path id="DejaVuSans-6f" d="M 1959 3097 
Q 1497 3097 1228 2736 
Q 959 2375 959 1747 
Q 959 1119 1226 758 
Q 1494 397 1959 397 
Q 2419 397 2687 759 
Q 2956 1122 2956 1747 
Q 2956 2369 2687 2733 
Q 2419 3097 1959 3097 
z
M 1959 3584 
Q 2709 3584 3137 3096 
Q 3566 2609 3566 1747 
Q 3566 888 3137 398 
Q 2709 -91 1959 -91 
Q 1206 -91 779 398 
Q 353 888 353 1747 
Q 353 2609 779 3096 
Q 1206 3584 1959 3584 
z
" transform="scale(0.015625)"/>
       <path id="DejaVuSans-74" d="M 1172 4494 
L 1172 3500 
L 2356 3500 
L 2356 3053 
L 1172 3053 
L 1172 1153 
Q 1172 725 1289 603 
Q 1406 481 1766 481 
L 2356 481 
L 2356 0 
L 1766 0 
Q 1100 0 847 248 
Q 594 497 594 1153 
L 594 3053 
L 172 3053 
L 172 3500 
L 594 3500 
L 594 4494 
L 1172 4494 
z
" transform="scale(0.015625)"/>
       <path id="DejaVuSans-73" d="M 2834 3397 
L 2834 2853 
Q 2591 2978 2328 3040 
Q 2066 3103 1784 3103 
Q 1356 3103 1142 2972 
Q 928 2841 928 2578 
Q 928 2378 1081 2264 
Q 1234 2150 1697 2047 
L 1894 2003 
Q 2506 1872 2764 1633 
Q 3022 1394 3022 966 
Q 3022 478 2636 193 
Q 2250 -91 1575 -91 
Q 1294 -91 989 -36 
Q 684 19 347 128 
L 347 722 
Q 666 556 975 473 
Q 1284 391 1588 391 
Q 1994 391 2212 530 
Q 2431 669 2431 922 
Q 2431 1156 2273 1281 
Q 2116 1406 1581 1522 
L 1381 1569 
Q 847 1681 609 1914 
Q 372 2147 372 2553 
Q 372 3047 722 3315 
Q 1072 3584 1716 3584 
Q 2034 3584 2315 3537 
Q 2597 3491 2834 3397 
z
" transform="scale(0.015625)"/>
      </defs>
      <use xlink:href="#DejaVuSans-54"/>
      <use xlink:href="#DejaVuSans-72" x="46.333984"/>
      <use xlink:href="#DejaVuSans-61" x="87.447266"/>
      <use xlink:href="#DejaVuSans-69" x="148.726562"/>
      <use xlink:href="#DejaVuSans-6e" x="176.509766"/>
      <use xlink:href="#DejaVuSans-69" x="239.888672"/>
      <use xlink:href="#DejaVuSans-6e" x="267.671875"/>
      <use xlink:href="#DejaVuSans-67" x="331.050781"/>
      <use xlink:href="#DejaVuSans-20" x="394.527344"/>
      <use xlink:href="#DejaVuSans-50" x="426.314453"/>
      <use xlink:href="#DejaVuSans-6f" x="482.992188"/>
      <use xlink:href="#DejaVuSans-69" x="544.173828"/>
      <use xlink:href="#DejaVuSans-6e" x="571.957031"/>
      <use xlink:href="#DejaVuSans-74" x="635.335938"/>
      <use xlink:href="#DejaVuSans-73" x="674.544922"/>
     </g>
    </g>
    <g id="line2d_17">
     <path d="M 45 101.000313 
L 55 101.000313 
L 65 101.000313 
" style="fill: none; stroke: #ffa500; stroke-width: 1.5; stroke-linecap: square"/>
    </g>
    <g id="text_13">
     <!-- Objective Function -->
     <g transform="translate(73 104.500313) scale(0.1 -0.1)">
      <defs>
       <path id="DejaVuSans-4f" d="M 2522 4238 
Q 1834 4238 1429 3725 
Q 1025 3213 1025 2328 
Q 1025 1447 1429 934 
Q 1834 422 2522 422 
Q 3209 422 3611 934 
Q 4013 1447 4013 2328 
Q 4013 3213 3611 3725 
Q 3209 4238 2522 4238 
z
M 2522 4750 
Q 3503 4750 4090 4092 
Q 4678 3434 4678 2328 
Q 4678 1225 4090 567 
Q 3503 -91 2522 -91 
Q 1538 -91 948 565 
Q 359 1222 359 2328 
Q 359 3434 948 4092 
Q 1538 4750 2522 4750 
z
" transform="scale(0.015625)"/>
       <path id="DejaVuSans-62" d="M 3116 1747 
Q 3116 2381 2855 2742 
Q 2594 3103 2138 3103 
Q 1681 3103 1420 2742 
Q 1159 2381 1159 1747 
Q 1159 1113 1420 752 
Q 1681 391 2138 391 
Q 2594 391 2855 752 
Q 3116 1113 3116 1747 
z
M 1159 2969 
Q 1341 3281 1617 3432 
Q 1894 3584 2278 3584 
Q 2916 3584 3314 3078 
Q 3713 2572 3713 1747 
Q 3713 922 3314 415 
Q 2916 -91 2278 -91 
Q 1894 -91 1617 61 
Q 1341 213 1159 525 
L 1159 0 
L 581 0 
L 581 4863 
L 1159 4863 
L 1159 2969 
z
" transform="scale(0.015625)"/>
       <path id="DejaVuSans-6a" d="M 603 3500 
L 1178 3500 
L 1178 -63 
Q 1178 -731 923 -1031 
Q 669 -1331 103 -1331 
L -116 -1331 
L -116 -844 
L 38 -844 
Q 366 -844 484 -692 
Q 603 -541 603 -63 
L 603 3500 
z
M 603 4863 
L 1178 4863 
L 1178 4134 
L 603 4134 
L 603 4863 
z
" transform="scale(0.015625)"/>
       <path id="DejaVuSans-65" d="M 3597 1894 
L 3597 1613 
L 953 1613 
Q 991 1019 1311 708 
Q 1631 397 2203 397 
Q 2534 397 2845 478 
Q 3156 559 3463 722 
L 3463 178 
Q 3153 47 2828 -22 
Q 2503 -91 2169 -91 
Q 1331 -91 842 396 
Q 353 884 353 1716 
Q 353 2575 817 3079 
Q 1281 3584 2069 3584 
Q 2775 3584 3186 3129 
Q 3597 2675 3597 1894 
z
M 3022 2063 
Q 3016 2534 2758 2815 
Q 2500 3097 2075 3097 
Q 1594 3097 1305 2825 
Q 1016 2553 972 2059 
L 3022 2063 
z
" transform="scale(0.015625)"/>
       <path id="DejaVuSans-63" d="M 3122 3366 
L 3122 2828 
Q 2878 2963 2633 3030 
Q 2388 3097 2138 3097 
Q 1578 3097 1268 2742 
Q 959 2388 959 1747 
Q 959 1106 1268 751 
Q 1578 397 2138 397 
Q 2388 397 2633 464 
Q 2878 531 3122 666 
L 3122 134 
Q 2881 22 2623 -34 
Q 2366 -91 2075 -91 
Q 1284 -91 818 406 
Q 353 903 353 1747 
Q 353 2603 823 3093 
Q 1294 3584 2113 3584 
Q 2378 3584 2631 3529 
Q 2884 3475 3122 3366 
z
" transform="scale(0.015625)"/>
       <path id="DejaVuSans-76" d="M 191 3500 
L 800 3500 
L 1894 563 
L 2988 3500 
L 3597 3500 
L 2284 0 
L 1503 0 
L 191 3500 
z
" transform="scale(0.015625)"/>
       <path id="DejaVuSans-46" d="M 628 4666 
L 3309 4666 
L 3309 4134 
L 1259 4134 
L 1259 2759 
L 3109 2759 
L 3109 2228 
L 1259 2228 
L 1259 0 
L 628 0 
L 628 4666 
z
" transform="scale(0.015625)"/>
       <path id="DejaVuSans-75" d="M 544 1381 
L 544 3500 
L 1119 3500 
L 1119 1403 
Q 1119 906 1312 657 
Q 1506 409 1894 409 
Q 2359 409 2629 706 
Q 2900 1003 2900 1516 
L 2900 3500 
L 3475 3500 
L 3475 0 
L 2900 0 
L 2900 538 
Q 2691 219 2414 64 
Q 2138 -91 1772 -91 
Q 1169 -91 856 284 
Q 544 659 544 1381 
z
M 1991 3584 
L 1991 3584 
z
" transform="scale(0.015625)"/>
      </defs>
      <use xlink:href="#DejaVuSans-4f"/>
      <use xlink:href="#DejaVuSans-62" x="78.710938"/>
      <use xlink:href="#DejaVuSans-6a" x="142.1875"/>
      <use xlink:href="#DejaVuSans-65" x="169.970703"/>
      <use xlink:href="#DejaVuSans-63" x="231.494141"/>
      <use xlink:href="#DejaVuSans-74" x="286.474609"/>
      <use xlink:href="#DejaVuSans-69" x="325.683594"/>
      <use xlink:href="#DejaVuSans-76" x="353.466797"/>
      <use xlink:href="#DejaVuSans-65" x="412.646484"/>
      <use xlink:href="#DejaVuSans-20" x="474.169922"/>
      <use xlink:href="#DejaVuSans-46" x="505.957031"/>
      <use xlink:href="#DejaVuSans-75" x="557.976562"/>
      <use xlink:href="#DejaVuSans-6e" x="621.355469"/>
      <use xlink:href="#DejaVuSans-63" x="684.734375"/>
      <use xlink:href="#DejaVuSans-74" x="739.714844"/>
      <use xlink:href="#DejaVuSans-69" x="778.923828"/>
      <use xlink:href="#DejaVuSans-6f" x="806.707031"/>
      <use xlink:href="#DejaVuSans-6e" x="867.888672"/>
     </g>
    </g>
    <g id="line2d_18">
     <path d="M 45 115.678438 
L 55 115.678438 
L 65 115.678438 
" style="fill: none; stroke: #0000ff; stroke-width: 1.5; stroke-linecap: square"/>
    </g>
    <g id="text_14">
     <!-- Model Prediction -->
     <g transform="translate(73 119.178438) scale(0.1 -0.1)">
      <defs>
       <path id="DejaVuSans-4d" d="M 628 4666 
L 1569 4666 
L 2759 1491 
L 3956 4666 
L 4897 4666 
L 4897 0 
L 4281 0 
L 4281 4097 
L 3078 897 
L 2444 897 
L 1241 4097 
L 1241 0 
L 628 0 
L 628 4666 
z
" transform="scale(0.015625)"/>
       <path id="DejaVuSans-64" d="M 2906 2969 
L 2906 4863 
L 3481 4863 
L 3481 0 
L 2906 0 
L 2906 525 
Q 2725 213 2448 61 
Q 2172 -91 1784 -91 
Q 1150 -91 751 415 
Q 353 922 353 1747 
Q 353 2572 751 3078 
Q 1150 3584 1784 3584 
Q 2172 3584 2448 3432 
Q 2725 3281 2906 2969 
z
M 947 1747 
Q 947 1113 1208 752 
Q 1469 391 1925 391 
Q 2381 391 2643 752 
Q 2906 1113 2906 1747 
Q 2906 2381 2643 2742 
Q 2381 3103 1925 3103 
Q 1469 3103 1208 2742 
Q 947 2381 947 1747 
z
" transform="scale(0.015625)"/>
       <path id="DejaVuSans-6c" d="M 603 4863 
L 1178 4863 
L 1178 0 
L 603 0 
L 603 4863 
z
" transform="scale(0.015625)"/>
      </defs>
      <use xlink:href="#DejaVuSans-4d"/>
      <use xlink:href="#DejaVuSans-6f" x="86.279297"/>
      <use xlink:href="#DejaVuSans-64" x="147.460938"/>
      <use xlink:href="#DejaVuSans-65" x="210.9375"/>
      <use xlink:href="#DejaVuSans-6c" x="272.460938"/>
      <use xlink:href="#DejaVuSans-20" x="300.244141"/>
      <use xlink:href="#DejaVuSans-50" x="332.03125"/>
      <use xlink:href="#DejaVuSans-72" x="390.583984"/>
      <use xlink:href="#DejaVuSans-65" x="429.447266"/>
      <use xlink:href="#DejaVuSans-64" x="490.970703"/>
      <use xlink:href="#DejaVuSans-69" x="554.447266"/>
      <use xlink:href="#DejaVuSans-63" x="582.230469"/>
      <use xlink:href="#DejaVuSans-74" x="637.210938"/>
      <use xlink:href="#DejaVuSans-69" x="676.419922"/>
      <use xlink:href="#DejaVuSans-6f" x="704.203125"/>
      <use xlink:href="#DejaVuSans-6e" x="765.384766"/>
     </g>
    </g>
    <g id="line2d_19">
     <g>
      <use xlink:href="#m24adf40d32" x="55" y="130.356562" style="fill: #ff0000; stroke: #ff0000; stroke-linejoin: bevel"/>
     </g>
    </g>
    <g id="text_15">
     <!-- Next Point -->
     <g transform="translate(73 133.856562) scale(0.1 -0.1)">
      <defs>
       <path id="DejaVuSans-4e" d="M 628 4666 
L 1478 4666 
L 3547 763 
L 3547 4666 
L 4159 4666 
L 4159 0 
L 3309 0 
L 1241 3903 
L 1241 0 
L 628 0 
L 628 4666 
z
" transform="scale(0.015625)"/>
       <path id="DejaVuSans-78" d="M 3513 3500 
L 2247 1797 
L 3578 0 
L 2900 0 
L 1881 1375 
L 863 0 
L 184 0 
L 1544 1831 
L 300 3500 
L 978 3500 
L 1906 2253 
L 2834 3500 
L 3513 3500 
z
" transform="scale(0.015625)"/>
      </defs>
      <use xlink:href="#DejaVuSans-4e"/>
      <use xlink:href="#DejaVuSans-65" x="74.804688"/>
      <use xlink:href="#DejaVuSans-78" x="134.578125"/>
      <use xlink:href="#DejaVuSans-74" x="193.757812"/>
      <use xlink:href="#DejaVuSans-20" x="232.966797"/>
      <use xlink:href="#DejaVuSans-50" x="264.753906"/>
      <use xlink:href="#DejaVuSans-6f" x="321.431641"/>
      <use xlink:href="#DejaVuSans-69" x="382.613281"/>
      <use xlink:href="#DejaVuSans-6e" x="410.396484"/>
      <use xlink:href="#DejaVuSans-74" x="473.775391"/>
     </g>
    </g>
   </g>
  </g>
 </g>
 <defs>
  <clipPath id="pe0b00d71a5">
   <rect x="36" y="25.92" width="223.2" height="166.32"/>
  </clipPath>
 </defs>
</svg>
