<?xml version="1.0" encoding="utf-8" standalone="no"?>
<!DOCTYPE svg PUBLIC "-//W3C//DTD SVG 1.1//EN"
  "http://www.w3.org/Graphics/SVG/1.1/DTD/svg11.dtd">
<svg xmlns:xlink="http://www.w3.org/1999/xlink" width="288pt" height="216pt" viewBox="0 0 288 216" xmlns="http://www.w3.org/2000/svg" version="1.1">
 <metadata>
  <rdf:RDF xmlns:dc="http://purl.org/dc/elements/1.1/" xmlns:cc="http://creativecommons.org/ns#" xmlns:rdf="http://www.w3.org/1999/02/22-rdf-syntax-ns#">
   <cc:Work>
    <dc:type rdf:resource="http://purl.org/dc/dcmitype/StillImage"/>
    <dc:date>2025-03-12T12:31:47.286127</dc:date>
    <dc:format>image/svg+xml</dc:format>
    <dc:creator>
     <cc:Agent>
      <dc:title>Matplotlib v3.9.4, https://matplotlib.org/</dc:title>
     </cc:Agent>
    </dc:creator>
   </cc:Work>
  </rdf:RDF>
 </metadata>
 <defs>
  <style type="text/css">*{stroke-linejoin: round; stroke-linecap: butt}</style>
 </defs>
 <g id="figure_1">
  <g id="patch_1">
   <path d="M 0 216 
L 288 216 
L 288 0 
L 0 0 
z
" style="fill: #ffffff"/>
  </g>
  <g id="axes_1">
   <g id="patch_2">
    <path d="M 36 192.24 
L 259.2 192.24 
L 259.2 25.92 
L 36 25.92 
z
" style="fill: #ffffff"/>
   </g>
   <g id="PolyCollection_1">
    <path d="M 47.462805 173.500011 
L 47.462805 184.68 
L 47.565268 184.495435 
L 48.164517 183.386644 
L 49.338912 181.224322 
L 50.092994 179.833612 
L 51.544518 177.165326 
L 52.439172 175.524959 
L 52.502473 175.414577 
L 52.657607 175.123895 
L 53.370011 173.817627 
L 53.475546 173.626055 
L 53.779428 173.063588 
L 54.652639 171.459651 
L 54.954646 170.902819 
L 56.01319 168.971616 
L 57.707314 165.840068 
L 57.973692 165.352295 
L 60.564852 160.533121 
L 61.280401 159.193463 
L 61.71605 158.365115 
L 63.017908 155.902566 
L 63.095299 155.751952 
L 63.375815 155.228993 
L 63.883898 154.25306 
L 64.119761 153.813134 
L 64.984009 152.149422 
L 65.274273 151.596644 
L 65.399365 151.351174 
L 65.642751 150.885732 
L 65.740159 150.693032 
L 66.584826 149.059526 
L 66.623383 148.987987 
L 67.055356 148.14859 
L 67.744938 146.803411 
L 67.847849 146.603974 
L 68.375669 145.567929 
L 70.162279 142.047159 
L 70.76985 140.845193 
L 71.251736 139.901184 
L 71.348744 139.696778 
L 71.907055 138.588161 
L 72.954762 136.500929 
L 73.288771 135.83855 
L 73.541276 135.330395 
L 73.556805 135.296869 
L 73.865416 134.681275 
L 74.553571 133.303507 
L 75.152518 132.105151 
L 75.322371 131.764219 
L 75.654662 131.08885 
L 75.770792 130.854768 
L 75.854001 130.693567 
L 78.578985 125.22276 
L 81.486546 119.391861 
L 83.286496 115.81823 
L 85.713464 111.00078 
L 85.729803 110.980239 
L 86.327783 109.808431 
L 86.397398 109.666187 
L 87.25647 107.987276 
L 88.70924 105.16905 
L 89.14703 104.329855 
L 89.977439 102.736973 
L 90.506493 101.734724 
L 90.858244 101.076784 
L 91.567564 99.734848 
L 92.278432 98.409863 
L 92.50543 97.98336 
L 94.034056 95.164247 
L 96.129979 91.381591 
L 97.026083 89.771184 
L 98.536761 87.136365 
L 98.762115 86.76005 
L 101.626571 81.933412 
L 101.774835 81.691301 
L 102.056863 81.230183 
L 102.153508 81.069666 
L 102.219676 80.9643 
L 103.077152 79.57933 
L 103.43743 79.010307 
L 103.913801 78.251112 
L 108.292551 71.639992 
L 108.389124 71.492576 
L 109.647575 69.72629 
L 109.879762 69.402673 
L 111.601099 67.061562 
L 111.958583 66.597941 
L 112.647391 65.696216 
L 114.165628 63.787305 
L 114.936109 62.84846 
L 114.981571 62.806475 
L 115.083841 62.677179 
L 115.583082 62.081735 
L 116.788403 60.704706 
L 117.154377 60.287159 
L 117.838226 59.527778 
L 118.961535 58.326951 
L 119.215855 58.066666 
L 119.442768 57.836024 
L 121.749458 55.565973 
L 122.392792 54.971231 
L 122.440903 54.939894 
L 122.909872 54.51652 
L 124.4526 53.193573 
L 124.910141 52.822834 
L 125.331446 52.479348 
L 125.526201 52.335206 
L 125.975977 51.990866 
L 126.022286 51.947926 
L 126.5544 51.550936 
L 126.92133 51.296381 
L 128.124534 50.438825 
L 128.621804 50.120886 
L 128.968427 49.892742 
L 129.643605 49.480064 
L 130.006241 49.254286 
L 131.634307 48.354806 
L 132.351549 47.979287 
L 133.609395 47.399466 
L 133.740497 47.330291 
L 133.803412 47.306446 
L 134.255945 47.107944 
L 134.781383 46.907081 
L 135.228825 46.743167 
L 135.635968 46.576032 
L 135.901088 46.493752 
L 135.967207 46.467329 
L 136.447461 46.31351 
L 136.459011 46.305993 
L 136.493141 46.292887 
L 136.596705 46.253359 
L 136.647416 46.236818 
L 138.836791 45.644304 
L 138.898448 45.636135 
L 139.488192 45.510235 
L 139.619983 45.486385 
L 140.677426 45.297287 
L 142.59295 45.075446 
L 143.471735 45.026336 
L 143.47355 45.026336 
L 143.663539 45.027184 
L 144.867989 45.006971 
L 146.254519 45.053459 
L 146.740517 45.099702 
L 147.045391 45.123657 
L 147.923959 45.216092 
L 148.046111 45.221868 
L 149.062663 45.394972 
L 149.234294 45.423 
L 150.735139 45.726169 
L 150.889221 45.760766 
L 151.227886 45.828297 
L 151.952058 46.018513 
L 152 46.038277 
L 152.371912 46.139541 
L 152.548453 46.19059 
L 153.793987 46.578285 
L 154.011794 46.654843 
L 154.344243 46.76924 
L 155.891615 47.348561 
L 156.817012 47.724567 
L 156.915363 47.772253 
L 157.170045 47.888306 
L 157.19213 47.898188 
L 157.457539 48.010102 
L 157.708194 48.126821 
L 158.850443 48.668946 
L 158.90055 48.700186 
L 159.163359 48.828489 
L 160.087571 49.302302 
L 161.298261 49.976864 
L 162.037878 50.398007 
L 162.151891 50.465387 
L 162.940888 50.939272 
L 163.295446 51.16295 
L 163.325681 51.182714 
L 164.311804 51.804539 
L 166.379958 53.220203 
L 166.485118 53.285211 
L 166.990322 53.657045 
L 167.097538 53.721279 
L 167.293261 53.871058 
L 167.462134 53.992737 
L 168.171418 54.522668 
L 168.397473 54.690351 
L 168.810022 55.007349 
L 168.910623 55.073124 
L 170.101986 56.020389 
L 171.41035 57.099174 
L 171.53699 57.203703 
L 171.575873 57.234883 
L 172.131644 57.695931 
L 172.679916 58.165749 
L 172.754018 58.228453 
L 173.006245 58.443212 
L 173.730985 59.080606 
L 174.828412 60.076049 
L 176.35907 61.492244 
L 176.585657 61.695946 
L 176.602722 61.716118 
L 176.836566 61.942643 
L 178.495713 63.545776 
L 178.818221 63.873414 
L 179.103526 64.154636 
L 179.562977 64.621392 
L 179.857812 64.919731 
L 181.00693 66.094841 
L 181.063012 66.157204 
L 181.377307 66.476068 
L 181.403455 66.509888 
L 181.689546 66.803277 
L 181.699415 66.822271 
L 181.847571 66.987632 
L 182.504837 67.682338 
L 182.518842 67.69793 
L 182.71021 67.896663 
L 183.835745 69.123746 
L 184.950249 70.348171 
L 184.993244 70.39913 
L 185.578186 71.053475 
L 185.591345 71.066747 
L 185.703241 71.19366 
L 186.008454 71.544752 
L 186.038375 71.574398 
L 186.127438 71.688042 
L 186.838826 72.48903 
L 188.237812 74.122394 
L 188.51516 74.45705 
L 189.888869 76.09935 
L 190.100629 76.353915 
L 193.658767 80.796433 
L 193.869547 81.06176 
L 195.761897 83.527189 
L 198.001633 86.535855 
L 201.521626 91.444455 
L 202.356969 92.646575 
L 202.46231 92.808789 
L 202.466616 92.807115 
L 202.737516 93.200719 
L 203.417955 94.193564 
L 204.318874 95.522467 
L 205.177583 96.798548 
L 206.142613 98.26913 
L 206.739383 99.181365 
L 207.342721 100.108413 
L 207.42235 100.220353 
L 207.962216 101.06186 
L 209.332709 103.214068 
L 210.341254 104.822931 
L 210.407072 104.931634 
L 210.440815 104.977817 
L 210.807938 105.578052 
L 211.167611 106.149494 
L 211.91596 107.365849 
L 211.935903 107.401947 
L 211.994101 107.490022 
L 212.212295 107.84664 
L 212.68615 108.632265 
L 215.351582 113.09316 
L 215.68674 113.660521 
L 215.800983 113.856445 
L 217.042986 115.993656 
L 217.55668 116.887232 
L 217.886262 117.449651 
L 218.13884 117.898635 
L 218.573909 118.671053 
L 219.046846 119.490508 
L 219.909377 121.019104 
L 220.173432 121.49021 
L 221.364276 123.643172 
L 222.663992 126.006871 
L 223.021283 126.655001 
L 223.630014 127.773461 
L 224.647425 129.66033 
L 228.599439 137.161841 
L 228.678548 137.324152 
L 230.762327 141.39443 
L 231.171878 142.203178 
L 231.274752 142.395878 
L 233.033242 145.92047 
L 233.237516 146.33463 
L 233.317411 146.487754 
L 234.150601 148.185339 
L 235.866072 151.713752 
L 236.212889 152.437547 
L 236.638984 153.326123 
L 237.178572 154.472483 
L 237.963941 156.134863 
L 238.172145 156.573023 
L 241.090505 162.943808 
L 241.184611 163.153571 
L 241.361721 163.546181 
L 242.401337 165.892026 
L 242.56952 166.27375 
L 243.621642 168.674767 
L 243.651612 168.745312 
L 244.967885 171.811449 
L 246.936345 176.507366 
L 247.04032 176.758394 
L 249.029704 181.648132 
L 249.029704 168.631157 
L 249.029704 168.631157 
L 247.04032 165.091481 
L 246.936345 164.902757 
L 244.967885 161.292787 
L 243.651612 158.834842 
L 243.621642 158.77692 
L 242.56952 156.795235 
L 242.401337 156.47039 
L 241.361721 154.482944 
L 241.184611 154.14428 
L 241.090505 153.963701 
L 238.172145 148.303055 
L 237.963941 147.901238 
L 237.178572 146.376648 
L 236.638984 145.309422 
L 236.212889 144.483458 
L 235.866072 143.799056 
L 234.150601 140.449543 
L 233.317411 138.816867 
L 233.237516 138.673529 
L 233.033242 138.272417 
L 231.274752 134.85979 
L 231.171878 134.667089 
L 230.762327 133.87494 
L 228.678548 129.876501 
L 228.599439 129.722585 
L 224.647425 122.302162 
L 223.630014 120.428895 
L 223.021283 119.318947 
L 222.663992 118.672525 
L 221.364276 116.322472 
L 220.173432 114.186611 
L 219.909377 113.718921 
L 219.046846 112.198895 
L 218.573909 111.382866 
L 218.13884 110.608739 
L 217.886262 110.168335 
L 217.55668 109.604198 
L 217.042986 108.714058 
L 215.800983 106.587153 
L 215.68674 106.387793 
L 215.351582 105.818715 
L 212.68615 101.356093 
L 212.212295 100.570467 
L 211.994101 100.215576 
L 211.935903 100.125774 
L 211.91596 100.082815 
L 211.167611 98.868178 
L 210.807938 98.2933 
L 210.440815 97.687921 
L 210.407072 97.645165 
L 210.341254 97.536462 
L 209.332709 95.913885 
L 207.962216 93.737743 
L 207.42235 92.889414 
L 207.342721 92.774067 
L 206.739383 91.833402 
L 206.142613 90.90757 
L 205.177583 89.42341 
L 204.318874 88.120269 
L 203.417955 86.771129 
L 202.737516 85.74803 
L 202.466616 85.35107 
L 202.46231 85.349393 
L 202.356969 85.185502 
L 201.521626 83.956626 
L 198.001633 78.923854 
L 195.761897 75.825397 
L 193.869547 73.290495 
L 193.658767 73.012308 
L 190.100629 68.44237 
L 189.888869 68.183067 
L 188.51516 66.495106 
L 188.237812 66.147899 
L 186.838826 64.470767 
L 186.127438 63.651094 
L 186.038375 63.53745 
L 186.008454 63.507804 
L 185.703241 63.147385 
L 185.591345 63.017366 
L 185.578186 63.00099 
L 184.993244 62.331137 
L 184.950249 62.283275 
L 183.835745 61.03718 
L 182.71021 59.783862 
L 182.518842 59.57743 
L 182.504837 59.563376 
L 181.847571 58.854826 
L 181.699415 58.694078 
L 181.689546 58.673545 
L 181.403455 58.374008 
L 181.377307 58.338654 
L 181.063012 58.015182 
L 181.00693 57.958961 
L 179.857812 56.762372 
L 179.562977 56.457904 
L 179.103526 55.995745 
L 178.818221 55.703806 
L 178.495713 55.379227 
L 176.836566 53.760802 
L 176.602722 53.532751 
L 176.585657 53.523277 
L 176.35907 53.311931 
L 174.828412 51.901852 
L 173.730985 50.910997 
L 173.006245 50.273603 
L 172.754018 50.063434 
L 172.679916 49.99767 
L 172.131644 49.538572 
L 171.575873 49.080588 
L 171.53699 49.052475 
L 171.41035 48.94948 
L 170.101986 47.893735 
L 168.910623 46.963406 
L 168.810022 46.900714 
L 168.397473 46.585259 
L 168.171418 46.426834 
L 167.462134 45.909264 
L 167.293261 45.793773 
L 167.097538 45.64709 
L 166.990322 45.582856 
L 166.485118 45.223417 
L 166.379958 45.159959 
L 164.311804 43.798758 
L 163.325681 43.205087 
L 163.295446 43.185323 
L 162.940888 42.974189 
L 162.151891 42.519159 
L 162.037878 42.458073 
L 161.298261 42.059002 
L 160.087571 41.419248 
L 159.163359 40.974028 
L 158.90055 40.855279 
L 158.850443 40.827227 
L 157.708194 40.321851 
L 157.457539 40.221164 
L 157.19213 40.115672 
L 157.170045 40.10579 
L 156.915363 39.994556 
L 156.817012 39.953302 
L 155.891615 39.607917 
L 154.344243 39.080445 
L 154.011794 38.977436 
L 153.793987 38.905764 
L 152.548453 38.562184 
L 152.371912 38.514412 
L 152 38.427917 
L 151.952058 38.408152 
L 151.227886 38.242614 
L 150.889221 38.181678 
L 150.735139 38.156982 
L 149.234294 37.896873 
L 149.062663 37.875491 
L 148.046111 37.732369 
L 147.923959 37.728262 
L 147.045391 37.662584 
L 146.740517 37.64701 
L 146.254519 37.614198 
L 144.867989 37.601392 
L 143.663539 37.650354 
L 143.47355 37.651202 
L 143.471735 37.651202 
L 142.59295 37.720677 
L 140.677426 37.973176 
L 139.619983 38.17936 
L 139.488192 38.204921 
L 138.898448 38.335955 
L 138.836791 38.34755 
L 136.647416 38.96065 
L 136.596705 38.973755 
L 136.493141 39.013284 
L 136.459011 39.029825 
L 136.447461 39.03219 
L 135.967207 39.194597 
L 135.901088 39.217584 
L 135.635968 39.3033 
L 135.228825 39.472155 
L 134.781383 39.634349 
L 134.255945 39.838651 
L 133.803412 40.035433 
L 133.740497 40.060998 
L 133.609395 40.130173 
L 132.351549 40.706555 
L 131.634307 41.082074 
L 130.006241 41.97125 
L 129.643605 42.190165 
L 128.968427 42.5977 
L 128.621804 42.824132 
L 128.124534 43.138646 
L 126.92133 43.980807 
L 126.5544 44.230238 
L 126.022286 44.623814 
L 125.975977 44.659931 
L 125.526201 44.997454 
L 125.331446 45.139892 
L 124.910141 45.47827 
L 124.4526 45.838805 
L 122.909872 47.134609 
L 122.440903 47.551212 
L 122.392792 47.579167 
L 121.749458 48.160393 
L 119.442768 50.386688 
L 119.215855 50.610621 
L 118.961535 50.864204 
L 117.838226 52.044958 
L 117.154377 52.787653 
L 116.788403 53.200201 
L 115.583082 54.550626 
L 115.083841 55.131148 
L 114.981571 55.258787 
L 114.936109 55.305741 
L 114.165628 56.224726 
L 112.647391 58.100651 
L 111.958583 58.987581 
L 111.601099 59.442994 
L 109.879762 61.746461 
L 109.647575 62.065181 
L 108.389124 63.807032 
L 108.292551 63.956076 
L 103.913801 70.47824 
L 103.43743 71.231003 
L 103.077152 71.798419 
L 102.219676 73.170549 
L 102.153508 73.272706 
L 102.056863 73.428417 
L 101.774835 73.886331 
L 101.626571 74.128442 
L 98.762115 78.907182 
L 98.536761 79.281905 
L 97.026083 81.894473 
L 96.129979 83.485861 
L 94.034056 87.24323 
L 92.50543 90.037137 
L 92.278432 90.460493 
L 91.567564 91.783905 
L 90.858244 93.11013 
L 90.506493 93.766507 
L 89.977439 94.770319 
L 89.14703 96.339703 
L 88.70924 97.180461 
L 87.25647 99.975256 
L 86.397398 101.646369 
L 86.327783 101.780824 
L 85.729803 102.951069 
L 85.713464 102.970056 
L 83.286496 107.757986 
L 81.486546 111.319216 
L 78.578985 117.139288 
L 75.854001 122.617829 
L 75.770792 122.772844 
L 75.654662 123.013112 
L 75.322371 123.691579 
L 75.152518 124.03251 
L 74.553571 125.235509 
L 73.865416 126.614836 
L 73.556805 127.244384 
L 73.541276 127.270151 
L 73.288771 127.77985 
L 72.954762 128.451551 
L 71.907055 130.55432 
L 71.348744 131.669171 
L 71.251736 131.879812 
L 70.76985 132.833163 
L 70.162279 134.052306 
L 68.375669 137.616986 
L 67.847849 138.656177 
L 67.744938 138.861906 
L 67.055356 140.224417 
L 66.623383 141.074855 
L 66.584826 141.141665 
L 65.740159 142.798891 
L 65.642751 142.991592 
L 65.399365 143.464947 
L 65.274273 143.713582 
L 64.984009 144.277478 
L 64.119761 145.953909 
L 63.883898 146.40337 
L 63.375815 147.384089 
L 63.095299 147.908631 
L 63.017908 148.054478 
L 61.71605 150.532969 
L 61.280401 151.354928 
L 60.564852 152.683431 
L 57.973692 157.385641 
L 57.707314 157.851488 
L 56.01319 160.797419 
L 54.954646 162.562113 
L 54.652639 163.057722 
L 53.779428 164.477702 
L 53.475546 164.967675 
L 53.370011 165.131859 
L 52.657607 166.241759 
L 52.502473 166.484709 
L 52.439172 166.57691 
L 51.544518 167.925872 
L 50.092994 170.020747 
L 49.338912 171.06597 
L 48.164517 172.614368 
L 47.565268 173.378231 
L 47.462805 173.500011 
z
" clip-path="url(#p78c44838ee)" style="fill: #1f77b4; fill-opacity: 0.5"/>
   </g>
   <g id="matplotlib.axis_1">
    <g id="xtick_1">
     <g id="line2d_1">
      <defs>
       <path id="mc679d44128" d="M 0 0 
L 0 3.5 
" style="stroke: #000000; stroke-width: 0.8"/>
      </defs>
      <g>
       <use xlink:href="#mc679d44128" x="46.145455" y="192.24" style="stroke: #000000; stroke-width: 0.8"/>
      </g>
     </g>
     <g id="text_1">
      <!-- −1.0 -->
      <g transform="translate(34.004048 206.838437) scale(0.1 -0.1)">
       <defs>
        <path id="DejaVuSans-2212" d="M 678 2272 
L 4684 2272 
L 4684 1741 
L 678 1741 
L 678 2272 
z
" transform="scale(0.015625)"/>
        <path id="DejaVuSans-31" d="M 794 531 
L 1825 531 
L 1825 4091 
L 703 3866 
L 703 4441 
L 1819 4666 
L 2450 4666 
L 2450 531 
L 3481 531 
L 3481 0 
L 794 0 
L 794 531 
z
" transform="scale(0.015625)"/>
        <path id="DejaVuSans-2e" d="M 684 794 
L 1344 794 
L 1344 0 
L 684 0 
L 684 794 
z
" transform="scale(0.015625)"/>
        <path id="DejaVuSans-30" d="M 2034 4250 
Q 1547 4250 1301 3770 
Q 1056 3291 1056 2328 
Q 1056 1369 1301 889 
Q 1547 409 2034 409 
Q 2525 409 2770 889 
Q 3016 1369 3016 2328 
Q 3016 3291 2770 3770 
Q 2525 4250 2034 4250 
z
M 2034 4750 
Q 2819 4750 3233 4129 
Q 3647 3509 3647 2328 
Q 3647 1150 3233 529 
Q 2819 -91 2034 -91 
Q 1250 -91 836 529 
Q 422 1150 422 2328 
Q 422 3509 836 4129 
Q 1250 4750 2034 4750 
z
" transform="scale(0.015625)"/>
       </defs>
       <use xlink:href="#DejaVuSans-2212"/>
       <use xlink:href="#DejaVuSans-31" x="83.789062"/>
       <use xlink:href="#DejaVuSans-2e" x="147.412109"/>
       <use xlink:href="#DejaVuSans-30" x="179.199219"/>
      </g>
     </g>
    </g>
    <g id="xtick_2">
     <g id="line2d_2">
      <g>
       <use xlink:href="#mc679d44128" x="96.872727" y="192.24" style="stroke: #000000; stroke-width: 0.8"/>
      </g>
     </g>
     <g id="text_2">
      <!-- −0.5 -->
      <g transform="translate(84.731321 206.838437) scale(0.1 -0.1)">
       <defs>
        <path id="DejaVuSans-35" d="M 691 4666 
L 3169 4666 
L 3169 4134 
L 1269 4134 
L 1269 2991 
Q 1406 3038 1543 3061 
Q 1681 3084 1819 3084 
Q 2600 3084 3056 2656 
Q 3513 2228 3513 1497 
Q 3513 744 3044 326 
Q 2575 -91 1722 -91 
Q 1428 -91 1123 -41 
Q 819 9 494 109 
L 494 744 
Q 775 591 1075 516 
Q 1375 441 1709 441 
Q 2250 441 2565 725 
Q 2881 1009 2881 1497 
Q 2881 1984 2565 2268 
Q 2250 2553 1709 2553 
Q 1456 2553 1204 2497 
Q 953 2441 691 2322 
L 691 4666 
z
" transform="scale(0.015625)"/>
       </defs>
       <use xlink:href="#DejaVuSans-2212"/>
       <use xlink:href="#DejaVuSans-30" x="83.789062"/>
       <use xlink:href="#DejaVuSans-2e" x="147.412109"/>
       <use xlink:href="#DejaVuSans-35" x="179.199219"/>
      </g>
     </g>
    </g>
    <g id="xtick_3">
     <g id="line2d_3">
      <g>
       <use xlink:href="#mc679d44128" x="147.6" y="192.24" style="stroke: #000000; stroke-width: 0.8"/>
      </g>
     </g>
     <g id="text_3">
      <!-- 0.0 -->
      <g transform="translate(139.648438 206.838437) scale(0.1 -0.1)">
       <use xlink:href="#DejaVuSans-30"/>
       <use xlink:href="#DejaVuSans-2e" x="63.623047"/>
       <use xlink:href="#DejaVuSans-30" x="95.410156"/>
      </g>
     </g>
    </g>
    <g id="xtick_4">
     <g id="line2d_4">
      <g>
       <use xlink:href="#mc679d44128" x="198.327273" y="192.24" style="stroke: #000000; stroke-width: 0.8"/>
      </g>
     </g>
     <g id="text_4">
      <!-- 0.5 -->
      <g transform="translate(190.37571 206.838437) scale(0.1 -0.1)">
       <use xlink:href="#DejaVuSans-30"/>
       <use xlink:href="#DejaVuSans-2e" x="63.623047"/>
       <use xlink:href="#DejaVuSans-35" x="95.410156"/>
      </g>
     </g>
    </g>
    <g id="xtick_5">
     <g id="line2d_5">
      <g>
       <use xlink:href="#mc679d44128" x="249.054545" y="192.24" style="stroke: #000000; stroke-width: 0.8"/>
      </g>
     </g>
     <g id="text_5">
      <!-- 1.0 -->
      <g transform="translate(241.102983 206.838437) scale(0.1 -0.1)">
       <use xlink:href="#DejaVuSans-31"/>
       <use xlink:href="#DejaVuSans-2e" x="63.623047"/>
       <use xlink:href="#DejaVuSans-30" x="95.410156"/>
      </g>
     </g>
    </g>
   </g>
   <g id="matplotlib.axis_2">
    <g id="ytick_1">
     <g id="line2d_6">
      <defs>
       <path id="m6b2e1cef58" d="M 0 0 
L -3.5 0 
" style="stroke: #000000; stroke-width: 0.8"/>
      </defs>
      <g>
       <use xlink:href="#m6b2e1cef58" x="36" y="174.654928" style="stroke: #000000; stroke-width: 0.8"/>
      </g>
     </g>
     <g id="text_6">
      <!-- −0.8 -->
      <g transform="translate(4.717187 178.454147) scale(0.1 -0.1)">
       <defs>
        <path id="DejaVuSans-38" d="M 2034 2216 
Q 1584 2216 1326 1975 
Q 1069 1734 1069 1313 
Q 1069 891 1326 650 
Q 1584 409 2034 409 
Q 2484 409 2743 651 
Q 3003 894 3003 1313 
Q 3003 1734 2745 1975 
Q 2488 2216 2034 2216 
z
M 1403 2484 
Q 997 2584 770 2862 
Q 544 3141 544 3541 
Q 544 4100 942 4425 
Q 1341 4750 2034 4750 
Q 2731 4750 3128 4425 
Q 3525 4100 3525 3541 
Q 3525 3141 3298 2862 
Q 3072 2584 2669 2484 
Q 3125 2378 3379 2068 
Q 3634 1759 3634 1313 
Q 3634 634 3220 271 
Q 2806 -91 2034 -91 
Q 1263 -91 848 271 
Q 434 634 434 1313 
Q 434 1759 690 2068 
Q 947 2378 1403 2484 
z
M 1172 3481 
Q 1172 3119 1398 2916 
Q 1625 2713 2034 2713 
Q 2441 2713 2670 2916 
Q 2900 3119 2900 3481 
Q 2900 3844 2670 4047 
Q 2441 4250 2034 4250 
Q 1625 4250 1398 4047 
Q 1172 3844 1172 3481 
z
" transform="scale(0.015625)"/>
       </defs>
       <use xlink:href="#DejaVuSans-2212"/>
       <use xlink:href="#DejaVuSans-30" x="83.789062"/>
       <use xlink:href="#DejaVuSans-2e" x="147.412109"/>
       <use xlink:href="#DejaVuSans-38" x="179.199219"/>
      </g>
     </g>
    </g>
    <g id="ytick_2">
     <g id="line2d_7">
      <g>
       <use xlink:href="#m6b2e1cef58" x="36" y="142.273333" style="stroke: #000000; stroke-width: 0.8"/>
      </g>
     </g>
     <g id="text_7">
      <!-- −0.6 -->
      <g transform="translate(4.717187 146.072552) scale(0.1 -0.1)">
       <defs>
        <path id="DejaVuSans-36" d="M 2113 2584 
Q 1688 2584 1439 2293 
Q 1191 2003 1191 1497 
Q 1191 994 1439 701 
Q 1688 409 2113 409 
Q 2538 409 2786 701 
Q 3034 994 3034 1497 
Q 3034 2003 2786 2293 
Q 2538 2584 2113 2584 
z
M 3366 4563 
L 3366 3988 
Q 3128 4100 2886 4159 
Q 2644 4219 2406 4219 
Q 1781 4219 1451 3797 
Q 1122 3375 1075 2522 
Q 1259 2794 1537 2939 
Q 1816 3084 2150 3084 
Q 2853 3084 3261 2657 
Q 3669 2231 3669 1497 
Q 3669 778 3244 343 
Q 2819 -91 2113 -91 
Q 1303 -91 875 529 
Q 447 1150 447 2328 
Q 447 3434 972 4092 
Q 1497 4750 2381 4750 
Q 2619 4750 2861 4703 
Q 3103 4656 3366 4563 
z
" transform="scale(0.015625)"/>
       </defs>
       <use xlink:href="#DejaVuSans-2212"/>
       <use xlink:href="#DejaVuSans-30" x="83.789062"/>
       <use xlink:href="#DejaVuSans-2e" x="147.412109"/>
       <use xlink:href="#DejaVuSans-36" x="179.199219"/>
      </g>
     </g>
    </g>
    <g id="ytick_3">
     <g id="line2d_8">
      <g>
       <use xlink:href="#m6b2e1cef58" x="36" y="109.891737" style="stroke: #000000; stroke-width: 0.8"/>
      </g>
     </g>
     <g id="text_8">
      <!-- −0.4 -->
      <g transform="translate(4.717187 113.690956) scale(0.1 -0.1)">
       <defs>
        <path id="DejaVuSans-34" d="M 2419 4116 
L 825 1625 
L 2419 1625 
L 2419 4116 
z
M 2253 4666 
L 3047 4666 
L 3047 1625 
L 3713 1625 
L 3713 1100 
L 3047 1100 
L 3047 0 
L 2419 0 
L 2419 1100 
L 313 1100 
L 313 1709 
L 2253 4666 
z
" transform="scale(0.015625)"/>
       </defs>
       <use xlink:href="#DejaVuSans-2212"/>
       <use xlink:href="#DejaVuSans-30" x="83.789062"/>
       <use xlink:href="#DejaVuSans-2e" x="147.412109"/>
       <use xlink:href="#DejaVuSans-34" x="179.199219"/>
      </g>
     </g>
    </g>
    <g id="ytick_4">
     <g id="line2d_9">
      <g>
       <use xlink:href="#m6b2e1cef58" x="36" y="77.510142" style="stroke: #000000; stroke-width: 0.8"/>
      </g>
     </g>
     <g id="text_9">
      <!-- −0.2 -->
      <g transform="translate(4.717187 81.30936) scale(0.1 -0.1)">
       <defs>
        <path id="DejaVuSans-32" d="M 1228 531 
L 3431 531 
L 3431 0 
L 469 0 
L 469 531 
Q 828 903 1448 1529 
Q 2069 2156 2228 2338 
Q 2531 2678 2651 2914 
Q 2772 3150 2772 3378 
Q 2772 3750 2511 3984 
Q 2250 4219 1831 4219 
Q 1534 4219 1204 4116 
Q 875 4013 500 3803 
L 500 4441 
Q 881 4594 1212 4672 
Q 1544 4750 1819 4750 
Q 2544 4750 2975 4387 
Q 3406 4025 3406 3419 
Q 3406 3131 3298 2873 
Q 3191 2616 2906 2266 
Q 2828 2175 2409 1742 
Q 1991 1309 1228 531 
z
" transform="scale(0.015625)"/>
       </defs>
       <use xlink:href="#DejaVuSans-2212"/>
       <use xlink:href="#DejaVuSans-30" x="83.789062"/>
       <use xlink:href="#DejaVuSans-2e" x="147.412109"/>
       <use xlink:href="#DejaVuSans-32" x="179.199219"/>
      </g>
     </g>
    </g>
    <g id="ytick_5">
     <g id="line2d_10">
      <g>
       <use xlink:href="#m6b2e1cef58" x="36" y="45.128546" style="stroke: #000000; stroke-width: 0.8"/>
      </g>
     </g>
     <g id="text_10">
      <!-- 0.0 -->
      <g transform="translate(13.096875 48.927765) scale(0.1 -0.1)">
       <use xlink:href="#DejaVuSans-30"/>
       <use xlink:href="#DejaVuSans-2e" x="63.623047"/>
       <use xlink:href="#DejaVuSans-30" x="95.410156"/>
      </g>
     </g>
    </g>
   </g>
   <g id="line2d_11">
    <defs>
     <path id="mfe35aadb26" d="M 0 -3 
L -0.673542 -0.927051 
L -2.85317 -0.927051 
L -1.089814 0.354102 
L -1.763356 2.427051 
L -0 1.145898 
L 1.763356 2.427051 
L 1.089814 0.354102 
L 2.85317 -0.927051 
L 0.673542 -0.927051 
z
" style="stroke: #000000; stroke-linejoin: bevel"/>
    </defs>
    <g clip-path="url(#p78c44838ee)">
     <use xlink:href="#mfe35aadb26" x="52.585549" y="171.20043" style="stroke: #000000; stroke-linejoin: bevel"/>
     <use xlink:href="#mfe35aadb26" x="124.97874" y="44.633074" style="stroke: #000000; stroke-linejoin: bevel"/>
     <use xlink:href="#mfe35aadb26" x="156.445172" y="48.1716" style="stroke: #000000; stroke-linejoin: bevel"/>
     <use xlink:href="#mfe35aadb26" x="213.7598" y="111.359898" style="stroke: #000000; stroke-linejoin: bevel"/>
     <use xlink:href="#mfe35aadb26" x="227.229829" y="131.088397" style="stroke: #000000; stroke-linejoin: bevel"/>
     <use xlink:href="#mfe35aadb26" x="215.585765" y="108.563844" style="stroke: #000000; stroke-linejoin: bevel"/>
     <use xlink:href="#mfe35aadb26" x="240.749052" y="157.974589" style="stroke: #000000; stroke-linejoin: bevel"/>
     <use xlink:href="#mfe35aadb26" x="85.099356" y="105.013548" style="stroke: #000000; stroke-linejoin: bevel"/>
     <use xlink:href="#mfe35aadb26" x="134.931154" y="33.48" style="stroke: #000000; stroke-linejoin: bevel"/>
     <use xlink:href="#mfe35aadb26" x="137.940109" y="46.834174" style="stroke: #000000; stroke-linejoin: bevel"/>
     <use xlink:href="#mfe35aadb26" x="186.135045" y="67.515983" style="stroke: #000000; stroke-linejoin: bevel"/>
     <use xlink:href="#mfe35aadb26" x="210.425268" y="96.773916" style="stroke: #000000; stroke-linejoin: bevel"/>
     <use xlink:href="#mfe35aadb26" x="109.587109" y="74.688331" style="stroke: #000000; stroke-linejoin: bevel"/>
     <use xlink:href="#mfe35aadb26" x="66.639493" y="145.168072" style="stroke: #000000; stroke-linejoin: bevel"/>
     <use xlink:href="#mfe35aadb26" x="151.436627" y="52.929141" style="stroke: #000000; stroke-linejoin: bevel"/>
    </g>
   </g>
   <g id="line2d_12">
    <path d="M 46.145455 181.369407 
L 56.097953 159.68638 
L 63.613106 143.838189 
L 69.90958 131.060237 
L 75.596725 120.003942 
L 80.877639 110.216033 
L 85.752335 101.639353 
L 90.423913 93.872054 
L 94.689272 87.195803 
L 98.751514 81.229263 
L 102.610647 75.933236 
L 106.469779 71.015749 
L 110.125797 66.719375 
L 113.578705 62.995758 
L 117.031614 59.605568 
L 120.281407 56.72649 
L 123.328091 54.30727 
L 126.374774 52.163434 
L 129.421457 50.298862 
L 132.265027 48.813536 
L 135.108598 47.576763 
L 137.952169 46.590487 
L 140.592628 45.90032 
L 143.233086 45.428421 
L 145.873545 45.175429 
L 148.514006 45.141687 
L 151.154465 45.32724 
L 153.794923 45.731838 
L 156.435382 46.354931 
L 159.075841 47.195676 
L 161.919411 48.343189 
L 164.762983 49.739994 
L 167.606554 51.383894 
L 170.653236 53.416462 
L 173.699921 55.726026 
L 176.746602 58.3084 
L 179.996398 61.358339 
L 183.246192 64.707026 
L 186.6991 68.584584 
L 190.35512 73.039179 
L 194.011138 77.841165 
L 197.870271 83.272781 
L 201.932512 89.37551 
L 206.197872 96.187051 
L 210.666338 103.739874 
L 215.541034 112.430796 
L 220.618836 121.941003 
L 226.102868 132.679267 
L 232.196231 145.101059 
L 239.305159 160.122127 
L 248.038985 179.131994 
L 249.054545 181.369407 
L 249.054545 181.369407 
" clip-path="url(#p78c44838ee)" style="fill: none; stroke: #ffa500; stroke-width: 1.5; stroke-linecap: square"/>
   </g>
   <g id="line2d_13">
    <path d="M 47.462805 179.090005 
L 49.338912 176.145146 
L 53.779428 168.770645 
L 57.973692 161.368968 
L 64.119761 149.883522 
L 71.348744 135.682975 
L 90.506493 97.750615 
L 96.129979 87.433725 
L 98.762115 82.833618 
L 103.913801 74.364676 
L 109.879762 65.574567 
L 112.647391 61.898434 
L 115.583082 58.31618 
L 119.442768 54.111356 
L 122.909872 50.825565 
L 126.022286 48.28587 
L 128.621804 46.472509 
L 130.006241 45.612768 
L 132.351549 44.342921 
L 135.635968 42.939666 
L 138.898448 41.986045 
L 140.677426 41.635231 
L 143.663539 41.338769 
L 146.254519 41.333828 
L 149.234294 41.659937 
L 152.548453 42.376387 
L 154.344243 42.924843 
L 157.708194 44.224336 
L 160.087571 45.360775 
L 163.325681 47.193901 
L 166.485118 49.254314 
L 170.101986 51.957063 
L 173.730985 54.995802 
L 176.836566 57.851722 
L 181.377307 62.407361 
L 181.847571 62.921229 
L 185.703241 67.170523 
L 190.100629 72.398142 
L 195.761897 79.676293 
L 201.521626 87.700541 
L 206.142613 94.58835 
L 211.167611 102.508836 
L 215.800983 110.221799 
L 221.364276 119.982822 
L 224.647425 125.981244 
L 231.274752 138.627834 
L 238.172145 152.438039 
L 247.04032 170.924938 
L 249.029704 175.139644 
L 249.029704 175.139644 
" clip-path="url(#p78c44838ee)" style="fill: none; stroke: #0000ff; stroke-width: 1.5; stroke-linecap: square"/>
   </g>
   <g id="line2d_14">
    <defs>
     <path id="m81b1fd77a4" d="M 0 -3 
L -0.673542 -0.927051 
L -2.85317 -0.927051 
L -1.089814 0.354102 
L -1.763356 2.427051 
L -0 1.145898 
L 1.763356 2.427051 
L 1.089814 0.354102 
L 2.85317 -0.927051 
L 0.673542 -0.927051 
z
" style="stroke: #ff0000; stroke-linejoin: bevel"/>
    </defs>
    <g clip-path="url(#p78c44838ee)">
     <use xlink:href="#m81b1fd77a4" x="151.436627" y="52.929141" style="fill: #ff0000; stroke: #ff0000; stroke-linejoin: bevel"/>
    </g>
   </g>
   <g id="patch_3">
    <path d="M 36 192.24 
L 36 25.92 
" style="fill: none; stroke: #000000; stroke-width: 0.8; stroke-linejoin: miter; stroke-linecap: square"/>
   </g>
   <g id="patch_4">
    <path d="M 259.2 192.24 
L 259.2 25.92 
" style="fill: none; stroke: #000000; stroke-width: 0.8; stroke-linejoin: miter; stroke-linecap: square"/>
   </g>
   <g id="patch_5">
    <path d="M 36 192.24 
L 259.2 192.24 
" style="fill: none; stroke: #000000; stroke-width: 0.8; stroke-linejoin: miter; stroke-linecap: square"/>
   </g>
   <g id="patch_6">
    <path d="M 36 25.92 
L 259.2 25.92 
" style="fill: none; stroke: #000000; stroke-width: 0.8; stroke-linejoin: miter; stroke-linecap: square"/>
   </g>
   <g id="legend_1">
    <g id="patch_7">
     <path d="M 85.035937 187.24 
L 210.164062 187.24 
Q 212.164062 187.24 212.164062 185.24 
L 212.164062 127.5275 
Q 212.164062 125.5275 210.164062 125.5275 
L 85.035937 125.5275 
Q 83.035937 125.5275 83.035937 127.5275 
L 83.035937 185.24 
Q 83.035937 187.24 85.035937 187.24 
z
" style="fill: #ffffff; opacity: 0.8; stroke: #cccccc; stroke-linejoin: miter"/>
    </g>
    <g id="line2d_15">
     <g>
      <use xlink:href="#mfe35aadb26" x="97.035937" y="133.625937" style="stroke: #000000; stroke-linejoin: bevel"/>
     </g>
    </g>
    <g id="text_11">
     <!-- Training Points -->
     <g transform="translate(115.035937 137.125937) scale(0.1 -0.1)">
      <defs>
       <path id="DejaVuSans-54" d="M -19 4666 
L 3928 4666 
L 3928 4134 
L 2272 4134 
L 2272 0 
L 1638 0 
L 1638 4134 
L -19 4134 
L -19 4666 
z
" transform="scale(0.015625)"/>
       <path id="DejaVuSans-72" d="M 2631 2963 
Q 2534 3019 2420 3045 
Q 2306 3072 2169 3072 
Q 1681 3072 1420 2755 
Q 1159 2438 1159 1844 
L 1159 0 
L 581 0 
L 581 3500 
L 1159 3500 
L 1159 2956 
Q 1341 3275 1631 3429 
Q 1922 3584 2338 3584 
Q 2397 3584 2469 3576 
Q 2541 3569 2628 3553 
L 2631 2963 
z
" transform="scale(0.015625)"/>
       <path id="DejaVuSans-61" d="M 2194 1759 
Q 1497 1759 1228 1600 
Q 959 1441 959 1056 
Q 959 750 1161 570 
Q 1363 391 1709 391 
Q 2188 391 2477 730 
Q 2766 1069 2766 1631 
L 2766 1759 
L 2194 1759 
z
M 3341 1997 
L 3341 0 
L 2766 0 
L 2766 531 
Q 2569 213 2275 61 
Q 1981 -91 1556 -91 
Q 1019 -91 701 211 
Q 384 513 384 1019 
Q 384 1609 779 1909 
Q 1175 2209 1959 2209 
L 2766 2209 
L 2766 2266 
Q 2766 2663 2505 2880 
Q 2244 3097 1772 3097 
Q 1472 3097 1187 3025 
Q 903 2953 641 2809 
L 641 3341 
Q 956 3463 1253 3523 
Q 1550 3584 1831 3584 
Q 2591 3584 2966 3190 
Q 3341 2797 3341 1997 
z
" transform="scale(0.015625)"/>
       <path id="DejaVuSans-69" d="M 603 3500 
L 1178 3500 
L 1178 0 
L 603 0 
L 603 3500 
z
M 603 4863 
L 1178 4863 
L 1178 4134 
L 603 4134 
L 603 4863 
z
" transform="scale(0.015625)"/>
       <path id="DejaVuSans-6e" d="M 3513 2113 
L 3513 0 
L 2938 0 
L 2938 2094 
Q 2938 2591 2744 2837 
Q 2550 3084 2163 3084 
Q 1697 3084 1428 2787 
Q 1159 2491 1159 1978 
L 1159 0 
L 581 0 
L 581 3500 
L 1159 3500 
L 1159 2956 
Q 1366 3272 1645 3428 
Q 1925 3584 2291 3584 
Q 2894 3584 3203 3211 
Q 3513 2838 3513 2113 
z
" transform="scale(0.015625)"/>
       <path id="DejaVuSans-67" d="M 2906 1791 
Q 2906 2416 2648 2759 
Q 2391 3103 1925 3103 
Q 1463 3103 1205 2759 
Q 947 2416 947 1791 
Q 947 1169 1205 825 
Q 1463 481 1925 481 
Q 2391 481 2648 825 
Q 2906 1169 2906 1791 
z
M 3481 434 
Q 3481 -459 3084 -895 
Q 2688 -1331 1869 -1331 
Q 1566 -1331 1297 -1286 
Q 1028 -1241 775 -1147 
L 775 -588 
Q 1028 -725 1275 -790 
Q 1522 -856 1778 -856 
Q 2344 -856 2625 -561 
Q 2906 -266 2906 331 
L 2906 616 
Q 2728 306 2450 153 
Q 2172 0 1784 0 
Q 1141 0 747 490 
Q 353 981 353 1791 
Q 353 2603 747 3093 
Q 1141 3584 1784 3584 
Q 2172 3584 2450 3431 
Q 2728 3278 2906 2969 
L 2906 3500 
L 3481 3500 
L 3481 434 
z
" transform="scale(0.015625)"/>
       <path id="DejaVuSans-20" transform="scale(0.015625)"/>
       <path id="DejaVuSans-50" d="M 1259 4147 
L 1259 2394 
L 2053 2394 
Q 2494 2394 2734 2622 
Q 2975 2850 2975 3272 
Q 2975 3691 2734 3919 
Q 2494 4147 2053 4147 
L 1259 4147 
z
M 628 4666 
L 2053 4666 
Q 2838 4666 3239 4311 
Q 3641 3956 3641 3272 
Q 3641 2581 3239 2228 
Q 2838 1875 2053 1875 
L 1259 1875 
L 1259 0 
L 628 0 
L 628 4666 
z
" transform="scale(0.015625)"/>
       <path id="DejaVuSans-6f" d="M 1959 3097 
Q 1497 3097 1228 2736 
Q 959 2375 959 1747 
Q 959 1119 1226 758 
Q 1494 397 1959 397 
Q 2419 397 2687 759 
Q 2956 1122 2956 1747 
Q 2956 2369 2687 2733 
Q 2419 3097 1959 3097 
z
M 1959 3584 
Q 2709 3584 3137 3096 
Q 3566 2609 3566 1747 
Q 3566 888 3137 398 
Q 2709 -91 1959 -91 
Q 1206 -91 779 398 
Q 353 888 353 1747 
Q 353 2609 779 3096 
Q 1206 3584 1959 3584 
z
" transform="scale(0.015625)"/>
       <path id="DejaVuSans-74" d="M 1172 4494 
L 1172 3500 
L 2356 3500 
L 2356 3053 
L 1172 3053 
L 1172 1153 
Q 1172 725 1289 603 
Q 1406 481 1766 481 
L 2356 481 
L 2356 0 
L 1766 0 
Q 1100 0 847 248 
Q 594 497 594 1153 
L 594 3053 
L 172 3053 
L 172 3500 
L 594 3500 
L 594 4494 
L 1172 4494 
z
" transform="scale(0.015625)"/>
       <path id="DejaVuSans-73" d="M 2834 3397 
L 2834 2853 
Q 2591 2978 2328 3040 
Q 2066 3103 1784 3103 
Q 1356 3103 1142 2972 
Q 928 2841 928 2578 
Q 928 2378 1081 2264 
Q 1234 2150 1697 2047 
L 1894 2003 
Q 2506 1872 2764 1633 
Q 3022 1394 3022 966 
Q 3022 478 2636 193 
Q 2250 -91 1575 -91 
Q 1294 -91 989 -36 
Q 684 19 347 128 
L 347 722 
Q 666 556 975 473 
Q 1284 391 1588 391 
Q 1994 391 2212 530 
Q 2431 669 2431 922 
Q 2431 1156 2273 1281 
Q 2116 1406 1581 1522 
L 1381 1569 
Q 847 1681 609 1914 
Q 372 2147 372 2553 
Q 372 3047 722 3315 
Q 1072 3584 1716 3584 
Q 2034 3584 2315 3537 
Q 2597 3491 2834 3397 
z
" transform="scale(0.015625)"/>
      </defs>
      <use xlink:href="#DejaVuSans-54"/>
      <use xlink:href="#DejaVuSans-72" x="46.333984"/>
      <use xlink:href="#DejaVuSans-61" x="87.447266"/>
      <use xlink:href="#DejaVuSans-69" x="148.726562"/>
      <use xlink:href="#DejaVuSans-6e" x="176.509766"/>
      <use xlink:href="#DejaVuSans-69" x="239.888672"/>
      <use xlink:href="#DejaVuSans-6e" x="267.671875"/>
      <use xlink:href="#DejaVuSans-67" x="331.050781"/>
      <use xlink:href="#DejaVuSans-20" x="394.527344"/>
      <use xlink:href="#DejaVuSans-50" x="426.314453"/>
      <use xlink:href="#DejaVuSans-6f" x="482.992188"/>
      <use xlink:href="#DejaVuSans-69" x="544.173828"/>
      <use xlink:href="#DejaVuSans-6e" x="571.957031"/>
      <use xlink:href="#DejaVuSans-74" x="635.335938"/>
      <use xlink:href="#DejaVuSans-73" x="674.544922"/>
     </g>
    </g>
    <g id="line2d_16">
     <path d="M 87.035937 148.304062 
L 97.035937 148.304062 
L 107.035937 148.304062 
" style="fill: none; stroke: #ffa500; stroke-width: 1.5; stroke-linecap: square"/>
    </g>
    <g id="text_12">
     <!-- Objective Function -->
     <g transform="translate(115.035937 151.804062) scale(0.1 -0.1)">
      <defs>
       <path id="DejaVuSans-4f" d="M 2522 4238 
Q 1834 4238 1429 3725 
Q 1025 3213 1025 2328 
Q 1025 1447 1429 934 
Q 1834 422 2522 422 
Q 3209 422 3611 934 
Q 4013 1447 4013 2328 
Q 4013 3213 3611 3725 
Q 3209 4238 2522 4238 
z
M 2522 4750 
Q 3503 4750 4090 4092 
Q 4678 3434 4678 2328 
Q 4678 1225 4090 567 
Q 3503 -91 2522 -91 
Q 1538 -91 948 565 
Q 359 1222 359 2328 
Q 359 3434 948 4092 
Q 1538 4750 2522 4750 
z
" transform="scale(0.015625)"/>
       <path id="DejaVuSans-62" d="M 3116 1747 
Q 3116 2381 2855 2742 
Q 2594 3103 2138 3103 
Q 1681 3103 1420 2742 
Q 1159 2381 1159 1747 
Q 1159 1113 1420 752 
Q 1681 391 2138 391 
Q 2594 391 2855 752 
Q 3116 1113 3116 1747 
z
M 1159 2969 
Q 1341 3281 1617 3432 
Q 1894 3584 2278 3584 
Q 2916 3584 3314 3078 
Q 3713 2572 3713 1747 
Q 3713 922 3314 415 
Q 2916 -91 2278 -91 
Q 1894 -91 1617 61 
Q 1341 213 1159 525 
L 1159 0 
L 581 0 
L 581 4863 
L 1159 4863 
L 1159 2969 
z
" transform="scale(0.015625)"/>
       <path id="DejaVuSans-6a" d="M 603 3500 
L 1178 3500 
L 1178 -63 
Q 1178 -731 923 -1031 
Q 669 -1331 103 -1331 
L -116 -1331 
L -116 -844 
L 38 -844 
Q 366 -844 484 -692 
Q 603 -541 603 -63 
L 603 3500 
z
M 603 4863 
L 1178 4863 
L 1178 4134 
L 603 4134 
L 603 4863 
z
" transform="scale(0.015625)"/>
       <path id="DejaVuSans-65" d="M 3597 1894 
L 3597 1613 
L 953 1613 
Q 991 1019 1311 708 
Q 1631 397 2203 397 
Q 2534 397 2845 478 
Q 3156 559 3463 722 
L 3463 178 
Q 3153 47 2828 -22 
Q 2503 -91 2169 -91 
Q 1331 -91 842 396 
Q 353 884 353 1716 
Q 353 2575 817 3079 
Q 1281 3584 2069 3584 
Q 2775 3584 3186 3129 
Q 3597 2675 3597 1894 
z
M 3022 2063 
Q 3016 2534 2758 2815 
Q 2500 3097 2075 3097 
Q 1594 3097 1305 2825 
Q 1016 2553 972 2059 
L 3022 2063 
z
" transform="scale(0.015625)"/>
       <path id="DejaVuSans-63" d="M 3122 3366 
L 3122 2828 
Q 2878 2963 2633 3030 
Q 2388 3097 2138 3097 
Q 1578 3097 1268 2742 
Q 959 2388 959 1747 
Q 959 1106 1268 751 
Q 1578 397 2138 397 
Q 2388 397 2633 464 
Q 2878 531 3122 666 
L 3122 134 
Q 2881 22 2623 -34 
Q 2366 -91 2075 -91 
Q 1284 -91 818 406 
Q 353 903 353 1747 
Q 353 2603 823 3093 
Q 1294 3584 2113 3584 
Q 2378 3584 2631 3529 
Q 2884 3475 3122 3366 
z
" transform="scale(0.015625)"/>
       <path id="DejaVuSans-76" d="M 191 3500 
L 800 3500 
L 1894 563 
L 2988 3500 
L 3597 3500 
L 2284 0 
L 1503 0 
L 191 3500 
z
" transform="scale(0.015625)"/>
       <path id="DejaVuSans-46" d="M 628 4666 
L 3309 4666 
L 3309 4134 
L 1259 4134 
L 1259 2759 
L 3109 2759 
L 3109 2228 
L 1259 2228 
L 1259 0 
L 628 0 
L 628 4666 
z
" transform="scale(0.015625)"/>
       <path id="DejaVuSans-75" d="M 544 1381 
L 544 3500 
L 1119 3500 
L 1119 1403 
Q 1119 906 1312 657 
Q 1506 409 1894 409 
Q 2359 409 2629 706 
Q 2900 1003 2900 1516 
L 2900 3500 
L 3475 3500 
L 3475 0 
L 2900 0 
L 2900 538 
Q 2691 219 2414 64 
Q 2138 -91 1772 -91 
Q 1169 -91 856 284 
Q 544 659 544 1381 
z
M 1991 3584 
L 1991 3584 
z
" transform="scale(0.015625)"/>
      </defs>
      <use xlink:href="#DejaVuSans-4f"/>
      <use xlink:href="#DejaVuSans-62" x="78.710938"/>
      <use xlink:href="#DejaVuSans-6a" x="142.1875"/>
      <use xlink:href="#DejaVuSans-65" x="169.970703"/>
      <use xlink:href="#DejaVuSans-63" x="231.494141"/>
      <use xlink:href="#DejaVuSans-74" x="286.474609"/>
      <use xlink:href="#DejaVuSans-69" x="325.683594"/>
      <use xlink:href="#DejaVuSans-76" x="353.466797"/>
      <use xlink:href="#DejaVuSans-65" x="412.646484"/>
      <use xlink:href="#DejaVuSans-20" x="474.169922"/>
      <use xlink:href="#DejaVuSans-46" x="505.957031"/>
      <use xlink:href="#DejaVuSans-75" x="557.976562"/>
      <use xlink:href="#DejaVuSans-6e" x="621.355469"/>
      <use xlink:href="#DejaVuSans-63" x="684.734375"/>
      <use xlink:href="#DejaVuSans-74" x="739.714844"/>
      <use xlink:href="#DejaVuSans-69" x="778.923828"/>
      <use xlink:href="#DejaVuSans-6f" x="806.707031"/>
      <use xlink:href="#DejaVuSans-6e" x="867.888672"/>
     </g>
    </g>
    <g id="line2d_17">
     <path d="M 87.035937 162.982188 
L 97.035937 162.982188 
L 107.035937 162.982188 
" style="fill: none; stroke: #0000ff; stroke-width: 1.5; stroke-linecap: square"/>
    </g>
    <g id="text_13">
     <!-- Model Prediction -->
     <g transform="translate(115.035937 166.482188) scale(0.1 -0.1)">
      <defs>
       <path id="DejaVuSans-4d" d="M 628 4666 
L 1569 4666 
L 2759 1491 
L 3956 4666 
L 4897 4666 
L 4897 0 
L 4281 0 
L 4281 4097 
L 3078 897 
L 2444 897 
L 1241 4097 
L 1241 0 
L 628 0 
L 628 4666 
z
" transform="scale(0.015625)"/>
       <path id="DejaVuSans-64" d="M 2906 2969 
L 2906 4863 
L 3481 4863 
L 3481 0 
L 2906 0 
L 2906 525 
Q 2725 213 2448 61 
Q 2172 -91 1784 -91 
Q 1150 -91 751 415 
Q 353 922 353 1747 
Q 353 2572 751 3078 
Q 1150 3584 1784 3584 
Q 2172 3584 2448 3432 
Q 2725 3281 2906 2969 
z
M 947 1747 
Q 947 1113 1208 752 
Q 1469 391 1925 391 
Q 2381 391 2643 752 
Q 2906 1113 2906 1747 
Q 2906 2381 2643 2742 
Q 2381 3103 1925 3103 
Q 1469 3103 1208 2742 
Q 947 2381 947 1747 
z
" transform="scale(0.015625)"/>
       <path id="DejaVuSans-6c" d="M 603 4863 
L 1178 4863 
L 1178 0 
L 603 0 
L 603 4863 
z
" transform="scale(0.015625)"/>
      </defs>
      <use xlink:href="#DejaVuSans-4d"/>
      <use xlink:href="#DejaVuSans-6f" x="86.279297"/>
      <use xlink:href="#DejaVuSans-64" x="147.460938"/>
      <use xlink:href="#DejaVuSans-65" x="210.9375"/>
      <use xlink:href="#DejaVuSans-6c" x="272.460938"/>
      <use xlink:href="#DejaVuSans-20" x="300.244141"/>
      <use xlink:href="#DejaVuSans-50" x="332.03125"/>
      <use xlink:href="#DejaVuSans-72" x="390.583984"/>
      <use xlink:href="#DejaVuSans-65" x="429.447266"/>
      <use xlink:href="#DejaVuSans-64" x="490.970703"/>
      <use xlink:href="#DejaVuSans-69" x="554.447266"/>
      <use xlink:href="#DejaVuSans-63" x="582.230469"/>
      <use xlink:href="#DejaVuSans-74" x="637.210938"/>
      <use xlink:href="#DejaVuSans-69" x="676.419922"/>
      <use xlink:href="#DejaVuSans-6f" x="704.203125"/>
      <use xlink:href="#DejaVuSans-6e" x="765.384766"/>
     </g>
    </g>
    <g id="line2d_18">
     <g>
      <use xlink:href="#m81b1fd77a4" x="97.035937" y="177.660313" style="fill: #ff0000; stroke: #ff0000; stroke-linejoin: bevel"/>
     </g>
    </g>
    <g id="text_14">
     <!-- Next Point -->
     <g transform="translate(115.035937 181.160313) scale(0.1 -0.1)">
      <defs>
       <path id="DejaVuSans-4e" d="M 628 4666 
L 1478 4666 
L 3547 763 
L 3547 4666 
L 4159 4666 
L 4159 0 
L 3309 0 
L 1241 3903 
L 1241 0 
L 628 0 
L 628 4666 
z
" transform="scale(0.015625)"/>
       <path id="DejaVuSans-78" d="M 3513 3500 
L 2247 1797 
L 3578 0 
L 2900 0 
L 1881 1375 
L 863 0 
L 184 0 
L 1544 1831 
L 300 3500 
L 978 3500 
L 1906 2253 
L 2834 3500 
L 3513 3500 
z
" transform="scale(0.015625)"/>
      </defs>
      <use xlink:href="#DejaVuSans-4e"/>
      <use xlink:href="#DejaVuSans-65" x="74.804688"/>
      <use xlink:href="#DejaVuSans-78" x="134.578125"/>
      <use xlink:href="#DejaVuSans-74" x="193.757812"/>
      <use xlink:href="#DejaVuSans-20" x="232.966797"/>
      <use xlink:href="#DejaVuSans-50" x="264.753906"/>
      <use xlink:href="#DejaVuSans-6f" x="321.431641"/>
      <use xlink:href="#DejaVuSans-69" x="382.613281"/>
      <use xlink:href="#DejaVuSans-6e" x="410.396484"/>
      <use xlink:href="#DejaVuSans-74" x="473.775391"/>
     </g>
    </g>
   </g>
  </g>
 </g>
 <defs>
  <clipPath id="p78c44838ee">
   <rect x="36" y="25.92" width="223.2" height="166.32"/>
  </clipPath>
 </defs>
</svg>
