<?xml version="1.0" encoding="utf-8" standalone="no"?>
<!DOCTYPE svg PUBLIC "-//W3C//DTD SVG 1.1//EN"
  "http://www.w3.org/Graphics/SVG/1.1/DTD/svg11.dtd">
<svg xmlns:xlink="http://www.w3.org/1999/xlink" width="432pt" height="288pt" viewBox="0 0 432 288" xmlns="http://www.w3.org/2000/svg" version="1.1">
 <metadata>
  <rdf:RDF xmlns:dc="http://purl.org/dc/elements/1.1/" xmlns:cc="http://creativecommons.org/ns#" xmlns:rdf="http://www.w3.org/1999/02/22-rdf-syntax-ns#">
   <cc:Work>
    <dc:type rdf:resource="http://purl.org/dc/dcmitype/StillImage"/>
    <dc:date>2025-01-29T17:59:46.510737</dc:date>
    <dc:format>image/svg+xml</dc:format>
    <dc:creator>
     <cc:Agent>
      <dc:title>Matplotlib v3.9.4, https://matplotlib.org/</dc:title>
     </cc:Agent>
    </dc:creator>
   </cc:Work>
  </rdf:RDF>
 </metadata>
 <defs>
  <style type="text/css">*{stroke-linejoin: round; stroke-linecap: butt}</style>
 </defs>
 <g id="figure_1">
  <g id="patch_1">
   <path d="M 0 288 
L 432 288 
L 432 0 
L 0 0 
z
" style="fill: #ffffff"/>
  </g>
  <g id="axes_1">
   <g id="patch_2">
    <path d="M 107.84 246.04 
L 339.12 246.04 
L 339.12 14.76 
L 107.84 14.76 
z
" style="fill: #ffffff"/>
   </g>
   <g id="PathCollection_1"/>
   <g id="PathCollection_2"/>
   <g id="PathCollection_3"/>
   <g id="PathCollection_4"/>
   <g id="PathCollection_5"/>
   <g id="PathCollection_6"/>
   <g id="PathCollection_7"/>
   <g id="PathCollection_8">
    <defs>
     <path id="mfd161769af" d="M 107.84 -54.132629 
L 107.84 -66.305264 
L 107.84 -78.477899 
L 107.84 -90.650528 
L 107.84 -102.823157 
L 107.84 -114.995792 
L 107.84 -127.168424 
L 107.84 -139.341056 
L 107.84 -151.513688 
L 107.84 -163.686312 
L 107.84 -175.33282 
L 108.111838 -175.858944 
L 111.602607 -188.031576 
L 111.503681 -200.204208 
L 108.386539 -212.376843 
L 107.84 -213.740728 
L 107.84 -224.549472 
L 107.84 -236.722101 
L 107.84 -248.894736 
L 107.84 -261.067371 
L 107.84 -267.089446 
L 114.709139 -273.24 
L 120.012629 -273.24 
L 132.185264 -273.24 
L 144.357899 -273.24 
L 156.530528 -273.24 
L 168.703157 -273.24 
L 180.875792 -273.24 
L 193.048424 -273.24 
L 205.221056 -273.24 
L 217.393688 -273.24 
L 229.566312 -273.24 
L 235.298115 -273.24 
L 241.738944 -272.265859 
L 253.911576 -271.318789 
L 266.084208 -271.736695 
L 275.45541 -273.24 
L 278.256843 -273.24 
L 290.429472 -273.24 
L 302.602101 -273.24 
L 314.774736 -273.24 
L 322.108435 -273.24 
L 326.947371 -270.252393 
L 334.557711 -261.067371 
L 339.12 -252.010861 
L 339.12 -248.894736 
L 339.12 -236.722101 
L 339.12 -224.549472 
L 339.12 -212.376843 
L 339.12 -200.204208 
L 339.12 -188.031576 
L 339.12 -175.858944 
L 339.12 -163.686312 
L 339.12 -151.513688 
L 339.12 -139.341056 
L 339.12 -135.298991 
L 337.315464 -127.168424 
L 334.785993 -114.995792 
L 332.49283 -102.823157 
L 330.287302 -90.650528 
L 327.758041 -78.477899 
L 326.947371 -75.837326 
L 323.095007 -66.305264 
L 316.073478 -54.132629 
L 314.774736 -52.648142 
L 302.602101 -42.126807 
L 302.327793 -41.96 
L 290.429472 -41.96 
L 278.256843 -41.96 
L 266.084208 -41.96 
L 253.911576 -41.96 
L 241.738944 -41.96 
L 229.566312 -41.96 
L 217.393688 -41.96 
L 210.900826 -41.96 
L 205.221056 -43.887109 
L 193.048424 -47.64133 
L 180.875792 -50.19343 
L 168.703157 -50.716919 
L 156.530528 -48.736675 
L 144.357899 -44.987134 
L 132.185264 -41.99638 
L 120.012629 -43.221503 
L 107.84 -51.285015 
z
" style="stroke: #5ec962"/>
    </defs>
    <g clip-path="url(#p331175234d)">
     <use xlink:href="#mfd161769af" x="0" y="288" style="fill: #5ec962; stroke: #5ec962"/>
    </g>
   </g>
   <g id="PathCollection_9">
    <defs>
     <path id="m4c016d54c0" d="M 120.012629 -43.221503 
L 132.185264 -41.99638 
L 144.357899 -44.987134 
L 156.530528 -48.736675 
L 168.703157 -50.716919 
L 180.875792 -50.19343 
L 193.048424 -47.64133 
L 205.221056 -43.887109 
L 210.900826 -41.96 
L 205.221056 -41.96 
L 193.048424 -41.96 
L 180.875792 -41.96 
L 168.703157 -41.96 
L 156.530528 -41.96 
L 144.357899 -41.96 
L 132.185264 -41.96 
L 120.012629 -41.96 
L 107.84 -41.96 
L 107.84 -51.285015 
z
M 107.84 -175.858944 
L 107.84 -188.031576 
L 107.84 -200.204208 
L 107.84 -212.376843 
L 107.84 -213.740728 
L 108.386539 -212.376843 
L 111.503681 -200.204208 
L 111.602607 -188.031576 
L 108.111838 -175.858944 
L 107.84 -175.33282 
z
M 107.84 -273.24 
L 114.709139 -273.24 
L 107.84 -267.089446 
z
M 235.298115 -273.24 
L 241.738944 -273.24 
L 253.911576 -273.24 
L 266.084208 -273.24 
L 275.45541 -273.24 
L 266.084208 -271.736695 
L 253.911576 -271.318789 
L 241.738944 -272.265859 
z
M 302.602101 -42.126807 
L 314.774736 -52.648142 
L 316.073478 -54.132629 
L 323.095007 -66.305264 
L 326.947371 -75.837326 
L 327.758041 -78.477899 
L 330.287302 -90.650528 
L 332.49283 -102.823157 
L 334.785993 -114.995792 
L 337.315464 -127.168424 
L 339.12 -135.298991 
L 339.12 -127.168424 
L 339.12 -114.995792 
L 339.12 -102.823157 
L 339.12 -90.650528 
L 339.12 -78.477899 
L 339.12 -66.305264 
L 339.12 -54.132629 
L 339.12 -47.027822 
L 335.506473 -41.96 
L 326.947371 -41.96 
L 314.774736 -41.96 
L 302.602101 -41.96 
L 302.327793 -41.96 
z
M 322.108435 -273.24 
L 326.947371 -273.24 
L 339.12 -273.24 
L 339.12 -261.067371 
L 339.12 -252.010861 
L 334.557711 -261.067371 
L 326.947371 -270.252393 
z
" style="stroke: #9bd93c"/>
    </defs>
    <g clip-path="url(#p331175234d)">
     <use xlink:href="#m4c016d54c0" x="0" y="288" style="fill: #9bd93c; stroke: #9bd93c"/>
    </g>
   </g>
   <g id="PathCollection_10">
    <defs>
     <path id="m7cb55d14b7" d="M 339.12 -47.027822 
L 339.12 -41.96 
L 335.506473 -41.96 
z
" style="stroke: #dfe318"/>
    </defs>
    <g clip-path="url(#p331175234d)">
     <use xlink:href="#m7cb55d14b7" x="0" y="288" style="fill: #dfe318; stroke: #dfe318"/>
    </g>
   </g>
   <g id="matplotlib.axis_1">
    <g id="xtick_1">
     <g id="line2d_1">
      <defs>
       <path id="mdfcf33c650" d="M 0 0 
L 0 3.5 
" style="stroke: #000000; stroke-width: 0.8"/>
      </defs>
      <g>
       <use xlink:href="#mdfcf33c650" x="107.84" y="246.04" style="stroke: #000000; stroke-width: 0.8"/>
      </g>
     </g>
     <g id="text_1">
      <!-- −5 -->
      <g transform="translate(100.468906 260.638438) scale(0.1 -0.1)">
       <defs>
        <path id="DejaVuSans-2212" d="M 678 2272 
L 4684 2272 
L 4684 1741 
L 678 1741 
L 678 2272 
z
" transform="scale(0.015625)"/>
        <path id="DejaVuSans-35" d="M 691 4666 
L 3169 4666 
L 3169 4134 
L 1269 4134 
L 1269 2991 
Q 1406 3038 1543 3061 
Q 1681 3084 1819 3084 
Q 2600 3084 3056 2656 
Q 3513 2228 3513 1497 
Q 3513 744 3044 326 
Q 2575 -91 1722 -91 
Q 1428 -91 1123 -41 
Q 819 9 494 109 
L 494 744 
Q 775 591 1075 516 
Q 1375 441 1709 441 
Q 2250 441 2565 725 
Q 2881 1009 2881 1497 
Q 2881 1984 2565 2268 
Q 2250 2553 1709 2553 
Q 1456 2553 1204 2497 
Q 953 2441 691 2322 
L 691 4666 
z
" transform="scale(0.015625)"/>
       </defs>
       <use xlink:href="#DejaVuSans-2212"/>
       <use xlink:href="#DejaVuSans-35" x="83.789062"/>
      </g>
     </g>
    </g>
    <g id="xtick_2">
     <g id="line2d_2">
      <g>
       <use xlink:href="#mdfcf33c650" x="223.48" y="246.04" style="stroke: #000000; stroke-width: 0.8"/>
      </g>
     </g>
     <g id="text_2">
      <!-- 0 -->
      <g transform="translate(220.29875 260.638438) scale(0.1 -0.1)">
       <defs>
        <path id="DejaVuSans-30" d="M 2034 4250 
Q 1547 4250 1301 3770 
Q 1056 3291 1056 2328 
Q 1056 1369 1301 889 
Q 1547 409 2034 409 
Q 2525 409 2770 889 
Q 3016 1369 3016 2328 
Q 3016 3291 2770 3770 
Q 2525 4250 2034 4250 
z
M 2034 4750 
Q 2819 4750 3233 4129 
Q 3647 3509 3647 2328 
Q 3647 1150 3233 529 
Q 2819 -91 2034 -91 
Q 1250 -91 836 529 
Q 422 1150 422 2328 
Q 422 3509 836 4129 
Q 1250 4750 2034 4750 
z
" transform="scale(0.015625)"/>
       </defs>
       <use xlink:href="#DejaVuSans-30"/>
      </g>
     </g>
    </g>
    <g id="xtick_3">
     <g id="line2d_3">
      <g>
       <use xlink:href="#mdfcf33c650" x="339.12" y="246.04" style="stroke: #000000; stroke-width: 0.8"/>
      </g>
     </g>
     <g id="text_3">
      <!-- 5 -->
      <g transform="translate(335.93875 260.638438) scale(0.1 -0.1)">
       <use xlink:href="#DejaVuSans-35"/>
      </g>
     </g>
    </g>
    <g id="text_4">
     <!-- $x$ -->
     <g transform="translate(220.48 274.316563) scale(0.1 -0.1)">
      <defs>
       <path id="DejaVuSans-Oblique-78" d="M 3841 3500 
L 2234 1784 
L 3219 0 
L 2559 0 
L 1819 1388 
L 531 0 
L -166 0 
L 1556 1844 
L 641 3500 
L 1300 3500 
L 1972 2234 
L 3144 3500 
L 3841 3500 
z
" transform="scale(0.015625)"/>
      </defs>
      <use xlink:href="#DejaVuSans-Oblique-78" transform="translate(0 0.3125)"/>
     </g>
    </g>
   </g>
   <g id="matplotlib.axis_2">
    <g id="ytick_1">
     <g id="line2d_4">
      <defs>
       <path id="mdd6395a523" d="M 0 0 
L -3.5 0 
" style="stroke: #000000; stroke-width: 0.8"/>
      </defs>
      <g>
       <use xlink:href="#mdd6395a523" x="107.84" y="246.04" style="stroke: #000000; stroke-width: 0.8"/>
      </g>
     </g>
     <g id="text_5">
      <!-- −5 -->
      <g transform="translate(86.097812 249.839219) scale(0.1 -0.1)">
       <use xlink:href="#DejaVuSans-2212"/>
       <use xlink:href="#DejaVuSans-35" x="83.789062"/>
      </g>
     </g>
    </g>
    <g id="ytick_2">
     <g id="line2d_5">
      <g>
       <use xlink:href="#mdd6395a523" x="107.84" y="130.4" style="stroke: #000000; stroke-width: 0.8"/>
      </g>
     </g>
     <g id="text_6">
      <!-- 0 -->
      <g transform="translate(94.4775 134.199219) scale(0.1 -0.1)">
       <use xlink:href="#DejaVuSans-30"/>
      </g>
     </g>
    </g>
    <g id="ytick_3">
     <g id="line2d_6">
      <g>
       <use xlink:href="#mdd6395a523" x="107.84" y="14.76" style="stroke: #000000; stroke-width: 0.8"/>
      </g>
     </g>
     <g id="text_7">
      <!-- 5 -->
      <g transform="translate(94.4775 18.559219) scale(0.1 -0.1)">
       <use xlink:href="#DejaVuSans-35"/>
      </g>
     </g>
    </g>
    <g id="text_8">
     <!-- $y$ -->
     <g transform="translate(79.997812 133.4) rotate(-90) scale(0.1 -0.1)">
      <defs>
       <path id="DejaVuSans-Oblique-79" d="M 1588 -325 
Q 1188 -997 936 -1164 
Q 684 -1331 294 -1331 
L -159 -1331 
L -63 -850 
L 269 -850 
Q 509 -850 678 -719 
Q 847 -588 1056 -206 
L 1234 128 
L 459 3500 
L 1069 3500 
L 1650 819 
L 3256 3500 
L 3859 3500 
L 1588 -325 
z
" transform="scale(0.015625)"/>
      </defs>
      <use xlink:href="#DejaVuSans-Oblique-79" transform="translate(0 0.3125)"/>
     </g>
    </g>
   </g>
   <g id="line2d_7">
    <defs>
     <path id="m1257447df8" d="M 0 3 
C 0.795609 3 1.55874 2.683901 2.12132 2.12132 
C 2.683901 1.55874 3 0.795609 3 0 
C 3 -0.795609 2.683901 -1.55874 2.12132 -2.12132 
C 1.55874 -2.683901 0.795609 -3 0 -3 
C -0.795609 -3 -1.55874 -2.683901 -2.12132 -2.12132 
C -2.683901 -1.55874 -3 -0.795609 -3 0 
C -3 0.795609 -2.683901 1.55874 -2.12132 2.12132 
C -1.55874 2.683901 -0.795609 3 0 3 
z
" style="stroke: #ff7f0e"/>
    </defs>
    <g clip-path="url(#p331175234d)">
     <use xlink:href="#m1257447df8" x="107.84" y="39.105264" style="fill: #ff7f0e; stroke: #ff7f0e"/>
     <use xlink:href="#m1257447df8" x="229.566312" y="148.658944" style="fill: #ff7f0e; stroke: #ff7f0e"/>
     <use xlink:href="#m1257447df8" x="278.256843" y="185.176843" style="fill: #ff7f0e; stroke: #ff7f0e"/>
     <use xlink:href="#m1257447df8" x="156.530528" y="39.105264" style="fill: #ff7f0e; stroke: #ff7f0e"/>
     <use xlink:href="#m1257447df8" x="132.185264" y="39.105264" style="fill: #ff7f0e; stroke: #ff7f0e"/>
     <use xlink:href="#m1257447df8" x="339.12" y="26.932629" style="fill: #ff7f0e; stroke: #ff7f0e"/>
     <use xlink:href="#m1257447df8" x="180.875792" y="26.932629" style="fill: #ff7f0e; stroke: #ff7f0e"/>
     <use xlink:href="#m1257447df8" x="253.911576" y="112.141056" style="fill: #ff7f0e; stroke: #ff7f0e"/>
     <use xlink:href="#m1257447df8" x="120.012629" y="112.141056" style="fill: #ff7f0e; stroke: #ff7f0e"/>
     <use xlink:href="#m1257447df8" x="168.703157" y="173.004208" style="fill: #ff7f0e; stroke: #ff7f0e"/>
     <use xlink:href="#m1257447df8" x="241.738944" y="26.932629" style="fill: #ff7f0e; stroke: #ff7f0e"/>
     <use xlink:href="#m1257447df8" x="107.84" y="221.694736" style="fill: #ff7f0e; stroke: #ff7f0e"/>
     <use xlink:href="#m1257447df8" x="144.357899" y="99.968424" style="fill: #ff7f0e; stroke: #ff7f0e"/>
     <use xlink:href="#m1257447df8" x="278.256843" y="75.623157" style="fill: #ff7f0e; stroke: #ff7f0e"/>
     <use xlink:href="#m1257447df8" x="229.566312" y="51.277899" style="fill: #ff7f0e; stroke: #ff7f0e"/>
     <use xlink:href="#m1257447df8" x="120.012629" y="173.004208" style="fill: #ff7f0e; stroke: #ff7f0e"/>
     <use xlink:href="#m1257447df8" x="290.429472" y="75.623157" style="fill: #ff7f0e; stroke: #ff7f0e"/>
     <use xlink:href="#m1257447df8" x="217.393688" y="87.795792" style="fill: #ff7f0e; stroke: #ff7f0e"/>
     <use xlink:href="#m1257447df8" x="217.393688" y="160.831576" style="fill: #ff7f0e; stroke: #ff7f0e"/>
     <use xlink:href="#m1257447df8" x="241.738944" y="112.141056" style="fill: #ff7f0e; stroke: #ff7f0e"/>
     <use xlink:href="#m1257447df8" x="326.947371" y="136.486312" style="fill: #ff7f0e; stroke: #ff7f0e"/>
     <use xlink:href="#m1257447df8" x="314.774736" y="14.76" style="fill: #ff7f0e; stroke: #ff7f0e"/>
     <use xlink:href="#m1257447df8" x="339.12" y="160.831576" style="fill: #ff7f0e; stroke: #ff7f0e"/>
     <use xlink:href="#m1257447df8" x="253.911576" y="75.623157" style="fill: #ff7f0e; stroke: #ff7f0e"/>
     <use xlink:href="#m1257447df8" x="132.185264" y="246.04" style="fill: #ff7f0e; stroke: #ff7f0e"/>
     <use xlink:href="#m1257447df8" x="241.738944" y="246.04" style="fill: #ff7f0e; stroke: #ff7f0e"/>
     <use xlink:href="#m1257447df8" x="217.393688" y="75.623157" style="fill: #ff7f0e; stroke: #ff7f0e"/>
     <use xlink:href="#m1257447df8" x="290.429472" y="112.141056" style="fill: #ff7f0e; stroke: #ff7f0e"/>
     <use xlink:href="#m1257447df8" x="120.012629" y="26.932629" style="fill: #ff7f0e; stroke: #ff7f0e"/>
     <use xlink:href="#m1257447df8" x="229.566312" y="136.486312" style="fill: #ff7f0e; stroke: #ff7f0e"/>
     <use xlink:href="#m1257447df8" x="107.84" y="148.658944" style="fill: #ff7f0e; stroke: #ff7f0e"/>
     <use xlink:href="#m1257447df8" x="144.357899" y="160.831576" style="fill: #ff7f0e; stroke: #ff7f0e"/>
     <use xlink:href="#m1257447df8" x="205.221056" y="112.141056" style="fill: #ff7f0e; stroke: #ff7f0e"/>
     <use xlink:href="#m1257447df8" x="241.738944" y="209.522101" style="fill: #ff7f0e; stroke: #ff7f0e"/>
     <use xlink:href="#m1257447df8" x="278.256843" y="246.04" style="fill: #ff7f0e; stroke: #ff7f0e"/>
     <use xlink:href="#m1257447df8" x="253.911576" y="148.658944" style="fill: #ff7f0e; stroke: #ff7f0e"/>
     <use xlink:href="#m1257447df8" x="205.221056" y="63.450528" style="fill: #ff7f0e; stroke: #ff7f0e"/>
     <use xlink:href="#m1257447df8" x="205.221056" y="173.004208" style="fill: #ff7f0e; stroke: #ff7f0e"/>
     <use xlink:href="#m1257447df8" x="193.048424" y="14.76" style="fill: #ff7f0e; stroke: #ff7f0e"/>
     <use xlink:href="#m1257447df8" x="120.012629" y="14.76" style="fill: #ff7f0e; stroke: #ff7f0e"/>
     <use xlink:href="#m1257447df8" x="290.429472" y="160.831576" style="fill: #ff7f0e; stroke: #ff7f0e"/>
     <use xlink:href="#m1257447df8" x="217.393688" y="197.349472" style="fill: #ff7f0e; stroke: #ff7f0e"/>
     <use xlink:href="#m1257447df8" x="120.012629" y="185.176843" style="fill: #ff7f0e; stroke: #ff7f0e"/>
     <use xlink:href="#m1257447df8" x="290.429472" y="209.522101" style="fill: #ff7f0e; stroke: #ff7f0e"/>
     <use xlink:href="#m1257447df8" x="339.12" y="75.623157" style="fill: #ff7f0e; stroke: #ff7f0e"/>
     <use xlink:href="#m1257447df8" x="180.875792" y="39.105264" style="fill: #ff7f0e; stroke: #ff7f0e"/>
     <use xlink:href="#m1257447df8" x="107.84" y="233.867371" style="fill: #ff7f0e; stroke: #ff7f0e"/>
     <use xlink:href="#m1257447df8" x="217.393688" y="209.522101" style="fill: #ff7f0e; stroke: #ff7f0e"/>
     <use xlink:href="#m1257447df8" x="302.602101" y="39.105264" style="fill: #ff7f0e; stroke: #ff7f0e"/>
     <use xlink:href="#m1257447df8" x="290.429472" y="99.968424" style="fill: #ff7f0e; stroke: #ff7f0e"/>
     <use xlink:href="#m1257447df8" x="205.221056" y="136.486312" style="fill: #ff7f0e; stroke: #ff7f0e"/>
     <use xlink:href="#m1257447df8" x="180.875792" y="148.658944" style="fill: #ff7f0e; stroke: #ff7f0e"/>
     <use xlink:href="#m1257447df8" x="229.566312" y="160.831576" style="fill: #ff7f0e; stroke: #ff7f0e"/>
     <use xlink:href="#m1257447df8" x="193.048424" y="197.349472" style="fill: #ff7f0e; stroke: #ff7f0e"/>
     <use xlink:href="#m1257447df8" x="120.012629" y="160.831576" style="fill: #ff7f0e; stroke: #ff7f0e"/>
     <use xlink:href="#m1257447df8" x="229.566312" y="39.105264" style="fill: #ff7f0e; stroke: #ff7f0e"/>
     <use xlink:href="#m1257447df8" x="326.947371" y="197.349472" style="fill: #ff7f0e; stroke: #ff7f0e"/>
     <use xlink:href="#m1257447df8" x="205.221056" y="246.04" style="fill: #ff7f0e; stroke: #ff7f0e"/>
     <use xlink:href="#m1257447df8" x="290.429472" y="136.486312" style="fill: #ff7f0e; stroke: #ff7f0e"/>
     <use xlink:href="#m1257447df8" x="229.566312" y="173.004208" style="fill: #ff7f0e; stroke: #ff7f0e"/>
     <use xlink:href="#m1257447df8" x="132.185264" y="233.867371" style="fill: #ff7f0e; stroke: #ff7f0e"/>
     <use xlink:href="#m1257447df8" x="193.048424" y="99.968424" style="fill: #ff7f0e; stroke: #ff7f0e"/>
     <use xlink:href="#m1257447df8" x="326.947371" y="233.867371" style="fill: #ff7f0e; stroke: #ff7f0e"/>
     <use xlink:href="#m1257447df8" x="180.875792" y="51.277899" style="fill: #ff7f0e; stroke: #ff7f0e"/>
     <use xlink:href="#m1257447df8" x="314.774736" y="63.450528" style="fill: #ff7f0e; stroke: #ff7f0e"/>
     <use xlink:href="#m1257447df8" x="144.357899" y="51.277899" style="fill: #ff7f0e; stroke: #ff7f0e"/>
     <use xlink:href="#m1257447df8" x="120.012629" y="51.277899" style="fill: #ff7f0e; stroke: #ff7f0e"/>
     <use xlink:href="#m1257447df8" x="302.602101" y="14.76" style="fill: #ff7f0e; stroke: #ff7f0e"/>
     <use xlink:href="#m1257447df8" x="144.357899" y="63.450528" style="fill: #ff7f0e; stroke: #ff7f0e"/>
     <use xlink:href="#m1257447df8" x="290.429472" y="246.04" style="fill: #ff7f0e; stroke: #ff7f0e"/>
     <use xlink:href="#m1257447df8" x="132.185264" y="148.658944" style="fill: #ff7f0e; stroke: #ff7f0e"/>
     <use xlink:href="#m1257447df8" x="107.84" y="160.831576" style="fill: #ff7f0e; stroke: #ff7f0e"/>
     <use xlink:href="#m1257447df8" x="253.911576" y="51.277899" style="fill: #ff7f0e; stroke: #ff7f0e"/>
     <use xlink:href="#m1257447df8" x="253.911576" y="221.694736" style="fill: #ff7f0e; stroke: #ff7f0e"/>
     <use xlink:href="#m1257447df8" x="314.774736" y="99.968424" style="fill: #ff7f0e; stroke: #ff7f0e"/>
     <use xlink:href="#m1257447df8" x="205.221056" y="197.349472" style="fill: #ff7f0e; stroke: #ff7f0e"/>
     <use xlink:href="#m1257447df8" x="217.393688" y="112.141056" style="fill: #ff7f0e; stroke: #ff7f0e"/>
     <use xlink:href="#m1257447df8" x="168.703157" y="185.176843" style="fill: #ff7f0e; stroke: #ff7f0e"/>
     <use xlink:href="#m1257447df8" x="339.12" y="99.968424" style="fill: #ff7f0e; stroke: #ff7f0e"/>
     <use xlink:href="#m1257447df8" x="241.738944" y="173.004208" style="fill: #ff7f0e; stroke: #ff7f0e"/>
    </g>
   </g>
   <g id="patch_3">
    <path d="M 107.84 246.04 
L 107.84 14.76 
" style="fill: none; stroke: #000000; stroke-width: 0.8; stroke-linejoin: miter; stroke-linecap: square"/>
   </g>
   <g id="patch_4">
    <path d="M 339.12 246.04 
L 339.12 14.76 
" style="fill: none; stroke: #000000; stroke-width: 0.8; stroke-linejoin: miter; stroke-linecap: square"/>
   </g>
   <g id="patch_5">
    <path d="M 107.84 246.04 
L 339.12 246.04 
" style="fill: none; stroke: #000000; stroke-width: 0.8; stroke-linejoin: miter; stroke-linecap: square"/>
   </g>
   <g id="patch_6">
    <path d="M 107.84 14.76 
L 339.12 14.76 
" style="fill: none; stroke: #000000; stroke-width: 0.8; stroke-linejoin: miter; stroke-linecap: square"/>
   </g>
  </g>
  <g id="axes_2">
   <g id="patch_7">
    <path d="M 359.64 246.04 
L 371.204 246.04 
L 371.204 14.76 
L 359.64 14.76 
z
" style="fill: #ffffff"/>
   </g>
   <g id="QuadMesh_1">
    <path d="M 359.64 246.04 
L 371.204 246.04 
L 371.204 222.912 
L 359.64 222.912 
L 359.64 246.04 
" clip-path="url(#p93f06498a0)" style="fill: #471365"/>
    <path d="M 359.64 222.912 
L 371.204 222.912 
L 371.204 199.784 
L 359.64 199.784 
L 359.64 222.912 
" clip-path="url(#p93f06498a0)" style="fill: #463480"/>
    <path d="M 359.64 199.784 
L 371.204 199.784 
L 371.204 176.656 
L 359.64 176.656 
L 359.64 199.784 
" clip-path="url(#p93f06498a0)" style="fill: #3b528b"/>
    <path d="M 359.64 176.656 
L 371.204 176.656 
L 371.204 153.528 
L 359.64 153.528 
L 359.64 176.656 
" clip-path="url(#p93f06498a0)" style="fill: #2f6c8e"/>
    <path d="M 359.64 153.528 
L 371.204 153.528 
L 371.204 130.4 
L 359.64 130.4 
L 359.64 153.528 
" clip-path="url(#p93f06498a0)" style="fill: #25848e"/>
    <path d="M 359.64 130.4 
L 371.204 130.4 
L 371.204 107.272 
L 359.64 107.272 
L 359.64 130.4 
" clip-path="url(#p93f06498a0)" style="fill: #1e9c89"/>
    <path d="M 359.64 107.272 
L 371.204 107.272 
L 371.204 84.144 
L 359.64 84.144 
L 359.64 107.272 
" clip-path="url(#p93f06498a0)" style="fill: #2fb47c"/>
    <path d="M 359.64 84.144 
L 371.204 84.144 
L 371.204 61.016 
L 359.64 61.016 
L 359.64 84.144 
" clip-path="url(#p93f06498a0)" style="fill: #5ec962"/>
    <path d="M 359.64 61.016 
L 371.204 61.016 
L 371.204 37.888 
L 359.64 37.888 
L 359.64 61.016 
" clip-path="url(#p93f06498a0)" style="fill: #9bd93c"/>
    <path d="M 359.64 37.888 
L 371.204 37.888 
L 371.204 14.76 
L 359.64 14.76 
L 359.64 37.888 
" clip-path="url(#p93f06498a0)" style="fill: #dfe318"/>
   </g>
   <g id="matplotlib.axis_3"/>
   <g id="matplotlib.axis_4">
    <g id="ytick_4">
     <g id="line2d_8">
      <defs>
       <path id="mbfcb892781" d="M 0 0 
L 3.5 0 
" style="stroke: #000000; stroke-width: 0.8"/>
      </defs>
      <g>
       <use xlink:href="#mbfcb892781" x="371.204" y="246.04" style="stroke: #000000; stroke-width: 0.8"/>
      </g>
     </g>
     <g id="text_9">
      <!-- 0 -->
      <g transform="translate(378.204 249.839219) scale(0.1 -0.1)">
       <use xlink:href="#DejaVuSans-30"/>
      </g>
     </g>
    </g>
    <g id="ytick_5">
     <g id="line2d_9">
      <g>
       <use xlink:href="#mbfcb892781" x="371.204" y="199.784" style="stroke: #000000; stroke-width: 0.8"/>
      </g>
     </g>
     <g id="text_10">
      <!-- 1 -->
      <g transform="translate(378.204 203.583219) scale(0.1 -0.1)">
       <defs>
        <path id="DejaVuSans-31" d="M 794 531 
L 1825 531 
L 1825 4091 
L 703 3866 
L 703 4441 
L 1819 4666 
L 2450 4666 
L 2450 531 
L 3481 531 
L 3481 0 
L 794 0 
L 794 531 
z
" transform="scale(0.015625)"/>
       </defs>
       <use xlink:href="#DejaVuSans-31"/>
      </g>
     </g>
    </g>
    <g id="ytick_6">
     <g id="line2d_10">
      <g>
       <use xlink:href="#mbfcb892781" x="371.204" y="153.528" style="stroke: #000000; stroke-width: 0.8"/>
      </g>
     </g>
     <g id="text_11">
      <!-- 2 -->
      <g transform="translate(378.204 157.327219) scale(0.1 -0.1)">
       <defs>
        <path id="DejaVuSans-32" d="M 1228 531 
L 3431 531 
L 3431 0 
L 469 0 
L 469 531 
Q 828 903 1448 1529 
Q 2069 2156 2228 2338 
Q 2531 2678 2651 2914 
Q 2772 3150 2772 3378 
Q 2772 3750 2511 3984 
Q 2250 4219 1831 4219 
Q 1534 4219 1204 4116 
Q 875 4013 500 3803 
L 500 4441 
Q 881 4594 1212 4672 
Q 1544 4750 1819 4750 
Q 2544 4750 2975 4387 
Q 3406 4025 3406 3419 
Q 3406 3131 3298 2873 
Q 3191 2616 2906 2266 
Q 2828 2175 2409 1742 
Q 1991 1309 1228 531 
z
" transform="scale(0.015625)"/>
       </defs>
       <use xlink:href="#DejaVuSans-32"/>
      </g>
     </g>
    </g>
    <g id="ytick_7">
     <g id="line2d_11">
      <g>
       <use xlink:href="#mbfcb892781" x="371.204" y="107.272" style="stroke: #000000; stroke-width: 0.8"/>
      </g>
     </g>
     <g id="text_12">
      <!-- 3 -->
      <g transform="translate(378.204 111.071219) scale(0.1 -0.1)">
       <defs>
        <path id="DejaVuSans-33" d="M 2597 2516 
Q 3050 2419 3304 2112 
Q 3559 1806 3559 1356 
Q 3559 666 3084 287 
Q 2609 -91 1734 -91 
Q 1441 -91 1130 -33 
Q 819 25 488 141 
L 488 750 
Q 750 597 1062 519 
Q 1375 441 1716 441 
Q 2309 441 2620 675 
Q 2931 909 2931 1356 
Q 2931 1769 2642 2001 
Q 2353 2234 1838 2234 
L 1294 2234 
L 1294 2753 
L 1863 2753 
Q 2328 2753 2575 2939 
Q 2822 3125 2822 3475 
Q 2822 3834 2567 4026 
Q 2313 4219 1838 4219 
Q 1578 4219 1281 4162 
Q 984 4106 628 3988 
L 628 4550 
Q 988 4650 1302 4700 
Q 1616 4750 1894 4750 
Q 2613 4750 3031 4423 
Q 3450 4097 3450 3541 
Q 3450 3153 3228 2886 
Q 3006 2619 2597 2516 
z
" transform="scale(0.015625)"/>
       </defs>
       <use xlink:href="#DejaVuSans-33"/>
      </g>
     </g>
    </g>
    <g id="ytick_8">
     <g id="line2d_12">
      <g>
       <use xlink:href="#mbfcb892781" x="371.204" y="61.016" style="stroke: #000000; stroke-width: 0.8"/>
      </g>
     </g>
     <g id="text_13">
      <!-- 4 -->
      <g transform="translate(378.204 64.815219) scale(0.1 -0.1)">
       <defs>
        <path id="DejaVuSans-34" d="M 2419 4116 
L 825 1625 
L 2419 1625 
L 2419 4116 
z
M 2253 4666 
L 3047 4666 
L 3047 1625 
L 3713 1625 
L 3713 1100 
L 3047 1100 
L 3047 0 
L 2419 0 
L 2419 1100 
L 313 1100 
L 313 1709 
L 2253 4666 
z
" transform="scale(0.015625)"/>
       </defs>
       <use xlink:href="#DejaVuSans-34"/>
      </g>
     </g>
    </g>
    <g id="ytick_9">
     <g id="line2d_13">
      <g>
       <use xlink:href="#mbfcb892781" x="371.204" y="14.76" style="stroke: #000000; stroke-width: 0.8"/>
      </g>
     </g>
     <g id="text_14">
      <!-- 5 -->
      <g transform="translate(378.204 18.559219) scale(0.1 -0.1)">
       <use xlink:href="#DejaVuSans-35"/>
      </g>
     </g>
    </g>
    <g id="text_15">
     <!-- Posterior standard deviation -->
     <g transform="translate(396.164938 201.090625) rotate(-90) scale(0.1 -0.1)">
      <defs>
       <path id="DejaVuSans-50" d="M 1259 4147 
L 1259 2394 
L 2053 2394 
Q 2494 2394 2734 2622 
Q 2975 2850 2975 3272 
Q 2975 3691 2734 3919 
Q 2494 4147 2053 4147 
L 1259 4147 
z
M 628 4666 
L 2053 4666 
Q 2838 4666 3239 4311 
Q 3641 3956 3641 3272 
Q 3641 2581 3239 2228 
Q 2838 1875 2053 1875 
L 1259 1875 
L 1259 0 
L 628 0 
L 628 4666 
z
" transform="scale(0.015625)"/>
       <path id="DejaVuSans-6f" d="M 1959 3097 
Q 1497 3097 1228 2736 
Q 959 2375 959 1747 
Q 959 1119 1226 758 
Q 1494 397 1959 397 
Q 2419 397 2687 759 
Q 2956 1122 2956 1747 
Q 2956 2369 2687 2733 
Q 2419 3097 1959 3097 
z
M 1959 3584 
Q 2709 3584 3137 3096 
Q 3566 2609 3566 1747 
Q 3566 888 3137 398 
Q 2709 -91 1959 -91 
Q 1206 -91 779 398 
Q 353 888 353 1747 
Q 353 2609 779 3096 
Q 1206 3584 1959 3584 
z
" transform="scale(0.015625)"/>
       <path id="DejaVuSans-73" d="M 2834 3397 
L 2834 2853 
Q 2591 2978 2328 3040 
Q 2066 3103 1784 3103 
Q 1356 3103 1142 2972 
Q 928 2841 928 2578 
Q 928 2378 1081 2264 
Q 1234 2150 1697 2047 
L 1894 2003 
Q 2506 1872 2764 1633 
Q 3022 1394 3022 966 
Q 3022 478 2636 193 
Q 2250 -91 1575 -91 
Q 1294 -91 989 -36 
Q 684 19 347 128 
L 347 722 
Q 666 556 975 473 
Q 1284 391 1588 391 
Q 1994 391 2212 530 
Q 2431 669 2431 922 
Q 2431 1156 2273 1281 
Q 2116 1406 1581 1522 
L 1381 1569 
Q 847 1681 609 1914 
Q 372 2147 372 2553 
Q 372 3047 722 3315 
Q 1072 3584 1716 3584 
Q 2034 3584 2315 3537 
Q 2597 3491 2834 3397 
z
" transform="scale(0.015625)"/>
       <path id="DejaVuSans-74" d="M 1172 4494 
L 1172 3500 
L 2356 3500 
L 2356 3053 
L 1172 3053 
L 1172 1153 
Q 1172 725 1289 603 
Q 1406 481 1766 481 
L 2356 481 
L 2356 0 
L 1766 0 
Q 1100 0 847 248 
Q 594 497 594 1153 
L 594 3053 
L 172 3053 
L 172 3500 
L 594 3500 
L 594 4494 
L 1172 4494 
z
" transform="scale(0.015625)"/>
       <path id="DejaVuSans-65" d="M 3597 1894 
L 3597 1613 
L 953 1613 
Q 991 1019 1311 708 
Q 1631 397 2203 397 
Q 2534 397 2845 478 
Q 3156 559 3463 722 
L 3463 178 
Q 3153 47 2828 -22 
Q 2503 -91 2169 -91 
Q 1331 -91 842 396 
Q 353 884 353 1716 
Q 353 2575 817 3079 
Q 1281 3584 2069 3584 
Q 2775 3584 3186 3129 
Q 3597 2675 3597 1894 
z
M 3022 2063 
Q 3016 2534 2758 2815 
Q 2500 3097 2075 3097 
Q 1594 3097 1305 2825 
Q 1016 2553 972 2059 
L 3022 2063 
z
" transform="scale(0.015625)"/>
       <path id="DejaVuSans-72" d="M 2631 2963 
Q 2534 3019 2420 3045 
Q 2306 3072 2169 3072 
Q 1681 3072 1420 2755 
Q 1159 2438 1159 1844 
L 1159 0 
L 581 0 
L 581 3500 
L 1159 3500 
L 1159 2956 
Q 1341 3275 1631 3429 
Q 1922 3584 2338 3584 
Q 2397 3584 2469 3576 
Q 2541 3569 2628 3553 
L 2631 2963 
z
" transform="scale(0.015625)"/>
       <path id="DejaVuSans-69" d="M 603 3500 
L 1178 3500 
L 1178 0 
L 603 0 
L 603 3500 
z
M 603 4863 
L 1178 4863 
L 1178 4134 
L 603 4134 
L 603 4863 
z
" transform="scale(0.015625)"/>
       <path id="DejaVuSans-20" transform="scale(0.015625)"/>
       <path id="DejaVuSans-61" d="M 2194 1759 
Q 1497 1759 1228 1600 
Q 959 1441 959 1056 
Q 959 750 1161 570 
Q 1363 391 1709 391 
Q 2188 391 2477 730 
Q 2766 1069 2766 1631 
L 2766 1759 
L 2194 1759 
z
M 3341 1997 
L 3341 0 
L 2766 0 
L 2766 531 
Q 2569 213 2275 61 
Q 1981 -91 1556 -91 
Q 1019 -91 701 211 
Q 384 513 384 1019 
Q 384 1609 779 1909 
Q 1175 2209 1959 2209 
L 2766 2209 
L 2766 2266 
Q 2766 2663 2505 2880 
Q 2244 3097 1772 3097 
Q 1472 3097 1187 3025 
Q 903 2953 641 2809 
L 641 3341 
Q 956 3463 1253 3523 
Q 1550 3584 1831 3584 
Q 2591 3584 2966 3190 
Q 3341 2797 3341 1997 
z
" transform="scale(0.015625)"/>
       <path id="DejaVuSans-6e" d="M 3513 2113 
L 3513 0 
L 2938 0 
L 2938 2094 
Q 2938 2591 2744 2837 
Q 2550 3084 2163 3084 
Q 1697 3084 1428 2787 
Q 1159 2491 1159 1978 
L 1159 0 
L 581 0 
L 581 3500 
L 1159 3500 
L 1159 2956 
Q 1366 3272 1645 3428 
Q 1925 3584 2291 3584 
Q 2894 3584 3203 3211 
Q 3513 2838 3513 2113 
z
" transform="scale(0.015625)"/>
       <path id="DejaVuSans-64" d="M 2906 2969 
L 2906 4863 
L 3481 4863 
L 3481 0 
L 2906 0 
L 2906 525 
Q 2725 213 2448 61 
Q 2172 -91 1784 -91 
Q 1150 -91 751 415 
Q 353 922 353 1747 
Q 353 2572 751 3078 
Q 1150 3584 1784 3584 
Q 2172 3584 2448 3432 
Q 2725 3281 2906 2969 
z
M 947 1747 
Q 947 1113 1208 752 
Q 1469 391 1925 391 
Q 2381 391 2643 752 
Q 2906 1113 2906 1747 
Q 2906 2381 2643 2742 
Q 2381 3103 1925 3103 
Q 1469 3103 1208 2742 
Q 947 2381 947 1747 
z
" transform="scale(0.015625)"/>
       <path id="DejaVuSans-76" d="M 191 3500 
L 800 3500 
L 1894 563 
L 2988 3500 
L 3597 3500 
L 2284 0 
L 1503 0 
L 191 3500 
z
" transform="scale(0.015625)"/>
      </defs>
      <use xlink:href="#DejaVuSans-50"/>
      <use xlink:href="#DejaVuSans-6f" x="56.677734"/>
      <use xlink:href="#DejaVuSans-73" x="117.859375"/>
      <use xlink:href="#DejaVuSans-74" x="169.958984"/>
      <use xlink:href="#DejaVuSans-65" x="209.167969"/>
      <use xlink:href="#DejaVuSans-72" x="270.691406"/>
      <use xlink:href="#DejaVuSans-69" x="311.804688"/>
      <use xlink:href="#DejaVuSans-6f" x="339.587891"/>
      <use xlink:href="#DejaVuSans-72" x="400.769531"/>
      <use xlink:href="#DejaVuSans-20" x="441.882812"/>
      <use xlink:href="#DejaVuSans-73" x="473.669922"/>
      <use xlink:href="#DejaVuSans-74" x="525.769531"/>
      <use xlink:href="#DejaVuSans-61" x="564.978516"/>
      <use xlink:href="#DejaVuSans-6e" x="626.257812"/>
      <use xlink:href="#DejaVuSans-64" x="689.636719"/>
      <use xlink:href="#DejaVuSans-61" x="753.113281"/>
      <use xlink:href="#DejaVuSans-72" x="814.392578"/>
      <use xlink:href="#DejaVuSans-64" x="853.755859"/>
      <use xlink:href="#DejaVuSans-20" x="917.232422"/>
      <use xlink:href="#DejaVuSans-64" x="949.019531"/>
      <use xlink:href="#DejaVuSans-65" x="1012.496094"/>
      <use xlink:href="#DejaVuSans-76" x="1074.019531"/>
      <use xlink:href="#DejaVuSans-69" x="1133.199219"/>
      <use xlink:href="#DejaVuSans-61" x="1160.982422"/>
      <use xlink:href="#DejaVuSans-74" x="1222.261719"/>
      <use xlink:href="#DejaVuSans-69" x="1261.470703"/>
      <use xlink:href="#DejaVuSans-6f" x="1289.253906"/>
      <use xlink:href="#DejaVuSans-6e" x="1350.435547"/>
     </g>
    </g>
   </g>
   <g id="LineCollection_1"/>
   <g id="patch_8">
    <path d="M 359.64 246.04 
L 365.422 246.04 
L 371.204 246.04 
L 371.204 14.76 
L 365.422 14.76 
L 359.64 14.76 
L 359.64 246.04 
z
" style="fill: none; stroke: #000000; stroke-width: 0.8; stroke-linejoin: miter; stroke-linecap: square"/>
   </g>
  </g>
 </g>
 <defs>
  <clipPath id="p331175234d">
   <rect x="107.84" y="14.76" width="231.28" height="231.28"/>
  </clipPath>
  <clipPath id="p93f06498a0">
   <rect x="359.64" y="14.76" width="11.564" height="231.28"/>
  </clipPath>
 </defs>
</svg>
