<?xml version="1.0" encoding="utf-8" standalone="no"?>
<!DOCTYPE svg PUBLIC "-//W3C//DTD SVG 1.1//EN"
  "http://www.w3.org/Graphics/SVG/1.1/DTD/svg11.dtd">
<svg xmlns:xlink="http://www.w3.org/1999/xlink" width="432pt" height="288pt" viewBox="0 0 432 288" xmlns="http://www.w3.org/2000/svg" version="1.1">
 <metadata>
  <rdf:RDF xmlns:dc="http://purl.org/dc/elements/1.1/" xmlns:cc="http://creativecommons.org/ns#" xmlns:rdf="http://www.w3.org/1999/02/22-rdf-syntax-ns#">
   <cc:Work>
    <dc:type rdf:resource="http://purl.org/dc/dcmitype/StillImage"/>
    <dc:date>2025-01-31T13:09:24.436742</dc:date>
    <dc:format>image/svg+xml</dc:format>
    <dc:creator>
     <cc:Agent>
      <dc:title>Matplotlib v3.9.4, https://matplotlib.org/</dc:title>
     </cc:Agent>
    </dc:creator>
   </cc:Work>
  </rdf:RDF>
 </metadata>
 <defs>
  <style type="text/css">*{stroke-linejoin: round; stroke-linecap: butt}</style>
 </defs>
 <g id="figure_1">
  <g id="patch_1">
   <path d="M 0 288 
L 432 288 
L 432 0 
L 0 0 
z
" style="fill: #ffffff"/>
  </g>
  <g id="axes_1">
   <g id="patch_2">
    <path d="M 94.2736 246.04 
L 325.5536 246.04 
L 325.5536 14.76 
L 94.2736 14.76 
z
" style="fill: #ffffff"/>
   </g>
   <g id="PathCollection_1">
    <defs>
     <path id="ma86b61ca73" d="M 115.770209 -67.657779 
L 94.2736 -91.27498 
L 94.2736 -93.355558 
L 94.2736 -119.053337 
L 94.2736 -144.751116 
L 94.2736 -170.448884 
L 94.2736 -196.146663 
L 94.2736 -221.844442 
L 94.2736 -223.9049 
L 115.807764 -247.542221 
L 95.283067 -273.24 
L 119.971379 -273.24 
L 123.446303 -273.24 
L 145.669158 -256.136915 
L 167.559771 -273.24 
L 171.366937 -273.24 
L 197.064716 -273.24 
L 222.762484 -273.24 
L 248.460263 -273.24 
L 274.158042 -273.24 
L 277.616483 -273.24 
L 299.855821 -255.466331 
L 325.5536 -266.501182 
L 325.5536 -247.542221 
L 325.5536 -221.844442 
L 325.5536 -196.146663 
L 325.5536 -170.448884 
L 325.5536 -144.751116 
L 325.5536 -119.053337 
L 325.5536 -93.355558 
L 325.5536 -67.657779 
L 325.5536 -41.96 
L 299.855821 -41.96 
L 296.323281 -41.96 
L 274.158042 -58.972718 
L 252.230159 -41.96 
L 248.460263 -41.96 
L 222.762484 -41.96 
L 197.064716 -41.96 
L 171.366937 -41.96 
L 145.669158 -41.96 
L 119.971379 -41.96 
L 94.2736 -41.96 
L 94.2736 -42.02633 
z
M 222.762484 -74.535744 
L 248.460263 -74.557116 
L 268.553655 -93.355558 
L 248.460263 -112.052158 
L 222.762484 -112.011343 
L 202.752678 -93.355558 
z
M 222.762484 -234.024694 
L 238.593157 -247.542221 
L 222.762484 -262.623564 
L 206.954114 -247.542221 
z
M 248.460263 -157.631346 
L 263.223121 -170.448884 
L 248.460263 -183.226609 
L 233.78896 -170.448884 
z
M 274.158042 -208.787821 
L 289.561975 -221.844442 
L 274.158042 -235.117964 
L 259.076859 -221.844442 
z
" style="stroke: #472d7b"/>
    </defs>
    <g clip-path="url(#pce0ad11029)">
     <use xlink:href="#ma86b61ca73" x="0" y="288" style="fill: #472d7b; stroke: #472d7b"/>
    </g>
   </g>
   <g id="PathCollection_2">
    <defs>
     <path id="mb9f5521aa1" d="M 108.530881 -67.657779 
L 94.2736 -83.321509 
L 94.2736 -91.27498 
L 115.770209 -67.657779 
L 94.2736 -42.02633 
L 94.2736 -50.658132 
z
M 108.629709 -247.542221 
L 94.2736 -264.736804 
L 94.2736 -273.24 
L 95.283067 -273.24 
L 115.807764 -247.542221 
L 94.2736 -223.9049 
L 94.2736 -231.784007 
z
M 123.446303 -273.24 
L 136.428294 -273.24 
L 145.669158 -266.128075 
L 154.771866 -273.24 
L 167.559771 -273.24 
L 145.669158 -256.136915 
z
M 202.752678 -93.355558 
L 222.762484 -112.011343 
L 248.460263 -112.052158 
L 268.553655 -93.355558 
L 248.460263 -74.557116 
L 222.762484 -74.535744 
z
M 222.762484 -83.076732 
L 248.460263 -83.0545 
L 259.47092 -93.355558 
L 248.460263 -103.600809 
L 222.762484 -103.544796 
L 211.83372 -93.355558 
z
M 206.954114 -247.542221 
L 222.762484 -262.623564 
L 238.593157 -247.542221 
L 222.762484 -234.024694 
z
M 233.78896 -170.448884 
L 248.460263 -183.226609 
L 263.223121 -170.448884 
L 248.460263 -157.631346 
z
M 274.158042 -58.972718 
L 296.323281 -41.96 
L 283.216244 -41.96 
L 274.158042 -48.912537 
L 265.196839 -41.96 
L 252.230159 -41.96 
z
M 259.076859 -221.844442 
L 274.158042 -235.117964 
L 289.561975 -221.844442 
L 274.158042 -208.787821 
z
M 277.616483 -273.24 
L 289.771344 -273.24 
L 299.855821 -265.18049 
L 312.700808 -273.24 
L 325.5536 -273.24 
L 325.5536 -266.501182 
L 299.855821 -255.466331 
z
" style="stroke: #2c728e"/>
    </defs>
    <g clip-path="url(#pce0ad11029)">
     <use xlink:href="#mb9f5521aa1" x="0" y="288" style="fill: #2c728e; stroke: #2c728e"/>
    </g>
   </g>
   <g id="PathCollection_3">
    <defs>
     <path id="m847bea55cf" d="M 101.291553 -67.657779 
L 94.2736 -75.368037 
L 94.2736 -83.321509 
L 108.530881 -67.657779 
L 94.2736 -50.658132 
L 94.2736 -59.289933 
z
M 101.451655 -247.542221 
L 94.2736 -256.139512 
L 94.2736 -264.736804 
L 108.629709 -247.542221 
L 94.2736 -231.784007 
L 94.2736 -239.663114 
z
M 136.428294 -273.24 
L 145.669158 -273.24 
L 154.771866 -273.24 
L 145.669158 -266.128075 
z
M 211.83372 -93.355558 
L 222.762484 -103.544796 
L 248.460263 -103.600809 
L 259.47092 -93.355558 
L 248.460263 -83.0545 
L 222.762484 -83.076732 
z
M 222.762484 -91.617721 
L 248.460263 -91.551884 
L 250.388185 -93.355558 
L 248.460263 -95.14946 
L 222.762484 -95.078249 
L 220.914762 -93.355558 
z
M 274.158042 -48.912537 
L 283.216244 -41.96 
L 274.158042 -41.96 
L 265.196839 -41.96 
z
M 289.771344 -273.24 
L 299.855821 -273.24 
L 312.700808 -273.24 
L 299.855821 -265.18049 
z
" style="stroke: #28ae80"/>
    </defs>
    <g clip-path="url(#pce0ad11029)">
     <use xlink:href="#m847bea55cf" x="0" y="288" style="fill: #28ae80; stroke: #28ae80"/>
    </g>
   </g>
   <g id="PathCollection_4">
    <defs>
     <path id="m627081eb30" d="M 94.2736 -67.657779 
L 94.2736 -75.368037 
L 101.291553 -67.657779 
L 94.2736 -59.289933 
z
M 94.2736 -247.542221 
L 94.2736 -256.139512 
L 101.451655 -247.542221 
L 94.2736 -239.663114 
z
M 220.914762 -93.355558 
L 222.762484 -95.078249 
L 248.460263 -95.14946 
L 250.388185 -93.355558 
L 248.460263 -91.551884 
L 222.762484 -91.617721 
z
" style="stroke: #addc30"/>
    </defs>
    <g clip-path="url(#pce0ad11029)">
     <use xlink:href="#m627081eb30" x="0" y="288" style="fill: #addc30; stroke: #addc30"/>
    </g>
   </g>
   <g id="matplotlib.axis_1">
    <g id="xtick_1">
     <g id="line2d_1">
      <defs>
       <path id="m693f833b76" d="M 0 0 
L 0 3.5 
" style="stroke: #000000; stroke-width: 0.8"/>
      </defs>
      <g>
       <use xlink:href="#m693f833b76" x="94.2736" y="246.04" style="stroke: #000000; stroke-width: 0.8"/>
      </g>
     </g>
     <g id="text_1">
      <!-- −5 -->
      <g transform="translate(86.902506 260.638438) scale(0.1 -0.1)">
       <defs>
        <path id="DejaVuSans-2212" d="M 678 2272 
L 4684 2272 
L 4684 1741 
L 678 1741 
L 678 2272 
z
" transform="scale(0.015625)"/>
        <path id="DejaVuSans-35" d="M 691 4666 
L 3169 4666 
L 3169 4134 
L 1269 4134 
L 1269 2991 
Q 1406 3038 1543 3061 
Q 1681 3084 1819 3084 
Q 2600 3084 3056 2656 
Q 3513 2228 3513 1497 
Q 3513 744 3044 326 
Q 2575 -91 1722 -91 
Q 1428 -91 1123 -41 
Q 819 9 494 109 
L 494 744 
Q 775 591 1075 516 
Q 1375 441 1709 441 
Q 2250 441 2565 725 
Q 2881 1009 2881 1497 
Q 2881 1984 2565 2268 
Q 2250 2553 1709 2553 
Q 1456 2553 1204 2497 
Q 953 2441 691 2322 
L 691 4666 
z
" transform="scale(0.015625)"/>
       </defs>
       <use xlink:href="#DejaVuSans-2212"/>
       <use xlink:href="#DejaVuSans-35" x="83.789062"/>
      </g>
     </g>
    </g>
    <g id="xtick_2">
     <g id="line2d_2">
      <g>
       <use xlink:href="#m693f833b76" x="209.9136" y="246.04" style="stroke: #000000; stroke-width: 0.8"/>
      </g>
     </g>
     <g id="text_2">
      <!-- 0 -->
      <g transform="translate(206.73235 260.638438) scale(0.1 -0.1)">
       <defs>
        <path id="DejaVuSans-30" d="M 2034 4250 
Q 1547 4250 1301 3770 
Q 1056 3291 1056 2328 
Q 1056 1369 1301 889 
Q 1547 409 2034 409 
Q 2525 409 2770 889 
Q 3016 1369 3016 2328 
Q 3016 3291 2770 3770 
Q 2525 4250 2034 4250 
z
M 2034 4750 
Q 2819 4750 3233 4129 
Q 3647 3509 3647 2328 
Q 3647 1150 3233 529 
Q 2819 -91 2034 -91 
Q 1250 -91 836 529 
Q 422 1150 422 2328 
Q 422 3509 836 4129 
Q 1250 4750 2034 4750 
z
" transform="scale(0.015625)"/>
       </defs>
       <use xlink:href="#DejaVuSans-30"/>
      </g>
     </g>
    </g>
    <g id="xtick_3">
     <g id="line2d_3">
      <g>
       <use xlink:href="#m693f833b76" x="325.5536" y="246.04" style="stroke: #000000; stroke-width: 0.8"/>
      </g>
     </g>
     <g id="text_3">
      <!-- 5 -->
      <g transform="translate(322.37235 260.638438) scale(0.1 -0.1)">
       <use xlink:href="#DejaVuSans-35"/>
      </g>
     </g>
    </g>
    <g id="text_4">
     <!-- $x$ -->
     <g transform="translate(206.9136 274.316563) scale(0.1 -0.1)">
      <defs>
       <path id="DejaVuSans-Oblique-78" d="M 3841 3500 
L 2234 1784 
L 3219 0 
L 2559 0 
L 1819 1388 
L 531 0 
L -166 0 
L 1556 1844 
L 641 3500 
L 1300 3500 
L 1972 2234 
L 3144 3500 
L 3841 3500 
z
" transform="scale(0.015625)"/>
      </defs>
      <use xlink:href="#DejaVuSans-Oblique-78" transform="translate(0 0.3125)"/>
     </g>
    </g>
   </g>
   <g id="matplotlib.axis_2">
    <g id="ytick_1">
     <g id="line2d_4">
      <defs>
       <path id="m63cd20d02e" d="M 0 0 
L -3.5 0 
" style="stroke: #000000; stroke-width: 0.8"/>
      </defs>
      <g>
       <use xlink:href="#m63cd20d02e" x="94.2736" y="246.04" style="stroke: #000000; stroke-width: 0.8"/>
      </g>
     </g>
     <g id="text_5">
      <!-- −5 -->
      <g transform="translate(72.531412 249.839219) scale(0.1 -0.1)">
       <use xlink:href="#DejaVuSans-2212"/>
       <use xlink:href="#DejaVuSans-35" x="83.789062"/>
      </g>
     </g>
    </g>
    <g id="ytick_2">
     <g id="line2d_5">
      <g>
       <use xlink:href="#m63cd20d02e" x="94.2736" y="130.4" style="stroke: #000000; stroke-width: 0.8"/>
      </g>
     </g>
     <g id="text_6">
      <!-- 0 -->
      <g transform="translate(80.9111 134.199219) scale(0.1 -0.1)">
       <use xlink:href="#DejaVuSans-30"/>
      </g>
     </g>
    </g>
    <g id="ytick_3">
     <g id="line2d_6">
      <g>
       <use xlink:href="#m63cd20d02e" x="94.2736" y="14.76" style="stroke: #000000; stroke-width: 0.8"/>
      </g>
     </g>
     <g id="text_7">
      <!-- 5 -->
      <g transform="translate(80.9111 18.559219) scale(0.1 -0.1)">
       <use xlink:href="#DejaVuSans-35"/>
      </g>
     </g>
    </g>
    <g id="text_8">
     <!-- $y$ -->
     <g transform="translate(66.431412 133.4) rotate(-90) scale(0.1 -0.1)">
      <defs>
       <path id="DejaVuSans-Oblique-79" d="M 1588 -325 
Q 1188 -997 936 -1164 
Q 684 -1331 294 -1331 
L -159 -1331 
L -63 -850 
L 269 -850 
Q 509 -850 678 -719 
Q 847 -588 1056 -206 
L 1234 128 
L 459 3500 
L 1069 3500 
L 1650 819 
L 3256 3500 
L 3859 3500 
L 1588 -325 
z
" transform="scale(0.015625)"/>
      </defs>
      <use xlink:href="#DejaVuSans-Oblique-79" transform="translate(0 0.3125)"/>
     </g>
    </g>
   </g>
   <g id="line2d_7">
    <defs>
     <path id="md434086860" d="M 0 3 
C 0.795609 3 1.55874 2.683901 2.12132 2.12132 
C 2.683901 1.55874 3 0.795609 3 0 
C 3 -0.795609 2.683901 -1.55874 2.12132 -2.12132 
C 1.55874 -2.683901 0.795609 -3 0 -3 
C -0.795609 -3 -1.55874 -2.683901 -2.12132 -2.12132 
C -2.683901 -1.55874 -3 -0.795609 -3 0 
C -3 0.795609 -2.683901 1.55874 -2.12132 2.12132 
C -1.55874 2.683901 -0.795609 3 0 3 
z
" style="stroke: #ff7f0e"/>
    </defs>
    <g clip-path="url(#pce0ad11029)">
     <use xlink:href="#md434086860" x="145.669158" y="246.04" style="fill: #ff7f0e; stroke: #ff7f0e"/>
     <use xlink:href="#md434086860" x="197.064716" y="91.853337" style="fill: #ff7f0e; stroke: #ff7f0e"/>
     <use xlink:href="#md434086860" x="299.855821" y="91.853337" style="fill: #ff7f0e; stroke: #ff7f0e"/>
     <use xlink:href="#md434086860" x="119.971379" y="14.76" style="fill: #ff7f0e; stroke: #ff7f0e"/>
     <use xlink:href="#md434086860" x="222.762484" y="117.551116" style="fill: #ff7f0e; stroke: #ff7f0e"/>
     <use xlink:href="#md434086860" x="274.158042" y="14.76" style="fill: #ff7f0e; stroke: #ff7f0e"/>
     <use xlink:href="#md434086860" x="248.460263" y="168.946663" style="fill: #ff7f0e; stroke: #ff7f0e"/>
     <use xlink:href="#md434086860" x="325.5536" y="117.551116" style="fill: #ff7f0e; stroke: #ff7f0e"/>
     <use xlink:href="#md434086860" x="325.5536" y="220.342221" style="fill: #ff7f0e; stroke: #ff7f0e"/>
     <use xlink:href="#md434086860" x="119.971379" y="143.248884" style="fill: #ff7f0e; stroke: #ff7f0e"/>
     <use xlink:href="#md434086860" x="274.158042" y="143.248884" style="fill: #ff7f0e; stroke: #ff7f0e"/>
     <use xlink:href="#md434086860" x="274.158042" y="117.551116" style="fill: #ff7f0e; stroke: #ff7f0e"/>
     <use xlink:href="#md434086860" x="145.669158" y="220.342221" style="fill: #ff7f0e; stroke: #ff7f0e"/>
     <use xlink:href="#md434086860" x="119.971379" y="40.457779" style="fill: #ff7f0e; stroke: #ff7f0e"/>
     <use xlink:href="#md434086860" x="94.2736" y="14.76" style="fill: #ff7f0e; stroke: #ff7f0e"/>
     <use xlink:href="#md434086860" x="222.762484" y="14.76" style="fill: #ff7f0e; stroke: #ff7f0e"/>
     <use xlink:href="#md434086860" x="248.460263" y="91.853337" style="fill: #ff7f0e; stroke: #ff7f0e"/>
     <use xlink:href="#md434086860" x="197.064716" y="143.248884" style="fill: #ff7f0e; stroke: #ff7f0e"/>
     <use xlink:href="#md434086860" x="274.158042" y="220.342221" style="fill: #ff7f0e; stroke: #ff7f0e"/>
     <use xlink:href="#md434086860" x="222.762484" y="220.342221" style="fill: #ff7f0e; stroke: #ff7f0e"/>
     <use xlink:href="#md434086860" x="299.855821" y="117.551116" style="fill: #ff7f0e; stroke: #ff7f0e"/>
     <use xlink:href="#md434086860" x="325.5536" y="40.457779" style="fill: #ff7f0e; stroke: #ff7f0e"/>
     <use xlink:href="#md434086860" x="325.5536" y="14.76" style="fill: #ff7f0e; stroke: #ff7f0e"/>
     <use xlink:href="#md434086860" x="325.5536" y="194.644442" style="fill: #ff7f0e; stroke: #ff7f0e"/>
     <use xlink:href="#md434086860" x="94.2736" y="194.644442" style="fill: #ff7f0e; stroke: #ff7f0e"/>
     <use xlink:href="#md434086860" x="119.971379" y="194.644442" style="fill: #ff7f0e; stroke: #ff7f0e"/>
     <use xlink:href="#md434086860" x="171.366937" y="194.644442" style="fill: #ff7f0e; stroke: #ff7f0e"/>
     <use xlink:href="#md434086860" x="171.366937" y="66.155558" style="fill: #ff7f0e; stroke: #ff7f0e"/>
     <use xlink:href="#md434086860" x="145.669158" y="66.155558" style="fill: #ff7f0e; stroke: #ff7f0e"/>
     <use xlink:href="#md434086860" x="145.669158" y="194.644442" style="fill: #ff7f0e; stroke: #ff7f0e"/>
     <use xlink:href="#md434086860" x="274.158042" y="91.853337" style="fill: #ff7f0e; stroke: #ff7f0e"/>
     <use xlink:href="#md434086860" x="248.460263" y="246.04" style="fill: #ff7f0e; stroke: #ff7f0e"/>
     <use xlink:href="#md434086860" x="325.5536" y="168.946663" style="fill: #ff7f0e; stroke: #ff7f0e"/>
     <use xlink:href="#md434086860" x="94.2736" y="91.853337" style="fill: #ff7f0e; stroke: #ff7f0e"/>
     <use xlink:href="#md434086860" x="325.5536" y="66.155558" style="fill: #ff7f0e; stroke: #ff7f0e"/>
     <use xlink:href="#md434086860" x="299.855821" y="220.342221" style="fill: #ff7f0e; stroke: #ff7f0e"/>
     <use xlink:href="#md434086860" x="197.064716" y="14.76" style="fill: #ff7f0e; stroke: #ff7f0e"/>
     <use xlink:href="#md434086860" x="248.460263" y="66.155558" style="fill: #ff7f0e; stroke: #ff7f0e"/>
     <use xlink:href="#md434086860" x="119.971379" y="246.04" style="fill: #ff7f0e; stroke: #ff7f0e"/>
     <use xlink:href="#md434086860" x="197.064716" y="194.644442" style="fill: #ff7f0e; stroke: #ff7f0e"/>
     <use xlink:href="#md434086860" x="119.971379" y="91.853337" style="fill: #ff7f0e; stroke: #ff7f0e"/>
     <use xlink:href="#md434086860" x="145.669158" y="168.946663" style="fill: #ff7f0e; stroke: #ff7f0e"/>
     <use xlink:href="#md434086860" x="325.5536" y="143.248884" style="fill: #ff7f0e; stroke: #ff7f0e"/>
     <use xlink:href="#md434086860" x="171.366937" y="91.853337" style="fill: #ff7f0e; stroke: #ff7f0e"/>
     <use xlink:href="#md434086860" x="222.762484" y="168.946663" style="fill: #ff7f0e; stroke: #ff7f0e"/>
     <use xlink:href="#md434086860" x="119.971379" y="220.342221" style="fill: #ff7f0e; stroke: #ff7f0e"/>
     <use xlink:href="#md434086860" x="145.669158" y="143.248884" style="fill: #ff7f0e; stroke: #ff7f0e"/>
     <use xlink:href="#md434086860" x="145.669158" y="91.853337" style="fill: #ff7f0e; stroke: #ff7f0e"/>
     <use xlink:href="#md434086860" x="197.064716" y="117.551116" style="fill: #ff7f0e; stroke: #ff7f0e"/>
     <use xlink:href="#md434086860" x="171.366937" y="14.76" style="fill: #ff7f0e; stroke: #ff7f0e"/>
     <use xlink:href="#md434086860" x="248.460263" y="143.248884" style="fill: #ff7f0e; stroke: #ff7f0e"/>
     <use xlink:href="#md434086860" x="299.855821" y="246.04" style="fill: #ff7f0e; stroke: #ff7f0e"/>
     <use xlink:href="#md434086860" x="299.855821" y="194.644442" style="fill: #ff7f0e; stroke: #ff7f0e"/>
     <use xlink:href="#md434086860" x="299.855821" y="40.457779" style="fill: #ff7f0e; stroke: #ff7f0e"/>
     <use xlink:href="#md434086860" x="274.158042" y="168.946663" style="fill: #ff7f0e; stroke: #ff7f0e"/>
     <use xlink:href="#md434086860" x="94.2736" y="246.04" style="fill: #ff7f0e; stroke: #ff7f0e"/>
     <use xlink:href="#md434086860" x="248.460263" y="14.76" style="fill: #ff7f0e; stroke: #ff7f0e"/>
     <use xlink:href="#md434086860" x="197.064716" y="246.04" style="fill: #ff7f0e; stroke: #ff7f0e"/>
     <use xlink:href="#md434086860" x="222.762484" y="143.248884" style="fill: #ff7f0e; stroke: #ff7f0e"/>
     <use xlink:href="#md434086860" x="274.158042" y="40.457779" style="fill: #ff7f0e; stroke: #ff7f0e"/>
     <use xlink:href="#md434086860" x="94.2736" y="117.551116" style="fill: #ff7f0e; stroke: #ff7f0e"/>
     <use xlink:href="#md434086860" x="171.366937" y="117.551116" style="fill: #ff7f0e; stroke: #ff7f0e"/>
     <use xlink:href="#md434086860" x="222.762484" y="246.04" style="fill: #ff7f0e; stroke: #ff7f0e"/>
     <use xlink:href="#md434086860" x="94.2736" y="66.155558" style="fill: #ff7f0e; stroke: #ff7f0e"/>
     <use xlink:href="#md434086860" x="171.366937" y="246.04" style="fill: #ff7f0e; stroke: #ff7f0e"/>
     <use xlink:href="#md434086860" x="248.460263" y="220.342221" style="fill: #ff7f0e; stroke: #ff7f0e"/>
     <use xlink:href="#md434086860" x="197.064716" y="40.457779" style="fill: #ff7f0e; stroke: #ff7f0e"/>
     <use xlink:href="#md434086860" x="171.366937" y="168.946663" style="fill: #ff7f0e; stroke: #ff7f0e"/>
     <use xlink:href="#md434086860" x="94.2736" y="168.946663" style="fill: #ff7f0e; stroke: #ff7f0e"/>
     <use xlink:href="#md434086860" x="274.158042" y="194.644442" style="fill: #ff7f0e; stroke: #ff7f0e"/>
     <use xlink:href="#md434086860" x="222.762484" y="91.853337" style="fill: #ff7f0e; stroke: #ff7f0e"/>
     <use xlink:href="#md434086860" x="222.762484" y="66.155558" style="fill: #ff7f0e; stroke: #ff7f0e"/>
     <use xlink:href="#md434086860" x="119.971379" y="168.946663" style="fill: #ff7f0e; stroke: #ff7f0e"/>
     <use xlink:href="#md434086860" x="299.855821" y="168.946663" style="fill: #ff7f0e; stroke: #ff7f0e"/>
     <use xlink:href="#md434086860" x="119.971379" y="117.551116" style="fill: #ff7f0e; stroke: #ff7f0e"/>
     <use xlink:href="#md434086860" x="299.855821" y="143.248884" style="fill: #ff7f0e; stroke: #ff7f0e"/>
     <use xlink:href="#md434086860" x="299.855821" y="66.155558" style="fill: #ff7f0e; stroke: #ff7f0e"/>
     <use xlink:href="#md434086860" x="119.971379" y="66.155558" style="fill: #ff7f0e; stroke: #ff7f0e"/>
     <use xlink:href="#md434086860" x="145.669158" y="40.457779" style="fill: #ff7f0e; stroke: #ff7f0e"/>
     <use xlink:href="#md434086860" x="171.366937" y="143.248884" style="fill: #ff7f0e; stroke: #ff7f0e"/>
     <use xlink:href="#md434086860" x="325.5536" y="91.853337" style="fill: #ff7f0e; stroke: #ff7f0e"/>
     <use xlink:href="#md434086860" x="197.064716" y="66.155558" style="fill: #ff7f0e; stroke: #ff7f0e"/>
     <use xlink:href="#md434086860" x="197.064716" y="168.946663" style="fill: #ff7f0e; stroke: #ff7f0e"/>
     <use xlink:href="#md434086860" x="325.5536" y="246.04" style="fill: #ff7f0e; stroke: #ff7f0e"/>
     <use xlink:href="#md434086860" x="171.366937" y="40.457779" style="fill: #ff7f0e; stroke: #ff7f0e"/>
     <use xlink:href="#md434086860" x="171.366937" y="220.342221" style="fill: #ff7f0e; stroke: #ff7f0e"/>
     <use xlink:href="#md434086860" x="94.2736" y="143.248884" style="fill: #ff7f0e; stroke: #ff7f0e"/>
     <use xlink:href="#md434086860" x="197.064716" y="220.342221" style="fill: #ff7f0e; stroke: #ff7f0e"/>
     <use xlink:href="#md434086860" x="248.460263" y="40.457779" style="fill: #ff7f0e; stroke: #ff7f0e"/>
     <use xlink:href="#md434086860" x="145.669158" y="117.551116" style="fill: #ff7f0e; stroke: #ff7f0e"/>
    </g>
   </g>
   <g id="patch_3">
    <path d="M 94.2736 246.04 
L 94.2736 14.76 
" style="fill: none; stroke: #000000; stroke-width: 0.8; stroke-linejoin: miter; stroke-linecap: square"/>
   </g>
   <g id="patch_4">
    <path d="M 325.5536 246.04 
L 325.5536 14.76 
" style="fill: none; stroke: #000000; stroke-width: 0.8; stroke-linejoin: miter; stroke-linecap: square"/>
   </g>
   <g id="patch_5">
    <path d="M 94.2736 246.04 
L 325.5536 246.04 
" style="fill: none; stroke: #000000; stroke-width: 0.8; stroke-linejoin: miter; stroke-linecap: square"/>
   </g>
   <g id="patch_6">
    <path d="M 94.2736 14.76 
L 325.5536 14.76 
" style="fill: none; stroke: #000000; stroke-width: 0.8; stroke-linejoin: miter; stroke-linecap: square"/>
   </g>
  </g>
  <g id="axes_2">
   <g id="patch_7">
    <path d="M 345.2257 246.04 
L 356.7897 246.04 
L 356.7897 14.76 
L 345.2257 14.76 
z
" style="fill: #ffffff"/>
   </g>
   <g id="QuadMesh_1">
    <path d="M 345.2257 246.04 
L 356.7897 246.04 
L 356.7897 188.22 
L 345.2257 188.22 
L 345.2257 246.04 
" clip-path="url(#p8a9ce92c0a)" style="fill: #472d7b"/>
    <path d="M 345.2257 188.22 
L 356.7897 188.22 
L 356.7897 130.4 
L 345.2257 130.4 
L 345.2257 188.22 
" clip-path="url(#p8a9ce92c0a)" style="fill: #2c728e"/>
    <path d="M 345.2257 130.4 
L 356.7897 130.4 
L 356.7897 72.58 
L 345.2257 72.58 
L 345.2257 130.4 
" clip-path="url(#p8a9ce92c0a)" style="fill: #28ae80"/>
    <path d="M 345.2257 72.58 
L 356.7897 72.58 
L 356.7897 14.76 
L 345.2257 14.76 
L 345.2257 72.58 
" clip-path="url(#p8a9ce92c0a)" style="fill: #addc30"/>
   </g>
   <g id="matplotlib.axis_3"/>
   <g id="matplotlib.axis_4">
    <g id="ytick_4">
     <g id="line2d_8">
      <defs>
       <path id="me82f04b29d" d="M 0 0 
L 3.5 0 
" style="stroke: #000000; stroke-width: 0.8"/>
      </defs>
      <g>
       <use xlink:href="#me82f04b29d" x="356.7897" y="246.04" style="stroke: #000000; stroke-width: 0.8"/>
      </g>
     </g>
     <g id="text_9">
      <!-- 0.6749 -->
      <g transform="translate(363.7897 249.839219) scale(0.1 -0.1)">
       <defs>
        <path id="DejaVuSans-2e" d="M 684 794 
L 1344 794 
L 1344 0 
L 684 0 
L 684 794 
z
" transform="scale(0.015625)"/>
        <path id="DejaVuSans-36" d="M 2113 2584 
Q 1688 2584 1439 2293 
Q 1191 2003 1191 1497 
Q 1191 994 1439 701 
Q 1688 409 2113 409 
Q 2538 409 2786 701 
Q 3034 994 3034 1497 
Q 3034 2003 2786 2293 
Q 2538 2584 2113 2584 
z
M 3366 4563 
L 3366 3988 
Q 3128 4100 2886 4159 
Q 2644 4219 2406 4219 
Q 1781 4219 1451 3797 
Q 1122 3375 1075 2522 
Q 1259 2794 1537 2939 
Q 1816 3084 2150 3084 
Q 2853 3084 3261 2657 
Q 3669 2231 3669 1497 
Q 3669 778 3244 343 
Q 2819 -91 2113 -91 
Q 1303 -91 875 529 
Q 447 1150 447 2328 
Q 447 3434 972 4092 
Q 1497 4750 2381 4750 
Q 2619 4750 2861 4703 
Q 3103 4656 3366 4563 
z
" transform="scale(0.015625)"/>
        <path id="DejaVuSans-37" d="M 525 4666 
L 3525 4666 
L 3525 4397 
L 1831 0 
L 1172 0 
L 2766 4134 
L 525 4134 
L 525 4666 
z
" transform="scale(0.015625)"/>
        <path id="DejaVuSans-34" d="M 2419 4116 
L 825 1625 
L 2419 1625 
L 2419 4116 
z
M 2253 4666 
L 3047 4666 
L 3047 1625 
L 3713 1625 
L 3713 1100 
L 3047 1100 
L 3047 0 
L 2419 0 
L 2419 1100 
L 313 1100 
L 313 1709 
L 2253 4666 
z
" transform="scale(0.015625)"/>
        <path id="DejaVuSans-39" d="M 703 97 
L 703 672 
Q 941 559 1184 500 
Q 1428 441 1663 441 
Q 2288 441 2617 861 
Q 2947 1281 2994 2138 
Q 2813 1869 2534 1725 
Q 2256 1581 1919 1581 
Q 1219 1581 811 2004 
Q 403 2428 403 3163 
Q 403 3881 828 4315 
Q 1253 4750 1959 4750 
Q 2769 4750 3195 4129 
Q 3622 3509 3622 2328 
Q 3622 1225 3098 567 
Q 2575 -91 1691 -91 
Q 1453 -91 1209 -44 
Q 966 3 703 97 
z
M 1959 2075 
Q 2384 2075 2632 2365 
Q 2881 2656 2881 3163 
Q 2881 3666 2632 3958 
Q 2384 4250 1959 4250 
Q 1534 4250 1286 3958 
Q 1038 3666 1038 3163 
Q 1038 2656 1286 2365 
Q 1534 2075 1959 2075 
z
" transform="scale(0.015625)"/>
       </defs>
       <use xlink:href="#DejaVuSans-30"/>
       <use xlink:href="#DejaVuSans-2e" x="63.623047"/>
       <use xlink:href="#DejaVuSans-36" x="95.410156"/>
       <use xlink:href="#DejaVuSans-37" x="159.033203"/>
       <use xlink:href="#DejaVuSans-34" x="222.65625"/>
       <use xlink:href="#DejaVuSans-39" x="286.279297"/>
      </g>
     </g>
    </g>
    <g id="ytick_5">
     <g id="line2d_9">
      <g>
       <use xlink:href="#me82f04b29d" x="356.7897" y="188.22" style="stroke: #000000; stroke-width: 0.8"/>
      </g>
     </g>
     <g id="text_10">
      <!-- 0.7685 -->
      <g transform="translate(363.7897 192.019219) scale(0.1 -0.1)">
       <defs>
        <path id="DejaVuSans-38" d="M 2034 2216 
Q 1584 2216 1326 1975 
Q 1069 1734 1069 1313 
Q 1069 891 1326 650 
Q 1584 409 2034 409 
Q 2484 409 2743 651 
Q 3003 894 3003 1313 
Q 3003 1734 2745 1975 
Q 2488 2216 2034 2216 
z
M 1403 2484 
Q 997 2584 770 2862 
Q 544 3141 544 3541 
Q 544 4100 942 4425 
Q 1341 4750 2034 4750 
Q 2731 4750 3128 4425 
Q 3525 4100 3525 3541 
Q 3525 3141 3298 2862 
Q 3072 2584 2669 2484 
Q 3125 2378 3379 2068 
Q 3634 1759 3634 1313 
Q 3634 634 3220 271 
Q 2806 -91 2034 -91 
Q 1263 -91 848 271 
Q 434 634 434 1313 
Q 434 1759 690 2068 
Q 947 2378 1403 2484 
z
M 1172 3481 
Q 1172 3119 1398 2916 
Q 1625 2713 2034 2713 
Q 2441 2713 2670 2916 
Q 2900 3119 2900 3481 
Q 2900 3844 2670 4047 
Q 2441 4250 2034 4250 
Q 1625 4250 1398 4047 
Q 1172 3844 1172 3481 
z
" transform="scale(0.015625)"/>
       </defs>
       <use xlink:href="#DejaVuSans-30"/>
       <use xlink:href="#DejaVuSans-2e" x="63.623047"/>
       <use xlink:href="#DejaVuSans-37" x="95.410156"/>
       <use xlink:href="#DejaVuSans-36" x="159.033203"/>
       <use xlink:href="#DejaVuSans-38" x="222.65625"/>
       <use xlink:href="#DejaVuSans-35" x="286.279297"/>
      </g>
     </g>
    </g>
    <g id="ytick_6">
     <g id="line2d_10">
      <g>
       <use xlink:href="#me82f04b29d" x="356.7897" y="130.4" style="stroke: #000000; stroke-width: 0.8"/>
      </g>
     </g>
     <g id="text_11">
      <!-- 0.8622 -->
      <g transform="translate(363.7897 134.199219) scale(0.1 -0.1)">
       <defs>
        <path id="DejaVuSans-32" d="M 1228 531 
L 3431 531 
L 3431 0 
L 469 0 
L 469 531 
Q 828 903 1448 1529 
Q 2069 2156 2228 2338 
Q 2531 2678 2651 2914 
Q 2772 3150 2772 3378 
Q 2772 3750 2511 3984 
Q 2250 4219 1831 4219 
Q 1534 4219 1204 4116 
Q 875 4013 500 3803 
L 500 4441 
Q 881 4594 1212 4672 
Q 1544 4750 1819 4750 
Q 2544 4750 2975 4387 
Q 3406 4025 3406 3419 
Q 3406 3131 3298 2873 
Q 3191 2616 2906 2266 
Q 2828 2175 2409 1742 
Q 1991 1309 1228 531 
z
" transform="scale(0.015625)"/>
       </defs>
       <use xlink:href="#DejaVuSans-30"/>
       <use xlink:href="#DejaVuSans-2e" x="63.623047"/>
       <use xlink:href="#DejaVuSans-38" x="95.410156"/>
       <use xlink:href="#DejaVuSans-36" x="159.033203"/>
       <use xlink:href="#DejaVuSans-32" x="222.65625"/>
       <use xlink:href="#DejaVuSans-32" x="286.279297"/>
      </g>
     </g>
    </g>
    <g id="ytick_7">
     <g id="line2d_11">
      <g>
       <use xlink:href="#me82f04b29d" x="356.7897" y="72.58" style="stroke: #000000; stroke-width: 0.8"/>
      </g>
     </g>
     <g id="text_12">
      <!-- 0.9558 -->
      <g transform="translate(363.7897 76.379219) scale(0.1 -0.1)">
       <use xlink:href="#DejaVuSans-30"/>
       <use xlink:href="#DejaVuSans-2e" x="63.623047"/>
       <use xlink:href="#DejaVuSans-39" x="95.410156"/>
       <use xlink:href="#DejaVuSans-35" x="159.033203"/>
       <use xlink:href="#DejaVuSans-35" x="222.65625"/>
       <use xlink:href="#DejaVuSans-38" x="286.279297"/>
      </g>
     </g>
    </g>
    <g id="ytick_8">
     <g id="line2d_12">
      <g>
       <use xlink:href="#me82f04b29d" x="356.7897" y="14.76" style="stroke: #000000; stroke-width: 0.8"/>
      </g>
     </g>
     <g id="text_13">
      <!-- 1.0494 -->
      <g transform="translate(363.7897 18.559219) scale(0.1 -0.1)">
       <defs>
        <path id="DejaVuSans-31" d="M 794 531 
L 1825 531 
L 1825 4091 
L 703 3866 
L 703 4441 
L 1819 4666 
L 2450 4666 
L 2450 531 
L 3481 531 
L 3481 0 
L 794 0 
L 794 531 
z
" transform="scale(0.015625)"/>
       </defs>
       <use xlink:href="#DejaVuSans-31"/>
       <use xlink:href="#DejaVuSans-2e" x="63.623047"/>
       <use xlink:href="#DejaVuSans-30" x="95.410156"/>
       <use xlink:href="#DejaVuSans-34" x="159.033203"/>
       <use xlink:href="#DejaVuSans-39" x="222.65625"/>
       <use xlink:href="#DejaVuSans-34" x="286.279297"/>
      </g>
     </g>
    </g>
    <g id="text_14">
     <!-- Posterior standard deviation -->
     <g transform="translate(410.378762 201.090625) rotate(-90) scale(0.1 -0.1)">
      <defs>
       <path id="DejaVuSans-50" d="M 1259 4147 
L 1259 2394 
L 2053 2394 
Q 2494 2394 2734 2622 
Q 2975 2850 2975 3272 
Q 2975 3691 2734 3919 
Q 2494 4147 2053 4147 
L 1259 4147 
z
M 628 4666 
L 2053 4666 
Q 2838 4666 3239 4311 
Q 3641 3956 3641 3272 
Q 3641 2581 3239 2228 
Q 2838 1875 2053 1875 
L 1259 1875 
L 1259 0 
L 628 0 
L 628 4666 
z
" transform="scale(0.015625)"/>
       <path id="DejaVuSans-6f" d="M 1959 3097 
Q 1497 3097 1228 2736 
Q 959 2375 959 1747 
Q 959 1119 1226 758 
Q 1494 397 1959 397 
Q 2419 397 2687 759 
Q 2956 1122 2956 1747 
Q 2956 2369 2687 2733 
Q 2419 3097 1959 3097 
z
M 1959 3584 
Q 2709 3584 3137 3096 
Q 3566 2609 3566 1747 
Q 3566 888 3137 398 
Q 2709 -91 1959 -91 
Q 1206 -91 779 398 
Q 353 888 353 1747 
Q 353 2609 779 3096 
Q 1206 3584 1959 3584 
z
" transform="scale(0.015625)"/>
       <path id="DejaVuSans-73" d="M 2834 3397 
L 2834 2853 
Q 2591 2978 2328 3040 
Q 2066 3103 1784 3103 
Q 1356 3103 1142 2972 
Q 928 2841 928 2578 
Q 928 2378 1081 2264 
Q 1234 2150 1697 2047 
L 1894 2003 
Q 2506 1872 2764 1633 
Q 3022 1394 3022 966 
Q 3022 478 2636 193 
Q 2250 -91 1575 -91 
Q 1294 -91 989 -36 
Q 684 19 347 128 
L 347 722 
Q 666 556 975 473 
Q 1284 391 1588 391 
Q 1994 391 2212 530 
Q 2431 669 2431 922 
Q 2431 1156 2273 1281 
Q 2116 1406 1581 1522 
L 1381 1569 
Q 847 1681 609 1914 
Q 372 2147 372 2553 
Q 372 3047 722 3315 
Q 1072 3584 1716 3584 
Q 2034 3584 2315 3537 
Q 2597 3491 2834 3397 
z
" transform="scale(0.015625)"/>
       <path id="DejaVuSans-74" d="M 1172 4494 
L 1172 3500 
L 2356 3500 
L 2356 3053 
L 1172 3053 
L 1172 1153 
Q 1172 725 1289 603 
Q 1406 481 1766 481 
L 2356 481 
L 2356 0 
L 1766 0 
Q 1100 0 847 248 
Q 594 497 594 1153 
L 594 3053 
L 172 3053 
L 172 3500 
L 594 3500 
L 594 4494 
L 1172 4494 
z
" transform="scale(0.015625)"/>
       <path id="DejaVuSans-65" d="M 3597 1894 
L 3597 1613 
L 953 1613 
Q 991 1019 1311 708 
Q 1631 397 2203 397 
Q 2534 397 2845 478 
Q 3156 559 3463 722 
L 3463 178 
Q 3153 47 2828 -22 
Q 2503 -91 2169 -91 
Q 1331 -91 842 396 
Q 353 884 353 1716 
Q 353 2575 817 3079 
Q 1281 3584 2069 3584 
Q 2775 3584 3186 3129 
Q 3597 2675 3597 1894 
z
M 3022 2063 
Q 3016 2534 2758 2815 
Q 2500 3097 2075 3097 
Q 1594 3097 1305 2825 
Q 1016 2553 972 2059 
L 3022 2063 
z
" transform="scale(0.015625)"/>
       <path id="DejaVuSans-72" d="M 2631 2963 
Q 2534 3019 2420 3045 
Q 2306 3072 2169 3072 
Q 1681 3072 1420 2755 
Q 1159 2438 1159 1844 
L 1159 0 
L 581 0 
L 581 3500 
L 1159 3500 
L 1159 2956 
Q 1341 3275 1631 3429 
Q 1922 3584 2338 3584 
Q 2397 3584 2469 3576 
Q 2541 3569 2628 3553 
L 2631 2963 
z
" transform="scale(0.015625)"/>
       <path id="DejaVuSans-69" d="M 603 3500 
L 1178 3500 
L 1178 0 
L 603 0 
L 603 3500 
z
M 603 4863 
L 1178 4863 
L 1178 4134 
L 603 4134 
L 603 4863 
z
" transform="scale(0.015625)"/>
       <path id="DejaVuSans-20" transform="scale(0.015625)"/>
       <path id="DejaVuSans-61" d="M 2194 1759 
Q 1497 1759 1228 1600 
Q 959 1441 959 1056 
Q 959 750 1161 570 
Q 1363 391 1709 391 
Q 2188 391 2477 730 
Q 2766 1069 2766 1631 
L 2766 1759 
L 2194 1759 
z
M 3341 1997 
L 3341 0 
L 2766 0 
L 2766 531 
Q 2569 213 2275 61 
Q 1981 -91 1556 -91 
Q 1019 -91 701 211 
Q 384 513 384 1019 
Q 384 1609 779 1909 
Q 1175 2209 1959 2209 
L 2766 2209 
L 2766 2266 
Q 2766 2663 2505 2880 
Q 2244 3097 1772 3097 
Q 1472 3097 1187 3025 
Q 903 2953 641 2809 
L 641 3341 
Q 956 3463 1253 3523 
Q 1550 3584 1831 3584 
Q 2591 3584 2966 3190 
Q 3341 2797 3341 1997 
z
" transform="scale(0.015625)"/>
       <path id="DejaVuSans-6e" d="M 3513 2113 
L 3513 0 
L 2938 0 
L 2938 2094 
Q 2938 2591 2744 2837 
Q 2550 3084 2163 3084 
Q 1697 3084 1428 2787 
Q 1159 2491 1159 1978 
L 1159 0 
L 581 0 
L 581 3500 
L 1159 3500 
L 1159 2956 
Q 1366 3272 1645 3428 
Q 1925 3584 2291 3584 
Q 2894 3584 3203 3211 
Q 3513 2838 3513 2113 
z
" transform="scale(0.015625)"/>
       <path id="DejaVuSans-64" d="M 2906 2969 
L 2906 4863 
L 3481 4863 
L 3481 0 
L 2906 0 
L 2906 525 
Q 2725 213 2448 61 
Q 2172 -91 1784 -91 
Q 1150 -91 751 415 
Q 353 922 353 1747 
Q 353 2572 751 3078 
Q 1150 3584 1784 3584 
Q 2172 3584 2448 3432 
Q 2725 3281 2906 2969 
z
M 947 1747 
Q 947 1113 1208 752 
Q 1469 391 1925 391 
Q 2381 391 2643 752 
Q 2906 1113 2906 1747 
Q 2906 2381 2643 2742 
Q 2381 3103 1925 3103 
Q 1469 3103 1208 2742 
Q 947 2381 947 1747 
z
" transform="scale(0.015625)"/>
       <path id="DejaVuSans-76" d="M 191 3500 
L 800 3500 
L 1894 563 
L 2988 3500 
L 3597 3500 
L 2284 0 
L 1503 0 
L 191 3500 
z
" transform="scale(0.015625)"/>
      </defs>
      <use xlink:href="#DejaVuSans-50"/>
      <use xlink:href="#DejaVuSans-6f" x="56.677734"/>
      <use xlink:href="#DejaVuSans-73" x="117.859375"/>
      <use xlink:href="#DejaVuSans-74" x="169.958984"/>
      <use xlink:href="#DejaVuSans-65" x="209.167969"/>
      <use xlink:href="#DejaVuSans-72" x="270.691406"/>
      <use xlink:href="#DejaVuSans-69" x="311.804688"/>
      <use xlink:href="#DejaVuSans-6f" x="339.587891"/>
      <use xlink:href="#DejaVuSans-72" x="400.769531"/>
      <use xlink:href="#DejaVuSans-20" x="441.882812"/>
      <use xlink:href="#DejaVuSans-73" x="473.669922"/>
      <use xlink:href="#DejaVuSans-74" x="525.769531"/>
      <use xlink:href="#DejaVuSans-61" x="564.978516"/>
      <use xlink:href="#DejaVuSans-6e" x="626.257812"/>
      <use xlink:href="#DejaVuSans-64" x="689.636719"/>
      <use xlink:href="#DejaVuSans-61" x="753.113281"/>
      <use xlink:href="#DejaVuSans-72" x="814.392578"/>
      <use xlink:href="#DejaVuSans-64" x="853.755859"/>
      <use xlink:href="#DejaVuSans-20" x="917.232422"/>
      <use xlink:href="#DejaVuSans-64" x="949.019531"/>
      <use xlink:href="#DejaVuSans-65" x="1012.496094"/>
      <use xlink:href="#DejaVuSans-76" x="1074.019531"/>
      <use xlink:href="#DejaVuSans-69" x="1133.199219"/>
      <use xlink:href="#DejaVuSans-61" x="1160.982422"/>
      <use xlink:href="#DejaVuSans-74" x="1222.261719"/>
      <use xlink:href="#DejaVuSans-69" x="1261.470703"/>
      <use xlink:href="#DejaVuSans-6f" x="1289.253906"/>
      <use xlink:href="#DejaVuSans-6e" x="1350.435547"/>
     </g>
    </g>
   </g>
   <g id="LineCollection_1"/>
   <g id="patch_8">
    <path d="M 345.2257 246.04 
L 351.0077 246.04 
L 356.7897 246.04 
L 356.7897 14.76 
L 351.0077 14.76 
L 345.2257 14.76 
L 345.2257 246.04 
z
" style="fill: none; stroke: #000000; stroke-width: 0.8; stroke-linejoin: miter; stroke-linecap: square"/>
   </g>
  </g>
 </g>
 <defs>
  <clipPath id="pce0ad11029">
   <rect x="94.2736" y="14.76" width="231.28" height="231.28"/>
  </clipPath>
  <clipPath id="p8a9ce92c0a">
   <rect x="345.2257" y="14.76" width="11.564" height="231.28"/>
  </clipPath>
 </defs>
</svg>
