<?xml version="1.0" encoding="utf-8" standalone="no"?>
<!DOCTYPE svg PUBLIC "-//W3C//DTD SVG 1.1//EN"
  "http://www.w3.org/Graphics/SVG/1.1/DTD/svg11.dtd">
<svg xmlns:xlink="http://www.w3.org/1999/xlink" width="432pt" height="288pt" viewBox="0 0 432 288" xmlns="http://www.w3.org/2000/svg" version="1.1">
 <metadata>
  <rdf:RDF xmlns:dc="http://purl.org/dc/elements/1.1/" xmlns:cc="http://creativecommons.org/ns#" xmlns:rdf="http://www.w3.org/1999/02/22-rdf-syntax-ns#">
   <cc:Work>
    <dc:type rdf:resource="http://purl.org/dc/dcmitype/StillImage"/>
    <dc:date>2025-01-31T12:32:53.377343</dc:date>
    <dc:format>image/svg+xml</dc:format>
    <dc:creator>
     <cc:Agent>
      <dc:title>Matplotlib v3.9.4, https://matplotlib.org/</dc:title>
     </cc:Agent>
    </dc:creator>
   </cc:Work>
  </rdf:RDF>
 </metadata>
 <defs>
  <style type="text/css">*{stroke-linejoin: round; stroke-linecap: butt}</style>
 </defs>
 <g id="figure_1">
  <g id="patch_1">
   <path d="M 0 288 
L 432 288 
L 432 0 
L 0 0 
z
" style="fill: #ffffff"/>
  </g>
  <g id="axes_1">
   <g id="patch_2">
    <path d="M 64.731 246.04 
L 296.011 246.04 
L 296.011 14.76 
L 64.731 14.76 
z
" style="fill: #ffffff"/>
   </g>
   <g id="matplotlib.axis_1">
    <g id="xtick_1">
     <g id="line2d_1">
      <defs>
       <path id="m154a16ceb5" d="M 0 0 
L 0 3.5 
" style="stroke: #000000; stroke-width: 0.8"/>
      </defs>
      <g>
       <use xlink:href="#m154a16ceb5" x="64.731" y="246.04" style="stroke: #000000; stroke-width: 0.8"/>
      </g>
     </g>
     <g id="text_1">
      <!-- −5 -->
      <g transform="translate(57.359906 260.638438) scale(0.1 -0.1)">
       <defs>
        <path id="DejaVuSans-2212" d="M 678 2272 
L 4684 2272 
L 4684 1741 
L 678 1741 
L 678 2272 
z
" transform="scale(0.015625)"/>
        <path id="DejaVuSans-35" d="M 691 4666 
L 3169 4666 
L 3169 4134 
L 1269 4134 
L 1269 2991 
Q 1406 3038 1543 3061 
Q 1681 3084 1819 3084 
Q 2600 3084 3056 2656 
Q 3513 2228 3513 1497 
Q 3513 744 3044 326 
Q 2575 -91 1722 -91 
Q 1428 -91 1123 -41 
Q 819 9 494 109 
L 494 744 
Q 775 591 1075 516 
Q 1375 441 1709 441 
Q 2250 441 2565 725 
Q 2881 1009 2881 1497 
Q 2881 1984 2565 2268 
Q 2250 2553 1709 2553 
Q 1456 2553 1204 2497 
Q 953 2441 691 2322 
L 691 4666 
z
" transform="scale(0.015625)"/>
       </defs>
       <use xlink:href="#DejaVuSans-2212"/>
       <use xlink:href="#DejaVuSans-35" x="83.789062"/>
      </g>
     </g>
    </g>
    <g id="xtick_2">
     <g id="line2d_2">
      <g>
       <use xlink:href="#m154a16ceb5" x="180.371" y="246.04" style="stroke: #000000; stroke-width: 0.8"/>
      </g>
     </g>
     <g id="text_2">
      <!-- 0 -->
      <g transform="translate(177.18975 260.638438) scale(0.1 -0.1)">
       <defs>
        <path id="DejaVuSans-30" d="M 2034 4250 
Q 1547 4250 1301 3770 
Q 1056 3291 1056 2328 
Q 1056 1369 1301 889 
Q 1547 409 2034 409 
Q 2525 409 2770 889 
Q 3016 1369 3016 2328 
Q 3016 3291 2770 3770 
Q 2525 4250 2034 4250 
z
M 2034 4750 
Q 2819 4750 3233 4129 
Q 3647 3509 3647 2328 
Q 3647 1150 3233 529 
Q 2819 -91 2034 -91 
Q 1250 -91 836 529 
Q 422 1150 422 2328 
Q 422 3509 836 4129 
Q 1250 4750 2034 4750 
z
" transform="scale(0.015625)"/>
       </defs>
       <use xlink:href="#DejaVuSans-30"/>
      </g>
     </g>
    </g>
    <g id="xtick_3">
     <g id="line2d_3">
      <g>
       <use xlink:href="#m154a16ceb5" x="296.011" y="246.04" style="stroke: #000000; stroke-width: 0.8"/>
      </g>
     </g>
     <g id="text_3">
      <!-- 5 -->
      <g transform="translate(292.82975 260.638438) scale(0.1 -0.1)">
       <use xlink:href="#DejaVuSans-35"/>
      </g>
     </g>
    </g>
    <g id="text_4">
     <!-- $x$ -->
     <g transform="translate(177.371 274.316562) scale(0.1 -0.1)">
      <defs>
       <path id="DejaVuSans-Oblique-78" d="M 3841 3500 
L 2234 1784 
L 3219 0 
L 2559 0 
L 1819 1388 
L 531 0 
L -166 0 
L 1556 1844 
L 641 3500 
L 1300 3500 
L 1972 2234 
L 3144 3500 
L 3841 3500 
z
" transform="scale(0.015625)"/>
      </defs>
      <use xlink:href="#DejaVuSans-Oblique-78" transform="translate(0 0.3125)"/>
     </g>
    </g>
   </g>
   <g id="matplotlib.axis_2">
    <g id="ytick_1">
     <g id="line2d_4">
      <defs>
       <path id="m2f85fb8012" d="M 0 0 
L -3.5 0 
" style="stroke: #000000; stroke-width: 0.8"/>
      </defs>
      <g>
       <use xlink:href="#m2f85fb8012" x="64.731" y="246.04" style="stroke: #000000; stroke-width: 0.8"/>
      </g>
     </g>
     <g id="text_5">
      <!-- −5 -->
      <g transform="translate(42.988812 249.839219) scale(0.1 -0.1)">
       <use xlink:href="#DejaVuSans-2212"/>
       <use xlink:href="#DejaVuSans-35" x="83.789062"/>
      </g>
     </g>
    </g>
    <g id="ytick_2">
     <g id="line2d_5">
      <g>
       <use xlink:href="#m2f85fb8012" x="64.731" y="130.4" style="stroke: #000000; stroke-width: 0.8"/>
      </g>
     </g>
     <g id="text_6">
      <!-- 0 -->
      <g transform="translate(51.3685 134.199219) scale(0.1 -0.1)">
       <use xlink:href="#DejaVuSans-30"/>
      </g>
     </g>
    </g>
    <g id="ytick_3">
     <g id="line2d_6">
      <g>
       <use xlink:href="#m2f85fb8012" x="64.731" y="14.76" style="stroke: #000000; stroke-width: 0.8"/>
      </g>
     </g>
     <g id="text_7">
      <!-- 5 -->
      <g transform="translate(51.3685 18.559219) scale(0.1 -0.1)">
       <use xlink:href="#DejaVuSans-35"/>
      </g>
     </g>
    </g>
    <g id="text_8">
     <!-- $y$ -->
     <g transform="translate(36.888812 133.4) rotate(-90) scale(0.1 -0.1)">
      <defs>
       <path id="DejaVuSans-Oblique-79" d="M 1588 -325 
Q 1188 -997 936 -1164 
Q 684 -1331 294 -1331 
L -159 -1331 
L -63 -850 
L 269 -850 
Q 509 -850 678 -719 
Q 847 -588 1056 -206 
L 1234 128 
L 459 3500 
L 1069 3500 
L 1650 819 
L 3256 3500 
L 3859 3500 
L 1588 -325 
z
" transform="scale(0.015625)"/>
      </defs>
      <use xlink:href="#DejaVuSans-Oblique-79" transform="translate(0 0.3125)"/>
     </g>
    </g>
   </g>
   <g id="QuadContourSet_1">
    <path d="M 296.011 142.210594 
L 270.313221 139.784019 
L 244.615442 139.996005 
L 223.200651 143.248884 
L 218.917663 145.021154 
L 197.235167 168.946663 
L 209.128035 194.644442 
L 218.917663 202.706488 
L 240.332483 220.342221 
L 244.615442 222.563015 
L 270.313221 234.457903 
L 296.011 246.04 
" clip-path="url(#p02dac4731c)" style="fill: none; stroke: #000000; stroke-width: 1.5"/>
    <path d="M 296.011 97.67693 
L 270.313221 92.550557 
L 265.316477 91.853337 
L 244.615442 89.509825 
L 218.917663 87.972796 
L 193.219884 88.063373 
L 167.522116 90.160069 
L 157.593406 91.853337 
L 141.824337 96.244723 
L 116.126558 108.798963 
L 104.513129 117.551116 
L 94.366343 143.248884 
L 101.314642 168.946663 
L 116.126558 189.857607 
L 119.517233 194.644442 
L 141.824337 214.47298 
L 148.427233 220.342221 
L 167.522116 232.728092 
L 188.044643 246.04 
" clip-path="url(#p02dac4731c)" style="fill: none; stroke: #000000; stroke-width: 1.5"/>
    <path d="M 64.731 199.043163 
L 87.909393 220.342221 
L 90.428779 222.164756 
L 116.126558 240.351182 
L 124.226943 246.04 
M 296.011 67.304059 
L 290.600958 66.155558 
L 270.313221 62.466877 
L 244.615442 58.665752 
L 218.917663 55.822055 
L 193.219884 54.096263 
L 167.522116 53.68681 
L 141.824337 54.842068 
L 116.126558 57.877075 
L 90.428779 63.197537 
L 80.639135 66.155558 
L 64.731 73.662768 
" clip-path="url(#p02dac4731c)" style="fill: none; stroke: #000000; stroke-width: 1.5"/>
    <path d="M 64.731 239.147549 
L 74.023498 246.04 
M 296.011 43.332642 
L 282.894437 40.457779 
L 270.313221 38.032485 
L 244.615442 33.845172 
L 218.917663 30.414322 
L 193.219884 27.843573 
L 167.522116 26.256375 
L 141.824337 25.801007 
L 116.126558 26.657119 
L 90.428779 29.044522 
L 64.731 33.235031 
" clip-path="url(#p02dac4731c)" style="fill: none; stroke: #000000; stroke-width: 1.5"/>
    <path d="M 296.011 22.796756 
L 270.313221 17.133692 
L 257.999694 14.76 
" clip-path="url(#p02dac4731c)" style="fill: none; stroke: #000000; stroke-width: 1.5"/>
    <path clip-path="url(#p02dac4731c)" style="fill: none; stroke: #000000; stroke-width: 1.5"/>
   </g>
   <g id="line2d_7">
    <defs>
     <path id="m0427bc5462" d="M 0 3 
C 0.795609 3 1.55874 2.683901 2.12132 2.12132 
C 2.683901 1.55874 3 0.795609 3 0 
C 3 -0.795609 2.683901 -1.55874 2.12132 -2.12132 
C 1.55874 -2.683901 0.795609 -3 0 -3 
C -0.795609 -3 -1.55874 -2.683901 -2.12132 -2.12132 
C -2.683901 -1.55874 -3 -0.795609 -3 0 
C -3 0.795609 -2.683901 1.55874 -2.12132 2.12132 
C -1.55874 2.683901 -0.795609 3 0 3 
z
" style="stroke: #ff7f0e"/>
    </defs>
    <g clip-path="url(#p02dac4731c)">
     <use xlink:href="#m0427bc5462" x="116.126558" y="246.04" style="fill: #ff7f0e; stroke: #ff7f0e"/>
     <use xlink:href="#m0427bc5462" x="167.522116" y="91.853337" style="fill: #ff7f0e; stroke: #ff7f0e"/>
     <use xlink:href="#m0427bc5462" x="270.313221" y="91.853337" style="fill: #ff7f0e; stroke: #ff7f0e"/>
     <use xlink:href="#m0427bc5462" x="90.428779" y="14.76" style="fill: #ff7f0e; stroke: #ff7f0e"/>
     <use xlink:href="#m0427bc5462" x="193.219884" y="117.551116" style="fill: #ff7f0e; stroke: #ff7f0e"/>
     <use xlink:href="#m0427bc5462" x="244.615442" y="14.76" style="fill: #ff7f0e; stroke: #ff7f0e"/>
     <use xlink:href="#m0427bc5462" x="218.917663" y="168.946663" style="fill: #ff7f0e; stroke: #ff7f0e"/>
     <use xlink:href="#m0427bc5462" x="296.011" y="117.551116" style="fill: #ff7f0e; stroke: #ff7f0e"/>
     <use xlink:href="#m0427bc5462" x="296.011" y="220.342221" style="fill: #ff7f0e; stroke: #ff7f0e"/>
     <use xlink:href="#m0427bc5462" x="90.428779" y="143.248884" style="fill: #ff7f0e; stroke: #ff7f0e"/>
     <use xlink:href="#m0427bc5462" x="244.615442" y="143.248884" style="fill: #ff7f0e; stroke: #ff7f0e"/>
     <use xlink:href="#m0427bc5462" x="244.615442" y="117.551116" style="fill: #ff7f0e; stroke: #ff7f0e"/>
     <use xlink:href="#m0427bc5462" x="116.126558" y="220.342221" style="fill: #ff7f0e; stroke: #ff7f0e"/>
     <use xlink:href="#m0427bc5462" x="90.428779" y="40.457779" style="fill: #ff7f0e; stroke: #ff7f0e"/>
     <use xlink:href="#m0427bc5462" x="64.731" y="14.76" style="fill: #ff7f0e; stroke: #ff7f0e"/>
     <use xlink:href="#m0427bc5462" x="193.219884" y="14.76" style="fill: #ff7f0e; stroke: #ff7f0e"/>
     <use xlink:href="#m0427bc5462" x="218.917663" y="91.853337" style="fill: #ff7f0e; stroke: #ff7f0e"/>
     <use xlink:href="#m0427bc5462" x="167.522116" y="143.248884" style="fill: #ff7f0e; stroke: #ff7f0e"/>
     <use xlink:href="#m0427bc5462" x="244.615442" y="220.342221" style="fill: #ff7f0e; stroke: #ff7f0e"/>
     <use xlink:href="#m0427bc5462" x="193.219884" y="220.342221" style="fill: #ff7f0e; stroke: #ff7f0e"/>
     <use xlink:href="#m0427bc5462" x="270.313221" y="117.551116" style="fill: #ff7f0e; stroke: #ff7f0e"/>
     <use xlink:href="#m0427bc5462" x="296.011" y="40.457779" style="fill: #ff7f0e; stroke: #ff7f0e"/>
     <use xlink:href="#m0427bc5462" x="296.011" y="14.76" style="fill: #ff7f0e; stroke: #ff7f0e"/>
     <use xlink:href="#m0427bc5462" x="296.011" y="194.644442" style="fill: #ff7f0e; stroke: #ff7f0e"/>
     <use xlink:href="#m0427bc5462" x="64.731" y="194.644442" style="fill: #ff7f0e; stroke: #ff7f0e"/>
     <use xlink:href="#m0427bc5462" x="90.428779" y="194.644442" style="fill: #ff7f0e; stroke: #ff7f0e"/>
     <use xlink:href="#m0427bc5462" x="141.824337" y="194.644442" style="fill: #ff7f0e; stroke: #ff7f0e"/>
     <use xlink:href="#m0427bc5462" x="141.824337" y="66.155558" style="fill: #ff7f0e; stroke: #ff7f0e"/>
     <use xlink:href="#m0427bc5462" x="116.126558" y="66.155558" style="fill: #ff7f0e; stroke: #ff7f0e"/>
     <use xlink:href="#m0427bc5462" x="116.126558" y="194.644442" style="fill: #ff7f0e; stroke: #ff7f0e"/>
     <use xlink:href="#m0427bc5462" x="244.615442" y="91.853337" style="fill: #ff7f0e; stroke: #ff7f0e"/>
     <use xlink:href="#m0427bc5462" x="218.917663" y="246.04" style="fill: #ff7f0e; stroke: #ff7f0e"/>
     <use xlink:href="#m0427bc5462" x="296.011" y="168.946663" style="fill: #ff7f0e; stroke: #ff7f0e"/>
     <use xlink:href="#m0427bc5462" x="64.731" y="91.853337" style="fill: #ff7f0e; stroke: #ff7f0e"/>
     <use xlink:href="#m0427bc5462" x="296.011" y="66.155558" style="fill: #ff7f0e; stroke: #ff7f0e"/>
     <use xlink:href="#m0427bc5462" x="270.313221" y="220.342221" style="fill: #ff7f0e; stroke: #ff7f0e"/>
     <use xlink:href="#m0427bc5462" x="167.522116" y="14.76" style="fill: #ff7f0e; stroke: #ff7f0e"/>
     <use xlink:href="#m0427bc5462" x="218.917663" y="66.155558" style="fill: #ff7f0e; stroke: #ff7f0e"/>
     <use xlink:href="#m0427bc5462" x="90.428779" y="246.04" style="fill: #ff7f0e; stroke: #ff7f0e"/>
     <use xlink:href="#m0427bc5462" x="167.522116" y="194.644442" style="fill: #ff7f0e; stroke: #ff7f0e"/>
     <use xlink:href="#m0427bc5462" x="90.428779" y="91.853337" style="fill: #ff7f0e; stroke: #ff7f0e"/>
     <use xlink:href="#m0427bc5462" x="116.126558" y="168.946663" style="fill: #ff7f0e; stroke: #ff7f0e"/>
     <use xlink:href="#m0427bc5462" x="296.011" y="143.248884" style="fill: #ff7f0e; stroke: #ff7f0e"/>
     <use xlink:href="#m0427bc5462" x="141.824337" y="91.853337" style="fill: #ff7f0e; stroke: #ff7f0e"/>
     <use xlink:href="#m0427bc5462" x="193.219884" y="168.946663" style="fill: #ff7f0e; stroke: #ff7f0e"/>
     <use xlink:href="#m0427bc5462" x="90.428779" y="220.342221" style="fill: #ff7f0e; stroke: #ff7f0e"/>
     <use xlink:href="#m0427bc5462" x="116.126558" y="143.248884" style="fill: #ff7f0e; stroke: #ff7f0e"/>
     <use xlink:href="#m0427bc5462" x="116.126558" y="91.853337" style="fill: #ff7f0e; stroke: #ff7f0e"/>
     <use xlink:href="#m0427bc5462" x="167.522116" y="117.551116" style="fill: #ff7f0e; stroke: #ff7f0e"/>
     <use xlink:href="#m0427bc5462" x="141.824337" y="14.76" style="fill: #ff7f0e; stroke: #ff7f0e"/>
     <use xlink:href="#m0427bc5462" x="218.917663" y="143.248884" style="fill: #ff7f0e; stroke: #ff7f0e"/>
     <use xlink:href="#m0427bc5462" x="270.313221" y="246.04" style="fill: #ff7f0e; stroke: #ff7f0e"/>
     <use xlink:href="#m0427bc5462" x="270.313221" y="194.644442" style="fill: #ff7f0e; stroke: #ff7f0e"/>
     <use xlink:href="#m0427bc5462" x="270.313221" y="40.457779" style="fill: #ff7f0e; stroke: #ff7f0e"/>
     <use xlink:href="#m0427bc5462" x="244.615442" y="168.946663" style="fill: #ff7f0e; stroke: #ff7f0e"/>
     <use xlink:href="#m0427bc5462" x="64.731" y="246.04" style="fill: #ff7f0e; stroke: #ff7f0e"/>
     <use xlink:href="#m0427bc5462" x="218.917663" y="14.76" style="fill: #ff7f0e; stroke: #ff7f0e"/>
     <use xlink:href="#m0427bc5462" x="167.522116" y="246.04" style="fill: #ff7f0e; stroke: #ff7f0e"/>
     <use xlink:href="#m0427bc5462" x="193.219884" y="143.248884" style="fill: #ff7f0e; stroke: #ff7f0e"/>
     <use xlink:href="#m0427bc5462" x="244.615442" y="40.457779" style="fill: #ff7f0e; stroke: #ff7f0e"/>
     <use xlink:href="#m0427bc5462" x="64.731" y="117.551116" style="fill: #ff7f0e; stroke: #ff7f0e"/>
     <use xlink:href="#m0427bc5462" x="141.824337" y="117.551116" style="fill: #ff7f0e; stroke: #ff7f0e"/>
     <use xlink:href="#m0427bc5462" x="193.219884" y="246.04" style="fill: #ff7f0e; stroke: #ff7f0e"/>
     <use xlink:href="#m0427bc5462" x="64.731" y="66.155558" style="fill: #ff7f0e; stroke: #ff7f0e"/>
     <use xlink:href="#m0427bc5462" x="141.824337" y="246.04" style="fill: #ff7f0e; stroke: #ff7f0e"/>
     <use xlink:href="#m0427bc5462" x="218.917663" y="220.342221" style="fill: #ff7f0e; stroke: #ff7f0e"/>
     <use xlink:href="#m0427bc5462" x="167.522116" y="40.457779" style="fill: #ff7f0e; stroke: #ff7f0e"/>
     <use xlink:href="#m0427bc5462" x="141.824337" y="168.946663" style="fill: #ff7f0e; stroke: #ff7f0e"/>
     <use xlink:href="#m0427bc5462" x="64.731" y="168.946663" style="fill: #ff7f0e; stroke: #ff7f0e"/>
     <use xlink:href="#m0427bc5462" x="244.615442" y="194.644442" style="fill: #ff7f0e; stroke: #ff7f0e"/>
     <use xlink:href="#m0427bc5462" x="193.219884" y="91.853337" style="fill: #ff7f0e; stroke: #ff7f0e"/>
     <use xlink:href="#m0427bc5462" x="193.219884" y="66.155558" style="fill: #ff7f0e; stroke: #ff7f0e"/>
     <use xlink:href="#m0427bc5462" x="90.428779" y="168.946663" style="fill: #ff7f0e; stroke: #ff7f0e"/>
     <use xlink:href="#m0427bc5462" x="270.313221" y="168.946663" style="fill: #ff7f0e; stroke: #ff7f0e"/>
     <use xlink:href="#m0427bc5462" x="90.428779" y="117.551116" style="fill: #ff7f0e; stroke: #ff7f0e"/>
     <use xlink:href="#m0427bc5462" x="270.313221" y="143.248884" style="fill: #ff7f0e; stroke: #ff7f0e"/>
     <use xlink:href="#m0427bc5462" x="270.313221" y="66.155558" style="fill: #ff7f0e; stroke: #ff7f0e"/>
     <use xlink:href="#m0427bc5462" x="90.428779" y="66.155558" style="fill: #ff7f0e; stroke: #ff7f0e"/>
     <use xlink:href="#m0427bc5462" x="116.126558" y="40.457779" style="fill: #ff7f0e; stroke: #ff7f0e"/>
     <use xlink:href="#m0427bc5462" x="141.824337" y="143.248884" style="fill: #ff7f0e; stroke: #ff7f0e"/>
     <use xlink:href="#m0427bc5462" x="296.011" y="91.853337" style="fill: #ff7f0e; stroke: #ff7f0e"/>
     <use xlink:href="#m0427bc5462" x="167.522116" y="66.155558" style="fill: #ff7f0e; stroke: #ff7f0e"/>
     <use xlink:href="#m0427bc5462" x="167.522116" y="168.946663" style="fill: #ff7f0e; stroke: #ff7f0e"/>
     <use xlink:href="#m0427bc5462" x="296.011" y="246.04" style="fill: #ff7f0e; stroke: #ff7f0e"/>
     <use xlink:href="#m0427bc5462" x="141.824337" y="40.457779" style="fill: #ff7f0e; stroke: #ff7f0e"/>
     <use xlink:href="#m0427bc5462" x="141.824337" y="220.342221" style="fill: #ff7f0e; stroke: #ff7f0e"/>
     <use xlink:href="#m0427bc5462" x="64.731" y="143.248884" style="fill: #ff7f0e; stroke: #ff7f0e"/>
     <use xlink:href="#m0427bc5462" x="167.522116" y="220.342221" style="fill: #ff7f0e; stroke: #ff7f0e"/>
     <use xlink:href="#m0427bc5462" x="218.917663" y="40.457779" style="fill: #ff7f0e; stroke: #ff7f0e"/>
     <use xlink:href="#m0427bc5462" x="116.126558" y="117.551116" style="fill: #ff7f0e; stroke: #ff7f0e"/>
    </g>
   </g>
   <g id="QuadContourSet_2">
    <path d="M 296.011 142.393024 
L 270.313221 140.359537 
L 244.615442 140.154929 
L 224.754175 143.248884 
L 218.917663 145.775793 
L 198.257617 168.946663 
L 207.022838 194.644442 
L 218.917663 202.66649 
L 242.465045 220.342221 
L 244.615442 221.852837 
L 270.313221 236.307079 
L 295.332103 246.04 
" clip-path="url(#p02dac4731c)" style="fill: none; stroke-dasharray: 5.55,2.4; stroke-dashoffset: 0; stroke: #1f77b4; stroke-width: 1.5"/>
    <path d="M 296.011 93.941252 
L 270.313221 92.563641 
L 267.310816 91.853337 
L 244.615442 86.481329 
L 218.917663 86.030496 
L 193.219884 86.837757 
L 167.522116 88.776511 
L 149.794121 91.853337 
L 141.824337 93.893406 
L 116.126558 104.70349 
L 102.04902 117.551116 
L 93.99659 143.248884 
L 101.148358 168.946663 
L 114.762997 194.644442 
L 116.126558 195.879221 
L 141.824337 215.144135 
L 148.484325 220.342221 
L 167.522116 236.03429 
L 180.338331 246.04 
" clip-path="url(#p02dac4731c)" style="fill: none; stroke-dasharray: 5.55,2.4; stroke-dashoffset: 0; stroke: #1f77b4; stroke-width: 1.5"/>
    <path d="M 64.731 218.553183 
L 73.737452 220.342221 
L 90.428779 222.849786 
L 113.573557 246.04 
M 296.011 61.860772 
L 270.313221 60.668009 
L 244.615442 54.622332 
L 218.917663 53.451344 
L 193.219884 52.131948 
L 167.522116 52.035679 
L 141.824337 52.785175 
L 116.126558 54.313615 
L 90.428779 61.521369 
L 64.731 57.985609 
" clip-path="url(#p02dac4731c)" style="fill: none; stroke-dasharray: 5.55,2.4; stroke-dashoffset: 0; stroke: #1f77b4; stroke-width: 1.5"/>
    <path d="M 100.941521 14.76 
L 90.428779 20.906989 
L 69.149168 14.76 
M 296.011 37.325995 
L 270.313221 36.569806 
L 244.615442 27.84226 
L 218.917663 25.891344 
L 193.219884 22.132014 
L 167.522116 20.315046 
L 146.06024 14.76 
" clip-path="url(#p02dac4731c)" style="fill: none; stroke-dasharray: 5.55,2.4; stroke-dashoffset: 0; stroke: #1f77b4; stroke-width: 1.5"/>
    <path clip-path="url(#p02dac4731c)" style="fill: none; stroke-dasharray: 5.55,2.4; stroke-dashoffset: 0; stroke: #1f77b4; stroke-width: 1.5"/>
    <path clip-path="url(#p02dac4731c)" style="fill: none; stroke-dasharray: 5.55,2.4; stroke-dashoffset: 0; stroke: #1f77b4; stroke-width: 1.5"/>
   </g>
   <g id="patch_3">
    <path d="M 64.731 246.04 
L 64.731 14.76 
" style="fill: none; stroke: #000000; stroke-width: 0.8; stroke-linejoin: miter; stroke-linecap: square"/>
   </g>
   <g id="patch_4">
    <path d="M 296.011 246.04 
L 296.011 14.76 
" style="fill: none; stroke: #000000; stroke-width: 0.8; stroke-linejoin: miter; stroke-linecap: square"/>
   </g>
   <g id="patch_5">
    <path d="M 64.731 246.04 
L 296.011 246.04 
" style="fill: none; stroke: #000000; stroke-width: 0.8; stroke-linejoin: miter; stroke-linecap: square"/>
   </g>
   <g id="patch_6">
    <path d="M 64.731 14.76 
L 296.011 14.76 
" style="fill: none; stroke: #000000; stroke-width: 0.8; stroke-linejoin: miter; stroke-linecap: square"/>
   </g>
   <g id="legend_1">
    <g id="patch_7">
     <path d="M 314.575 66.81625 
L 422.3 66.81625 
Q 424.3 66.81625 424.3 64.81625 
L 424.3 21.76 
Q 424.3 19.76 422.3 19.76 
L 314.575 19.76 
Q 312.575 19.76 312.575 21.76 
L 312.575 64.81625 
Q 312.575 66.81625 314.575 66.81625 
z
" style="fill: #ffffff; opacity: 0.8; stroke: #cccccc; stroke-linejoin: miter"/>
    </g>
    <g id="line2d_8">
     <path d="M 316.575 27.86 
L 326.575 27.86 
L 336.575 27.86 
" style="fill: none; stroke: #000000; stroke-width: 1.5; stroke-linecap: square"/>
    </g>
    <g id="text_9">
     <!-- True $z(x,y)$ -->
     <g transform="translate(344.575 31.36) scale(0.1 -0.1)">
      <defs>
       <path id="DejaVuSans-54" d="M -19 4666 
L 3928 4666 
L 3928 4134 
L 2272 4134 
L 2272 0 
L 1638 0 
L 1638 4134 
L -19 4134 
L -19 4666 
z
" transform="scale(0.015625)"/>
       <path id="DejaVuSans-72" d="M 2631 2963 
Q 2534 3019 2420 3045 
Q 2306 3072 2169 3072 
Q 1681 3072 1420 2755 
Q 1159 2438 1159 1844 
L 1159 0 
L 581 0 
L 581 3500 
L 1159 3500 
L 1159 2956 
Q 1341 3275 1631 3429 
Q 1922 3584 2338 3584 
Q 2397 3584 2469 3576 
Q 2541 3569 2628 3553 
L 2631 2963 
z
" transform="scale(0.015625)"/>
       <path id="DejaVuSans-75" d="M 544 1381 
L 544 3500 
L 1119 3500 
L 1119 1403 
Q 1119 906 1312 657 
Q 1506 409 1894 409 
Q 2359 409 2629 706 
Q 2900 1003 2900 1516 
L 2900 3500 
L 3475 3500 
L 3475 0 
L 2900 0 
L 2900 538 
Q 2691 219 2414 64 
Q 2138 -91 1772 -91 
Q 1169 -91 856 284 
Q 544 659 544 1381 
z
M 1991 3584 
L 1991 3584 
z
" transform="scale(0.015625)"/>
       <path id="DejaVuSans-65" d="M 3597 1894 
L 3597 1613 
L 953 1613 
Q 991 1019 1311 708 
Q 1631 397 2203 397 
Q 2534 397 2845 478 
Q 3156 559 3463 722 
L 3463 178 
Q 3153 47 2828 -22 
Q 2503 -91 2169 -91 
Q 1331 -91 842 396 
Q 353 884 353 1716 
Q 353 2575 817 3079 
Q 1281 3584 2069 3584 
Q 2775 3584 3186 3129 
Q 3597 2675 3597 1894 
z
M 3022 2063 
Q 3016 2534 2758 2815 
Q 2500 3097 2075 3097 
Q 1594 3097 1305 2825 
Q 1016 2553 972 2059 
L 3022 2063 
z
" transform="scale(0.015625)"/>
       <path id="DejaVuSans-20" transform="scale(0.015625)"/>
       <path id="DejaVuSans-Oblique-7a" d="M 744 3500 
L 3475 3500 
L 3372 2975 
L 738 459 
L 2913 459 
L 2822 0 
L -19 0 
L 84 525 
L 2719 3041 
L 653 3041 
L 744 3500 
z
" transform="scale(0.015625)"/>
       <path id="DejaVuSans-28" d="M 1984 4856 
Q 1566 4138 1362 3434 
Q 1159 2731 1159 2009 
Q 1159 1288 1364 580 
Q 1569 -128 1984 -844 
L 1484 -844 
Q 1016 -109 783 600 
Q 550 1309 550 2009 
Q 550 2706 781 3412 
Q 1013 4119 1484 4856 
L 1984 4856 
z
" transform="scale(0.015625)"/>
       <path id="DejaVuSans-2c" d="M 750 794 
L 1409 794 
L 1409 256 
L 897 -744 
L 494 -744 
L 750 256 
L 750 794 
z
" transform="scale(0.015625)"/>
       <path id="DejaVuSans-29" d="M 513 4856 
L 1013 4856 
Q 1481 4119 1714 3412 
Q 1947 2706 1947 2009 
Q 1947 1309 1714 600 
Q 1481 -109 1013 -844 
L 513 -844 
Q 928 -128 1133 580 
Q 1338 1288 1338 2009 
Q 1338 2731 1133 3434 
Q 928 4138 513 4856 
z
" transform="scale(0.015625)"/>
      </defs>
      <use xlink:href="#DejaVuSans-54" transform="translate(0 0.125)"/>
      <use xlink:href="#DejaVuSans-72" transform="translate(61.083984 0.125)"/>
      <use xlink:href="#DejaVuSans-75" transform="translate(102.197266 0.125)"/>
      <use xlink:href="#DejaVuSans-65" transform="translate(165.576172 0.125)"/>
      <use xlink:href="#DejaVuSans-20" transform="translate(227.099609 0.125)"/>
      <use xlink:href="#DejaVuSans-Oblique-7a" transform="translate(258.886719 0.125)"/>
      <use xlink:href="#DejaVuSans-28" transform="translate(311.376953 0.125)"/>
      <use xlink:href="#DejaVuSans-Oblique-78" transform="translate(350.390625 0.125)"/>
      <use xlink:href="#DejaVuSans-2c" transform="translate(409.570312 0.125)"/>
      <use xlink:href="#DejaVuSans-Oblique-79" transform="translate(460.839844 0.125)"/>
      <use xlink:href="#DejaVuSans-29" transform="translate(520.019531 0.125)"/>
     </g>
    </g>
    <g id="line2d_9">
     <g>
      <use xlink:href="#m0427bc5462" x="326.575" y="42.558438" style="fill: #ff7f0e; stroke: #ff7f0e"/>
     </g>
    </g>
    <g id="text_10">
     <!-- Train samples -->
     <g transform="translate(344.575 46.058438) scale(0.1 -0.1)">
      <defs>
       <path id="DejaVuSans-61" d="M 2194 1759 
Q 1497 1759 1228 1600 
Q 959 1441 959 1056 
Q 959 750 1161 570 
Q 1363 391 1709 391 
Q 2188 391 2477 730 
Q 2766 1069 2766 1631 
L 2766 1759 
L 2194 1759 
z
M 3341 1997 
L 3341 0 
L 2766 0 
L 2766 531 
Q 2569 213 2275 61 
Q 1981 -91 1556 -91 
Q 1019 -91 701 211 
Q 384 513 384 1019 
Q 384 1609 779 1909 
Q 1175 2209 1959 2209 
L 2766 2209 
L 2766 2266 
Q 2766 2663 2505 2880 
Q 2244 3097 1772 3097 
Q 1472 3097 1187 3025 
Q 903 2953 641 2809 
L 641 3341 
Q 956 3463 1253 3523 
Q 1550 3584 1831 3584 
Q 2591 3584 2966 3190 
Q 3341 2797 3341 1997 
z
" transform="scale(0.015625)"/>
       <path id="DejaVuSans-69" d="M 603 3500 
L 1178 3500 
L 1178 0 
L 603 0 
L 603 3500 
z
M 603 4863 
L 1178 4863 
L 1178 4134 
L 603 4134 
L 603 4863 
z
" transform="scale(0.015625)"/>
       <path id="DejaVuSans-6e" d="M 3513 2113 
L 3513 0 
L 2938 0 
L 2938 2094 
Q 2938 2591 2744 2837 
Q 2550 3084 2163 3084 
Q 1697 3084 1428 2787 
Q 1159 2491 1159 1978 
L 1159 0 
L 581 0 
L 581 3500 
L 1159 3500 
L 1159 2956 
Q 1366 3272 1645 3428 
Q 1925 3584 2291 3584 
Q 2894 3584 3203 3211 
Q 3513 2838 3513 2113 
z
" transform="scale(0.015625)"/>
       <path id="DejaVuSans-73" d="M 2834 3397 
L 2834 2853 
Q 2591 2978 2328 3040 
Q 2066 3103 1784 3103 
Q 1356 3103 1142 2972 
Q 928 2841 928 2578 
Q 928 2378 1081 2264 
Q 1234 2150 1697 2047 
L 1894 2003 
Q 2506 1872 2764 1633 
Q 3022 1394 3022 966 
Q 3022 478 2636 193 
Q 2250 -91 1575 -91 
Q 1294 -91 989 -36 
Q 684 19 347 128 
L 347 722 
Q 666 556 975 473 
Q 1284 391 1588 391 
Q 1994 391 2212 530 
Q 2431 669 2431 922 
Q 2431 1156 2273 1281 
Q 2116 1406 1581 1522 
L 1381 1569 
Q 847 1681 609 1914 
Q 372 2147 372 2553 
Q 372 3047 722 3315 
Q 1072 3584 1716 3584 
Q 2034 3584 2315 3537 
Q 2597 3491 2834 3397 
z
" transform="scale(0.015625)"/>
       <path id="DejaVuSans-6d" d="M 3328 2828 
Q 3544 3216 3844 3400 
Q 4144 3584 4550 3584 
Q 5097 3584 5394 3201 
Q 5691 2819 5691 2113 
L 5691 0 
L 5113 0 
L 5113 2094 
Q 5113 2597 4934 2840 
Q 4756 3084 4391 3084 
Q 3944 3084 3684 2787 
Q 3425 2491 3425 1978 
L 3425 0 
L 2847 0 
L 2847 2094 
Q 2847 2600 2669 2842 
Q 2491 3084 2119 3084 
Q 1678 3084 1418 2786 
Q 1159 2488 1159 1978 
L 1159 0 
L 581 0 
L 581 3500 
L 1159 3500 
L 1159 2956 
Q 1356 3278 1631 3431 
Q 1906 3584 2284 3584 
Q 2666 3584 2933 3390 
Q 3200 3197 3328 2828 
z
" transform="scale(0.015625)"/>
       <path id="DejaVuSans-70" d="M 1159 525 
L 1159 -1331 
L 581 -1331 
L 581 3500 
L 1159 3500 
L 1159 2969 
Q 1341 3281 1617 3432 
Q 1894 3584 2278 3584 
Q 2916 3584 3314 3078 
Q 3713 2572 3713 1747 
Q 3713 922 3314 415 
Q 2916 -91 2278 -91 
Q 1894 -91 1617 61 
Q 1341 213 1159 525 
z
M 3116 1747 
Q 3116 2381 2855 2742 
Q 2594 3103 2138 3103 
Q 1681 3103 1420 2742 
Q 1159 2381 1159 1747 
Q 1159 1113 1420 752 
Q 1681 391 2138 391 
Q 2594 391 2855 752 
Q 3116 1113 3116 1747 
z
" transform="scale(0.015625)"/>
       <path id="DejaVuSans-6c" d="M 603 4863 
L 1178 4863 
L 1178 0 
L 603 0 
L 603 4863 
z
" transform="scale(0.015625)"/>
      </defs>
      <use xlink:href="#DejaVuSans-54"/>
      <use xlink:href="#DejaVuSans-72" x="46.333984"/>
      <use xlink:href="#DejaVuSans-61" x="87.447266"/>
      <use xlink:href="#DejaVuSans-69" x="148.726562"/>
      <use xlink:href="#DejaVuSans-6e" x="176.509766"/>
      <use xlink:href="#DejaVuSans-20" x="239.888672"/>
      <use xlink:href="#DejaVuSans-73" x="271.675781"/>
      <use xlink:href="#DejaVuSans-61" x="323.775391"/>
      <use xlink:href="#DejaVuSans-6d" x="385.054688"/>
      <use xlink:href="#DejaVuSans-70" x="482.466797"/>
      <use xlink:href="#DejaVuSans-6c" x="545.943359"/>
      <use xlink:href="#DejaVuSans-65" x="573.726562"/>
      <use xlink:href="#DejaVuSans-73" x="635.25"/>
     </g>
    </g>
    <g id="line2d_10">
     <path d="M 316.575 57.236563 
L 326.575 57.236563 
L 336.575 57.236563 
" style="fill: none; stroke-dasharray: 5.55,2.4; stroke-dashoffset: 0; stroke: #1f77b4; stroke-width: 1.5"/>
    </g>
    <g id="text_11">
     <!-- Posterior mean -->
     <g transform="translate(344.575 60.736563) scale(0.1 -0.1)">
      <defs>
       <path id="DejaVuSans-50" d="M 1259 4147 
L 1259 2394 
L 2053 2394 
Q 2494 2394 2734 2622 
Q 2975 2850 2975 3272 
Q 2975 3691 2734 3919 
Q 2494 4147 2053 4147 
L 1259 4147 
z
M 628 4666 
L 2053 4666 
Q 2838 4666 3239 4311 
Q 3641 3956 3641 3272 
Q 3641 2581 3239 2228 
Q 2838 1875 2053 1875 
L 1259 1875 
L 1259 0 
L 628 0 
L 628 4666 
z
" transform="scale(0.015625)"/>
       <path id="DejaVuSans-6f" d="M 1959 3097 
Q 1497 3097 1228 2736 
Q 959 2375 959 1747 
Q 959 1119 1226 758 
Q 1494 397 1959 397 
Q 2419 397 2687 759 
Q 2956 1122 2956 1747 
Q 2956 2369 2687 2733 
Q 2419 3097 1959 3097 
z
M 1959 3584 
Q 2709 3584 3137 3096 
Q 3566 2609 3566 1747 
Q 3566 888 3137 398 
Q 2709 -91 1959 -91 
Q 1206 -91 779 398 
Q 353 888 353 1747 
Q 353 2609 779 3096 
Q 1206 3584 1959 3584 
z
" transform="scale(0.015625)"/>
       <path id="DejaVuSans-74" d="M 1172 4494 
L 1172 3500 
L 2356 3500 
L 2356 3053 
L 1172 3053 
L 1172 1153 
Q 1172 725 1289 603 
Q 1406 481 1766 481 
L 2356 481 
L 2356 0 
L 1766 0 
Q 1100 0 847 248 
Q 594 497 594 1153 
L 594 3053 
L 172 3053 
L 172 3500 
L 594 3500 
L 594 4494 
L 1172 4494 
z
" transform="scale(0.015625)"/>
      </defs>
      <use xlink:href="#DejaVuSans-50"/>
      <use xlink:href="#DejaVuSans-6f" x="56.677734"/>
      <use xlink:href="#DejaVuSans-73" x="117.859375"/>
      <use xlink:href="#DejaVuSans-74" x="169.958984"/>
      <use xlink:href="#DejaVuSans-65" x="209.167969"/>
      <use xlink:href="#DejaVuSans-72" x="270.691406"/>
      <use xlink:href="#DejaVuSans-69" x="311.804688"/>
      <use xlink:href="#DejaVuSans-6f" x="339.587891"/>
      <use xlink:href="#DejaVuSans-72" x="400.769531"/>
      <use xlink:href="#DejaVuSans-20" x="441.882812"/>
      <use xlink:href="#DejaVuSans-6d" x="473.669922"/>
      <use xlink:href="#DejaVuSans-65" x="571.082031"/>
      <use xlink:href="#DejaVuSans-61" x="632.605469"/>
      <use xlink:href="#DejaVuSans-6e" x="693.884766"/>
     </g>
    </g>
   </g>
  </g>
 </g>
 <defs>
  <clipPath id="p02dac4731c">
   <rect x="64.731" y="14.76" width="231.28" height="231.28"/>
  </clipPath>
 </defs>
</svg>
