<?xml version="1.0" encoding="utf-8" standalone="no"?>
<!DOCTYPE svg PUBLIC "-//W3C//DTD SVG 1.1//EN"
  "http://www.w3.org/Graphics/SVG/1.1/DTD/svg11.dtd">
<svg xmlns:xlink="http://www.w3.org/1999/xlink" width="288pt" height="216pt" viewBox="0 0 288 216" xmlns="http://www.w3.org/2000/svg" version="1.1">
 <metadata>
  <rdf:RDF xmlns:dc="http://purl.org/dc/elements/1.1/" xmlns:cc="http://creativecommons.org/ns#" xmlns:rdf="http://www.w3.org/1999/02/22-rdf-syntax-ns#">
   <cc:Work>
    <dc:type rdf:resource="http://purl.org/dc/dcmitype/StillImage"/>
    <dc:date>2025-02-15T23:38:36.539744</dc:date>
    <dc:format>image/svg+xml</dc:format>
    <dc:creator>
     <cc:Agent>
      <dc:title>Matplotlib v3.9.4, https://matplotlib.org/</dc:title>
     </cc:Agent>
    </dc:creator>
   </cc:Work>
  </rdf:RDF>
 </metadata>
 <defs>
  <style type="text/css">*{stroke-linejoin: round; stroke-linecap: butt}</style>
 </defs>
 <g id="figure_1">
  <g id="patch_1">
   <path d="M 0 216 
L 288 216 
L 288 0 
L 0 0 
z
" style="fill: #ffffff"/>
  </g>
  <g id="axes_1">
   <g id="patch_2">
    <path d="M 36 192.24 
L 259.2 192.24 
L 259.2 25.92 
L 36 25.92 
z
" style="fill: #ffffff"/>
   </g>
   <g id="PolyCollection_1">
    <path d="M 46.238714 33.48 
L 46.238714 146.275243 
L 46.573678 145.478142 
L 47.545578 143.151236 
L 47.886215 142.331511 
L 47.966267 142.138588 
L 48.520248 140.801378 
L 48.780312 140.172406 
L 49.362351 138.762961 
L 50.496617 136.014045 
L 50.7241 135.463185 
L 51.688513 133.133247 
L 52.782009 130.510507 
L 52.808073 130.448302 
L 53.054047 129.862595 
L 53.660178 128.427063 
L 54.770498 125.834041 
L 55.385905 124.421984 
L 55.949114 123.148495 
L 56.153339 122.691611 
L 56.306816 122.350014 
L 58.044709 118.607775 
L 58.125258 118.440572 
L 58.468724 117.734722 
L 60.175681 114.415763 
L 61.436272 112.202608 
L 61.700751 111.768017 
L 61.904722 111.440275 
L 64.088219 108.394502 
L 64.252073 108.203416 
L 64.736499 107.672635 
L 65.585896 106.870602 
L 65.621211 106.840922 
L 65.899175 106.618308 
L 65.932785 106.592698 
L 66.781093 106.041193 
L 67.23255 105.825075 
L 67.645148 105.676298 
L 69.008565 105.527849 
L 69.595031 105.630353 
L 70.363021 105.917574 
L 71.988195 107.088301 
L 72.525607 107.636975 
L 73.235713 108.47777 
L 75.557085 112.042939 
L 76.215646 113.249625 
L 76.386405 113.574525 
L 76.862123 114.503964 
L 77.339112 115.469394 
L 77.441768 115.681294 
L 78.43678 117.803314 
L 79.667692 120.573878 
L 81.183994 124.150626 
L 81.620103 125.203859 
L 81.936902 125.974251 
L 81.982159 126.084559 
L 82.285206 126.825614 
L 82.339595 126.958889 
L 83.823326 130.623473 
L 84.09875 131.307545 
L 86.330758 136.847151 
L 86.411076 137.045415 
L 87.064049 138.65228 
L 89.309614 144.078356 
L 90.006223 145.719992 
L 90.307021 146.421676 
L 92.00065 150.280661 
L 93.738144 154.058229 
L 94.650516 155.960397 
L 95.1757 157.028301 
L 95.553853 157.784725 
L 96.133764 158.923996 
L 97.235206 161.017304 
L 98.173133 162.725399 
L 98.373234 163.080861 
L 98.72328 163.694968 
L 99.277321 164.647106 
L 99.344638 164.761118 
L 99.838195 165.586002 
L 101.628736 168.415292 
L 102.527368 169.739554 
L 102.611254 169.859952 
L 102.72384 170.020646 
L 103.355285 170.903875 
L 103.421901 170.99525 
L 104.07647 171.875265 
L 106.992798 175.413349 
L 107.134217 175.569698 
L 109.956017 178.4152 
L 110.145656 178.58845 
L 110.214025 178.650387 
L 111.015153 179.35504 
L 111.158773 179.477338 
L 112.2137 180.337976 
L 112.464512 180.532923 
L 113.255034 181.123074 
L 113.587253 181.359944 
L 115.189799 182.407561 
L 116.751055 183.267167 
L 117.161065 183.464383 
L 117.246632 183.503982 
L 117.627265 183.67322 
L 118.002854 183.829094 
L 120.536833 184.562295 
L 120.592878 184.571688 
L 121.488269 184.67759 
L 122.722374 184.68 
L 123.152654 184.639381 
L 123.614947 184.570829 
L 123.664002 184.562007 
L 124.062256 184.479303 
L 125.834921 183.862144 
L 127.594633 182.827786 
L 127.781418 182.692579 
L 127.960765 182.557967 
L 131.574887 178.866703 
L 131.87421 178.477779 
L 132.898272 177.052976 
L 133.356587 176.368878 
L 133.943621 175.451604 
L 134.051926 175.277353 
L 134.366802 174.762241 
L 135.852601 172.162052 
L 136.730033 170.501107 
L 137.230351 169.514619 
L 137.273805 169.42765 
L 138.435695 167.027514 
L 138.503762 166.882602 
L 138.572772 166.735225 
L 138.868563 166.098287 
L 138.992856 165.828175 
L 139.488893 164.73576 
L 140.283708 162.939926 
L 140.358644 162.767883 
L 140.800293 161.744763 
L 140.935858 161.427664 
L 141.857433 159.236934 
L 141.871342 159.203408 
L 142.196111 158.417446 
L 142.293845 158.179656 
L 142.585742 157.46603 
L 143.701842 154.695041 
L 143.735779 154.60981 
L 144.178625 153.493511 
L 144.386054 152.96796 
L 144.473678 152.745505 
L 144.727586 152.099394 
L 145.268928 150.715108 
L 145.523949 150.060258 
L 146.505258 147.528711 
L 146.533752 147.454975 
L 147.123726 145.927384 
L 147.534908 144.861994 
L 148.130082 143.320877 
L 149.257757 140.412628 
L 149.561554 139.633612 
L 151.64433 134.379053 
L 151.753481 134.109016 
L 152.421487 132.470953 
L 152.433908 132.44074 
L 152.996693 131.082203 
L 153.643498 129.547363 
L 153.770754 129.248967 
L 154.110193 128.45908 
L 155.411349 125.519178 
L 158.64259 118.929069 
L 159.843024 116.778575 
L 160.545789 115.601814 
L 160.791618 115.204934 
L 161.821498 113.627563 
L 162.000458 113.367741 
L 162.392556 112.813423 
L 162.852297 112.189933 
L 163.309765 111.598135 
L 163.599763 111.237918 
L 163.999964 110.759966 
L 164.842842 109.826619 
L 166.616112 108.192118 
L 166.791794 108.054703 
L 166.841139 108.016909 
L 167.560775 107.50563 
L 168.117828 107.161333 
L 169.127909 106.651778 
L 169.747828 106.412431 
L 170.086409 106.305272 
L 170.840393 106.12645 
L 171.244477 106.0645 
L 171.425674 106.044442 
L 172.383689 106.01709 
L 172.482246 106.02179 
L 172.642883 106.032453 
L 173.581269 106.168741 
L 173.845047 106.229725 
L 174.405171 106.392147 
L 174.791161 106.530056 
L 174.908101 106.575982 
L 174.955547 106.59514 
L 175.327424 106.756496 
L 175.807738 106.993714 
L 176.89642 107.650539 
L 178.676632 109.075756 
L 178.963594 109.345584 
L 179.193737 109.569919 
L 179.655003 110.040802 
L 180.037546 110.452533 
L 180.290874 110.735651 
L 180.451547 110.919565 
L 180.521174 111.000338 
L 181.661995 112.411521 
L 182.316081 113.294466 
L 182.40547 113.419177 
L 182.511464 113.568429 
L 182.686832 113.818354 
L 183.182857 114.545225 
L 183.744892 115.404389 
L 184.424714 116.492757 
L 185.521077 118.357935 
L 186.494658 120.123051 
L 188.162634 123.36874 
L 188.421634 123.896223 
L 189.069721 125.242142 
L 190.002193 127.24008 
L 190.146648 127.555665 
L 191.223502 129.95668 
L 191.82234 131.325742 
L 192.201872 132.204787 
L 193.993586 136.456011 
L 196.421389 142.403028 
L 196.431874 142.428969 
L 197.138703 144.181078 
L 197.148717 144.205873 
L 197.371616 144.759079 
L 197.391039 144.807251 
L 198.22256 146.870458 
L 198.514227 147.593225 
L 198.676932 147.995955 
L 198.712332 148.083508 
L 199.210545 149.314076 
L 201.693208 155.347165 
L 202.454606 157.147451 
L 202.537634 157.341989 
L 202.94312 158.28621 
L 203.114122 158.68151 
L 203.709779 160.044072 
L 204.920119 162.737137 
L 205.014394 162.942258 
L 205.507552 164.003853 
L 207.000125 167.088751 
L 207.654851 168.376365 
L 208.188005 169.393422 
L 208.284869 169.574949 
L 208.467481 169.914795 
L 209.443856 171.670849 
L 209.783234 172.256822 
L 210.70585 173.783372 
L 210.843036 174.001956 
L 211.264644 174.65981 
L 211.892194 175.599676 
L 214.101477 178.523234 
L 214.400509 178.871973 
L 216.39086 180.90257 
L 219.442874 183.036861 
L 220.444478 183.483513 
L 220.523454 183.513441 
L 220.686159 183.572922 
L 220.794548 183.610636 
L 221.807932 183.896544 
L 221.84794 183.90524 
L 222.080441 183.952751 
L 222.572486 184.032388 
L 222.899795 184.070143 
L 223.144584 184.090409 
L 226.388621 183.752453 
L 227.337529 183.455521 
L 228.285349 183.078557 
L 228.376782 183.038139 
L 229.089138 182.700052 
L 229.696527 182.380725 
L 229.765622 182.342592 
L 230.403997 181.974955 
L 230.444404 181.950783 
L 230.748129 181.765335 
L 230.874043 181.68686 
L 230.95401 181.636312 
L 232.995726 180.225197 
L 234.254213 179.258956 
L 238.925706 175.381521 
L 240.581383 174.026826 
L 241.305797 173.456103 
L 241.429425 173.360352 
L 243.328947 171.965821 
L 243.555051 171.810761 
L 244.314163 171.308867 
L 245.04622 170.854954 
L 245.517512 170.579465 
L 245.628417 170.516593 
L 245.631779 170.514613 
L 246.132146 170.240317 
L 246.771693 169.913532 
L 247.798018 169.446088 
L 247.827177 169.433683 
L 247.827177 112.471929 
L 247.827177 112.471929 
L 247.798018 112.550836 
L 246.771693 115.312058 
L 246.132146 117.01 
L 245.631779 118.324202 
L 245.628417 118.332963 
L 245.517512 118.622463 
L 245.04622 119.845 
L 244.314163 121.717404 
L 243.555051 123.621874 
L 243.328947 124.18143 
L 241.429425 128.724248 
L 241.305797 129.009486 
L 240.581383 130.653019 
L 238.925706 134.220585 
L 234.254213 142.658443 
L 232.995726 144.470663 
L 230.95401 146.951949 
L 230.874043 147.03719 
L 230.748129 147.169508 
L 230.444404 147.479436 
L 230.403997 147.51974 
L 229.765622 148.123167 
L 229.696527 148.184844 
L 229.089138 148.696958 
L 228.376782 149.226839 
L 228.285349 149.289277 
L 227.337529 149.86045 
L 226.388621 150.292191 
L 223.144584 150.682573 
L 222.899795 150.642976 
L 222.572486 150.574966 
L 222.080441 150.439963 
L 221.84794 150.362435 
L 221.807932 150.348244 
L 220.794548 149.90208 
L 220.686159 149.844498 
L 220.523454 149.754599 
L 220.444478 149.709523 
L 219.442874 149.050704 
L 216.39086 146.083759 
L 214.400509 143.412087 
L 214.101477 142.963712 
L 211.892194 139.295725 
L 211.264644 138.146309 
L 210.843036 137.349217 
L 210.70585 137.085711 
L 209.783234 135.261176 
L 209.443856 134.568192 
L 208.467481 132.512679 
L 208.284869 132.11859 
L 208.188005 131.908114 
L 207.654851 130.736231 
L 207.000125 129.2648 
L 205.507552 125.79002 
L 205.014394 124.608811 
L 204.920119 124.381392 
L 203.709779 121.415892 
L 203.114122 119.929183 
L 202.94312 119.499412 
L 202.537634 118.475497 
L 202.454606 118.26507 
L 201.693208 116.323308 
L 199.210545 109.886496 
L 198.712332 108.583511 
L 198.676932 108.490882 
L 198.514227 108.064975 
L 198.22256 107.301465 
L 197.391039 105.12519 
L 197.371616 105.074363 
L 197.148717 104.49166 
L 197.138703 104.465462 
L 196.431874 102.621248 
L 196.421389 102.593928 
L 193.993586 96.340706 
L 192.201872 91.864134 
L 191.82234 90.93691 
L 191.223502 89.491479 
L 190.146648 86.952225 
L 190.002193 86.617929 
L 189.069721 84.500007 
L 188.421634 83.07143 
L 188.162634 82.51112 
L 186.494658 79.061384 
L 185.521077 77.186135 
L 184.424714 75.209163 
L 183.744892 74.059692 
L 183.182857 73.155858 
L 182.686832 72.394144 
L 182.511464 72.133177 
L 182.40547 71.977576 
L 182.316081 71.847558 
L 181.661995 70.931698 
L 180.521174 69.487508 
L 180.451547 69.405845 
L 180.290874 69.220261 
L 180.037546 68.935864 
L 179.655003 68.525759 
L 179.193737 68.062534 
L 178.963594 67.844288 
L 178.676632 67.584307 
L 176.89642 66.278644 
L 175.807738 65.745913 
L 175.327424 65.575977 
L 174.955547 65.471889 
L 174.908101 65.460339 
L 174.791161 65.433544 
L 174.405171 65.362062 
L 173.845047 65.304399 
L 173.581269 65.296133 
L 172.642883 65.364608 
L 172.482246 65.391605 
L 172.383689 65.410356 
L 171.425674 65.679332 
L 171.244477 65.747787 
L 170.840393 65.92034 
L 170.086409 66.315282 
L 169.747828 66.523164 
L 169.127909 66.95204 
L 168.117828 67.781886 
L 167.560775 68.307246 
L 166.841139 69.054938 
L 166.791794 69.108988 
L 166.616112 69.304339 
L 164.842842 71.51852 
L 163.999964 72.717538 
L 163.599763 73.317856 
L 163.309765 73.764877 
L 162.852297 74.490029 
L 162.392556 75.242693 
L 162.000458 75.902871 
L 161.821498 76.209622 
L 160.791618 78.037935 
L 160.545789 78.489504 
L 159.843024 79.810724 
L 158.64259 82.16373 
L 155.411349 88.9886 
L 154.110193 91.890368 
L 153.770754 92.658145 
L 153.643498 92.947016 
L 152.996693 94.423036 
L 152.433908 95.716875 
L 152.421487 95.745525 
L 151.753481 97.291079 
L 151.64433 97.544482 
L 149.561554 102.410693 
L 149.257757 103.123393 
L 148.130082 105.769126 
L 147.534908 107.163522 
L 147.123726 108.125092 
L 146.533752 109.501402 
L 146.505258 109.567733 
L 145.523949 111.844294 
L 145.268928 112.432826 
L 144.727586 113.677174 
L 144.473678 114.258277 
L 144.386054 114.458437 
L 144.178625 114.931321 
L 143.735779 115.936639 
L 143.701842 116.013432 
L 142.585742 118.517146 
L 142.293845 119.16436 
L 142.196111 119.38031 
L 141.871342 120.09506 
L 141.857433 120.125542 
L 140.935858 122.127917 
L 140.800293 122.419105 
L 140.358644 123.36147 
L 140.283708 123.520406 
L 139.488893 125.187342 
L 138.992856 126.209677 
L 138.868563 126.463598 
L 138.572772 127.064025 
L 138.503762 127.203327 
L 138.435695 127.340444 
L 137.273805 129.634477 
L 137.230351 129.718517 
L 136.730033 130.676302 
L 135.852601 132.311465 
L 134.366802 134.941029 
L 134.051926 135.474303 
L 133.943621 135.655634 
L 133.356587 136.62036 
L 132.898272 137.351297 
L 131.87421 138.91082 
L 131.574887 139.346755 
L 127.960765 143.822885 
L 127.781418 144.004058 
L 127.594633 144.188434 
L 125.834921 145.694786 
L 124.062256 146.763523 
L 123.664002 146.937534 
L 123.614947 146.957212 
L 123.152654 147.123856 
L 122.722374 147.247588 
L 121.488269 147.430075 
L 120.592878 147.39681 
L 120.536833 147.389991 
L 118.002854 146.474759 
L 117.627265 146.235935 
L 117.246632 145.966286 
L 117.161065 145.901843 
L 116.751055 145.573424 
L 115.189799 144.026608 
L 113.587253 141.957615 
L 113.255034 141.469306 
L 112.464512 140.228005 
L 112.2137 139.811279 
L 111.158773 137.94243 
L 111.015153 137.673929 
L 110.214025 136.117009 
L 110.145656 135.979608 
L 109.956017 135.594873 
L 107.134217 129.300752 
L 106.992798 128.960383 
L 104.07647 121.54173 
L 103.421901 119.794669 
L 103.355285 119.615644 
L 102.72384 117.909033 
L 102.611254 117.603042 
L 102.527368 117.374805 
L 101.628736 114.916512 
L 99.838195 109.980572 
L 99.344638 108.620097 
L 99.277321 108.43475 
L 98.72328 106.912257 
L 98.373234 105.953721 
L 98.173133 105.407249 
L 97.235206 102.863436 
L 96.133764 99.924452 
L 95.553853 98.403336 
L 95.1757 97.422699 
L 94.650516 96.076922 
L 93.738144 93.787862 
L 92.00065 89.625068 
L 90.307021 85.853173 
L 90.006223 85.21568 
L 89.309614 83.778859 
L 87.064049 79.540703 
L 86.411076 78.425086 
L 86.330758 78.291535 
L 84.09875 74.905146 
L 83.823326 74.530249 
L 82.339595 72.667091 
L 82.285206 72.603648 
L 81.982159 72.256435 
L 81.936902 72.205397 
L 81.620103 71.854804 
L 81.183994 71.389704 
L 79.667692 69.919386 
L 78.43678 68.870046 
L 77.441768 68.09421 
L 77.339112 68.017033 
L 76.862123 67.663949 
L 76.386405 67.319101 
L 76.215646 67.196631 
L 75.557085 66.727908 
L 73.235713 65.032741 
L 72.525607 64.468535 
L 71.988195 64.01824 
L 70.363021 62.506333 
L 69.595031 61.702988 
L 69.008565 61.049056 
L 67.645148 59.396357 
L 67.23255 58.861973 
L 66.781093 58.26064 
L 65.932785 57.088381 
L 65.899175 57.04091 
L 65.621211 56.645594 
L 65.585896 56.595006 
L 64.736499 55.358379 
L 64.252073 54.63821 
L 64.088219 54.392613 
L 61.904722 51.067964 
L 61.700751 50.755808 
L 61.436272 50.351645 
L 60.175681 48.440364 
L 58.468724 45.927022 
L 58.125258 45.436017 
L 58.044709 45.321677 
L 56.306816 42.941472 
L 56.153339 42.739885 
L 55.949114 42.474007 
L 55.385905 41.755015 
L 54.770498 40.99416 
L 53.660178 39.69027 
L 53.054047 39.01741 
L 52.808073 38.752471 
L 52.782009 38.724661 
L 51.688513 37.606528 
L 50.7241 36.699854 
L 50.496617 36.497004 
L 49.362351 35.548706 
L 48.780312 35.103019 
L 48.520248 34.912842 
L 47.966267 34.526181 
L 47.886215 34.472359 
L 47.545578 34.249228 
L 46.573678 33.664124 
L 46.238714 33.48 
z
" clip-path="url(#p814b1371e1)" style="fill: #1f77b4; fill-opacity: 0.5"/>
   </g>
   <g id="matplotlib.axis_1">
    <g id="xtick_1">
     <g id="line2d_1">
      <defs>
       <path id="m0d3c678c6f" d="M 0 0 
L 0 3.5 
" style="stroke: #000000; stroke-width: 0.8"/>
      </defs>
      <g>
       <use xlink:href="#m0d3c678c6f" x="46.145455" y="192.24" style="stroke: #000000; stroke-width: 0.8"/>
      </g>
     </g>
     <g id="text_1">
      <!-- −1.0 -->
      <g transform="translate(34.004048 206.838437) scale(0.1 -0.1)">
       <defs>
        <path id="DejaVuSans-2212" d="M 678 2272 
L 4684 2272 
L 4684 1741 
L 678 1741 
L 678 2272 
z
" transform="scale(0.015625)"/>
        <path id="DejaVuSans-31" d="M 794 531 
L 1825 531 
L 1825 4091 
L 703 3866 
L 703 4441 
L 1819 4666 
L 2450 4666 
L 2450 531 
L 3481 531 
L 3481 0 
L 794 0 
L 794 531 
z
" transform="scale(0.015625)"/>
        <path id="DejaVuSans-2e" d="M 684 794 
L 1344 794 
L 1344 0 
L 684 0 
L 684 794 
z
" transform="scale(0.015625)"/>
        <path id="DejaVuSans-30" d="M 2034 4250 
Q 1547 4250 1301 3770 
Q 1056 3291 1056 2328 
Q 1056 1369 1301 889 
Q 1547 409 2034 409 
Q 2525 409 2770 889 
Q 3016 1369 3016 2328 
Q 3016 3291 2770 3770 
Q 2525 4250 2034 4250 
z
M 2034 4750 
Q 2819 4750 3233 4129 
Q 3647 3509 3647 2328 
Q 3647 1150 3233 529 
Q 2819 -91 2034 -91 
Q 1250 -91 836 529 
Q 422 1150 422 2328 
Q 422 3509 836 4129 
Q 1250 4750 2034 4750 
z
" transform="scale(0.015625)"/>
       </defs>
       <use xlink:href="#DejaVuSans-2212"/>
       <use xlink:href="#DejaVuSans-31" x="83.789062"/>
       <use xlink:href="#DejaVuSans-2e" x="147.412109"/>
       <use xlink:href="#DejaVuSans-30" x="179.199219"/>
      </g>
     </g>
    </g>
    <g id="xtick_2">
     <g id="line2d_2">
      <g>
       <use xlink:href="#m0d3c678c6f" x="96.872727" y="192.24" style="stroke: #000000; stroke-width: 0.8"/>
      </g>
     </g>
     <g id="text_2">
      <!-- −0.5 -->
      <g transform="translate(84.731321 206.838437) scale(0.1 -0.1)">
       <defs>
        <path id="DejaVuSans-35" d="M 691 4666 
L 3169 4666 
L 3169 4134 
L 1269 4134 
L 1269 2991 
Q 1406 3038 1543 3061 
Q 1681 3084 1819 3084 
Q 2600 3084 3056 2656 
Q 3513 2228 3513 1497 
Q 3513 744 3044 326 
Q 2575 -91 1722 -91 
Q 1428 -91 1123 -41 
Q 819 9 494 109 
L 494 744 
Q 775 591 1075 516 
Q 1375 441 1709 441 
Q 2250 441 2565 725 
Q 2881 1009 2881 1497 
Q 2881 1984 2565 2268 
Q 2250 2553 1709 2553 
Q 1456 2553 1204 2497 
Q 953 2441 691 2322 
L 691 4666 
z
" transform="scale(0.015625)"/>
       </defs>
       <use xlink:href="#DejaVuSans-2212"/>
       <use xlink:href="#DejaVuSans-30" x="83.789062"/>
       <use xlink:href="#DejaVuSans-2e" x="147.412109"/>
       <use xlink:href="#DejaVuSans-35" x="179.199219"/>
      </g>
     </g>
    </g>
    <g id="xtick_3">
     <g id="line2d_3">
      <g>
       <use xlink:href="#m0d3c678c6f" x="147.6" y="192.24" style="stroke: #000000; stroke-width: 0.8"/>
      </g>
     </g>
     <g id="text_3">
      <!-- 0.0 -->
      <g transform="translate(139.648438 206.838437) scale(0.1 -0.1)">
       <use xlink:href="#DejaVuSans-30"/>
       <use xlink:href="#DejaVuSans-2e" x="63.623047"/>
       <use xlink:href="#DejaVuSans-30" x="95.410156"/>
      </g>
     </g>
    </g>
    <g id="xtick_4">
     <g id="line2d_4">
      <g>
       <use xlink:href="#m0d3c678c6f" x="198.327273" y="192.24" style="stroke: #000000; stroke-width: 0.8"/>
      </g>
     </g>
     <g id="text_4">
      <!-- 0.5 -->
      <g transform="translate(190.37571 206.838437) scale(0.1 -0.1)">
       <use xlink:href="#DejaVuSans-30"/>
       <use xlink:href="#DejaVuSans-2e" x="63.623047"/>
       <use xlink:href="#DejaVuSans-35" x="95.410156"/>
      </g>
     </g>
    </g>
    <g id="xtick_5">
     <g id="line2d_5">
      <g>
       <use xlink:href="#m0d3c678c6f" x="249.054545" y="192.24" style="stroke: #000000; stroke-width: 0.8"/>
      </g>
     </g>
     <g id="text_5">
      <!-- 1.0 -->
      <g transform="translate(241.102983 206.838437) scale(0.1 -0.1)">
       <use xlink:href="#DejaVuSans-31"/>
       <use xlink:href="#DejaVuSans-2e" x="63.623047"/>
       <use xlink:href="#DejaVuSans-30" x="95.410156"/>
      </g>
     </g>
    </g>
   </g>
   <g id="matplotlib.axis_2">
    <g id="ytick_1">
     <g id="line2d_6">
      <defs>
       <path id="m9fbf9081cc" d="M 0 0 
L -3.5 0 
" style="stroke: #000000; stroke-width: 0.8"/>
      </defs>
      <g>
       <use xlink:href="#m9fbf9081cc" x="36" y="189.190631" style="stroke: #000000; stroke-width: 0.8"/>
      </g>
     </g>
     <g id="text_6">
      <!-- −1.5 -->
      <g transform="translate(4.717187 192.98985) scale(0.1 -0.1)">
       <use xlink:href="#DejaVuSans-2212"/>
       <use xlink:href="#DejaVuSans-31" x="83.789062"/>
       <use xlink:href="#DejaVuSans-2e" x="147.412109"/>
       <use xlink:href="#DejaVuSans-35" x="179.199219"/>
      </g>
     </g>
    </g>
    <g id="ytick_2">
     <g id="line2d_7">
      <g>
       <use xlink:href="#m9fbf9081cc" x="36" y="167.997668" style="stroke: #000000; stroke-width: 0.8"/>
      </g>
     </g>
     <g id="text_7">
      <!-- −1.0 -->
      <g transform="translate(4.717187 171.796887) scale(0.1 -0.1)">
       <use xlink:href="#DejaVuSans-2212"/>
       <use xlink:href="#DejaVuSans-31" x="83.789062"/>
       <use xlink:href="#DejaVuSans-2e" x="147.412109"/>
       <use xlink:href="#DejaVuSans-30" x="179.199219"/>
      </g>
     </g>
    </g>
    <g id="ytick_3">
     <g id="line2d_8">
      <g>
       <use xlink:href="#m9fbf9081cc" x="36" y="146.804706" style="stroke: #000000; stroke-width: 0.8"/>
      </g>
     </g>
     <g id="text_8">
      <!-- −0.5 -->
      <g transform="translate(4.717187 150.603925) scale(0.1 -0.1)">
       <use xlink:href="#DejaVuSans-2212"/>
       <use xlink:href="#DejaVuSans-30" x="83.789062"/>
       <use xlink:href="#DejaVuSans-2e" x="147.412109"/>
       <use xlink:href="#DejaVuSans-35" x="179.199219"/>
      </g>
     </g>
    </g>
    <g id="ytick_4">
     <g id="line2d_9">
      <g>
       <use xlink:href="#m9fbf9081cc" x="36" y="125.611743" style="stroke: #000000; stroke-width: 0.8"/>
      </g>
     </g>
     <g id="text_9">
      <!-- 0.0 -->
      <g transform="translate(13.096875 129.410962) scale(0.1 -0.1)">
       <use xlink:href="#DejaVuSans-30"/>
       <use xlink:href="#DejaVuSans-2e" x="63.623047"/>
       <use xlink:href="#DejaVuSans-30" x="95.410156"/>
      </g>
     </g>
    </g>
    <g id="ytick_5">
     <g id="line2d_10">
      <g>
       <use xlink:href="#m9fbf9081cc" x="36" y="104.41878" style="stroke: #000000; stroke-width: 0.8"/>
      </g>
     </g>
     <g id="text_10">
      <!-- 0.5 -->
      <g transform="translate(13.096875 108.217999) scale(0.1 -0.1)">
       <use xlink:href="#DejaVuSans-30"/>
       <use xlink:href="#DejaVuSans-2e" x="63.623047"/>
       <use xlink:href="#DejaVuSans-35" x="95.410156"/>
      </g>
     </g>
    </g>
    <g id="ytick_6">
     <g id="line2d_11">
      <g>
       <use xlink:href="#m9fbf9081cc" x="36" y="83.225818" style="stroke: #000000; stroke-width: 0.8"/>
      </g>
     </g>
     <g id="text_11">
      <!-- 1.0 -->
      <g transform="translate(13.096875 87.025037) scale(0.1 -0.1)">
       <use xlink:href="#DejaVuSans-31"/>
       <use xlink:href="#DejaVuSans-2e" x="63.623047"/>
       <use xlink:href="#DejaVuSans-30" x="95.410156"/>
      </g>
     </g>
    </g>
    <g id="ytick_7">
     <g id="line2d_12">
      <g>
       <use xlink:href="#m9fbf9081cc" x="36" y="62.032855" style="stroke: #000000; stroke-width: 0.8"/>
      </g>
     </g>
     <g id="text_12">
      <!-- 1.5 -->
      <g transform="translate(13.096875 65.832074) scale(0.1 -0.1)">
       <use xlink:href="#DejaVuSans-31"/>
       <use xlink:href="#DejaVuSans-2e" x="63.623047"/>
       <use xlink:href="#DejaVuSans-35" x="95.410156"/>
      </g>
     </g>
    </g>
    <g id="ytick_8">
     <g id="line2d_13">
      <g>
       <use xlink:href="#m9fbf9081cc" x="36" y="40.839893" style="stroke: #000000; stroke-width: 0.8"/>
      </g>
     </g>
     <g id="text_13">
      <!-- 2.0 -->
      <g transform="translate(13.096875 44.639111) scale(0.1 -0.1)">
       <defs>
        <path id="DejaVuSans-32" d="M 1228 531 
L 3431 531 
L 3431 0 
L 469 0 
L 469 531 
Q 828 903 1448 1529 
Q 2069 2156 2228 2338 
Q 2531 2678 2651 2914 
Q 2772 3150 2772 3378 
Q 2772 3750 2511 3984 
Q 2250 4219 1831 4219 
Q 1534 4219 1204 4116 
Q 875 4013 500 3803 
L 500 4441 
Q 881 4594 1212 4672 
Q 1544 4750 1819 4750 
Q 2544 4750 2975 4387 
Q 3406 4025 3406 3419 
Q 3406 3131 3298 2873 
Q 3191 2616 2906 2266 
Q 2828 2175 2409 1742 
Q 1991 1309 1228 531 
z
" transform="scale(0.015625)"/>
       </defs>
       <use xlink:href="#DejaVuSans-32"/>
       <use xlink:href="#DejaVuSans-2e" x="63.623047"/>
       <use xlink:href="#DejaVuSans-30" x="95.410156"/>
      </g>
     </g>
    </g>
   </g>
   <g id="line2d_14">
    <defs>
     <path id="m4509ba59ef" d="M 0 -3 
L -0.673542 -0.927051 
L -2.85317 -0.927051 
L -1.089814 0.354102 
L -1.763356 2.427051 
L -0 1.145898 
L 1.763356 2.427051 
L 1.089814 0.354102 
L 2.85317 -0.927051 
L 0.673542 -0.927051 
z
" style="stroke: #000000; stroke-linejoin: bevel"/>
    </defs>
    <g clip-path="url(#p814b1371e1)">
     <use xlink:href="#m4509ba59ef" x="157.783675" y="101.385463" style="stroke: #000000; stroke-linejoin: bevel"/>
     <use xlink:href="#m4509ba59ef" x="160.795355" y="94.645218" style="stroke: #000000; stroke-linejoin: bevel"/>
     <use xlink:href="#m4509ba59ef" x="189.128269" y="103.472988" style="stroke: #000000; stroke-linejoin: bevel"/>
     <use xlink:href="#m4509ba59ef" x="209.634438" y="152.896342" style="stroke: #000000; stroke-linejoin: bevel"/>
     <use xlink:href="#m4509ba59ef" x="238.599982" y="151.558566" style="stroke: #000000; stroke-linejoin: bevel"/>
     <use xlink:href="#m4509ba59ef" x="224.243021" y="169.028393" style="stroke: #000000; stroke-linejoin: bevel"/>
     <use xlink:href="#m4509ba59ef" x="140.62559" y="144.68356" style="stroke: #000000; stroke-linejoin: bevel"/>
     <use xlink:href="#m4509ba59ef" x="223.774185" y="169.798672" style="stroke: #000000; stroke-linejoin: bevel"/>
     <use xlink:href="#m4509ba59ef" x="113.815772" y="162.773716" style="stroke: #000000; stroke-linejoin: bevel"/>
     <use xlink:href="#m4509ba59ef" x="71.187708" y="82.64702" style="stroke: #000000; stroke-linejoin: bevel"/>
     <use xlink:href="#m4509ba59ef" x="120.881322" y="166.793648" style="stroke: #000000; stroke-linejoin: bevel"/>
     <use xlink:href="#m4509ba59ef" x="224.885466" y="169.270362" style="stroke: #000000; stroke-linejoin: bevel"/>
     <use xlink:href="#m4509ba59ef" x="223.698837" y="167.985893" style="stroke: #000000; stroke-linejoin: bevel"/>
     <use xlink:href="#m4509ba59ef" x="224.217986" y="167.395537" style="stroke: #000000; stroke-linejoin: bevel"/>
     <use xlink:href="#m4509ba59ef" x="224.101112" y="169.214281" style="stroke: #000000; stroke-linejoin: bevel"/>
    </g>
   </g>
   <g id="line2d_15">
    <path d="M 46.145455 125.611751 
L 51.832599 110.989712 
L 54.87928 103.787093 
L 57.316625 98.571359 
L 59.550858 94.327819 
L 61.378867 91.297334 
L 63.206882 88.706151 
L 64.831778 86.798665 
L 66.253563 85.451198 
L 67.675347 84.414905 
L 68.89402 83.780478 
L 70.112692 83.38422 
L 71.331365 83.228385 
L 72.550043 83.313865 
L 73.768716 83.640172 
L 74.987388 84.205446 
L 76.206061 85.006471 
L 77.627845 86.2328 
L 79.04963 87.764252 
L 80.674527 89.872771 
L 82.299423 92.342891 
L 84.127438 95.522782 
L 86.158559 99.505853 
L 88.595904 104.82407 
L 91.439473 111.617043 
L 95.298609 121.486216 
L 103.016871 141.353746 
L 105.86044 148.004992 
L 108.297788 153.16199 
L 110.328909 156.985451 
L 112.156921 160.004239 
L 113.984929 162.582703 
L 115.609826 164.478194 
L 117.031614 165.814714 
L 118.453398 166.839729 
L 119.672071 167.464295 
L 120.890743 167.850571 
L 122.109419 167.99636 
L 123.328091 167.900824 
L 124.546764 167.564515 
L 125.765438 166.989343 
L 126.98411 166.178586 
L 128.405896 164.941179 
L 129.827681 163.399038 
L 131.452579 161.278877 
L 133.077476 158.797833 
L 134.905486 155.606676 
L 136.936608 151.612492 
L 139.373955 146.283147 
L 142.217525 139.48055 
L 146.076657 129.604596 
L 153.591811 110.241703 
L 156.435382 103.558992 
L 158.872729 98.366592 
L 160.90385 94.5083 
L 162.731861 91.454486 
L 164.559871 88.837986 
L 166.184768 86.906552 
L 167.606554 85.537232 
L 169.028338 84.478419 
L 170.247012 83.824289 
L 171.465685 83.40808 
L 172.684359 83.232157 
L 173.903033 83.29753 
L 175.121705 83.60382 
L 176.340378 84.149285 
L 177.55905 84.930818 
L 178.980838 86.134968 
L 180.402622 87.644991 
L 182.027519 89.730156 
L 183.652416 92.17838 
L 185.480427 95.335622 
L 187.511548 99.296357 
L 189.745784 104.130857 
L 192.589353 110.864689 
L 196.245374 120.161883 
L 204.776087 142.093469 
L 207.619657 148.680003 
L 210.057002 153.764829 
L 212.088122 157.517586 
L 213.916137 160.465539 
L 215.541034 162.712355 
L 217.16593 164.58379 
L 218.587715 165.898373 
L 220.0095 166.9008 
L 221.228172 167.505627 
L 222.446845 167.871927 
L 223.665523 167.997618 
L 224.884196 167.881977 
L 226.102868 167.525667 
L 227.321541 166.930723 
L 228.540213 166.100523 
L 229.961998 164.841 
L 231.383782 163.277526 
L 233.008679 161.134142 
L 234.633582 158.631333 
L 236.46159 155.417717 
L 238.492711 151.401426 
L 240.930056 146.050002 
L 243.773625 139.228372 
L 247.632761 129.339112 
L 249.054545 125.611736 
L 249.054545 125.611736 
" clip-path="url(#p814b1371e1)" style="fill: none; stroke: #ffa500; stroke-width: 1.5; stroke-linecap: square"/>
   </g>
   <g id="line2d_16">
    <path d="M 46.238714 89.877622 
L 49.362351 87.155835 
L 51.688513 85.369888 
L 53.660178 84.058668 
L 56.306816 82.645742 
L 58.468724 81.830872 
L 60.175681 81.428063 
L 61.904722 81.254121 
L 64.736499 81.515507 
L 66.781093 82.150916 
L 67.645148 82.536328 
L 69.595031 83.666669 
L 70.363021 84.211954 
L 72.525607 86.052754 
L 73.235713 86.755257 
L 76.386405 90.446812 
L 78.43678 93.33668 
L 81.183994 97.770165 
L 83.823326 102.576862 
L 86.411076 107.735249 
L 90.006223 115.467836 
L 95.1757 127.2255 
L 99.838195 137.783287 
L 104.07647 146.708497 
L 107.134217 152.435223 
L 111.015153 158.514485 
L 112.464512 160.380465 
L 113.587253 161.658779 
L 115.189799 163.217084 
L 117.246632 164.735134 
L 118.002854 165.151926 
L 120.592878 165.98425 
L 121.488269 166.053832 
L 123.152654 165.881618 
L 124.062256 165.621414 
L 125.834921 164.778464 
L 127.960765 163.190426 
L 131.87421 158.694299 
L 134.051926 155.375829 
L 135.852601 152.23676 
L 138.572772 146.899625 
L 140.935858 141.77779 
L 144.727586 132.888285 
L 154.110193 110.174724 
L 155.411349 107.253889 
L 159.843024 98.29465 
L 162.000458 94.635307 
L 163.999964 91.738753 
L 164.842842 90.672571 
L 166.841139 88.535925 
L 168.117828 87.471609 
L 169.747828 86.467798 
L 170.840393 86.023394 
L 171.425674 85.861887 
L 172.642883 85.69853 
L 173.845047 85.767061 
L 175.327424 86.166237 
L 175.807738 86.369814 
L 176.89642 86.964591 
L 179.193737 88.816226 
L 180.521174 90.243922 
L 182.686832 93.10625 
L 184.424714 95.850961 
L 186.494658 99.592218 
L 189.069721 104.871074 
L 192.201872 112.034461 
L 197.371616 124.916721 
L 203.114122 139.305346 
L 205.507552 144.896937 
L 208.467481 151.213738 
L 210.843036 155.675586 
L 211.892194 157.447701 
L 214.400509 161.14203 
L 216.39086 163.493164 
L 219.442874 166.043782 
L 220.794548 166.756358 
L 222.572486 167.303677 
L 223.144584 167.386492 
L 226.388621 167.022322 
L 228.285349 166.183917 
L 229.765622 165.232879 
L 230.95401 164.294131 
L 232.995726 162.34793 
L 234.254213 160.958699 
L 238.925706 154.801054 
L 243.328947 148.073625 
L 247.827177 140.952805 
L 247.827177 140.952805 
" clip-path="url(#p814b1371e1)" style="fill: none; stroke: #0000ff; stroke-width: 1.5; stroke-linecap: square"/>
   </g>
   <g id="patch_3">
    <path d="M 36 192.24 
L 36 25.92 
" style="fill: none; stroke: #000000; stroke-width: 0.8; stroke-linejoin: miter; stroke-linecap: square"/>
   </g>
   <g id="patch_4">
    <path d="M 259.2 192.24 
L 259.2 25.92 
" style="fill: none; stroke: #000000; stroke-width: 0.8; stroke-linejoin: miter; stroke-linecap: square"/>
   </g>
   <g id="patch_5">
    <path d="M 36 192.24 
L 259.2 192.24 
" style="fill: none; stroke: #000000; stroke-width: 0.8; stroke-linejoin: miter; stroke-linecap: square"/>
   </g>
   <g id="patch_6">
    <path d="M 36 25.92 
L 259.2 25.92 
" style="fill: none; stroke: #000000; stroke-width: 0.8; stroke-linejoin: miter; stroke-linecap: square"/>
   </g>
   <g id="legend_1">
    <g id="patch_7">
     <path d="M 127.071875 77.954375 
L 252.2 77.954375 
Q 254.2 77.954375 254.2 75.954375 
L 254.2 32.92 
Q 254.2 30.92 252.2 30.92 
L 127.071875 30.92 
Q 125.071875 30.92 125.071875 32.92 
L 125.071875 75.954375 
Q 125.071875 77.954375 127.071875 77.954375 
z
" style="fill: #ffffff; opacity: 0.8; stroke: #cccccc; stroke-linejoin: miter"/>
    </g>
    <g id="line2d_17">
     <g>
      <use xlink:href="#m4509ba59ef" x="139.071875" y="39.018438" style="stroke: #000000; stroke-linejoin: bevel"/>
     </g>
    </g>
    <g id="text_14">
     <!-- Training Points -->
     <g transform="translate(157.071875 42.518438) scale(0.1 -0.1)">
      <defs>
       <path id="DejaVuSans-54" d="M -19 4666 
L 3928 4666 
L 3928 4134 
L 2272 4134 
L 2272 0 
L 1638 0 
L 1638 4134 
L -19 4134 
L -19 4666 
z
" transform="scale(0.015625)"/>
       <path id="DejaVuSans-72" d="M 2631 2963 
Q 2534 3019 2420 3045 
Q 2306 3072 2169 3072 
Q 1681 3072 1420 2755 
Q 1159 2438 1159 1844 
L 1159 0 
L 581 0 
L 581 3500 
L 1159 3500 
L 1159 2956 
Q 1341 3275 1631 3429 
Q 1922 3584 2338 3584 
Q 2397 3584 2469 3576 
Q 2541 3569 2628 3553 
L 2631 2963 
z
" transform="scale(0.015625)"/>
       <path id="DejaVuSans-61" d="M 2194 1759 
Q 1497 1759 1228 1600 
Q 959 1441 959 1056 
Q 959 750 1161 570 
Q 1363 391 1709 391 
Q 2188 391 2477 730 
Q 2766 1069 2766 1631 
L 2766 1759 
L 2194 1759 
z
M 3341 1997 
L 3341 0 
L 2766 0 
L 2766 531 
Q 2569 213 2275 61 
Q 1981 -91 1556 -91 
Q 1019 -91 701 211 
Q 384 513 384 1019 
Q 384 1609 779 1909 
Q 1175 2209 1959 2209 
L 2766 2209 
L 2766 2266 
Q 2766 2663 2505 2880 
Q 2244 3097 1772 3097 
Q 1472 3097 1187 3025 
Q 903 2953 641 2809 
L 641 3341 
Q 956 3463 1253 3523 
Q 1550 3584 1831 3584 
Q 2591 3584 2966 3190 
Q 3341 2797 3341 1997 
z
" transform="scale(0.015625)"/>
       <path id="DejaVuSans-69" d="M 603 3500 
L 1178 3500 
L 1178 0 
L 603 0 
L 603 3500 
z
M 603 4863 
L 1178 4863 
L 1178 4134 
L 603 4134 
L 603 4863 
z
" transform="scale(0.015625)"/>
       <path id="DejaVuSans-6e" d="M 3513 2113 
L 3513 0 
L 2938 0 
L 2938 2094 
Q 2938 2591 2744 2837 
Q 2550 3084 2163 3084 
Q 1697 3084 1428 2787 
Q 1159 2491 1159 1978 
L 1159 0 
L 581 0 
L 581 3500 
L 1159 3500 
L 1159 2956 
Q 1366 3272 1645 3428 
Q 1925 3584 2291 3584 
Q 2894 3584 3203 3211 
Q 3513 2838 3513 2113 
z
" transform="scale(0.015625)"/>
       <path id="DejaVuSans-67" d="M 2906 1791 
Q 2906 2416 2648 2759 
Q 2391 3103 1925 3103 
Q 1463 3103 1205 2759 
Q 947 2416 947 1791 
Q 947 1169 1205 825 
Q 1463 481 1925 481 
Q 2391 481 2648 825 
Q 2906 1169 2906 1791 
z
M 3481 434 
Q 3481 -459 3084 -895 
Q 2688 -1331 1869 -1331 
Q 1566 -1331 1297 -1286 
Q 1028 -1241 775 -1147 
L 775 -588 
Q 1028 -725 1275 -790 
Q 1522 -856 1778 -856 
Q 2344 -856 2625 -561 
Q 2906 -266 2906 331 
L 2906 616 
Q 2728 306 2450 153 
Q 2172 0 1784 0 
Q 1141 0 747 490 
Q 353 981 353 1791 
Q 353 2603 747 3093 
Q 1141 3584 1784 3584 
Q 2172 3584 2450 3431 
Q 2728 3278 2906 2969 
L 2906 3500 
L 3481 3500 
L 3481 434 
z
" transform="scale(0.015625)"/>
       <path id="DejaVuSans-20" transform="scale(0.015625)"/>
       <path id="DejaVuSans-50" d="M 1259 4147 
L 1259 2394 
L 2053 2394 
Q 2494 2394 2734 2622 
Q 2975 2850 2975 3272 
Q 2975 3691 2734 3919 
Q 2494 4147 2053 4147 
L 1259 4147 
z
M 628 4666 
L 2053 4666 
Q 2838 4666 3239 4311 
Q 3641 3956 3641 3272 
Q 3641 2581 3239 2228 
Q 2838 1875 2053 1875 
L 1259 1875 
L 1259 0 
L 628 0 
L 628 4666 
z
" transform="scale(0.015625)"/>
       <path id="DejaVuSans-6f" d="M 1959 3097 
Q 1497 3097 1228 2736 
Q 959 2375 959 1747 
Q 959 1119 1226 758 
Q 1494 397 1959 397 
Q 2419 397 2687 759 
Q 2956 1122 2956 1747 
Q 2956 2369 2687 2733 
Q 2419 3097 1959 3097 
z
M 1959 3584 
Q 2709 3584 3137 3096 
Q 3566 2609 3566 1747 
Q 3566 888 3137 398 
Q 2709 -91 1959 -91 
Q 1206 -91 779 398 
Q 353 888 353 1747 
Q 353 2609 779 3096 
Q 1206 3584 1959 3584 
z
" transform="scale(0.015625)"/>
       <path id="DejaVuSans-74" d="M 1172 4494 
L 1172 3500 
L 2356 3500 
L 2356 3053 
L 1172 3053 
L 1172 1153 
Q 1172 725 1289 603 
Q 1406 481 1766 481 
L 2356 481 
L 2356 0 
L 1766 0 
Q 1100 0 847 248 
Q 594 497 594 1153 
L 594 3053 
L 172 3053 
L 172 3500 
L 594 3500 
L 594 4494 
L 1172 4494 
z
" transform="scale(0.015625)"/>
       <path id="DejaVuSans-73" d="M 2834 3397 
L 2834 2853 
Q 2591 2978 2328 3040 
Q 2066 3103 1784 3103 
Q 1356 3103 1142 2972 
Q 928 2841 928 2578 
Q 928 2378 1081 2264 
Q 1234 2150 1697 2047 
L 1894 2003 
Q 2506 1872 2764 1633 
Q 3022 1394 3022 966 
Q 3022 478 2636 193 
Q 2250 -91 1575 -91 
Q 1294 -91 989 -36 
Q 684 19 347 128 
L 347 722 
Q 666 556 975 473 
Q 1284 391 1588 391 
Q 1994 391 2212 530 
Q 2431 669 2431 922 
Q 2431 1156 2273 1281 
Q 2116 1406 1581 1522 
L 1381 1569 
Q 847 1681 609 1914 
Q 372 2147 372 2553 
Q 372 3047 722 3315 
Q 1072 3584 1716 3584 
Q 2034 3584 2315 3537 
Q 2597 3491 2834 3397 
z
" transform="scale(0.015625)"/>
      </defs>
      <use xlink:href="#DejaVuSans-54"/>
      <use xlink:href="#DejaVuSans-72" x="46.333984"/>
      <use xlink:href="#DejaVuSans-61" x="87.447266"/>
      <use xlink:href="#DejaVuSans-69" x="148.726562"/>
      <use xlink:href="#DejaVuSans-6e" x="176.509766"/>
      <use xlink:href="#DejaVuSans-69" x="239.888672"/>
      <use xlink:href="#DejaVuSans-6e" x="267.671875"/>
      <use xlink:href="#DejaVuSans-67" x="331.050781"/>
      <use xlink:href="#DejaVuSans-20" x="394.527344"/>
      <use xlink:href="#DejaVuSans-50" x="426.314453"/>
      <use xlink:href="#DejaVuSans-6f" x="482.992188"/>
      <use xlink:href="#DejaVuSans-69" x="544.173828"/>
      <use xlink:href="#DejaVuSans-6e" x="571.957031"/>
      <use xlink:href="#DejaVuSans-74" x="635.335938"/>
      <use xlink:href="#DejaVuSans-73" x="674.544922"/>
     </g>
    </g>
    <g id="line2d_18">
     <path d="M 129.071875 53.696562 
L 139.071875 53.696562 
L 149.071875 53.696562 
" style="fill: none; stroke: #ffa500; stroke-width: 1.5; stroke-linecap: square"/>
    </g>
    <g id="text_15">
     <!-- Objective Function -->
     <g transform="translate(157.071875 57.196562) scale(0.1 -0.1)">
      <defs>
       <path id="DejaVuSans-4f" d="M 2522 4238 
Q 1834 4238 1429 3725 
Q 1025 3213 1025 2328 
Q 1025 1447 1429 934 
Q 1834 422 2522 422 
Q 3209 422 3611 934 
Q 4013 1447 4013 2328 
Q 4013 3213 3611 3725 
Q 3209 4238 2522 4238 
z
M 2522 4750 
Q 3503 4750 4090 4092 
Q 4678 3434 4678 2328 
Q 4678 1225 4090 567 
Q 3503 -91 2522 -91 
Q 1538 -91 948 565 
Q 359 1222 359 2328 
Q 359 3434 948 4092 
Q 1538 4750 2522 4750 
z
" transform="scale(0.015625)"/>
       <path id="DejaVuSans-62" d="M 3116 1747 
Q 3116 2381 2855 2742 
Q 2594 3103 2138 3103 
Q 1681 3103 1420 2742 
Q 1159 2381 1159 1747 
Q 1159 1113 1420 752 
Q 1681 391 2138 391 
Q 2594 391 2855 752 
Q 3116 1113 3116 1747 
z
M 1159 2969 
Q 1341 3281 1617 3432 
Q 1894 3584 2278 3584 
Q 2916 3584 3314 3078 
Q 3713 2572 3713 1747 
Q 3713 922 3314 415 
Q 2916 -91 2278 -91 
Q 1894 -91 1617 61 
Q 1341 213 1159 525 
L 1159 0 
L 581 0 
L 581 4863 
L 1159 4863 
L 1159 2969 
z
" transform="scale(0.015625)"/>
       <path id="DejaVuSans-6a" d="M 603 3500 
L 1178 3500 
L 1178 -63 
Q 1178 -731 923 -1031 
Q 669 -1331 103 -1331 
L -116 -1331 
L -116 -844 
L 38 -844 
Q 366 -844 484 -692 
Q 603 -541 603 -63 
L 603 3500 
z
M 603 4863 
L 1178 4863 
L 1178 4134 
L 603 4134 
L 603 4863 
z
" transform="scale(0.015625)"/>
       <path id="DejaVuSans-65" d="M 3597 1894 
L 3597 1613 
L 953 1613 
Q 991 1019 1311 708 
Q 1631 397 2203 397 
Q 2534 397 2845 478 
Q 3156 559 3463 722 
L 3463 178 
Q 3153 47 2828 -22 
Q 2503 -91 2169 -91 
Q 1331 -91 842 396 
Q 353 884 353 1716 
Q 353 2575 817 3079 
Q 1281 3584 2069 3584 
Q 2775 3584 3186 3129 
Q 3597 2675 3597 1894 
z
M 3022 2063 
Q 3016 2534 2758 2815 
Q 2500 3097 2075 3097 
Q 1594 3097 1305 2825 
Q 1016 2553 972 2059 
L 3022 2063 
z
" transform="scale(0.015625)"/>
       <path id="DejaVuSans-63" d="M 3122 3366 
L 3122 2828 
Q 2878 2963 2633 3030 
Q 2388 3097 2138 3097 
Q 1578 3097 1268 2742 
Q 959 2388 959 1747 
Q 959 1106 1268 751 
Q 1578 397 2138 397 
Q 2388 397 2633 464 
Q 2878 531 3122 666 
L 3122 134 
Q 2881 22 2623 -34 
Q 2366 -91 2075 -91 
Q 1284 -91 818 406 
Q 353 903 353 1747 
Q 353 2603 823 3093 
Q 1294 3584 2113 3584 
Q 2378 3584 2631 3529 
Q 2884 3475 3122 3366 
z
" transform="scale(0.015625)"/>
       <path id="DejaVuSans-76" d="M 191 3500 
L 800 3500 
L 1894 563 
L 2988 3500 
L 3597 3500 
L 2284 0 
L 1503 0 
L 191 3500 
z
" transform="scale(0.015625)"/>
       <path id="DejaVuSans-46" d="M 628 4666 
L 3309 4666 
L 3309 4134 
L 1259 4134 
L 1259 2759 
L 3109 2759 
L 3109 2228 
L 1259 2228 
L 1259 0 
L 628 0 
L 628 4666 
z
" transform="scale(0.015625)"/>
       <path id="DejaVuSans-75" d="M 544 1381 
L 544 3500 
L 1119 3500 
L 1119 1403 
Q 1119 906 1312 657 
Q 1506 409 1894 409 
Q 2359 409 2629 706 
Q 2900 1003 2900 1516 
L 2900 3500 
L 3475 3500 
L 3475 0 
L 2900 0 
L 2900 538 
Q 2691 219 2414 64 
Q 2138 -91 1772 -91 
Q 1169 -91 856 284 
Q 544 659 544 1381 
z
M 1991 3584 
L 1991 3584 
z
" transform="scale(0.015625)"/>
      </defs>
      <use xlink:href="#DejaVuSans-4f"/>
      <use xlink:href="#DejaVuSans-62" x="78.710938"/>
      <use xlink:href="#DejaVuSans-6a" x="142.1875"/>
      <use xlink:href="#DejaVuSans-65" x="169.970703"/>
      <use xlink:href="#DejaVuSans-63" x="231.494141"/>
      <use xlink:href="#DejaVuSans-74" x="286.474609"/>
      <use xlink:href="#DejaVuSans-69" x="325.683594"/>
      <use xlink:href="#DejaVuSans-76" x="353.466797"/>
      <use xlink:href="#DejaVuSans-65" x="412.646484"/>
      <use xlink:href="#DejaVuSans-20" x="474.169922"/>
      <use xlink:href="#DejaVuSans-46" x="505.957031"/>
      <use xlink:href="#DejaVuSans-75" x="557.976562"/>
      <use xlink:href="#DejaVuSans-6e" x="621.355469"/>
      <use xlink:href="#DejaVuSans-63" x="684.734375"/>
      <use xlink:href="#DejaVuSans-74" x="739.714844"/>
      <use xlink:href="#DejaVuSans-69" x="778.923828"/>
      <use xlink:href="#DejaVuSans-6f" x="806.707031"/>
      <use xlink:href="#DejaVuSans-6e" x="867.888672"/>
     </g>
    </g>
    <g id="line2d_19">
     <path d="M 129.071875 68.374687 
L 139.071875 68.374687 
L 149.071875 68.374687 
" style="fill: none; stroke: #0000ff; stroke-width: 1.5; stroke-linecap: square"/>
    </g>
    <g id="text_16">
     <!-- Model Prediction -->
     <g transform="translate(157.071875 71.874687) scale(0.1 -0.1)">
      <defs>
       <path id="DejaVuSans-4d" d="M 628 4666 
L 1569 4666 
L 2759 1491 
L 3956 4666 
L 4897 4666 
L 4897 0 
L 4281 0 
L 4281 4097 
L 3078 897 
L 2444 897 
L 1241 4097 
L 1241 0 
L 628 0 
L 628 4666 
z
" transform="scale(0.015625)"/>
       <path id="DejaVuSans-64" d="M 2906 2969 
L 2906 4863 
L 3481 4863 
L 3481 0 
L 2906 0 
L 2906 525 
Q 2725 213 2448 61 
Q 2172 -91 1784 -91 
Q 1150 -91 751 415 
Q 353 922 353 1747 
Q 353 2572 751 3078 
Q 1150 3584 1784 3584 
Q 2172 3584 2448 3432 
Q 2725 3281 2906 2969 
z
M 947 1747 
Q 947 1113 1208 752 
Q 1469 391 1925 391 
Q 2381 391 2643 752 
Q 2906 1113 2906 1747 
Q 2906 2381 2643 2742 
Q 2381 3103 1925 3103 
Q 1469 3103 1208 2742 
Q 947 2381 947 1747 
z
" transform="scale(0.015625)"/>
       <path id="DejaVuSans-6c" d="M 603 4863 
L 1178 4863 
L 1178 0 
L 603 0 
L 603 4863 
z
" transform="scale(0.015625)"/>
      </defs>
      <use xlink:href="#DejaVuSans-4d"/>
      <use xlink:href="#DejaVuSans-6f" x="86.279297"/>
      <use xlink:href="#DejaVuSans-64" x="147.460938"/>
      <use xlink:href="#DejaVuSans-65" x="210.9375"/>
      <use xlink:href="#DejaVuSans-6c" x="272.460938"/>
      <use xlink:href="#DejaVuSans-20" x="300.244141"/>
      <use xlink:href="#DejaVuSans-50" x="332.03125"/>
      <use xlink:href="#DejaVuSans-72" x="390.583984"/>
      <use xlink:href="#DejaVuSans-65" x="429.447266"/>
      <use xlink:href="#DejaVuSans-64" x="490.970703"/>
      <use xlink:href="#DejaVuSans-69" x="554.447266"/>
      <use xlink:href="#DejaVuSans-63" x="582.230469"/>
      <use xlink:href="#DejaVuSans-74" x="637.210938"/>
      <use xlink:href="#DejaVuSans-69" x="676.419922"/>
      <use xlink:href="#DejaVuSans-6f" x="704.203125"/>
      <use xlink:href="#DejaVuSans-6e" x="765.384766"/>
     </g>
    </g>
   </g>
  </g>
 </g>
 <defs>
  <clipPath id="p814b1371e1">
   <rect x="36" y="25.92" width="223.2" height="166.32"/>
  </clipPath>
 </defs>
</svg>
