<?xml version="1.0" encoding="utf-8" standalone="no"?>
<!DOCTYPE svg PUBLIC "-//W3C//DTD SVG 1.1//EN"
  "http://www.w3.org/Graphics/SVG/1.1/DTD/svg11.dtd">
<svg xmlns:xlink="http://www.w3.org/1999/xlink" width="288pt" height="216pt" viewBox="0 0 288 216" xmlns="http://www.w3.org/2000/svg" version="1.1">
 <metadata>
  <rdf:RDF xmlns:dc="http://purl.org/dc/elements/1.1/" xmlns:cc="http://creativecommons.org/ns#" xmlns:rdf="http://www.w3.org/1999/02/22-rdf-syntax-ns#">
   <cc:Work>
    <dc:type rdf:resource="http://purl.org/dc/dcmitype/StillImage"/>
    <dc:date>2025-02-21T15:28:01.652688</dc:date>
    <dc:format>image/svg+xml</dc:format>
    <dc:creator>
     <cc:Agent>
      <dc:title>Matplotlib v3.9.4, https://matplotlib.org/</dc:title>
     </cc:Agent>
    </dc:creator>
   </cc:Work>
  </rdf:RDF>
 </metadata>
 <defs>
  <style type="text/css">*{stroke-linejoin: round; stroke-linecap: butt}</style>
 </defs>
 <g id="figure_1">
  <g id="patch_1">
   <path d="M 0 216 
L 288 216 
L 288 0 
L 0 0 
z
" style="fill: #ffffff"/>
  </g>
  <g id="axes_1">
   <g id="patch_2">
    <path d="M 36 192.24 
L 259.2 192.24 
L 259.2 25.92 
L 36 25.92 
z
" style="fill: #ffffff"/>
   </g>
   <g id="PolyCollection_1">
    <path d="M 46.843152 60.301018 
L 46.843152 105.908851 
L 47.357003 104.054513 
L 47.670041 102.933032 
L 48.638966 99.506062 
L 50.094723 94.512532 
L 50.891896 91.876711 
L 51.053368 91.35272 
L 52.0135 88.314508 
L 52.25558 87.57142 
L 52.822005 85.872435 
L 52.858542 85.764849 
L 53.129552 84.9752 
L 53.170056 84.858434 
L 53.341396 84.368289 
L 53.4311 84.113967 
L 53.516546 83.873426 
L 54.732364 80.631726 
L 55.167252 79.562433 
L 55.701821 78.320938 
L 56.316467 76.998595 
L 57.459235 74.861494 
L 57.598635 74.630275 
L 58.034151 73.950484 
L 59.313779 72.316058 
L 59.543148 72.077897 
L 61.119691 70.845462 
L 61.578103 70.606035 
L 61.657961 70.569585 
L 63.53979 70.070907 
L 63.96909 70.044547 
L 64.807602 70.074385 
L 64.808714 70.074531 
L 65.551451 70.183759 
L 65.614777 70.196703 
L 65.877756 70.254447 
L 66.192015 70.335033 
L 66.315607 70.37024 
L 68.239753 71.150626 
L 68.687388 71.392227 
L 69.765875 72.065083 
L 70.067 72.275746 
L 71.306342 73.243725 
L 72.926896 74.75782 
L 73.872394 75.771384 
L 74.04313 75.964884 
L 75.230684 77.396623 
L 76.460761 79.039932 
L 76.48576 79.075009 
L 77.030646 79.857116 
L 77.343744 80.321116 
L 78.048432 81.404498 
L 78.295821 81.797879 
L 78.29824 81.801841 
L 78.962847 82.89106 
L 79.640782 84.052149 
L 79.96693 84.627738 
L 80.104213 84.873865 
L 81.409033 87.311929 
L 81.588186 87.660567 
L 82.626121 89.7486 
L 83.061239 90.656954 
L 85.398092 95.864147 
L 85.729682 96.646711 
L 85.995406 97.280909 
L 86.326682 98.081188 
L 86.670004 98.921324 
L 86.801687 99.246136 
L 87.386858 100.709793 
L 87.530285 101.072723 
L 87.663589 101.412049 
L 88.787563 104.333031 
L 89.11989 105.216866 
L 89.177653 105.371432 
L 89.223261 105.493278 
L 89.526514 106.310213 
L 89.800112 107.052813 
L 91.467508 111.697176 
L 91.539578 111.902214 
L 91.747213 112.494789 
L 92.536755 114.7732 
L 94.13375 119.488763 
L 94.726505 121.270706 
L 95.558993 123.797781 
L 96.613546 127.033775 
L 96.915529 127.965859 
L 96.980125 128.166063 
L 97.664942 130.288782 
L 97.783309 130.656592 
L 97.947308 131.166189 
L 99.158349 134.941301 
L 99.388443 135.659545 
L 100.834707 140.170211 
L 101.474134 142.156729 
L 103.296579 147.765072 
L 103.574821 148.611117 
L 104.20138 150.504618 
L 104.86225 152.480332 
L 105.035671 152.995114 
L 105.063209 153.076402 
L 105.637702 154.767207 
L 105.723064 155.01639 
L 106.580406 157.492528 
L 107.125945 159.03867 
L 107.914301 161.228391 
L 108.265266 162.184722 
L 108.268181 162.192826 
L 109.138477 164.51054 
L 109.297747 164.925967 
L 109.727869 166.033399 
L 110.871218 168.867905 
L 110.927433 169.003217 
L 111.405908 170.135225 
L 113.636114 174.964921 
L 115.187489 177.83605 
L 116.562481 180.003427 
L 116.805879 180.34764 
L 116.811684 180.355863 
L 116.962029 180.562016 
L 117.460255 181.21239 
L 117.638888 181.432978 
L 119.051638 182.931318 
L 119.481482 183.29918 
L 119.557338 183.359692 
L 121.023291 184.266675 
L 122.95877 184.68 
L 123.433617 184.641878 
L 123.779551 184.579194 
L 123.909819 184.548152 
L 124.019926 184.518406 
L 124.538397 184.338931 
L 125.745822 183.663268 
L 125.762621 183.650972 
L 131.260435 176.071022 
L 132.102224 174.288682 
L 132.806646 172.678165 
L 133.199965 171.732676 
L 134.529881 168.300952 
L 135.633077 165.190557 
L 135.944119 164.272432 
L 137.498554 159.43084 
L 138.819412 155.010204 
L 139.295311 153.355562 
L 139.663329 152.054442 
L 142.015446 143.363114 
L 142.076667 143.129402 
L 143.160899 138.938619 
L 143.211768 138.739897 
L 143.816811 136.363129 
L 144.91304 132.009521 
L 145.149859 131.062697 
L 146.357211 126.220721 
L 146.855026 124.222144 
L 147.063 123.388063 
L 147.820734 120.355998 
L 148.445925 117.869134 
L 148.498548 117.660554 
L 148.659027 117.025666 
L 148.792174 116.500032 
L 151.046774 107.802599 
L 154.892757 94.462472 
L 154.978227 94.19573 
L 155.000783 94.125315 
L 155.936485 91.306468 
L 156.07032 90.918673 
L 156.927107 88.532179 
L 157.161204 87.909843 
L 157.493363 87.048848 
L 157.689134 86.553608 
L 157.790448 86.301195 
L 158.576893 84.427714 
L 159.373619 82.689071 
L 162.129396 77.963598 
L 163.449878 76.427066 
L 163.664456 76.222617 
L 163.979658 75.944864 
L 165.041564 75.210042 
L 165.09542 75.180852 
L 165.652267 74.92692 
L 165.659789 74.924089 
L 167.990003 74.776313 
L 170.334415 76.073859 
L 170.695092 76.39788 
L 170.926541 76.622722 
L 171.13818 76.839839 
L 171.672096 77.436412 
L 172.203351 78.098 
L 173.222673 79.552298 
L 173.338681 79.733065 
L 173.596762 80.145744 
L 173.688292 80.295489 
L 174.156705 81.091637 
L 175.347561 83.326988 
L 175.900308 84.463714 
L 177.316118 87.644712 
L 180.075534 94.839269 
L 180.101707 94.913205 
L 180.968386 97.410437 
L 181.610981 99.323966 
L 183.126207 104.019904 
L 183.368879 104.793173 
L 183.819429 106.242836 
L 184.008077 106.854769 
L 184.072189 107.063311 
L 184.378211 108.0634 
L 184.695288 109.106853 
L 185.095187 110.432461 
L 185.29305 111.092137 
L 185.697242 112.446368 
L 187.094681 117.186278 
L 187.958288 120.145971 
L 188.053181 120.472015 
L 188.398981 121.661016 
L 188.608008 122.380192 
L 189.233139 124.531456 
L 189.924632 126.907852 
L 189.977714 127.090195 
L 190.172796 127.759228 
L 190.618205 129.283515 
L 192.314108 135.024042 
L 192.845145 136.793178 
L 193.352514 138.467289 
L 193.660762 139.475753 
L 193.8933 140.232024 
L 194.715605 142.871558 
L 195.442123 145.154483 
L 195.787186 146.221304 
L 196.108883 147.204692 
L 196.654434 148.847445 
L 197.323964 150.817486 
L 198.008188 152.775224 
L 198.430244 153.953267 
L 199.631742 157.17605 
L 200.306908 158.897426 
L 200.630153 159.697685 
L 200.770774 160.040852 
L 202.785833 164.618287 
L 203.316048 165.713171 
L 203.629158 166.337737 
L 203.990525 167.038311 
L 204.77743 168.486394 
L 205.828874 170.256553 
L 205.909664 170.384643 
L 206.660311 171.52204 
L 207.796258 173.061417 
L 208.182103 173.5355 
L 208.923969 174.379685 
L 209.049883 174.514172 
L 209.853236 175.315624 
L 210.100033 175.542839 
L 212.897632 177.569293 
L 214.000138 178.15387 
L 214.510507 178.397899 
L 214.670176 178.471551 
L 214.846463 178.552099 
L 214.883181 178.56856 
L 215.121597 178.675295 
L 215.278823 178.744606 
L 217.291524 179.589404 
L 219.590292 180.458395 
L 220.57217 180.744106 
L 221.767948 180.959861 
L 221.77183 180.960659 
L 221.932975 180.975762 
L 222.850051 180.988327 
L 223.661907 180.882543 
L 223.956101 180.815104 
L 223.9595 180.813991 
L 224.40243 180.680931 
L 224.795121 180.530375 
L 225.343006 180.267721 
L 225.970617 179.889581 
L 226.152854 179.763992 
L 226.565573 179.452662 
L 226.734688 179.314271 
L 228.084983 177.980041 
L 228.954105 176.903233 
L 229.768392 175.73869 
L 230.190726 175.07556 
L 230.421147 174.696668 
L 231.398598 172.957428 
L 232.061669 171.657352 
L 232.178887 171.417641 
L 233.044805 169.554718 
L 233.049836 169.543255 
L 233.713851 168.007126 
L 233.948081 167.443543 
L 234.194733 166.83795 
L 234.511713 166.042281 
L 234.543932 165.959961 
L 234.624904 165.753065 
L 235.475945 163.500324 
L 236.568692 160.410447 
L 237.799108 156.684717 
L 238.083457 155.7894 
L 238.842376 153.340931 
L 238.874523 153.23555 
L 239.041449 152.68526 
L 239.070971 152.587458 
L 239.668431 150.585611 
L 245.057843 131.262452 
L 245.057843 107.965849 
L 245.057843 107.965849 
L 239.668431 121.561558 
L 239.070971 123.071634 
L 239.041449 123.146235 
L 238.874523 123.569211 
L 238.842376 123.650712 
L 238.083457 125.57544 
L 237.799108 126.297833 
L 236.568692 129.425172 
L 235.475945 132.198596 
L 234.624904 134.348012 
L 234.543932 134.55195 
L 234.511713 134.632828 
L 234.194733 135.429373 
L 233.948081 136.047101 
L 233.713851 136.632007 
L 233.049836 138.281036 
L 233.044805 138.293382 
L 232.178887 140.417523 
L 232.061669 140.702352 
L 231.398598 142.299791 
L 230.421147 144.606253 
L 230.190726 145.140058 
L 229.768392 146.108106 
L 228.954105 147.931741 
L 228.084983 149.808071 
L 226.734688 152.553631 
L 226.565573 152.881027 
L 226.152854 153.663353 
L 225.970617 154.001215 
L 225.343006 155.124376 
L 224.795121 156.051847 
L 224.40243 156.683865 
L 223.9595 157.362068 
L 223.956101 157.366877 
L 223.661907 157.795781 
L 222.850051 158.881471 
L 221.932975 159.922066 
L 221.77183 160.082295 
L 221.767948 160.086223 
L 220.57217 161.043497 
L 219.590292 161.491884 
L 217.291524 161.146297 
L 215.278823 159.080908 
L 215.121597 158.850708 
L 214.883181 158.482697 
L 214.846463 158.424014 
L 214.670176 158.136013 
L 214.510507 157.864305 
L 214.000138 156.932516 
L 212.897632 154.608404 
L 210.100033 147.052134 
L 209.853236 146.287492 
L 209.049883 143.7023 
L 208.923969 143.284507 
L 208.182103 140.757536 
L 207.796258 139.401499 
L 206.660311 135.256852 
L 205.909664 132.405347 
L 205.828874 132.09333 
L 204.77743 127.956593 
L 203.990525 124.77384 
L 203.629158 123.290349 
L 203.316048 121.994776 
L 202.785833 119.781463 
L 200.770774 111.190185 
L 200.630153 110.582701 
L 200.306908 109.183431 
L 199.631742 106.250527 
L 198.430244 101.012688 
L 198.008188 99.171872 
L 197.323964 96.19226 
L 196.654434 93.286934 
L 196.108883 90.930716 
L 195.787186 89.547542 
L 195.442123 88.069596 
L 194.715605 84.980776 
L 193.8933 81.528953 
L 193.660762 80.562798 
L 193.352514 79.289258 
L 192.845145 77.212249 
L 192.314108 75.066301 
L 190.618205 68.432534 
L 190.172796 66.752392 
L 189.977714 66.025393 
L 189.924632 65.828568 
L 189.233139 63.302964 
L 188.608008 61.08431 
L 188.398981 60.356955 
L 188.053181 59.169696 
L 187.958288 58.847616 
L 187.094681 55.98994 
L 185.697242 51.664852 
L 185.29305 50.48702 
L 185.095187 49.922667 
L 184.695288 48.807706 
L 184.378211 47.948081 
L 184.072189 47.139526 
L 184.008077 46.972643 
L 183.819429 46.487142 
L 183.368879 45.360377 
L 183.126207 44.772655 
L 181.610981 41.417326 
L 180.968386 40.162509 
L 180.101707 38.633893 
L 180.075534 38.590631 
L 177.316118 35.038876 
L 175.900308 34.005023 
L 175.347561 33.749035 
L 174.156705 33.48 
L 173.688292 33.48013 
L 173.596762 33.487141 
L 173.338681 33.518997 
L 173.222673 33.539239 
L 172.203351 33.873029 
L 171.672096 34.157719 
L 171.13818 34.519391 
L 170.926541 34.683494 
L 170.695092 34.876668 
L 170.334415 35.205471 
L 167.990003 38.151871 
L 165.659789 42.39862 
L 165.652267 42.414437 
L 165.09542 43.611403 
L 165.041564 43.730587 
L 163.979658 46.205347 
L 163.664456 46.983669 
L 163.449878 47.524547 
L 162.129396 51.041218 
L 159.373619 59.305767 
L 158.576893 61.893656 
L 157.790448 64.521837 
L 157.689134 64.865269 
L 157.493363 65.532138 
L 157.161204 66.672592 
L 156.927107 67.48298 
L 156.07032 70.491979 
L 155.936485 70.967818 
L 155.000783 74.33422 
L 154.978227 74.416111 
L 154.892757 74.727418 
L 151.046774 89.162721 
L 148.792174 97.904691 
L 148.659027 98.424699 
L 148.498548 99.051946 
L 148.445925 99.257451 
L 147.820734 101.702779 
L 147.063 104.670395 
L 146.855026 105.484551 
L 146.357211 107.43315 
L 145.149859 112.145794 
L 144.91304 113.066647 
L 143.816811 117.305961 
L 143.211768 119.625011 
L 143.160899 119.818774 
L 142.076667 123.922195 
L 142.015446 124.151902 
L 139.663329 132.742886 
L 139.295311 134.039917 
L 138.819412 135.695986 
L 137.498554 140.149566 
L 135.944119 145.086204 
L 135.633077 146.029863 
L 134.529881 149.250514 
L 133.199965 152.847422 
L 132.806646 153.847663 
L 132.102224 155.56332 
L 131.260435 157.480987 
L 125.762621 166.097447 
L 125.745822 166.112888 
L 124.538397 167.02582 
L 124.019926 167.30559 
L 123.909819 167.356107 
L 123.779551 167.412202 
L 123.433617 167.539988 
L 122.95877 167.665835 
L 121.023291 167.585302 
L 119.557338 166.89093 
L 119.481482 166.840251 
L 119.051638 166.525496 
L 117.638888 165.167223 
L 117.460255 164.959985 
L 116.962029 164.341348 
L 116.811684 164.142989 
L 116.805879 164.134766 
L 116.562481 163.801517 
L 115.187489 161.650349 
L 113.636114 158.6914 
L 111.405908 153.495449 
L 110.927433 152.243098 
L 110.871218 152.092944 
L 109.727869 148.901752 
L 109.297747 147.636361 
L 109.138477 147.158819 
L 108.268181 144.469722 
L 108.265266 144.460398 
L 107.914301 143.338208 
L 107.125945 140.743012 
L 106.580406 138.890078 
L 105.723064 135.889112 
L 105.637702 135.58479 
L 105.063209 133.511036 
L 105.035671 133.410687 
L 104.86225 132.775508 
L 104.20138 130.323441 
L 103.574821 127.953863 
L 103.296579 126.888787 
L 101.474134 119.746185 
L 100.834707 117.184401 
L 99.388443 111.319642 
L 99.158349 110.380321 
L 97.947308 105.422355 
L 97.783309 104.750082 
L 97.664942 104.265178 
L 96.980125 101.461104 
L 96.915529 101.196659 
L 96.613546 99.963087 
L 95.558993 95.674626 
L 94.726505 92.321435 
L 94.13375 89.95689 
L 92.536755 83.71137 
L 91.747213 80.705849 
L 91.539578 79.925589 
L 91.467508 79.656161 
L 89.800112 73.584529 
L 89.526514 72.621333 
L 89.223261 71.565561 
L 89.177653 71.407833 
L 89.11989 71.20894 
L 88.787563 70.071325 
L 87.663589 66.345483 
L 87.530285 65.91653 
L 87.386858 65.458041 
L 86.801687 63.623016 
L 86.670004 63.217718 
L 86.326682 62.175332 
L 85.995406 61.188813 
L 85.729682 60.411638 
L 85.398092 59.459319 
L 83.061239 53.33663 
L 82.626121 52.315457 
L 81.588186 50.037932 
L 81.409033 49.667631 
L 80.104213 47.179512 
L 79.96693 46.93915 
L 79.640782 46.38478 
L 78.962847 45.308539 
L 78.29824 44.352987 
L 78.295821 44.349704 
L 78.048432 44.019481 
L 77.343744 43.154679 
L 77.030646 42.806714 
L 76.48576 42.253909 
L 76.460761 42.230199 
L 75.230684 41.237798 
L 74.04313 40.60538 
L 73.872394 40.540411 
L 72.926896 40.299327 
L 71.306342 40.342282 
L 70.067 40.751726 
L 69.765875 40.898877 
L 68.687388 41.572162 
L 68.239753 41.916668 
L 66.315607 43.799277 
L 66.192015 43.940521 
L 65.877756 44.310316 
L 65.614777 44.630943 
L 65.551451 44.709665 
L 64.808714 45.670875 
L 64.807602 45.672432 
L 63.96909 46.834374 
L 63.53979 47.455344 
L 61.657961 50.304255 
L 61.578103 50.427106 
L 61.119691 51.129923 
L 59.543148 53.464517 
L 59.313779 53.784952 
L 58.034151 55.439206 
L 57.598635 55.941102 
L 57.459235 56.094635 
L 56.316467 57.221669 
L 55.701821 57.730983 
L 55.167252 58.122934 
L 54.732364 58.407482 
L 53.516546 59.063962 
L 53.4311 59.10312 
L 53.341396 59.142945 
L 53.170056 59.216797 
L 53.129552 59.233894 
L 52.858542 59.343352 
L 52.822005 59.357328 
L 52.25558 59.559615 
L 52.0135 59.636565 
L 51.053368 59.894152 
L 50.891896 59.930169 
L 50.094723 60.081776 
L 48.638966 60.252303 
L 47.670041 60.299611 
L 47.357003 60.304343 
L 46.843152 60.301018 
z
" clip-path="url(#pe3417d2daa)" style="fill: #1f77b4; fill-opacity: 0.5"/>
   </g>
   <g id="matplotlib.axis_1">
    <g id="xtick_1">
     <g id="line2d_1">
      <defs>
       <path id="m58ea54e9c7" d="M 0 0 
L 0 3.5 
" style="stroke: #000000; stroke-width: 0.8"/>
      </defs>
      <g>
       <use xlink:href="#m58ea54e9c7" x="46.145455" y="192.24" style="stroke: #000000; stroke-width: 0.8"/>
      </g>
     </g>
     <g id="text_1">
      <!-- −1.0 -->
      <g transform="translate(34.004048 206.838437) scale(0.1 -0.1)">
       <defs>
        <path id="DejaVuSans-2212" d="M 678 2272 
L 4684 2272 
L 4684 1741 
L 678 1741 
L 678 2272 
z
" transform="scale(0.015625)"/>
        <path id="DejaVuSans-31" d="M 794 531 
L 1825 531 
L 1825 4091 
L 703 3866 
L 703 4441 
L 1819 4666 
L 2450 4666 
L 2450 531 
L 3481 531 
L 3481 0 
L 794 0 
L 794 531 
z
" transform="scale(0.015625)"/>
        <path id="DejaVuSans-2e" d="M 684 794 
L 1344 794 
L 1344 0 
L 684 0 
L 684 794 
z
" transform="scale(0.015625)"/>
        <path id="DejaVuSans-30" d="M 2034 4250 
Q 1547 4250 1301 3770 
Q 1056 3291 1056 2328 
Q 1056 1369 1301 889 
Q 1547 409 2034 409 
Q 2525 409 2770 889 
Q 3016 1369 3016 2328 
Q 3016 3291 2770 3770 
Q 2525 4250 2034 4250 
z
M 2034 4750 
Q 2819 4750 3233 4129 
Q 3647 3509 3647 2328 
Q 3647 1150 3233 529 
Q 2819 -91 2034 -91 
Q 1250 -91 836 529 
Q 422 1150 422 2328 
Q 422 3509 836 4129 
Q 1250 4750 2034 4750 
z
" transform="scale(0.015625)"/>
       </defs>
       <use xlink:href="#DejaVuSans-2212"/>
       <use xlink:href="#DejaVuSans-31" x="83.789062"/>
       <use xlink:href="#DejaVuSans-2e" x="147.412109"/>
       <use xlink:href="#DejaVuSans-30" x="179.199219"/>
      </g>
     </g>
    </g>
    <g id="xtick_2">
     <g id="line2d_2">
      <g>
       <use xlink:href="#m58ea54e9c7" x="96.872727" y="192.24" style="stroke: #000000; stroke-width: 0.8"/>
      </g>
     </g>
     <g id="text_2">
      <!-- −0.5 -->
      <g transform="translate(84.731321 206.838437) scale(0.1 -0.1)">
       <defs>
        <path id="DejaVuSans-35" d="M 691 4666 
L 3169 4666 
L 3169 4134 
L 1269 4134 
L 1269 2991 
Q 1406 3038 1543 3061 
Q 1681 3084 1819 3084 
Q 2600 3084 3056 2656 
Q 3513 2228 3513 1497 
Q 3513 744 3044 326 
Q 2575 -91 1722 -91 
Q 1428 -91 1123 -41 
Q 819 9 494 109 
L 494 744 
Q 775 591 1075 516 
Q 1375 441 1709 441 
Q 2250 441 2565 725 
Q 2881 1009 2881 1497 
Q 2881 1984 2565 2268 
Q 2250 2553 1709 2553 
Q 1456 2553 1204 2497 
Q 953 2441 691 2322 
L 691 4666 
z
" transform="scale(0.015625)"/>
       </defs>
       <use xlink:href="#DejaVuSans-2212"/>
       <use xlink:href="#DejaVuSans-30" x="83.789062"/>
       <use xlink:href="#DejaVuSans-2e" x="147.412109"/>
       <use xlink:href="#DejaVuSans-35" x="179.199219"/>
      </g>
     </g>
    </g>
    <g id="xtick_3">
     <g id="line2d_3">
      <g>
       <use xlink:href="#m58ea54e9c7" x="147.6" y="192.24" style="stroke: #000000; stroke-width: 0.8"/>
      </g>
     </g>
     <g id="text_3">
      <!-- 0.0 -->
      <g transform="translate(139.648438 206.838437) scale(0.1 -0.1)">
       <use xlink:href="#DejaVuSans-30"/>
       <use xlink:href="#DejaVuSans-2e" x="63.623047"/>
       <use xlink:href="#DejaVuSans-30" x="95.410156"/>
      </g>
     </g>
    </g>
    <g id="xtick_4">
     <g id="line2d_4">
      <g>
       <use xlink:href="#m58ea54e9c7" x="198.327273" y="192.24" style="stroke: #000000; stroke-width: 0.8"/>
      </g>
     </g>
     <g id="text_4">
      <!-- 0.5 -->
      <g transform="translate(190.37571 206.838437) scale(0.1 -0.1)">
       <use xlink:href="#DejaVuSans-30"/>
       <use xlink:href="#DejaVuSans-2e" x="63.623047"/>
       <use xlink:href="#DejaVuSans-35" x="95.410156"/>
      </g>
     </g>
    </g>
    <g id="xtick_5">
     <g id="line2d_5">
      <g>
       <use xlink:href="#m58ea54e9c7" x="249.054545" y="192.24" style="stroke: #000000; stroke-width: 0.8"/>
      </g>
     </g>
     <g id="text_5">
      <!-- 1.0 -->
      <g transform="translate(241.102983 206.838437) scale(0.1 -0.1)">
       <use xlink:href="#DejaVuSans-31"/>
       <use xlink:href="#DejaVuSans-2e" x="63.623047"/>
       <use xlink:href="#DejaVuSans-30" x="95.410156"/>
      </g>
     </g>
    </g>
   </g>
   <g id="matplotlib.axis_2">
    <g id="ytick_1">
     <g id="line2d_6">
      <defs>
       <path id="m2d13f27fdd" d="M 0 0 
L -3.5 0 
" style="stroke: #000000; stroke-width: 0.8"/>
      </defs>
      <g>
       <use xlink:href="#m2d13f27fdd" x="36" y="173.523711" style="stroke: #000000; stroke-width: 0.8"/>
      </g>
     </g>
     <g id="text_6">
      <!-- −1.0 -->
      <g transform="translate(4.717187 177.32293) scale(0.1 -0.1)">
       <use xlink:href="#DejaVuSans-2212"/>
       <use xlink:href="#DejaVuSans-31" x="83.789062"/>
       <use xlink:href="#DejaVuSans-2e" x="147.412109"/>
       <use xlink:href="#DejaVuSans-30" x="179.199219"/>
      </g>
     </g>
    </g>
    <g id="ytick_2">
     <g id="line2d_7">
      <g>
       <use xlink:href="#m2d13f27fdd" x="36" y="141.351303" style="stroke: #000000; stroke-width: 0.8"/>
      </g>
     </g>
     <g id="text_7">
      <!-- −0.5 -->
      <g transform="translate(4.717187 145.150522) scale(0.1 -0.1)">
       <use xlink:href="#DejaVuSans-2212"/>
       <use xlink:href="#DejaVuSans-30" x="83.789062"/>
       <use xlink:href="#DejaVuSans-2e" x="147.412109"/>
       <use xlink:href="#DejaVuSans-35" x="179.199219"/>
      </g>
     </g>
    </g>
    <g id="ytick_3">
     <g id="line2d_8">
      <g>
       <use xlink:href="#m2d13f27fdd" x="36" y="109.178896" style="stroke: #000000; stroke-width: 0.8"/>
      </g>
     </g>
     <g id="text_8">
      <!-- 0.0 -->
      <g transform="translate(13.096875 112.978115) scale(0.1 -0.1)">
       <use xlink:href="#DejaVuSans-30"/>
       <use xlink:href="#DejaVuSans-2e" x="63.623047"/>
       <use xlink:href="#DejaVuSans-30" x="95.410156"/>
      </g>
     </g>
    </g>
    <g id="ytick_4">
     <g id="line2d_9">
      <g>
       <use xlink:href="#m2d13f27fdd" x="36" y="77.006488" style="stroke: #000000; stroke-width: 0.8"/>
      </g>
     </g>
     <g id="text_9">
      <!-- 0.5 -->
      <g transform="translate(13.096875 80.805707) scale(0.1 -0.1)">
       <use xlink:href="#DejaVuSans-30"/>
       <use xlink:href="#DejaVuSans-2e" x="63.623047"/>
       <use xlink:href="#DejaVuSans-35" x="95.410156"/>
      </g>
     </g>
    </g>
    <g id="ytick_5">
     <g id="line2d_10">
      <g>
       <use xlink:href="#m2d13f27fdd" x="36" y="44.834081" style="stroke: #000000; stroke-width: 0.8"/>
      </g>
     </g>
     <g id="text_10">
      <!-- 1.0 -->
      <g transform="translate(13.096875 48.633299) scale(0.1 -0.1)">
       <use xlink:href="#DejaVuSans-31"/>
       <use xlink:href="#DejaVuSans-2e" x="63.623047"/>
       <use xlink:href="#DejaVuSans-30" x="95.410156"/>
      </g>
     </g>
    </g>
   </g>
   <g id="line2d_11">
    <defs>
     <path id="ma1a18db0c5" d="M 0 -3 
L -0.673542 -0.927051 
L -2.85317 -0.927051 
L -1.089814 0.354102 
L -1.763356 2.427051 
L -0 1.145898 
L 1.763356 2.427051 
L 1.089814 0.354102 
L 2.85317 -0.927051 
L 0.673542 -0.927051 
z
" style="stroke: #000000; stroke-linejoin: bevel"/>
    </defs>
    <g clip-path="url(#pe3417d2daa)">
     <use xlink:href="#ma1a18db0c5" x="56.336253" y="68.627254" style="stroke: #000000; stroke-linejoin: bevel"/>
     <use xlink:href="#ma1a18db0c5" x="60.893757" y="59.606293" style="stroke: #000000; stroke-linejoin: bevel"/>
     <use xlink:href="#ma1a18db0c5" x="109.31948" y="158.524041" style="stroke: #000000; stroke-linejoin: bevel"/>
     <use xlink:href="#ma1a18db0c5" x="113.842963" y="170.366963" style="stroke: #000000; stroke-linejoin: bevel"/>
     <use xlink:href="#ma1a18db0c5" x="116.488052" y="166.934798" style="stroke: #000000; stroke-linejoin: bevel"/>
     <use xlink:href="#ma1a18db0c5" x="155.982513" y="79.050995" style="stroke: #000000; stroke-linejoin: bevel"/>
     <use xlink:href="#ma1a18db0c5" x="123.70512" y="175.589898" style="stroke: #000000; stroke-linejoin: bevel"/>
     <use xlink:href="#ma1a18db0c5" x="108.313145" y="149.688135" style="stroke: #000000; stroke-linejoin: bevel"/>
     <use xlink:href="#ma1a18db0c5" x="249.054545" y="106.629817" style="stroke: #000000; stroke-linejoin: bevel"/>
     <use xlink:href="#ma1a18db0c5" x="117.459169" y="172.885732" style="stroke: #000000; stroke-linejoin: bevel"/>
     <use xlink:href="#ma1a18db0c5" x="144.607703" y="124.35356" style="stroke: #000000; stroke-linejoin: bevel"/>
     <use xlink:href="#ma1a18db0c5" x="216.738638" y="169.340757" style="stroke: #000000; stroke-linejoin: bevel"/>
     <use xlink:href="#ma1a18db0c5" x="218.506471" y="172.586579" style="stroke: #000000; stroke-linejoin: bevel"/>
     <use xlink:href="#ma1a18db0c5" x="122.159704" y="181.124271" style="stroke: #000000; stroke-linejoin: bevel"/>
     <use xlink:href="#ma1a18db0c5" x="223.264233" y="174.027049" style="stroke: #000000; stroke-linejoin: bevel"/>
    </g>
   </g>
   <g id="line2d_12">
    <path d="M 46.145455 109.178907 
L 51.629487 87.743063 
L 54.676168 76.743992 
L 57.113513 68.756214 
L 59.144634 62.794836 
L 60.972643 58.053853 
L 62.597545 54.387408 
L 64.222442 51.275387 
L 65.644227 49.032026 
L 66.862899 47.47951 
L 68.081572 46.278286 
L 69.097132 45.550613 
L 70.112692 45.074547 
L 71.128253 44.851976 
L 72.143813 44.883786 
L 73.15938 45.169849 
L 74.17494 45.709032 
L 75.1905 46.499204 
L 76.409173 47.774245 
L 77.627845 49.398891 
L 79.04963 51.723743 
L 80.471415 54.493771 
L 82.096311 58.176934 
L 83.924326 62.935294 
L 85.955447 68.91382 
L 88.18968 76.221152 
L 90.830137 85.657625 
L 94.283048 98.903352 
L 103.829319 136.050844 
L 106.469779 145.210362 
L 108.704012 152.218932 
L 110.735133 157.879658 
L 112.563145 162.318633 
L 114.188041 165.694811 
L 115.609826 168.180901 
L 117.031614 170.209832 
L 118.250286 171.573034 
L 119.468958 172.580991 
L 120.484519 173.145386 
L 121.500079 173.456828 
L 122.515641 173.514088 
L 123.531203 173.316933 
L 124.546764 172.866153 
L 125.562325 172.163524 
L 126.577886 171.211826 
L 127.796558 169.746385 
L 129.015232 167.936097 
L 130.437017 165.402105 
L 132.061915 161.973986 
L 133.686813 158.011678 
L 135.514823 152.965675 
L 137.545944 146.704568 
L 139.983291 138.417878 
L 142.826862 127.923766 
L 147.092218 111.202044 
L 153.185587 87.361922 
L 156.23227 76.395107 
L 158.669616 68.442126 
L 160.700738 62.515258 
L 162.528749 57.809111 
L 164.153645 54.176308 
L 165.778543 51.100031 
L 167.20033 48.889428 
L 168.419002 47.365879 
L 169.637675 46.194267 
L 170.653236 45.491638 
L 171.668797 45.040858 
L 172.684359 44.843703 
L 173.699921 44.900964 
L 174.715481 45.212405 
L 175.731042 45.7768 
L 176.746602 46.591914 
L 177.965274 47.896394 
L 179.18395 49.549797 
L 180.605734 51.907083 
L 182.027519 54.708123 
L 183.652416 58.424699 
L 185.480427 63.217614 
L 187.511548 69.230289 
L 189.745784 76.5694 
L 192.386241 86.034799 
L 195.83915 99.303066 
L 205.182312 135.682612 
L 207.822769 144.874368 
L 210.057002 151.917259 
L 212.088122 157.614208 
L 213.916137 162.089408 
L 215.541034 165.500234 
L 216.962818 168.018286 
L 218.384603 170.080435 
L 219.603275 171.472911 
L 220.821948 172.510718 
L 221.837508 173.100303 
L 222.853069 173.437111 
L 223.868635 173.519814 
L 224.884196 173.348083 
L 225.899756 172.922597 
L 226.915316 172.245046 
L 227.930877 171.318101 
L 229.149549 169.881796 
L 230.368222 168.099877 
L 231.790006 165.597803 
L 233.211791 162.658567 
L 234.836694 158.793517 
L 236.664702 153.847429 
L 238.695823 147.684041 
L 241.133168 139.494095 
L 243.976743 129.081764 
L 248.038985 113.223172 
L 249.054545 109.178885 
L 249.054545 109.178885 
" clip-path="url(#pe3417d2daa)" style="fill: none; stroke: #ffa500; stroke-width: 1.5; stroke-linecap: square"/>
   </g>
   <g id="line2d_13">
    <path d="M 46.843152 83.104934 
L 52.25558 73.565517 
L 55.167252 68.842683 
L 57.598635 65.285689 
L 59.543148 62.771207 
L 61.657961 60.43692 
L 63.96909 58.439461 
L 65.877756 57.282381 
L 66.315607 57.084759 
L 68.687388 56.482195 
L 70.067 56.513736 
L 71.306342 56.793003 
L 72.926896 57.528574 
L 74.04313 58.28513 
L 75.230684 59.317211 
L 77.343744 61.737898 
L 78.962847 64.099799 
L 80.104213 66.02669 
L 81.588186 68.849249 
L 83.061239 71.996793 
L 86.326682 80.128259 
L 87.663589 83.878765 
L 89.800112 90.318671 
L 92.536755 99.242285 
L 96.980125 114.813583 
L 104.20138 140.41403 
L 107.125945 149.89084 
L 109.727869 157.467575 
L 111.405908 161.815337 
L 113.636114 166.828162 
L 115.187489 169.743198 
L 116.962029 172.451682 
L 117.638888 173.3001 
L 119.557338 175.125311 
L 121.023291 175.925989 
L 122.95877 176.172917 
L 124.019926 175.911998 
L 124.538397 175.682373 
L 125.762621 174.87421 
L 131.260435 166.776003 
L 133.199965 162.290049 
L 135.633077 155.61021 
L 137.498554 149.790203 
L 139.663329 142.398664 
L 143.816811 126.834545 
L 151.046774 98.48266 
L 156.07032 80.705326 
L 158.576893 73.160684 
L 159.373619 70.997419 
L 162.129396 64.502408 
L 163.979658 61.075106 
L 165.659789 58.661353 
L 167.990003 56.464092 
L 170.334415 55.639667 
L 171.13818 55.679615 
L 172.203351 55.985515 
L 173.688292 56.887811 
L 174.156705 57.285818 
L 175.900308 59.23437 
L 177.316118 61.341794 
L 180.101707 66.773551 
L 181.610981 70.370647 
L 184.378211 78.00574 
L 185.697242 82.05561 
L 188.608008 91.732252 
L 192.314108 105.045171 
L 199.631742 131.71329 
L 202.785833 142.199875 
L 204.77743 148.221494 
L 206.660311 153.389447 
L 209.049883 159.108234 
L 210.100033 161.297487 
L 212.897632 166.088849 
L 214.883181 168.525629 
L 215.278823 168.912759 
L 217.291524 170.367852 
L 219.590292 170.975141 
L 220.57217 170.893803 
L 221.932975 170.448914 
L 222.850051 169.934899 
L 224.40243 168.682398 
L 225.343006 167.696049 
L 226.734688 165.933951 
L 228.954105 162.417487 
L 230.421147 159.651459 
L 232.178887 155.917582 
L 234.624904 150.05054 
L 236.568692 144.917809 
L 239.668431 136.073585 
L 245.057843 119.61415 
L 245.057843 119.61415 
" clip-path="url(#pe3417d2daa)" style="fill: none; stroke: #0000ff; stroke-width: 1.5; stroke-linecap: square"/>
   </g>
   <g id="line2d_14">
    <defs>
     <path id="mc2e673ba60" d="M 0 -3 
L -0.673542 -0.927051 
L -2.85317 -0.927051 
L -1.089814 0.354102 
L -1.763356 2.427051 
L -0 1.145898 
L 1.763356 2.427051 
L 1.089814 0.354102 
L 2.85317 -0.927051 
L 0.673542 -0.927051 
z
" style="stroke: #ff0000; stroke-linejoin: bevel"/>
    </defs>
    <g clip-path="url(#pe3417d2daa)">
     <use xlink:href="#mc2e673ba60" x="223.264233" y="174.027049" style="fill: #ff0000; stroke: #ff0000; stroke-linejoin: bevel"/>
    </g>
   </g>
   <g id="patch_3">
    <path d="M 36 192.24 
L 36 25.92 
" style="fill: none; stroke: #000000; stroke-width: 0.8; stroke-linejoin: miter; stroke-linecap: square"/>
   </g>
   <g id="patch_4">
    <path d="M 259.2 192.24 
L 259.2 25.92 
" style="fill: none; stroke: #000000; stroke-width: 0.8; stroke-linejoin: miter; stroke-linecap: square"/>
   </g>
   <g id="patch_5">
    <path d="M 36 192.24 
L 259.2 192.24 
" style="fill: none; stroke: #000000; stroke-width: 0.8; stroke-linejoin: miter; stroke-linecap: square"/>
   </g>
   <g id="patch_6">
    <path d="M 36 25.92 
L 259.2 25.92 
" style="fill: none; stroke: #000000; stroke-width: 0.8; stroke-linejoin: miter; stroke-linecap: square"/>
   </g>
   <g id="legend_1">
    <g id="patch_7">
     <path d="M 127.071875 92.6325 
L 252.2 92.6325 
Q 254.2 92.6325 254.2 90.6325 
L 254.2 32.92 
Q 254.2 30.92 252.2 30.92 
L 127.071875 30.92 
Q 125.071875 30.92 125.071875 32.92 
L 125.071875 90.6325 
Q 125.071875 92.6325 127.071875 92.6325 
z
" style="fill: #ffffff; opacity: 0.8; stroke: #cccccc; stroke-linejoin: miter"/>
    </g>
    <g id="line2d_15">
     <g>
      <use xlink:href="#ma1a18db0c5" x="139.071875" y="39.018438" style="stroke: #000000; stroke-linejoin: bevel"/>
     </g>
    </g>
    <g id="text_11">
     <!-- Training Points -->
     <g transform="translate(157.071875 42.518438) scale(0.1 -0.1)">
      <defs>
       <path id="DejaVuSans-54" d="M -19 4666 
L 3928 4666 
L 3928 4134 
L 2272 4134 
L 2272 0 
L 1638 0 
L 1638 4134 
L -19 4134 
L -19 4666 
z
" transform="scale(0.015625)"/>
       <path id="DejaVuSans-72" d="M 2631 2963 
Q 2534 3019 2420 3045 
Q 2306 3072 2169 3072 
Q 1681 3072 1420 2755 
Q 1159 2438 1159 1844 
L 1159 0 
L 581 0 
L 581 3500 
L 1159 3500 
L 1159 2956 
Q 1341 3275 1631 3429 
Q 1922 3584 2338 3584 
Q 2397 3584 2469 3576 
Q 2541 3569 2628 3553 
L 2631 2963 
z
" transform="scale(0.015625)"/>
       <path id="DejaVuSans-61" d="M 2194 1759 
Q 1497 1759 1228 1600 
Q 959 1441 959 1056 
Q 959 750 1161 570 
Q 1363 391 1709 391 
Q 2188 391 2477 730 
Q 2766 1069 2766 1631 
L 2766 1759 
L 2194 1759 
z
M 3341 1997 
L 3341 0 
L 2766 0 
L 2766 531 
Q 2569 213 2275 61 
Q 1981 -91 1556 -91 
Q 1019 -91 701 211 
Q 384 513 384 1019 
Q 384 1609 779 1909 
Q 1175 2209 1959 2209 
L 2766 2209 
L 2766 2266 
Q 2766 2663 2505 2880 
Q 2244 3097 1772 3097 
Q 1472 3097 1187 3025 
Q 903 2953 641 2809 
L 641 3341 
Q 956 3463 1253 3523 
Q 1550 3584 1831 3584 
Q 2591 3584 2966 3190 
Q 3341 2797 3341 1997 
z
" transform="scale(0.015625)"/>
       <path id="DejaVuSans-69" d="M 603 3500 
L 1178 3500 
L 1178 0 
L 603 0 
L 603 3500 
z
M 603 4863 
L 1178 4863 
L 1178 4134 
L 603 4134 
L 603 4863 
z
" transform="scale(0.015625)"/>
       <path id="DejaVuSans-6e" d="M 3513 2113 
L 3513 0 
L 2938 0 
L 2938 2094 
Q 2938 2591 2744 2837 
Q 2550 3084 2163 3084 
Q 1697 3084 1428 2787 
Q 1159 2491 1159 1978 
L 1159 0 
L 581 0 
L 581 3500 
L 1159 3500 
L 1159 2956 
Q 1366 3272 1645 3428 
Q 1925 3584 2291 3584 
Q 2894 3584 3203 3211 
Q 3513 2838 3513 2113 
z
" transform="scale(0.015625)"/>
       <path id="DejaVuSans-67" d="M 2906 1791 
Q 2906 2416 2648 2759 
Q 2391 3103 1925 3103 
Q 1463 3103 1205 2759 
Q 947 2416 947 1791 
Q 947 1169 1205 825 
Q 1463 481 1925 481 
Q 2391 481 2648 825 
Q 2906 1169 2906 1791 
z
M 3481 434 
Q 3481 -459 3084 -895 
Q 2688 -1331 1869 -1331 
Q 1566 -1331 1297 -1286 
Q 1028 -1241 775 -1147 
L 775 -588 
Q 1028 -725 1275 -790 
Q 1522 -856 1778 -856 
Q 2344 -856 2625 -561 
Q 2906 -266 2906 331 
L 2906 616 
Q 2728 306 2450 153 
Q 2172 0 1784 0 
Q 1141 0 747 490 
Q 353 981 353 1791 
Q 353 2603 747 3093 
Q 1141 3584 1784 3584 
Q 2172 3584 2450 3431 
Q 2728 3278 2906 2969 
L 2906 3500 
L 3481 3500 
L 3481 434 
z
" transform="scale(0.015625)"/>
       <path id="DejaVuSans-20" transform="scale(0.015625)"/>
       <path id="DejaVuSans-50" d="M 1259 4147 
L 1259 2394 
L 2053 2394 
Q 2494 2394 2734 2622 
Q 2975 2850 2975 3272 
Q 2975 3691 2734 3919 
Q 2494 4147 2053 4147 
L 1259 4147 
z
M 628 4666 
L 2053 4666 
Q 2838 4666 3239 4311 
Q 3641 3956 3641 3272 
Q 3641 2581 3239 2228 
Q 2838 1875 2053 1875 
L 1259 1875 
L 1259 0 
L 628 0 
L 628 4666 
z
" transform="scale(0.015625)"/>
       <path id="DejaVuSans-6f" d="M 1959 3097 
Q 1497 3097 1228 2736 
Q 959 2375 959 1747 
Q 959 1119 1226 758 
Q 1494 397 1959 397 
Q 2419 397 2687 759 
Q 2956 1122 2956 1747 
Q 2956 2369 2687 2733 
Q 2419 3097 1959 3097 
z
M 1959 3584 
Q 2709 3584 3137 3096 
Q 3566 2609 3566 1747 
Q 3566 888 3137 398 
Q 2709 -91 1959 -91 
Q 1206 -91 779 398 
Q 353 888 353 1747 
Q 353 2609 779 3096 
Q 1206 3584 1959 3584 
z
" transform="scale(0.015625)"/>
       <path id="DejaVuSans-74" d="M 1172 4494 
L 1172 3500 
L 2356 3500 
L 2356 3053 
L 1172 3053 
L 1172 1153 
Q 1172 725 1289 603 
Q 1406 481 1766 481 
L 2356 481 
L 2356 0 
L 1766 0 
Q 1100 0 847 248 
Q 594 497 594 1153 
L 594 3053 
L 172 3053 
L 172 3500 
L 594 3500 
L 594 4494 
L 1172 4494 
z
" transform="scale(0.015625)"/>
       <path id="DejaVuSans-73" d="M 2834 3397 
L 2834 2853 
Q 2591 2978 2328 3040 
Q 2066 3103 1784 3103 
Q 1356 3103 1142 2972 
Q 928 2841 928 2578 
Q 928 2378 1081 2264 
Q 1234 2150 1697 2047 
L 1894 2003 
Q 2506 1872 2764 1633 
Q 3022 1394 3022 966 
Q 3022 478 2636 193 
Q 2250 -91 1575 -91 
Q 1294 -91 989 -36 
Q 684 19 347 128 
L 347 722 
Q 666 556 975 473 
Q 1284 391 1588 391 
Q 1994 391 2212 530 
Q 2431 669 2431 922 
Q 2431 1156 2273 1281 
Q 2116 1406 1581 1522 
L 1381 1569 
Q 847 1681 609 1914 
Q 372 2147 372 2553 
Q 372 3047 722 3315 
Q 1072 3584 1716 3584 
Q 2034 3584 2315 3537 
Q 2597 3491 2834 3397 
z
" transform="scale(0.015625)"/>
      </defs>
      <use xlink:href="#DejaVuSans-54"/>
      <use xlink:href="#DejaVuSans-72" x="46.333984"/>
      <use xlink:href="#DejaVuSans-61" x="87.447266"/>
      <use xlink:href="#DejaVuSans-69" x="148.726562"/>
      <use xlink:href="#DejaVuSans-6e" x="176.509766"/>
      <use xlink:href="#DejaVuSans-69" x="239.888672"/>
      <use xlink:href="#DejaVuSans-6e" x="267.671875"/>
      <use xlink:href="#DejaVuSans-67" x="331.050781"/>
      <use xlink:href="#DejaVuSans-20" x="394.527344"/>
      <use xlink:href="#DejaVuSans-50" x="426.314453"/>
      <use xlink:href="#DejaVuSans-6f" x="482.992188"/>
      <use xlink:href="#DejaVuSans-69" x="544.173828"/>
      <use xlink:href="#DejaVuSans-6e" x="571.957031"/>
      <use xlink:href="#DejaVuSans-74" x="635.335938"/>
      <use xlink:href="#DejaVuSans-73" x="674.544922"/>
     </g>
    </g>
    <g id="line2d_16">
     <path d="M 129.071875 53.696562 
L 139.071875 53.696562 
L 149.071875 53.696562 
" style="fill: none; stroke: #ffa500; stroke-width: 1.5; stroke-linecap: square"/>
    </g>
    <g id="text_12">
     <!-- Objective Function -->
     <g transform="translate(157.071875 57.196562) scale(0.1 -0.1)">
      <defs>
       <path id="DejaVuSans-4f" d="M 2522 4238 
Q 1834 4238 1429 3725 
Q 1025 3213 1025 2328 
Q 1025 1447 1429 934 
Q 1834 422 2522 422 
Q 3209 422 3611 934 
Q 4013 1447 4013 2328 
Q 4013 3213 3611 3725 
Q 3209 4238 2522 4238 
z
M 2522 4750 
Q 3503 4750 4090 4092 
Q 4678 3434 4678 2328 
Q 4678 1225 4090 567 
Q 3503 -91 2522 -91 
Q 1538 -91 948 565 
Q 359 1222 359 2328 
Q 359 3434 948 4092 
Q 1538 4750 2522 4750 
z
" transform="scale(0.015625)"/>
       <path id="DejaVuSans-62" d="M 3116 1747 
Q 3116 2381 2855 2742 
Q 2594 3103 2138 3103 
Q 1681 3103 1420 2742 
Q 1159 2381 1159 1747 
Q 1159 1113 1420 752 
Q 1681 391 2138 391 
Q 2594 391 2855 752 
Q 3116 1113 3116 1747 
z
M 1159 2969 
Q 1341 3281 1617 3432 
Q 1894 3584 2278 3584 
Q 2916 3584 3314 3078 
Q 3713 2572 3713 1747 
Q 3713 922 3314 415 
Q 2916 -91 2278 -91 
Q 1894 -91 1617 61 
Q 1341 213 1159 525 
L 1159 0 
L 581 0 
L 581 4863 
L 1159 4863 
L 1159 2969 
z
" transform="scale(0.015625)"/>
       <path id="DejaVuSans-6a" d="M 603 3500 
L 1178 3500 
L 1178 -63 
Q 1178 -731 923 -1031 
Q 669 -1331 103 -1331 
L -116 -1331 
L -116 -844 
L 38 -844 
Q 366 -844 484 -692 
Q 603 -541 603 -63 
L 603 3500 
z
M 603 4863 
L 1178 4863 
L 1178 4134 
L 603 4134 
L 603 4863 
z
" transform="scale(0.015625)"/>
       <path id="DejaVuSans-65" d="M 3597 1894 
L 3597 1613 
L 953 1613 
Q 991 1019 1311 708 
Q 1631 397 2203 397 
Q 2534 397 2845 478 
Q 3156 559 3463 722 
L 3463 178 
Q 3153 47 2828 -22 
Q 2503 -91 2169 -91 
Q 1331 -91 842 396 
Q 353 884 353 1716 
Q 353 2575 817 3079 
Q 1281 3584 2069 3584 
Q 2775 3584 3186 3129 
Q 3597 2675 3597 1894 
z
M 3022 2063 
Q 3016 2534 2758 2815 
Q 2500 3097 2075 3097 
Q 1594 3097 1305 2825 
Q 1016 2553 972 2059 
L 3022 2063 
z
" transform="scale(0.015625)"/>
       <path id="DejaVuSans-63" d="M 3122 3366 
L 3122 2828 
Q 2878 2963 2633 3030 
Q 2388 3097 2138 3097 
Q 1578 3097 1268 2742 
Q 959 2388 959 1747 
Q 959 1106 1268 751 
Q 1578 397 2138 397 
Q 2388 397 2633 464 
Q 2878 531 3122 666 
L 3122 134 
Q 2881 22 2623 -34 
Q 2366 -91 2075 -91 
Q 1284 -91 818 406 
Q 353 903 353 1747 
Q 353 2603 823 3093 
Q 1294 3584 2113 3584 
Q 2378 3584 2631 3529 
Q 2884 3475 3122 3366 
z
" transform="scale(0.015625)"/>
       <path id="DejaVuSans-76" d="M 191 3500 
L 800 3500 
L 1894 563 
L 2988 3500 
L 3597 3500 
L 2284 0 
L 1503 0 
L 191 3500 
z
" transform="scale(0.015625)"/>
       <path id="DejaVuSans-46" d="M 628 4666 
L 3309 4666 
L 3309 4134 
L 1259 4134 
L 1259 2759 
L 3109 2759 
L 3109 2228 
L 1259 2228 
L 1259 0 
L 628 0 
L 628 4666 
z
" transform="scale(0.015625)"/>
       <path id="DejaVuSans-75" d="M 544 1381 
L 544 3500 
L 1119 3500 
L 1119 1403 
Q 1119 906 1312 657 
Q 1506 409 1894 409 
Q 2359 409 2629 706 
Q 2900 1003 2900 1516 
L 2900 3500 
L 3475 3500 
L 3475 0 
L 2900 0 
L 2900 538 
Q 2691 219 2414 64 
Q 2138 -91 1772 -91 
Q 1169 -91 856 284 
Q 544 659 544 1381 
z
M 1991 3584 
L 1991 3584 
z
" transform="scale(0.015625)"/>
      </defs>
      <use xlink:href="#DejaVuSans-4f"/>
      <use xlink:href="#DejaVuSans-62" x="78.710938"/>
      <use xlink:href="#DejaVuSans-6a" x="142.1875"/>
      <use xlink:href="#DejaVuSans-65" x="169.970703"/>
      <use xlink:href="#DejaVuSans-63" x="231.494141"/>
      <use xlink:href="#DejaVuSans-74" x="286.474609"/>
      <use xlink:href="#DejaVuSans-69" x="325.683594"/>
      <use xlink:href="#DejaVuSans-76" x="353.466797"/>
      <use xlink:href="#DejaVuSans-65" x="412.646484"/>
      <use xlink:href="#DejaVuSans-20" x="474.169922"/>
      <use xlink:href="#DejaVuSans-46" x="505.957031"/>
      <use xlink:href="#DejaVuSans-75" x="557.976562"/>
      <use xlink:href="#DejaVuSans-6e" x="621.355469"/>
      <use xlink:href="#DejaVuSans-63" x="684.734375"/>
      <use xlink:href="#DejaVuSans-74" x="739.714844"/>
      <use xlink:href="#DejaVuSans-69" x="778.923828"/>
      <use xlink:href="#DejaVuSans-6f" x="806.707031"/>
      <use xlink:href="#DejaVuSans-6e" x="867.888672"/>
     </g>
    </g>
    <g id="line2d_17">
     <path d="M 129.071875 68.374687 
L 139.071875 68.374687 
L 149.071875 68.374687 
" style="fill: none; stroke: #0000ff; stroke-width: 1.5; stroke-linecap: square"/>
    </g>
    <g id="text_13">
     <!-- Model Prediction -->
     <g transform="translate(157.071875 71.874687) scale(0.1 -0.1)">
      <defs>
       <path id="DejaVuSans-4d" d="M 628 4666 
L 1569 4666 
L 2759 1491 
L 3956 4666 
L 4897 4666 
L 4897 0 
L 4281 0 
L 4281 4097 
L 3078 897 
L 2444 897 
L 1241 4097 
L 1241 0 
L 628 0 
L 628 4666 
z
" transform="scale(0.015625)"/>
       <path id="DejaVuSans-64" d="M 2906 2969 
L 2906 4863 
L 3481 4863 
L 3481 0 
L 2906 0 
L 2906 525 
Q 2725 213 2448 61 
Q 2172 -91 1784 -91 
Q 1150 -91 751 415 
Q 353 922 353 1747 
Q 353 2572 751 3078 
Q 1150 3584 1784 3584 
Q 2172 3584 2448 3432 
Q 2725 3281 2906 2969 
z
M 947 1747 
Q 947 1113 1208 752 
Q 1469 391 1925 391 
Q 2381 391 2643 752 
Q 2906 1113 2906 1747 
Q 2906 2381 2643 2742 
Q 2381 3103 1925 3103 
Q 1469 3103 1208 2742 
Q 947 2381 947 1747 
z
" transform="scale(0.015625)"/>
       <path id="DejaVuSans-6c" d="M 603 4863 
L 1178 4863 
L 1178 0 
L 603 0 
L 603 4863 
z
" transform="scale(0.015625)"/>
      </defs>
      <use xlink:href="#DejaVuSans-4d"/>
      <use xlink:href="#DejaVuSans-6f" x="86.279297"/>
      <use xlink:href="#DejaVuSans-64" x="147.460938"/>
      <use xlink:href="#DejaVuSans-65" x="210.9375"/>
      <use xlink:href="#DejaVuSans-6c" x="272.460938"/>
      <use xlink:href="#DejaVuSans-20" x="300.244141"/>
      <use xlink:href="#DejaVuSans-50" x="332.03125"/>
      <use xlink:href="#DejaVuSans-72" x="390.583984"/>
      <use xlink:href="#DejaVuSans-65" x="429.447266"/>
      <use xlink:href="#DejaVuSans-64" x="490.970703"/>
      <use xlink:href="#DejaVuSans-69" x="554.447266"/>
      <use xlink:href="#DejaVuSans-63" x="582.230469"/>
      <use xlink:href="#DejaVuSans-74" x="637.210938"/>
      <use xlink:href="#DejaVuSans-69" x="676.419922"/>
      <use xlink:href="#DejaVuSans-6f" x="704.203125"/>
      <use xlink:href="#DejaVuSans-6e" x="765.384766"/>
     </g>
    </g>
    <g id="line2d_18">
     <g>
      <use xlink:href="#mc2e673ba60" x="139.071875" y="83.052813" style="fill: #ff0000; stroke: #ff0000; stroke-linejoin: bevel"/>
     </g>
    </g>
    <g id="text_14">
     <!-- Next Point -->
     <g transform="translate(157.071875 86.552813) scale(0.1 -0.1)">
      <defs>
       <path id="DejaVuSans-4e" d="M 628 4666 
L 1478 4666 
L 3547 763 
L 3547 4666 
L 4159 4666 
L 4159 0 
L 3309 0 
L 1241 3903 
L 1241 0 
L 628 0 
L 628 4666 
z
" transform="scale(0.015625)"/>
       <path id="DejaVuSans-78" d="M 3513 3500 
L 2247 1797 
L 3578 0 
L 2900 0 
L 1881 1375 
L 863 0 
L 184 0 
L 1544 1831 
L 300 3500 
L 978 3500 
L 1906 2253 
L 2834 3500 
L 3513 3500 
z
" transform="scale(0.015625)"/>
      </defs>
      <use xlink:href="#DejaVuSans-4e"/>
      <use xlink:href="#DejaVuSans-65" x="74.804688"/>
      <use xlink:href="#DejaVuSans-78" x="134.578125"/>
      <use xlink:href="#DejaVuSans-74" x="193.757812"/>
      <use xlink:href="#DejaVuSans-20" x="232.966797"/>
      <use xlink:href="#DejaVuSans-50" x="264.753906"/>
      <use xlink:href="#DejaVuSans-6f" x="321.431641"/>
      <use xlink:href="#DejaVuSans-69" x="382.613281"/>
      <use xlink:href="#DejaVuSans-6e" x="410.396484"/>
      <use xlink:href="#DejaVuSans-74" x="473.775391"/>
     </g>
    </g>
   </g>
  </g>
 </g>
 <defs>
  <clipPath id="pe3417d2daa">
   <rect x="36" y="25.92" width="223.2" height="166.32"/>
  </clipPath>
 </defs>
</svg>
